<svg width="238" height="229" viewBox="0 0 238 229" fill="none" xmlns="http://www.w3.org/2000/svg">
<g filter="url(#filter0_d_5551_27798)">
<rect x="6" y="6" width="207" height="197.272" rx="16" fill="#FFCF54"/>
<path d="M39.3125 55V34.6364H53.9886V39.0909H44.8409V42.5909H53.233V47.0455H44.8409V50.5455H53.9489V55H39.3125ZM62.3384 55.1989C61.2513 55.1989 60.2504 54.9138 59.3356 54.3438C58.4274 53.7737 57.6983 52.9086 57.1481 51.7486C56.6045 50.5885 56.3327 49.1269 56.3327 47.3636C56.3327 45.5208 56.6178 44.0227 57.1879 42.8693C57.7646 41.7159 58.507 40.8707 59.4151 40.3338C60.3299 39.7969 61.2911 39.5284 62.2987 39.5284C63.0543 39.5284 63.7172 39.661 64.2873 39.9261C64.8574 40.1847 65.3346 40.5327 65.7191 40.9702C66.1036 41.401 66.3952 41.875 66.5941 42.392H66.6737V34.6364H72.1623V55H66.7134V52.4943H66.5941C66.382 53.0114 66.0771 53.4754 65.6793 53.8864C65.2882 54.2907 64.811 54.6122 64.2475 54.8509C63.6907 55.0829 63.0543 55.1989 62.3384 55.1989ZM64.3668 50.983C64.8706 50.983 65.3015 50.8371 65.6594 50.5455C66.024 50.2472 66.3024 49.8295 66.4947 49.2926C66.6935 48.7491 66.793 48.1061 66.793 47.3636C66.793 46.608 66.6935 45.9616 66.4947 45.4247C66.3024 44.8812 66.024 44.4669 65.6594 44.1818C65.3015 43.8902 64.8706 43.7443 64.3668 43.7443C63.863 43.7443 63.4322 43.8902 63.0742 44.1818C62.7229 44.4669 62.4511 44.8812 62.2589 45.4247C62.0733 45.9616 61.9805 46.608 61.9805 47.3636C61.9805 48.1193 62.0733 48.7689 62.2589 49.3125C62.4511 49.8494 62.7229 50.2637 63.0742 50.5554C63.4322 50.8404 63.863 50.983 64.3668 50.983ZM84.7603 48.3182V39.7273H90.2489V55H85.0387V52.0966H84.8796C84.5482 53.071 83.9682 53.8333 83.1396 54.3835C82.311 54.9271 81.3266 55.1989 80.1864 55.1989C79.1192 55.1989 78.1845 54.9536 77.3825 54.4631C76.587 53.9725 75.9672 53.2964 75.5231 52.4347C75.0856 51.5729 74.8635 50.5852 74.8569 49.4716V39.7273H80.3455V48.3182C80.3522 49.0739 80.5444 49.6671 80.9222 50.098C81.3067 50.5289 81.8436 50.7443 82.533 50.7443C82.9904 50.7443 83.3848 50.6482 83.7163 50.456C84.0543 50.2571 84.3129 49.9787 84.4918 49.6207C84.6774 49.2562 84.7669 48.822 84.7603 48.3182ZM100.398 55.2784C98.7412 55.2784 97.3227 54.9503 96.1428 54.294C94.9628 53.6312 94.058 52.7098 93.4283 51.5298C92.7985 50.3433 92.4837 48.9678 92.4837 47.4034C92.4837 45.839 92.7985 44.4669 93.4283 43.2869C94.058 42.1004 94.9628 41.179 96.1428 40.5227C97.3227 39.8598 98.7412 39.5284 100.398 39.5284C101.897 39.5284 103.192 39.8002 104.286 40.3438C105.387 40.8807 106.238 41.643 106.842 42.6307C107.445 43.6117 107.75 44.7652 107.756 46.0909H102.665C102.593 45.2888 102.361 44.679 101.969 44.2614C101.585 43.8371 101.088 43.625 100.478 43.625C100.001 43.625 99.5831 43.7642 99.2251 44.0426C98.8672 44.3144 98.5888 44.7287 98.3899 45.2855C98.1911 45.8357 98.0916 46.5284 98.0916 47.3636C98.0916 48.1989 98.1911 48.8949 98.3899 49.4517C98.5888 50.0019 98.8672 50.4162 99.2251 50.6946C99.5831 50.9664 100.001 51.1023 100.478 51.1023C100.882 51.1023 101.24 51.0095 101.552 50.8239C101.863 50.6316 102.115 50.3532 102.308 49.9886C102.506 49.6174 102.626 49.1667 102.665 48.6364H107.756C107.737 49.982 107.428 51.1553 106.832 52.1562C106.235 53.1506 105.39 53.9195 104.296 54.4631C103.209 55.0066 101.91 55.2784 100.398 55.2784ZM114.277 55.2386C113.302 55.2386 112.44 55.0795 111.691 54.7614C110.949 54.4366 110.366 53.946 109.941 53.2898C109.517 52.6335 109.305 51.7983 109.305 50.7841C109.305 49.9489 109.448 49.2363 109.733 48.6463C110.018 48.0497 110.415 47.5625 110.926 47.1847C111.436 46.8068 112.029 46.5185 112.706 46.3196C113.388 46.1207 114.124 45.9915 114.913 45.9318C115.768 45.8655 116.454 45.786 116.971 45.6932C117.495 45.5937 117.873 45.4579 118.105 45.2855C118.337 45.1065 118.453 44.8712 118.453 44.5795V44.5398C118.453 44.142 118.3 43.8371 117.995 43.625C117.69 43.4129 117.299 43.3068 116.822 43.3068C116.298 43.3068 115.871 43.4228 115.539 43.6548C115.215 43.8802 115.019 44.2282 114.953 44.6989H109.902C109.968 43.7708 110.263 42.9157 110.787 42.1335C111.317 41.3447 112.089 40.715 113.103 40.2443C114.118 39.767 115.384 39.5284 116.902 39.5284C117.995 39.5284 118.976 39.6577 119.845 39.9162C120.713 40.1681 121.452 40.5227 122.062 40.9801C122.672 41.4309 123.136 41.9612 123.454 42.571C123.779 43.1742 123.941 43.8305 123.941 44.5398V55H118.811V52.8523H118.691C118.386 53.4223 118.015 53.883 117.578 54.2344C117.147 54.5857 116.653 54.8409 116.096 55C115.546 55.1591 114.94 55.2386 114.277 55.2386ZM116.066 51.7784C116.484 51.7784 116.875 51.6922 117.24 51.5199C117.611 51.3475 117.913 51.099 118.145 50.7741C118.377 50.4493 118.493 50.0549 118.493 49.5909V48.3182C118.347 48.3778 118.191 48.4342 118.025 48.4872C117.866 48.5402 117.694 48.59 117.508 48.6364C117.329 48.6828 117.137 48.7259 116.931 48.7656C116.733 48.8054 116.524 48.8419 116.305 48.875C115.881 48.9413 115.533 49.0507 115.261 49.2031C114.996 49.349 114.797 49.5312 114.664 49.75C114.538 49.9621 114.475 50.2008 114.475 50.4659C114.475 50.8902 114.625 51.215 114.923 51.4403C115.221 51.6657 115.602 51.7784 116.066 51.7784ZM135.672 39.7273V43.7045H125.609V39.7273H135.672ZM127.558 36.0682H133.047V50.0881C133.047 50.3002 133.083 50.4792 133.156 50.625C133.229 50.7642 133.342 50.8703 133.494 50.9432C133.647 51.0095 133.842 51.0426 134.081 51.0426C134.247 51.0426 134.439 51.0227 134.658 50.983C134.883 50.9432 135.049 50.91 135.155 50.8835L135.95 54.7415C135.705 54.8144 135.354 54.9039 134.896 55.0099C134.446 55.116 133.909 55.1856 133.286 55.2188C132.026 55.285 130.969 55.1558 130.114 54.831C129.259 54.4995 128.616 53.9792 128.185 53.2699C127.754 52.5606 127.545 51.6723 127.558 50.6051V36.0682ZM137.912 55V39.7273H143.4V55H137.912ZM140.656 38.1364C139.913 38.1364 139.277 37.8911 138.747 37.4006C138.217 36.91 137.951 36.3201 137.951 35.6307C137.951 34.9413 138.217 34.3513 138.747 33.8608C139.277 33.3703 139.913 33.125 140.656 33.125C141.405 33.125 142.041 33.3703 142.565 33.8608C143.095 34.3513 143.36 34.9413 143.36 35.6307C143.36 36.3201 143.095 36.91 142.565 37.4006C142.041 37.8911 141.405 38.1364 140.656 38.1364ZM153.555 55.2784C151.897 55.2784 150.479 54.9503 149.299 54.294C148.119 53.6312 147.214 52.7098 146.585 51.5298C145.955 50.3433 145.64 48.9678 145.64 47.4034C145.64 45.839 145.955 44.4669 146.585 43.2869C147.214 42.1004 148.119 41.179 149.299 40.5227C150.479 39.8598 151.897 39.5284 153.555 39.5284C155.212 39.5284 156.63 39.8598 157.81 40.5227C158.99 41.179 159.895 42.1004 160.525 43.2869C161.155 44.4669 161.469 45.839 161.469 47.4034C161.469 48.9678 161.155 50.3433 160.525 51.5298C159.895 52.7098 158.99 53.6312 157.81 54.294C156.63 54.9503 155.212 55.2784 153.555 55.2784ZM153.594 51.2216C154.058 51.2216 154.46 51.0658 154.798 50.7543C155.136 50.4427 155.397 49.9986 155.583 49.4219C155.769 48.8452 155.862 48.1591 155.862 47.3636C155.862 46.5616 155.769 45.8755 155.583 45.3054C155.397 44.7287 155.136 44.2846 154.798 43.973C154.46 43.6615 154.058 43.5057 153.594 43.5057C153.104 43.5057 152.683 43.6615 152.332 43.973C151.98 44.2846 151.712 44.7287 151.526 45.3054C151.341 45.8755 151.248 46.5616 151.248 47.3636C151.248 48.1591 151.341 48.8452 151.526 49.4219C151.712 49.9986 151.98 50.4427 152.332 50.7543C152.683 51.0658 153.104 51.2216 153.594 51.2216ZM169.185 46.4091V55H163.697V39.7273H168.907V42.6307H169.066C169.397 41.6629 169.981 40.9039 170.816 40.3537C171.658 39.8035 172.639 39.5284 173.759 39.5284C174.84 39.5284 175.778 39.777 176.573 40.2741C177.375 40.7647 177.995 41.4408 178.433 42.3026C178.877 43.1643 179.095 44.1487 179.089 45.2557V55H173.6V46.4091C173.607 45.6534 173.415 45.0601 173.023 44.6293C172.639 44.1984 172.102 43.983 171.413 43.983C170.962 43.983 170.567 44.0824 170.229 44.2812C169.898 44.4735 169.643 44.7519 169.464 45.1165C169.285 45.4744 169.192 45.9053 169.185 46.4091Z" fill="#615E4A"/>
<path d="M26.233 94V83.8182H27.4659V92.9062H32.1989V94H26.233ZM37.0511 94.1591C36.3617 94.1591 35.7569 93.995 35.2365 93.6669C34.7195 93.3388 34.3151 92.8797 34.0234 92.2898C33.7351 91.6998 33.5909 91.0104 33.5909 90.2216C33.5909 89.4261 33.7351 88.7318 34.0234 88.1385C34.3151 87.5452 34.7195 87.0845 35.2365 86.7564C35.7569 86.4283 36.3617 86.2642 37.0511 86.2642C37.7405 86.2642 38.3438 86.4283 38.8608 86.7564C39.3812 87.0845 39.7855 87.5452 40.0739 88.1385C40.3655 88.7318 40.5114 89.4261 40.5114 90.2216C40.5114 91.0104 40.3655 91.6998 40.0739 92.2898C39.7855 92.8797 39.3812 93.3388 38.8608 93.6669C38.3438 93.995 37.7405 94.1591 37.0511 94.1591ZM37.0511 93.1051C37.5748 93.1051 38.0057 92.9709 38.3438 92.7024C38.6818 92.4339 38.9321 92.081 39.0945 91.6435C39.2569 91.206 39.3381 90.732 39.3381 90.2216C39.3381 89.7112 39.2569 89.2356 39.0945 88.7947C38.9321 88.3539 38.6818 87.9976 38.3438 87.7259C38.0057 87.4541 37.5748 87.3182 37.0511 87.3182C36.5275 87.3182 36.0966 87.4541 35.7585 87.7259C35.4205 87.9976 35.1702 88.3539 35.0078 88.7947C34.8454 89.2356 34.7642 89.7112 34.7642 90.2216C34.7642 90.732 34.8454 91.206 35.0078 91.6435C35.1702 92.081 35.4205 92.4339 35.7585 92.7024C36.0966 92.9709 36.5275 93.1051 37.0511 93.1051ZM42.3024 94V86.3636H43.4359V87.517H43.5154C43.6547 87.1392 43.9065 86.8326 44.2711 86.5973C44.6357 86.362 45.0467 86.2443 45.5041 86.2443C45.5903 86.2443 45.698 86.246 45.8272 86.2493C45.9565 86.2526 46.0543 86.2576 46.1206 86.2642V87.4574C46.0808 87.4474 45.9896 87.4325 45.8471 87.4126C45.7079 87.3894 45.5604 87.3778 45.4047 87.3778C45.0334 87.3778 44.702 87.4557 44.4103 87.6115C44.122 87.764 43.8933 87.9761 43.7243 88.2479C43.5585 88.5163 43.4757 88.8229 43.4757 89.1676V94H42.3024ZM50.4806 94.1591C49.7449 94.1591 49.1101 93.9967 48.5765 93.6719C48.0462 93.3438 47.6369 92.8864 47.3485 92.2997C47.0635 91.7098 46.921 91.0237 46.921 90.2415C46.921 89.4593 47.0635 88.7699 47.3485 88.1733C47.6369 87.5734 48.0379 87.1061 48.5517 86.7713C49.0687 86.4332 49.6719 86.2642 50.3613 86.2642C50.7591 86.2642 51.1518 86.3305 51.5396 86.4631C51.9274 86.5956 52.2804 86.8111 52.5985 87.1094C52.9167 87.4044 53.1703 87.7955 53.3592 88.2827C53.5481 88.7699 53.6426 89.3698 53.6426 90.0824V90.5795H47.7562V89.5653H52.4494C52.4494 89.1345 52.3632 88.75 52.1909 88.4119C52.0218 88.0739 51.7799 87.8071 51.465 87.6115C51.1535 87.416 50.7856 87.3182 50.3613 87.3182C49.894 87.3182 49.4896 87.4342 49.1483 87.6662C48.8102 87.8949 48.55 88.1932 48.3677 88.5611C48.1854 88.929 48.0943 89.3234 48.0943 89.7443V90.4205C48.0943 90.9972 48.1937 91.486 48.3926 91.8871C48.5948 92.2848 48.8748 92.5881 49.2328 92.7969C49.5907 93.0024 50.0067 93.1051 50.4806 93.1051C50.7889 93.1051 51.0673 93.062 51.3159 92.9759C51.5678 92.8864 51.7849 92.7538 51.9672 92.5781C52.1494 92.3991 52.2903 92.1771 52.3897 91.9119L53.5233 92.2301C53.4039 92.6146 53.2034 92.9527 52.9217 93.2443C52.64 93.5327 52.292 93.758 51.8777 93.9205C51.4634 94.0795 50.9977 94.1591 50.4806 94.1591ZM55.4274 94V86.3636H56.5609V87.5568H56.6603C56.8194 87.1491 57.0763 86.8326 57.4309 86.6072C57.7856 86.3786 58.2115 86.2642 58.7086 86.2642C59.2124 86.2642 59.6317 86.3786 59.9664 86.6072C60.3045 86.8326 60.568 87.1491 60.7569 87.5568H60.8365C61.032 87.1624 61.3253 86.8492 61.7164 86.6172C62.1075 86.3819 62.5765 86.2642 63.1234 86.2642C63.8062 86.2642 64.3646 86.478 64.7988 86.9055C65.233 87.3298 65.4501 87.991 65.4501 88.8892V94H64.2768V88.8892C64.2768 88.3258 64.1227 87.9231 63.8145 87.6811C63.5062 87.4392 63.1433 87.3182 62.7257 87.3182C62.1887 87.3182 61.7728 87.4806 61.4778 87.8054C61.1828 88.1269 61.0353 88.5346 61.0353 89.0284V94H59.8422V88.7699C59.8422 88.3357 59.7013 87.986 59.4196 87.7209C59.1378 87.4524 58.7749 87.3182 58.3308 87.3182C58.0259 87.3182 57.7408 87.3994 57.4757 87.5618C57.2138 87.7242 57.0017 87.9496 56.8393 88.2379C56.6802 88.523 56.6007 88.8527 56.6007 89.2273V94H55.4274ZM71.5328 94V86.3636H72.7061V94H71.5328ZM72.1294 85.0909C71.9007 85.0909 71.7035 85.013 71.5378 84.8572C71.3754 84.7015 71.2942 84.5142 71.2942 84.2955C71.2942 84.0767 71.3754 83.8894 71.5378 83.7337C71.7035 83.5779 71.9007 83.5 72.1294 83.5C72.3581 83.5 72.5537 83.5779 72.7161 83.7337C72.8818 83.8894 72.9647 84.0767 72.9647 84.2955C72.9647 84.5142 72.8818 84.7015 72.7161 84.8572C72.5537 85.013 72.3581 85.0909 72.1294 85.0909ZM74.8551 96.8636V86.3636H75.9886V87.5767H76.1278C76.214 87.4441 76.3333 87.2751 76.4858 87.0696C76.6416 86.8608 76.8636 86.6752 77.152 86.5128C77.4437 86.3471 77.8381 86.2642 78.3352 86.2642C78.9782 86.2642 79.545 86.425 80.0355 86.7464C80.526 87.0679 80.9089 87.5237 81.1839 88.1136C81.459 88.7036 81.5966 89.3996 81.5966 90.2017C81.5966 91.0104 81.459 91.7114 81.1839 92.3047C80.9089 92.8946 80.5277 93.352 80.0405 93.6768C79.5533 93.9983 78.9915 94.1591 78.3551 94.1591C77.8646 94.1591 77.4718 94.0779 77.1768 93.9155C76.8819 93.7498 76.6548 93.5625 76.4957 93.3537C76.3366 93.1416 76.214 92.9659 76.1278 92.8267H76.0284V96.8636H74.8551ZM76.0085 90.1818C76.0085 90.7585 76.093 91.2673 76.2621 91.7081C76.4311 92.1456 76.678 92.4886 77.0028 92.7372C77.3277 92.9825 77.7254 93.1051 78.196 93.1051C78.6866 93.1051 79.0959 92.9759 79.424 92.7173C79.7554 92.4555 80.004 92.1042 80.1697 91.6634C80.3388 91.2192 80.4233 90.7254 80.4233 90.1818C80.4233 89.6449 80.3404 89.161 80.1747 88.7301C80.0123 88.2959 79.7654 87.9529 79.4339 87.701C79.1058 87.4458 78.6932 87.3182 78.196 87.3182C77.7188 87.3182 77.3177 87.4392 76.9929 87.6811C76.6681 87.9197 76.4228 88.2545 76.2571 88.6854C76.0914 89.1129 76.0085 89.6117 76.0085 90.1818ZM88.7955 88.0739L87.7415 88.3722C87.6752 88.1965 87.5774 88.0258 87.4482 87.8601C87.3222 87.6911 87.1499 87.5518 86.9311 87.4425C86.7124 87.3331 86.4323 87.2784 86.0909 87.2784C85.6236 87.2784 85.2341 87.3861 84.9226 87.6016C84.6143 87.8137 84.4602 88.0838 84.4602 88.4119C84.4602 88.7036 84.5663 88.9339 84.7784 89.103C84.9905 89.272 85.322 89.4129 85.7727 89.5256L86.9062 89.804C87.589 89.9697 88.0978 90.2232 88.4325 90.5646C88.7673 90.9027 88.9347 91.3385 88.9347 91.8722C88.9347 92.3097 88.8087 92.7008 88.5568 93.0455C88.3082 93.3902 87.9602 93.6619 87.5128 93.8608C87.0653 94.0597 86.545 94.1591 85.9517 94.1591C85.1728 94.1591 84.5282 93.9901 84.0178 93.652C83.5073 93.3139 83.1842 92.8201 83.0483 92.1705L84.1619 91.892C84.268 92.303 84.4685 92.6113 84.7635 92.8168C85.0618 93.0223 85.4512 93.125 85.9318 93.125C86.4787 93.125 86.9129 93.009 87.2344 92.777C87.5592 92.5417 87.7216 92.2599 87.7216 91.9318C87.7216 91.6667 87.6288 91.4446 87.4432 91.2656C87.2576 91.0833 86.9725 90.9474 86.5881 90.858L85.3153 90.5597C84.616 90.3939 84.1023 90.1371 83.7741 89.7891C83.4493 89.4377 83.2869 88.9986 83.2869 88.4716C83.2869 88.0407 83.4079 87.6596 83.6499 87.3281C83.8951 86.9967 84.2282 86.7365 84.6491 86.5476C85.0734 86.3587 85.554 86.2642 86.0909 86.2642C86.8466 86.2642 87.4399 86.4299 87.8707 86.7614C88.3049 87.0928 88.6132 87.5303 88.7955 88.0739ZM95.5133 90.8778V86.3636H96.6866V94H95.5133V92.7074H95.4338C95.2548 93.0952 94.9764 93.425 94.5985 93.6967C94.2207 93.9652 93.7434 94.0994 93.1667 94.0994C92.6895 94.0994 92.2652 93.995 91.894 93.7862C91.5228 93.5741 91.2311 93.2559 91.019 92.8317C90.8069 92.4041 90.7008 91.8655 90.7008 91.2159V86.3636H91.8741V91.1364C91.8741 91.6932 92.0299 92.1373 92.3414 92.4688C92.6563 92.8002 93.0574 92.9659 93.5446 92.9659C93.8362 92.9659 94.1329 92.8913 94.4345 92.7422C94.7394 92.593 94.9946 92.3643 95.2001 92.0561C95.4089 91.7479 95.5133 91.3551 95.5133 90.8778ZM98.8356 94V86.3636H99.9691V87.5568H100.069C100.228 87.1491 100.484 86.8326 100.839 86.6072C101.194 86.3786 101.62 86.2642 102.117 86.2642C102.621 86.2642 103.04 86.3786 103.375 86.6072C103.713 86.8326 103.976 87.1491 104.165 87.5568H104.245C104.44 87.1624 104.734 86.8492 105.125 86.6172C105.516 86.3819 105.985 86.2642 106.532 86.2642C107.214 86.2642 107.773 86.478 108.207 86.9055C108.641 87.3298 108.858 87.991 108.858 88.8892V94H107.685V88.8892C107.685 88.3258 107.531 87.9231 107.223 87.6811C106.914 87.4392 106.551 87.3182 106.134 87.3182C105.597 87.3182 105.181 87.4806 104.886 87.8054C104.591 88.1269 104.444 88.5346 104.444 89.0284V94H103.25V88.7699C103.25 88.3357 103.109 87.986 102.828 87.7209C102.546 87.4524 102.183 87.3182 101.739 87.3182C101.434 87.3182 101.149 87.3994 100.884 87.5618C100.622 87.7242 100.41 87.9496 100.248 88.2379C100.088 88.523 100.009 88.8527 100.009 89.2273V94H98.8356ZM117.825 94.1591C117.188 94.1591 116.626 93.9983 116.139 93.6768C115.652 93.352 115.271 92.8946 114.996 92.3047C114.721 91.7114 114.583 91.0104 114.583 90.2017C114.583 89.3996 114.721 88.7036 114.996 88.1136C115.271 87.5237 115.654 87.0679 116.144 86.7464C116.635 86.425 117.201 86.2642 117.844 86.2642C118.342 86.2642 118.734 86.3471 119.023 86.5128C119.314 86.6752 119.536 86.8608 119.689 87.0696C119.845 87.2751 119.966 87.4441 120.052 87.5767H120.151V83.8182H121.325V94H120.191V92.8267H120.052C119.966 92.9659 119.843 93.1416 119.684 93.3537C119.525 93.5625 119.298 93.7498 119.003 93.9155C118.708 94.0779 118.315 94.1591 117.825 94.1591ZM117.984 93.1051C118.454 93.1051 118.852 92.9825 119.177 92.7372C119.502 92.4886 119.749 92.1456 119.918 91.7081C120.087 91.2673 120.171 90.7585 120.171 90.1818C120.171 89.6117 120.088 89.1129 119.923 88.6854C119.757 88.2545 119.512 87.9197 119.187 87.6811C118.862 87.4392 118.461 87.3182 117.984 87.3182C117.487 87.3182 117.072 87.4458 116.741 87.701C116.413 87.9529 116.166 88.2959 116 88.7301C115.838 89.161 115.756 89.6449 115.756 90.1818C115.756 90.7254 115.839 91.2192 116.005 91.6634C116.174 92.1042 116.423 92.4555 116.751 92.7173C117.082 92.9759 117.493 93.1051 117.984 93.1051ZM126.739 94.1591C126.049 94.1591 125.444 93.995 124.924 93.6669C124.407 93.3388 124.003 92.8797 123.711 92.2898C123.423 91.6998 123.278 91.0104 123.278 90.2216C123.278 89.4261 123.423 88.7318 123.711 88.1385C124.003 87.5452 124.407 87.0845 124.924 86.7564C125.444 86.4283 126.049 86.2642 126.739 86.2642C127.428 86.2642 128.031 86.4283 128.548 86.7564C129.069 87.0845 129.473 87.5452 129.761 88.1385C130.053 88.7318 130.199 89.4261 130.199 90.2216C130.199 91.0104 130.053 91.6998 129.761 92.2898C129.473 92.8797 129.069 93.3388 128.548 93.6669C128.031 93.995 127.428 94.1591 126.739 94.1591ZM126.739 93.1051C127.262 93.1051 127.693 92.9709 128.031 92.7024C128.369 92.4339 128.62 92.081 128.782 91.6435C128.944 91.206 129.026 90.732 129.026 90.2216C129.026 89.7112 128.944 89.2356 128.782 88.7947C128.62 88.3539 128.369 87.9976 128.031 87.7259C127.693 87.4541 127.262 87.3182 126.739 87.3182C126.215 87.3182 125.784 87.4541 125.446 87.7259C125.108 87.9976 124.858 88.3539 124.695 88.7947C124.533 89.2356 124.452 89.7112 124.452 90.2216C124.452 90.732 124.533 91.206 124.695 91.6435C124.858 92.081 125.108 92.4339 125.446 92.7024C125.784 92.9709 126.215 93.1051 126.739 93.1051ZM133.163 83.8182V94H131.99V83.8182H133.163ZM138.414 94.1591C137.725 94.1591 137.12 93.995 136.6 93.6669C136.083 93.3388 135.678 92.8797 135.387 92.2898C135.098 91.6998 134.954 91.0104 134.954 90.2216C134.954 89.4261 135.098 88.7318 135.387 88.1385C135.678 87.5452 136.083 87.0845 136.6 86.7564C137.12 86.4283 137.725 86.2642 138.414 86.2642C139.104 86.2642 139.707 86.4283 140.224 86.7564C140.744 87.0845 141.149 87.5452 141.437 88.1385C141.729 88.7318 141.875 89.4261 141.875 90.2216C141.875 91.0104 141.729 91.6998 141.437 92.2898C141.149 92.8797 140.744 93.3388 140.224 93.6669C139.707 93.995 139.104 94.1591 138.414 94.1591ZM138.414 93.1051C138.938 93.1051 139.369 92.9709 139.707 92.7024C140.045 92.4339 140.295 92.081 140.458 91.6435C140.62 91.206 140.701 90.732 140.701 90.2216C140.701 89.7112 140.62 89.2356 140.458 88.7947C140.295 88.3539 140.045 87.9976 139.707 87.7259C139.369 87.4541 138.938 87.3182 138.414 87.3182C137.891 87.3182 137.46 87.4541 137.122 87.7259C136.784 87.9976 136.533 88.3539 136.371 88.7947C136.209 89.2356 136.127 89.7112 136.127 90.2216C136.127 90.732 136.209 91.206 136.371 91.6435C136.533 92.081 136.784 92.4339 137.122 92.7024C137.46 92.9709 137.891 93.1051 138.414 93.1051ZM143.666 94V86.3636H144.799V87.517H144.879C145.018 87.1392 145.27 86.8326 145.634 86.5973C145.999 86.362 146.41 86.2443 146.867 86.2443C146.954 86.2443 147.061 86.246 147.191 86.2493C147.32 86.2526 147.418 86.2576 147.484 86.2642V87.4574C147.444 87.4474 147.353 87.4325 147.21 87.4126C147.071 87.3894 146.924 87.3778 146.768 87.3778C146.397 87.3778 146.065 87.4557 145.774 87.6115C145.485 87.764 145.257 87.9761 145.088 88.2479C144.922 88.5163 144.839 88.8229 144.839 89.1676V94H143.666ZM158.221 88.0739L157.167 88.3722C157.101 88.1965 157.003 88.0258 156.874 87.8601C156.748 87.6911 156.576 87.5518 156.357 87.4425C156.138 87.3331 155.858 87.2784 155.517 87.2784C155.049 87.2784 154.66 87.3861 154.348 87.6016C154.04 87.8137 153.886 88.0838 153.886 88.4119C153.886 88.7036 153.992 88.9339 154.204 89.103C154.416 89.272 154.748 89.4129 155.199 89.5256L156.332 89.804C157.015 89.9697 157.524 90.2232 157.858 90.5646C158.193 90.9027 158.36 91.3385 158.36 91.8722C158.36 92.3097 158.234 92.7008 157.983 93.0455C157.734 93.3902 157.386 93.6619 156.939 93.8608C156.491 94.0597 155.971 94.1591 155.377 94.1591C154.599 94.1591 153.954 93.9901 153.444 93.652C152.933 93.3139 152.61 92.8201 152.474 92.1705L153.588 91.892C153.694 92.303 153.894 92.6113 154.189 92.8168C154.488 93.0223 154.877 93.125 155.358 93.125C155.904 93.125 156.339 93.009 156.66 92.777C156.985 92.5417 157.147 92.2599 157.147 91.9318C157.147 91.6667 157.055 91.4446 156.869 91.2656C156.683 91.0833 156.398 90.9474 156.014 90.858L154.741 90.5597C154.042 90.3939 153.528 90.1371 153.2 89.7891C152.875 89.4377 152.713 88.9986 152.713 88.4716C152.713 88.0407 152.834 87.6596 153.076 87.3281C153.321 86.9967 153.654 86.7365 154.075 86.5476C154.499 86.3587 154.98 86.2642 155.517 86.2642C156.272 86.2642 156.866 86.4299 157.297 86.7614C157.731 87.0928 158.039 87.5303 158.221 88.0739ZM160.127 94V86.3636H161.3V94H160.127ZM160.723 85.0909C160.494 85.0909 160.297 85.013 160.132 84.8572C159.969 84.7015 159.888 84.5142 159.888 84.2955C159.888 84.0767 159.969 83.8894 160.132 83.7337C160.297 83.5779 160.494 83.5 160.723 83.5C160.952 83.5 161.147 83.5779 161.31 83.7337C161.476 83.8894 161.558 84.0767 161.558 84.2955C161.558 84.5142 161.476 84.7015 161.31 84.8572C161.147 85.013 160.952 85.0909 160.723 85.0909ZM166.77 86.3636V87.358H162.812V86.3636H166.77ZM163.966 84.5341H165.139V91.8125C165.139 92.1439 165.187 92.3925 165.283 92.5582C165.383 92.7206 165.509 92.83 165.661 92.8864C165.817 92.9394 165.981 92.9659 166.153 92.9659C166.283 92.9659 166.389 92.9593 166.472 92.946C166.554 92.9295 166.621 92.9162 166.67 92.9062L166.909 93.9602C166.83 93.9901 166.719 94.0199 166.576 94.0497C166.433 94.0829 166.253 94.0994 166.034 94.0994C165.703 94.0994 165.378 94.0282 165.06 93.8857C164.745 93.7431 164.483 93.526 164.274 93.2344C164.069 92.9427 163.966 92.5748 163.966 92.1307V84.5341ZM174.719 94.179C174.236 94.179 173.796 94.0878 173.402 93.9055C173.008 93.7199 172.694 93.4531 172.462 93.1051C172.23 92.7538 172.114 92.3295 172.114 91.8324C172.114 91.3949 172.201 91.0402 172.373 90.7685C172.545 90.4934 172.776 90.2779 173.064 90.1222C173.352 89.9664 173.67 89.8504 174.018 89.7741C174.37 89.6946 174.723 89.6316 175.077 89.5852C175.541 89.5256 175.918 89.4808 176.206 89.451C176.498 89.4179 176.71 89.3632 176.842 89.2869C176.978 89.2107 177.046 89.0781 177.046 88.8892V88.8494C177.046 88.3589 176.912 87.9777 176.643 87.706C176.378 87.4342 175.976 87.2983 175.435 87.2983C174.875 87.2983 174.436 87.4209 174.118 87.6662C173.8 87.9115 173.576 88.1733 173.447 88.4517L172.333 88.054C172.532 87.59 172.797 87.2287 173.129 86.9702C173.463 86.7083 173.828 86.526 174.222 86.4233C174.62 86.3172 175.011 86.2642 175.396 86.2642C175.641 86.2642 175.923 86.294 176.241 86.3537C176.562 86.41 176.872 86.5277 177.17 86.7067C177.472 86.8857 177.722 87.1558 177.921 87.517C178.12 87.8783 178.219 88.3622 178.219 88.9688V94H177.046V92.9659H176.987C176.907 93.1316 176.774 93.3089 176.589 93.4979C176.403 93.6868 176.156 93.8475 175.848 93.9801C175.54 94.1127 175.164 94.179 174.719 94.179ZM174.898 93.125C175.362 93.125 175.754 93.0339 176.072 92.8516C176.393 92.6693 176.635 92.4339 176.798 92.1456C176.963 91.8572 177.046 91.554 177.046 91.2358V90.1619C176.996 90.2216 176.887 90.2763 176.718 90.326C176.552 90.3724 176.36 90.4138 176.141 90.4503C175.926 90.4834 175.715 90.5133 175.51 90.5398C175.308 90.563 175.144 90.5829 175.018 90.5994C174.713 90.6392 174.428 90.7038 174.163 90.7933C173.901 90.8795 173.689 91.0104 173.526 91.1861C173.367 91.3584 173.288 91.5937 173.288 91.892C173.288 92.2997 173.438 92.608 173.74 92.8168C174.045 93.0223 174.431 93.125 174.898 93.125ZM180.361 94V86.3636H181.494V87.5568H181.594C181.753 87.1491 182.01 86.8326 182.365 86.6072C182.719 86.3786 183.145 86.2642 183.642 86.2642C184.146 86.2642 184.565 86.3786 184.9 86.6072C185.238 86.8326 185.502 87.1491 185.691 87.5568H185.77C185.966 87.1624 186.259 86.8492 186.65 86.6172C187.041 86.3819 187.51 86.2642 188.057 86.2642C188.74 86.2642 189.298 86.478 189.732 86.9055C190.167 87.3298 190.384 87.991 190.384 88.8892V94H189.21V88.8892C189.21 88.3258 189.056 87.9231 188.748 87.6811C188.44 87.4392 188.077 87.3182 187.659 87.3182C187.122 87.3182 186.706 87.4806 186.411 87.8054C186.116 88.1269 185.969 88.5346 185.969 89.0284V94H184.776V88.7699C184.776 88.3357 184.635 87.986 184.353 87.7209C184.071 87.4524 183.709 87.3182 183.264 87.3182C182.959 87.3182 182.674 87.3994 182.409 87.5618C182.147 87.7242 181.935 87.9496 181.773 88.2379C181.614 88.523 181.534 88.8527 181.534 89.2273V94H180.361ZM195.731 94.1591C194.995 94.1591 194.36 93.9967 193.827 93.6719C193.296 93.3438 192.887 92.8864 192.599 92.2997C192.314 91.7098 192.171 91.0237 192.171 90.2415C192.171 89.4593 192.314 88.7699 192.599 88.1733C192.887 87.5734 193.288 87.1061 193.802 86.7713C194.319 86.4332 194.922 86.2642 195.611 86.2642C196.009 86.2642 196.402 86.3305 196.79 86.4631C197.177 86.5956 197.53 86.8111 197.849 87.1094C198.167 87.4044 198.42 87.7955 198.609 88.2827C198.798 88.7699 198.893 89.3698 198.893 90.0824V90.5795H193.006V89.5653H197.699C197.699 89.1345 197.613 88.75 197.441 88.4119C197.272 88.0739 197.03 87.8071 196.715 87.6115C196.403 87.416 196.036 87.3182 195.611 87.3182C195.144 87.3182 194.74 87.4342 194.398 87.6662C194.06 87.8949 193.8 88.1932 193.618 88.5611C193.435 88.929 193.344 89.3234 193.344 89.7443V90.4205C193.344 90.9972 193.444 91.486 193.643 91.8871C193.845 92.2848 194.125 92.5881 194.483 92.7969C194.841 93.0024 195.257 93.1051 195.731 93.1051C196.039 93.1051 196.317 93.062 196.566 92.9759C196.818 92.8864 197.035 92.7538 197.217 92.5781C197.399 92.3991 197.54 92.1771 197.64 91.9119L198.773 92.2301C198.654 92.6146 198.453 92.9527 198.172 93.2443C197.89 93.5327 197.542 93.758 197.128 93.9205C196.713 94.0795 196.248 94.1591 195.731 94.1591ZM203.998 86.3636V87.358H200.041V86.3636H203.998ZM201.194 84.5341H202.368V91.8125C202.368 92.1439 202.416 92.3925 202.512 92.5582C202.611 92.7206 202.737 92.83 202.89 92.8864C203.046 92.9394 203.21 92.9659 203.382 92.9659C203.511 92.9659 203.617 92.9593 203.7 92.946C203.783 92.9295 203.849 92.9162 203.899 92.9062L204.138 93.9602C204.058 93.9901 203.947 94.0199 203.805 94.0497C203.662 94.0829 203.481 94.0994 203.263 94.0994C202.931 94.0994 202.606 94.0282 202.288 93.8857C201.973 93.7431 201.711 93.526 201.503 93.2344C201.297 92.9427 201.194 92.5748 201.194 92.1307V84.5341ZM29.1761 118.159C28.4602 118.159 27.8438 117.99 27.3267 117.652C26.8097 117.314 26.4119 116.848 26.1335 116.255C25.8551 115.662 25.7159 114.984 25.7159 114.222C25.7159 113.446 25.8584 112.762 26.1435 112.168C26.4318 111.572 26.8329 111.106 27.3466 110.771C27.8636 110.433 28.4669 110.264 29.1562 110.264C29.6932 110.264 30.1771 110.364 30.608 110.562C31.0388 110.761 31.3918 111.04 31.6669 111.398C31.942 111.756 32.1127 112.173 32.179 112.651H31.0057C30.9162 112.303 30.7173 111.994 30.4091 111.726C30.1042 111.454 29.6932 111.318 29.1761 111.318C28.7188 111.318 28.3177 111.437 27.973 111.676C27.6316 111.911 27.3648 112.245 27.1726 112.675C26.9837 113.103 26.8892 113.605 26.8892 114.182C26.8892 114.772 26.982 115.286 27.1676 115.723C27.3565 116.161 27.6217 116.5 27.9631 116.742C28.3078 116.984 28.7121 117.105 29.1761 117.105C29.4811 117.105 29.7578 117.052 30.0064 116.946C30.255 116.84 30.4654 116.688 30.6378 116.489C30.8101 116.29 30.9328 116.051 31.0057 115.773H32.179C32.1127 116.223 31.9486 116.629 31.6868 116.991C31.4283 117.349 31.0852 117.634 30.6577 117.846C30.2334 118.055 29.7396 118.159 29.1761 118.159ZM36.9964 118.159C36.3071 118.159 35.7022 117.995 35.1818 117.667C34.6648 117.339 34.2604 116.88 33.9688 116.29C33.6804 115.7 33.5362 115.01 33.5362 114.222C33.5362 113.426 33.6804 112.732 33.9688 112.138C34.2604 111.545 34.6648 111.085 35.1818 110.756C35.7022 110.428 36.3071 110.264 36.9964 110.264C37.6858 110.264 38.2891 110.428 38.8061 110.756C39.3265 111.085 39.7308 111.545 40.0192 112.138C40.3108 112.732 40.4567 113.426 40.4567 114.222C40.4567 115.01 40.3108 115.7 40.0192 116.29C39.7308 116.88 39.3265 117.339 38.8061 117.667C38.2891 117.995 37.6858 118.159 36.9964 118.159ZM36.9964 117.105C37.5201 117.105 37.951 116.971 38.2891 116.702C38.6271 116.434 38.8774 116.081 39.0398 115.643C39.2022 115.206 39.2834 114.732 39.2834 114.222C39.2834 113.711 39.2022 113.236 39.0398 112.795C38.8774 112.354 38.6271 111.998 38.2891 111.726C37.951 111.454 37.5201 111.318 36.9964 111.318C36.4728 111.318 36.0419 111.454 35.7038 111.726C35.3658 111.998 35.1155 112.354 34.9531 112.795C34.7907 113.236 34.7095 113.711 34.7095 114.222C34.7095 114.732 34.7907 115.206 34.9531 115.643C35.1155 116.081 35.3658 116.434 35.7038 116.702C36.0419 116.971 36.4728 117.105 36.9964 117.105ZM43.421 113.406V118H42.2477V110.364H43.3812V111.557H43.4806C43.6596 111.169 43.9314 110.857 44.296 110.622C44.6606 110.384 45.1312 110.264 45.7079 110.264C46.225 110.264 46.6774 110.37 47.0652 110.582C47.4529 110.791 47.7546 111.109 47.97 111.537C48.1854 111.961 48.2931 112.498 48.2931 113.148V118H47.1199V113.227C47.1199 112.627 46.9641 112.16 46.6525 111.825C46.341 111.487 45.9134 111.318 45.3699 111.318C44.9953 111.318 44.6606 111.399 44.3656 111.562C44.0739 111.724 43.8436 111.961 43.6745 112.273C43.5055 112.584 43.421 112.962 43.421 113.406ZM55.8462 112.074L54.7923 112.372C54.726 112.196 54.6282 112.026 54.4989 111.86C54.373 111.691 54.2006 111.552 53.9819 111.442C53.7631 111.333 53.4831 111.278 53.1417 111.278C52.6744 111.278 52.2849 111.386 51.9734 111.602C51.6651 111.814 51.511 112.084 51.511 112.412C51.511 112.704 51.6171 112.934 51.8292 113.103C52.0413 113.272 52.3728 113.413 52.8235 113.526L53.957 113.804C54.6398 113.97 55.1486 114.223 55.4833 114.565C55.8181 114.903 55.9854 115.339 55.9854 115.872C55.9854 116.31 55.8595 116.701 55.6076 117.045C55.359 117.39 55.011 117.662 54.5636 117.861C54.1161 118.06 53.5958 118.159 53.0025 118.159C52.2236 118.159 51.579 117.99 51.0685 117.652C50.5581 117.314 50.235 116.82 50.0991 116.17L51.2127 115.892C51.3188 116.303 51.5193 116.611 51.8143 116.817C52.1126 117.022 52.502 117.125 52.9826 117.125C53.5295 117.125 53.9637 117.009 54.2852 116.777C54.61 116.542 54.7724 116.26 54.7724 115.932C54.7724 115.667 54.6796 115.445 54.494 115.266C54.3084 115.083 54.0233 114.947 53.6388 114.858L52.3661 114.56C51.6668 114.394 51.1531 114.137 50.8249 113.789C50.5001 113.438 50.3377 112.999 50.3377 112.472C50.3377 112.041 50.4587 111.66 50.7006 111.328C50.9459 110.997 51.279 110.737 51.6999 110.548C52.1242 110.359 52.6048 110.264 53.1417 110.264C53.8974 110.264 54.4906 110.43 54.9215 110.761C55.3557 111.093 55.6639 111.53 55.8462 112.074ZM60.9533 118.159C60.2175 118.159 59.5828 117.997 59.0492 117.672C58.5189 117.344 58.1096 116.886 57.8212 116.3C57.5362 115.71 57.3936 115.024 57.3936 114.241C57.3936 113.459 57.5362 112.77 57.8212 112.173C58.1096 111.573 58.5106 111.106 59.0243 110.771C59.5414 110.433 60.1446 110.264 60.834 110.264C61.2317 110.264 61.6245 110.33 62.0123 110.463C62.4 110.596 62.753 110.811 63.0712 111.109C63.3894 111.404 63.6429 111.795 63.8319 112.283C64.0208 112.77 64.1152 113.37 64.1152 114.082V114.58H58.2289V113.565H62.9221C62.9221 113.134 62.8359 112.75 62.6635 112.412C62.4945 112.074 62.2525 111.807 61.9377 111.612C61.6261 111.416 61.2582 111.318 60.834 111.318C60.3667 111.318 59.9623 111.434 59.6209 111.666C59.2828 111.895 59.0227 112.193 58.8404 112.561C58.6581 112.929 58.5669 113.323 58.5669 113.744V114.42C58.5669 114.997 58.6664 115.486 58.8652 115.887C59.0674 116.285 59.3475 116.588 59.7054 116.797C60.0634 117.002 60.4793 117.105 60.9533 117.105C61.2615 117.105 61.54 117.062 61.7885 116.976C62.0404 116.886 62.2575 116.754 62.4398 116.578C62.6221 116.399 62.763 116.177 62.8624 115.912L63.9959 116.23C63.8766 116.615 63.6761 116.953 63.3944 117.244C63.1126 117.533 62.7646 117.758 62.3503 117.92C61.936 118.08 61.4703 118.159 60.9533 118.159ZM69.0023 118.159C68.2864 118.159 67.6699 117.99 67.1529 117.652C66.6358 117.314 66.2381 116.848 65.9597 116.255C65.6813 115.662 65.5421 114.984 65.5421 114.222C65.5421 113.446 65.6846 112.762 65.9696 112.168C66.258 111.572 66.659 111.106 67.1728 110.771C67.6898 110.433 68.293 110.264 68.9824 110.264C69.5194 110.264 70.0033 110.364 70.4341 110.562C70.865 110.761 71.218 111.04 71.4931 111.398C71.7682 111.756 71.9389 112.173 72.0051 112.651H70.8319C70.7424 112.303 70.5435 111.994 70.2353 111.726C69.9303 111.454 69.5194 111.318 69.0023 111.318C68.5449 111.318 68.1439 111.437 67.7992 111.676C67.4578 111.911 67.191 112.245 66.9988 112.675C66.8098 113.103 66.7154 113.605 66.7154 114.182C66.7154 114.772 66.8082 115.286 66.9938 115.723C67.1827 116.161 67.4479 116.5 67.7892 116.742C68.1339 116.984 68.5383 117.105 69.0023 117.105C69.3072 117.105 69.584 117.052 69.8326 116.946C70.0811 116.84 70.2916 116.688 70.464 116.489C70.6363 116.29 70.7589 116.051 70.8319 115.773H72.0051C71.9389 116.223 71.7748 116.629 71.513 116.991C71.2544 117.349 70.9114 117.634 70.4838 117.846C70.0596 118.055 69.5658 118.159 69.0023 118.159ZM77.0414 110.364V111.358H73.084V110.364H77.0414ZM74.2374 108.534H75.4107V115.812C75.4107 116.144 75.4587 116.393 75.5549 116.558C75.6543 116.721 75.7802 116.83 75.9327 116.886C76.0885 116.939 76.2525 116.966 76.4249 116.966C76.5542 116.966 76.6602 116.959 76.7431 116.946C76.8259 116.929 76.8922 116.916 76.9419 116.906L77.1806 117.96C77.101 117.99 76.99 118.02 76.8475 118.05C76.705 118.083 76.5243 118.099 76.3056 118.099C75.9741 118.099 75.6493 118.028 75.3311 117.886C75.0163 117.743 74.7544 117.526 74.5456 117.234C74.3401 116.943 74.2374 116.575 74.2374 116.131V108.534ZM81.926 118.159C81.1902 118.159 80.5555 117.997 80.0218 117.672C79.4915 117.344 79.0822 116.886 78.7939 116.3C78.5088 115.71 78.3663 115.024 78.3663 114.241C78.3663 113.459 78.5088 112.77 78.7939 112.173C79.0822 111.573 79.4833 111.106 79.997 110.771C80.514 110.433 81.1172 110.264 81.8066 110.264C82.2044 110.264 82.5971 110.33 82.9849 110.463C83.3727 110.596 83.7257 110.811 84.0439 111.109C84.362 111.404 84.6156 111.795 84.8045 112.283C84.9934 112.77 85.0879 113.37 85.0879 114.082V114.58H79.2015V113.565H83.8947C83.8947 113.134 83.8085 112.75 83.6362 112.412C83.4672 112.074 83.2252 111.807 82.9103 111.612C82.5988 111.416 82.2309 111.318 81.8066 111.318C81.3393 111.318 80.935 111.434 80.5936 111.666C80.2555 111.895 79.9953 112.193 79.813 112.561C79.6307 112.929 79.5396 113.323 79.5396 113.744V114.42C79.5396 114.997 79.639 115.486 79.8379 115.887C80.0401 116.285 80.3201 116.588 80.6781 116.797C81.036 117.002 81.452 117.105 81.926 117.105C82.2342 117.105 82.5126 117.062 82.7612 116.976C83.0131 116.886 83.2302 116.754 83.4125 116.578C83.5948 116.399 83.7356 116.177 83.835 115.912L84.9686 116.23C84.8493 116.615 84.6487 116.953 84.367 117.244C84.0853 117.533 83.7373 117.758 83.323 117.92C82.9087 118.08 82.443 118.159 81.926 118.159ZM90.1937 110.364V111.358H86.2363V110.364H90.1937ZM87.3897 108.534H88.563V115.812C88.563 116.144 88.6111 116.393 88.7072 116.558C88.8066 116.721 88.9326 116.83 89.085 116.886C89.2408 116.939 89.4049 116.966 89.5772 116.966C89.7065 116.966 89.8126 116.959 89.8954 116.946C89.9783 116.929 90.0446 116.916 90.0943 116.906L90.3329 117.96C90.2534 117.99 90.1423 118.02 89.9998 118.05C89.8573 118.083 89.6767 118.099 89.4579 118.099C89.1265 118.099 88.8017 118.028 88.4835 117.886C88.1686 117.743 87.9068 117.526 87.698 117.234C87.4925 116.943 87.3897 116.575 87.3897 116.131V108.534ZM96.7711 114.878V110.364H97.9444V118H96.7711V116.707H96.6916C96.5126 117.095 96.2342 117.425 95.8564 117.697C95.4785 117.965 95.0012 118.099 94.4245 118.099C93.9473 118.099 93.523 117.995 93.1518 117.786C92.7806 117.574 92.4889 117.256 92.2768 116.832C92.0647 116.404 91.9586 115.866 91.9586 115.216V110.364H93.1319V115.136C93.1319 115.693 93.2877 116.137 93.5993 116.469C93.9141 116.8 94.3152 116.966 94.8024 116.966C95.094 116.966 95.3907 116.891 95.6923 116.742C95.9972 116.593 96.2524 116.364 96.4579 116.056C96.6667 115.748 96.7711 115.355 96.7711 114.878ZM100.093 118V110.364H101.227V111.517H101.306C101.446 111.139 101.698 110.833 102.062 110.597C102.427 110.362 102.838 110.244 103.295 110.244C103.381 110.244 103.489 110.246 103.618 110.249C103.748 110.253 103.845 110.258 103.912 110.264V111.457C103.872 111.447 103.781 111.433 103.638 111.413C103.499 111.389 103.351 111.378 103.196 111.378C102.824 111.378 102.493 111.456 102.201 111.612C101.913 111.764 101.684 111.976 101.515 112.248C101.35 112.516 101.267 112.823 101.267 113.168V118H100.093ZM111.487 118.179C111.003 118.179 110.564 118.088 110.17 117.906C109.775 117.72 109.462 117.453 109.23 117.105C108.998 116.754 108.882 116.33 108.882 115.832C108.882 115.395 108.968 115.04 109.14 114.768C109.313 114.493 109.543 114.278 109.831 114.122C110.12 113.966 110.438 113.85 110.786 113.774C111.137 113.695 111.49 113.632 111.845 113.585C112.309 113.526 112.685 113.481 112.974 113.451C113.265 113.418 113.477 113.363 113.61 113.287C113.746 113.211 113.814 113.078 113.814 112.889V112.849C113.814 112.359 113.68 111.978 113.411 111.706C113.146 111.434 112.743 111.298 112.203 111.298C111.643 111.298 111.204 111.421 110.885 111.666C110.567 111.911 110.344 112.173 110.214 112.452L109.101 112.054C109.3 111.59 109.565 111.229 109.896 110.97C110.231 110.708 110.595 110.526 110.99 110.423C111.388 110.317 111.779 110.264 112.163 110.264C112.408 110.264 112.69 110.294 113.008 110.354C113.33 110.41 113.64 110.528 113.938 110.707C114.24 110.886 114.49 111.156 114.689 111.517C114.888 111.878 114.987 112.362 114.987 112.969V118H113.814V116.966H113.754C113.675 117.132 113.542 117.309 113.356 117.498C113.171 117.687 112.924 117.848 112.616 117.98C112.307 118.113 111.931 118.179 111.487 118.179ZM111.666 117.125C112.13 117.125 112.521 117.034 112.839 116.852C113.161 116.669 113.403 116.434 113.565 116.146C113.731 115.857 113.814 115.554 113.814 115.236V114.162C113.764 114.222 113.655 114.276 113.486 114.326C113.32 114.372 113.128 114.414 112.909 114.45C112.693 114.483 112.483 114.513 112.278 114.54C112.075 114.563 111.911 114.583 111.785 114.599C111.48 114.639 111.195 114.704 110.93 114.793C110.668 114.879 110.456 115.01 110.294 115.186C110.135 115.358 110.055 115.594 110.055 115.892C110.055 116.3 110.206 116.608 110.508 116.817C110.813 117.022 111.199 117.125 111.666 117.125ZM120.012 118.159C119.376 118.159 118.814 117.998 118.327 117.677C117.839 117.352 117.458 116.895 117.183 116.305C116.908 115.711 116.771 115.01 116.771 114.202C116.771 113.4 116.908 112.704 117.183 112.114C117.458 111.524 117.841 111.068 118.332 110.746C118.822 110.425 119.389 110.264 120.032 110.264C120.529 110.264 120.922 110.347 121.21 110.513C121.502 110.675 121.724 110.861 121.876 111.07C122.032 111.275 122.153 111.444 122.239 111.577H122.339V107.818H123.512V118H122.379V116.827H122.239C122.153 116.966 122.031 117.142 121.871 117.354C121.712 117.562 121.485 117.75 121.19 117.915C120.895 118.078 120.503 118.159 120.012 118.159ZM120.171 117.105C120.642 117.105 121.04 116.982 121.364 116.737C121.689 116.489 121.936 116.146 122.105 115.708C122.274 115.267 122.359 114.759 122.359 114.182C122.359 113.612 122.276 113.113 122.11 112.685C121.944 112.254 121.699 111.92 121.374 111.681C121.049 111.439 120.648 111.318 120.171 111.318C119.674 111.318 119.26 111.446 118.928 111.701C118.6 111.953 118.353 112.296 118.188 112.73C118.025 113.161 117.944 113.645 117.944 114.182C117.944 114.725 118.027 115.219 118.192 115.663C118.362 116.104 118.61 116.455 118.938 116.717C119.27 116.976 119.681 117.105 120.171 117.105ZM125.824 118V110.364H126.997V118H125.824ZM126.42 109.091C126.192 109.091 125.995 109.013 125.829 108.857C125.666 108.701 125.585 108.514 125.585 108.295C125.585 108.077 125.666 107.889 125.829 107.734C125.995 107.578 126.192 107.5 126.42 107.5C126.649 107.5 126.845 107.578 127.007 107.734C127.173 107.889 127.256 108.077 127.256 108.295C127.256 108.514 127.173 108.701 127.007 108.857C126.845 109.013 126.649 109.091 126.42 109.091ZM129.146 120.864V110.364H130.28V111.577H130.419C130.505 111.444 130.624 111.275 130.777 111.07C130.933 110.861 131.155 110.675 131.443 110.513C131.735 110.347 132.129 110.264 132.626 110.264C133.269 110.264 133.836 110.425 134.327 110.746C134.817 111.068 135.2 111.524 135.475 112.114C135.75 112.704 135.888 113.4 135.888 114.202C135.888 115.01 135.75 115.711 135.475 116.305C135.2 116.895 134.819 117.352 134.331 117.677C133.844 117.998 133.282 118.159 132.646 118.159C132.156 118.159 131.763 118.078 131.468 117.915C131.173 117.75 130.946 117.562 130.787 117.354C130.628 117.142 130.505 116.966 130.419 116.827H130.319V120.864H129.146ZM130.3 114.182C130.3 114.759 130.384 115.267 130.553 115.708C130.722 116.146 130.969 116.489 131.294 116.737C131.619 116.982 132.016 117.105 132.487 117.105C132.978 117.105 133.387 116.976 133.715 116.717C134.046 116.455 134.295 116.104 134.461 115.663C134.63 115.219 134.714 114.725 134.714 114.182C134.714 113.645 134.631 113.161 134.466 112.73C134.303 112.296 134.056 111.953 133.725 111.701C133.397 111.446 132.984 111.318 132.487 111.318C132.01 111.318 131.609 111.439 131.284 111.681C130.959 111.92 130.714 112.254 130.548 112.685C130.382 113.113 130.3 113.612 130.3 114.182ZM137.677 118V110.364H138.851V118H137.677ZM138.274 109.091C138.045 109.091 137.848 109.013 137.682 108.857C137.52 108.701 137.439 108.514 137.439 108.295C137.439 108.077 137.52 107.889 137.682 107.734C137.848 107.578 138.045 107.5 138.274 107.5C138.503 107.5 138.698 107.578 138.861 107.734C139.026 107.889 139.109 108.077 139.109 108.295C139.109 108.514 139.026 108.701 138.861 108.857C138.698 109.013 138.503 109.091 138.274 109.091ZM146.409 112.074L145.355 112.372C145.288 112.196 145.191 112.026 145.061 111.86C144.935 111.691 144.763 111.552 144.544 111.442C144.326 111.333 144.046 111.278 143.704 111.278C143.237 111.278 142.847 111.386 142.536 111.602C142.228 111.814 142.074 112.084 142.074 112.412C142.074 112.704 142.18 112.934 142.392 113.103C142.604 113.272 142.935 113.413 143.386 113.526L144.52 113.804C145.202 113.97 145.711 114.223 146.046 114.565C146.381 114.903 146.548 115.339 146.548 115.872C146.548 116.31 146.422 116.701 146.17 117.045C145.922 117.39 145.574 117.662 145.126 117.861C144.679 118.06 144.158 118.159 143.565 118.159C142.786 118.159 142.141 117.99 141.631 117.652C141.121 117.314 140.797 116.82 140.662 116.17L141.775 115.892C141.881 116.303 142.082 116.611 142.377 116.817C142.675 117.022 143.065 117.125 143.545 117.125C144.092 117.125 144.526 117.009 144.848 116.777C145.172 116.542 145.335 116.26 145.335 115.932C145.335 115.667 145.242 115.445 145.056 115.266C144.871 115.083 144.586 114.947 144.201 114.858L142.929 114.56C142.229 114.394 141.716 114.137 141.387 113.789C141.063 113.438 140.9 112.999 140.9 112.472C140.9 112.041 141.021 111.66 141.263 111.328C141.508 110.997 141.842 110.737 142.262 110.548C142.687 110.359 143.167 110.264 143.704 110.264C144.46 110.264 145.053 110.43 145.484 110.761C145.918 111.093 146.226 111.53 146.409 112.074ZM151.416 118.159C150.7 118.159 150.084 117.99 149.567 117.652C149.05 117.314 148.652 116.848 148.374 116.255C148.095 115.662 147.956 114.984 147.956 114.222C147.956 113.446 148.099 112.762 148.384 112.168C148.672 111.572 149.073 111.106 149.587 110.771C150.104 110.433 150.707 110.264 151.396 110.264C151.933 110.264 152.417 110.364 152.848 110.562C153.279 110.761 153.632 111.04 153.907 111.398C154.182 111.756 154.353 112.173 154.419 112.651H153.246C153.156 112.303 152.958 111.994 152.649 111.726C152.344 111.454 151.933 111.318 151.416 111.318C150.959 111.318 150.558 111.437 150.213 111.676C149.872 111.911 149.605 112.245 149.413 112.675C149.224 113.103 149.129 113.605 149.129 114.182C149.129 114.772 149.222 115.286 149.408 115.723C149.597 116.161 149.862 116.5 150.203 116.742C150.548 116.984 150.952 117.105 151.416 117.105C151.721 117.105 151.998 117.052 152.247 116.946C152.495 116.84 152.706 116.688 152.878 116.489C153.05 116.29 153.173 116.051 153.246 115.773H154.419C154.353 116.223 154.189 116.629 153.927 116.991C153.669 117.349 153.325 117.634 152.898 117.846C152.474 118.055 151.98 118.159 151.416 118.159ZM156.134 118V110.364H157.308V118H156.134ZM156.731 109.091C156.502 109.091 156.305 109.013 156.139 108.857C155.977 108.701 155.896 108.514 155.896 108.295C155.896 108.077 155.977 107.889 156.139 107.734C156.305 107.578 156.502 107.5 156.731 107.5C156.96 107.5 157.155 107.578 157.318 107.734C157.483 107.889 157.566 108.077 157.566 108.295C157.566 108.514 157.483 108.701 157.318 108.857C157.155 109.013 156.96 109.091 156.731 109.091ZM160.63 113.406V118H159.457V110.364H160.59V111.557H160.69C160.869 111.169 161.14 110.857 161.505 110.622C161.87 110.384 162.34 110.264 162.917 110.264C163.434 110.264 163.886 110.37 164.274 110.582C164.662 110.791 164.964 111.109 165.179 111.537C165.394 111.961 165.502 112.498 165.502 113.148V118H164.329V113.227C164.329 112.627 164.173 112.16 163.862 111.825C163.55 111.487 163.122 111.318 162.579 111.318C162.204 111.318 161.87 111.399 161.575 111.562C161.283 111.724 161.053 111.961 160.884 112.273C160.714 112.584 160.63 112.962 160.63 113.406ZM170.729 121.023C170.162 121.023 169.675 120.95 169.267 120.804C168.859 120.661 168.519 120.473 168.248 120.237C167.979 120.005 167.765 119.757 167.606 119.491L168.541 118.835C168.647 118.974 168.781 119.134 168.944 119.312C169.106 119.495 169.328 119.652 169.61 119.785C169.895 119.921 170.268 119.989 170.729 119.989C171.345 119.989 171.854 119.839 172.255 119.541C172.656 119.243 172.856 118.776 172.856 118.139V116.588H172.757C172.671 116.727 172.548 116.9 172.389 117.105C172.233 117.307 172.008 117.488 171.713 117.647C171.421 117.803 171.027 117.881 170.53 117.881C169.913 117.881 169.36 117.735 168.869 117.443C168.382 117.152 167.996 116.727 167.711 116.17C167.429 115.614 167.288 114.937 167.288 114.142C167.288 113.36 167.426 112.679 167.701 112.099C167.976 111.515 168.359 111.065 168.849 110.746C169.34 110.425 169.907 110.264 170.55 110.264C171.047 110.264 171.441 110.347 171.733 110.513C172.028 110.675 172.253 110.861 172.409 111.07C172.568 111.275 172.691 111.444 172.777 111.577H172.896V110.364H174.03V118.219C174.03 118.875 173.881 119.409 173.582 119.82C173.287 120.234 172.89 120.537 172.389 120.729C171.892 120.925 171.338 121.023 170.729 121.023ZM170.689 116.827C171.159 116.827 171.557 116.719 171.882 116.504C172.207 116.288 172.454 115.978 172.623 115.574C172.792 115.17 172.876 114.686 172.876 114.122C172.876 113.572 172.793 113.086 172.628 112.665C172.462 112.245 172.217 111.915 171.892 111.676C171.567 111.437 171.166 111.318 170.689 111.318C170.192 111.318 169.777 111.444 169.446 111.696C169.118 111.948 168.871 112.286 168.705 112.71C168.543 113.134 168.461 113.605 168.461 114.122C168.461 114.652 168.544 115.121 168.71 115.529C168.879 115.933 169.128 116.252 169.456 116.484C169.787 116.712 170.198 116.827 170.689 116.827ZM183.317 118.159C182.581 118.159 181.946 117.997 181.412 117.672C180.882 117.344 180.473 116.886 180.184 116.3C179.899 115.71 179.757 115.024 179.757 114.241C179.757 113.459 179.899 112.77 180.184 112.173C180.473 111.573 180.874 111.106 181.388 110.771C181.905 110.433 182.508 110.264 183.197 110.264C183.595 110.264 183.988 110.33 184.376 110.463C184.763 110.596 185.116 110.811 185.434 111.109C185.753 111.404 186.006 111.795 186.195 112.283C186.384 112.77 186.479 113.37 186.479 114.082V114.58H180.592V113.565H185.285C185.285 113.134 185.199 112.75 185.027 112.412C184.858 112.074 184.616 111.807 184.301 111.612C183.989 111.416 183.622 111.318 183.197 111.318C182.73 111.318 182.326 111.434 181.984 111.666C181.646 111.895 181.386 112.193 181.204 112.561C181.021 112.929 180.93 113.323 180.93 113.744V114.42C180.93 114.997 181.03 115.486 181.229 115.887C181.431 116.285 181.711 116.588 182.069 116.797C182.427 117.002 182.843 117.105 183.317 117.105C183.625 117.105 183.903 117.062 184.152 116.976C184.404 116.886 184.621 116.754 184.803 116.578C184.985 116.399 185.126 116.177 185.226 115.912L186.359 116.23C186.24 116.615 186.039 116.953 185.758 117.244C185.476 117.533 185.128 117.758 184.714 117.92C184.299 118.08 183.834 118.159 183.317 118.159ZM189.437 107.818V118H188.263V107.818H189.437ZM191.586 118V110.364H192.759V118H191.586ZM192.182 109.091C191.953 109.091 191.756 109.013 191.591 108.857C191.428 108.701 191.347 108.514 191.347 108.295C191.347 108.077 191.428 107.889 191.591 107.734C191.756 107.578 191.953 107.5 192.182 107.5C192.411 107.5 192.606 107.578 192.769 107.734C192.935 107.889 193.017 108.077 193.017 108.295C193.017 108.514 192.935 108.701 192.769 108.857C192.606 109.013 192.411 109.091 192.182 109.091ZM198.229 110.364V111.358H194.271V110.364H198.229ZM195.425 108.534H196.598V115.812C196.598 116.144 196.646 116.393 196.742 116.558C196.842 116.721 196.968 116.83 197.12 116.886C197.276 116.939 197.44 116.966 197.612 116.966C197.742 116.966 197.848 116.959 197.931 116.946C198.013 116.929 198.08 116.916 198.129 116.906L198.368 117.96C198.289 117.99 198.177 118.02 198.035 118.05C197.892 118.083 197.712 118.099 197.493 118.099C197.162 118.099 196.837 118.028 196.519 117.886C196.204 117.743 195.942 117.526 195.733 117.234C195.528 116.943 195.425 116.575 195.425 116.131V108.534ZM200.849 118.08C200.604 118.08 200.393 117.992 200.218 117.816C200.042 117.64 199.954 117.43 199.954 117.185C199.954 116.939 200.042 116.729 200.218 116.553C200.393 116.378 200.604 116.29 200.849 116.29C201.094 116.29 201.305 116.378 201.48 116.553C201.656 116.729 201.744 116.939 201.744 117.185C201.744 117.347 201.702 117.496 201.619 117.632C201.54 117.768 201.432 117.877 201.296 117.96C201.164 118.04 201.015 118.08 200.849 118.08ZM26.6506 142H25.358L29.0966 131.818H30.3693L34.108 142H32.8153L29.7727 133.429H29.6932L26.6506 142ZM27.1278 138.023H32.3381V139.116H27.1278V138.023ZM38.3773 134.364V135.358H34.4199V134.364H38.3773ZM35.5733 132.534H36.7466V139.812C36.7466 140.144 36.7947 140.393 36.8908 140.558C36.9902 140.721 37.1162 140.83 37.2686 140.886C37.4244 140.939 37.5885 140.966 37.7608 140.966C37.8901 140.966 37.9962 140.959 38.079 140.946C38.1619 140.929 38.2282 140.916 38.2779 140.906L38.5165 141.96C38.437 141.99 38.3259 142.02 38.1834 142.05C38.0409 142.083 37.8603 142.099 37.6415 142.099C37.3101 142.099 36.9853 142.028 36.6671 141.886C36.3522 141.743 36.0904 141.526 35.8816 141.234C35.6761 140.943 35.5733 140.575 35.5733 140.131V132.534ZM44.0797 134.364H45.253V142.557C45.253 143.027 45.1718 143.435 45.0094 143.78C44.8503 144.125 44.6084 144.391 44.2836 144.58C43.9621 144.769 43.556 144.864 43.0655 144.864C43.0257 144.864 42.986 144.864 42.9462 144.864C42.9064 144.864 42.8667 144.864 42.8269 144.864V143.77C42.8667 143.77 42.9031 143.77 42.9363 143.77C42.9694 143.77 43.0059 143.77 43.0456 143.77C43.4036 143.77 43.6654 143.664 43.8311 143.452C43.9969 143.243 44.0797 142.945 44.0797 142.557V134.364ZM44.6564 133.091C44.4277 133.091 44.2305 133.013 44.0648 132.857C43.9024 132.701 43.8212 132.514 43.8212 132.295C43.8212 132.077 43.9024 131.889 44.0648 131.734C44.2305 131.578 44.4277 131.5 44.6564 131.5C44.8851 131.5 45.0807 131.578 45.2431 131.734C45.4088 131.889 45.4917 132.077 45.4917 132.295C45.4917 132.514 45.4088 132.701 45.2431 132.857C45.0807 133.013 44.8851 133.091 44.6564 133.091ZM52.2145 138.878V134.364H53.3878V142H52.2145V140.707H52.1349C51.956 141.095 51.6776 141.425 51.2997 141.697C50.9219 141.965 50.4446 142.099 49.8679 142.099C49.3906 142.099 48.9664 141.995 48.5952 141.786C48.224 141.574 47.9323 141.256 47.7202 140.832C47.508 140.404 47.402 139.866 47.402 139.216V134.364H48.5753V139.136C48.5753 139.693 48.7311 140.137 49.0426 140.469C49.3575 140.8 49.7585 140.966 50.2457 140.966C50.5374 140.966 50.834 140.891 51.1357 140.742C51.4406 140.593 51.6958 140.364 51.9013 140.056C52.1101 139.748 52.2145 139.355 52.2145 138.878ZM60.9458 136.074L59.8919 136.372C59.8256 136.196 59.7278 136.026 59.5985 135.86C59.4726 135.691 59.3002 135.552 59.0815 135.442C58.8627 135.333 58.5827 135.278 58.2413 135.278C57.774 135.278 57.3845 135.386 57.073 135.602C56.7647 135.814 56.6106 136.084 56.6106 136.412C56.6106 136.704 56.7167 136.934 56.9288 137.103C57.1409 137.272 57.4724 137.413 57.9231 137.526L59.0566 137.804C59.7394 137.97 60.2482 138.223 60.5829 138.565C60.9177 138.903 61.085 139.339 61.085 139.872C61.085 140.31 60.9591 140.701 60.7072 141.045C60.4586 141.39 60.1106 141.662 59.6632 141.861C59.2157 142.06 58.6954 142.159 58.1021 142.159C57.3232 142.159 56.6786 141.99 56.1681 141.652C55.6577 141.314 55.3346 140.82 55.1987 140.17L56.3123 139.892C56.4184 140.303 56.6189 140.611 56.9139 140.817C57.2122 141.022 57.6016 141.125 58.0822 141.125C58.6291 141.125 59.0633 141.009 59.3848 140.777C59.7096 140.542 59.872 140.26 59.872 139.932C59.872 139.667 59.7792 139.445 59.5936 139.266C59.408 139.083 59.1229 138.947 58.7385 138.858L57.4657 138.56C56.7664 138.394 56.2527 138.137 55.9245 137.789C55.5997 137.438 55.4373 136.999 55.4373 136.472C55.4373 136.041 55.5583 135.66 55.8002 135.328C56.0455 134.997 56.3786 134.737 56.7995 134.548C57.2238 134.359 57.7044 134.264 58.2413 134.264C58.997 134.264 59.5903 134.43 60.0211 134.761C60.4553 135.093 60.7636 135.53 60.9458 136.074ZM66.1722 134.364V135.358H62.2148V134.364H66.1722ZM63.3683 132.534H64.5415V139.812C64.5415 140.144 64.5896 140.393 64.6857 140.558C64.7852 140.721 64.9111 140.83 65.0636 140.886C65.2193 140.939 65.3834 140.966 65.5558 140.966C65.685 140.966 65.7911 140.959 65.8739 140.946C65.9568 140.929 66.0231 140.916 66.0728 140.906L66.3114 141.96C66.2319 141.99 66.1209 142.02 65.9783 142.05C65.8358 142.083 65.6552 142.099 65.4364 142.099C65.105 142.099 64.7802 142.028 64.462 141.886C64.1471 141.743 63.8853 141.526 63.6765 141.234C63.471 140.943 63.3683 140.575 63.3683 140.131V132.534ZM70.9574 142.159C70.268 142.159 69.6631 141.995 69.1428 141.667C68.6257 141.339 68.2214 140.88 67.9297 140.29C67.6413 139.7 67.4972 139.01 67.4972 138.222C67.4972 137.426 67.6413 136.732 67.9297 136.138C68.2214 135.545 68.6257 135.085 69.1428 134.756C69.6631 134.428 70.268 134.264 70.9574 134.264C71.6468 134.264 72.25 134.428 72.767 134.756C73.2874 135.085 73.6918 135.545 73.9801 136.138C74.2718 136.732 74.4176 137.426 74.4176 138.222C74.4176 139.01 74.2718 139.7 73.9801 140.29C73.6918 140.88 73.2874 141.339 72.767 141.667C72.25 141.995 71.6468 142.159 70.9574 142.159ZM70.9574 141.105C71.4811 141.105 71.9119 140.971 72.25 140.702C72.5881 140.434 72.8383 140.081 73.0007 139.643C73.1631 139.206 73.2443 138.732 73.2443 138.222C73.2443 137.711 73.1631 137.236 73.0007 136.795C72.8383 136.354 72.5881 135.998 72.25 135.726C71.9119 135.454 71.4811 135.318 70.9574 135.318C70.4337 135.318 70.0028 135.454 69.6648 135.726C69.3267 135.998 69.0765 136.354 68.9141 136.795C68.7517 137.236 68.6705 137.711 68.6705 138.222C68.6705 138.732 68.7517 139.206 68.9141 139.643C69.0765 140.081 69.3267 140.434 69.6648 140.702C70.0028 140.971 70.4337 141.105 70.9574 141.105ZM82.3933 142.179C81.9094 142.179 81.4702 142.088 81.0758 141.906C80.6814 141.72 80.3682 141.453 80.1362 141.105C79.9042 140.754 79.7882 140.33 79.7882 139.832C79.7882 139.395 79.8743 139.04 80.0467 138.768C80.219 138.493 80.4494 138.278 80.7377 138.122C81.0261 137.966 81.3443 137.85 81.6923 137.774C82.0436 137.695 82.3966 137.632 82.7512 137.585C83.2153 137.526 83.5914 137.481 83.8798 137.451C84.1715 137.418 84.3836 137.363 84.5162 137.287C84.652 137.211 84.72 137.078 84.72 136.889V136.849C84.72 136.359 84.5858 135.978 84.3173 135.706C84.0521 135.434 83.6494 135.298 83.1092 135.298C82.5491 135.298 82.1099 135.421 81.7917 135.666C81.4735 135.911 81.2498 136.173 81.1206 136.452L80.0069 136.054C80.2058 135.59 80.4709 135.229 80.8024 134.97C81.1371 134.708 81.5017 134.526 81.8961 134.423C82.2939 134.317 82.685 134.264 83.0694 134.264C83.3147 134.264 83.5964 134.294 83.9146 134.354C84.2361 134.41 84.546 134.528 84.8443 134.707C85.1459 134.886 85.3961 135.156 85.595 135.517C85.7939 135.878 85.8933 136.362 85.8933 136.969V142H84.72V140.966H84.6603C84.5808 141.132 84.4482 141.309 84.2626 141.498C84.077 141.687 83.8301 141.848 83.5218 141.98C83.2136 142.113 82.8374 142.179 82.3933 142.179ZM82.5723 141.125C83.0363 141.125 83.4274 141.034 83.7456 140.852C84.0671 140.669 84.309 140.434 84.4714 140.146C84.6371 139.857 84.72 139.554 84.72 139.236V138.162C84.6703 138.222 84.5609 138.276 84.3919 138.326C84.2261 138.372 84.0339 138.414 83.8152 138.45C83.5997 138.483 83.3893 138.513 83.1838 138.54C82.9816 138.563 82.8175 138.583 82.6916 138.599C82.3867 138.639 82.1016 138.704 81.8365 138.793C81.5746 138.879 81.3625 139.01 81.2001 139.186C81.041 139.358 80.9615 139.594 80.9615 139.892C80.9615 140.3 81.1123 140.608 81.4139 140.817C81.7188 141.022 82.1049 141.125 82.5723 141.125ZM91.3558 134.364V135.358H87.3984V134.364H91.3558ZM88.5518 132.534H89.7251V139.812C89.7251 140.144 89.7732 140.393 89.8693 140.558C89.9688 140.721 90.0947 140.83 90.2472 140.886C90.4029 140.939 90.567 140.966 90.7393 140.966C90.8686 140.966 90.9747 140.959 91.0575 140.946C91.1404 140.929 91.2067 140.916 91.2564 140.906L91.495 141.96C91.4155 141.99 91.3045 142.02 91.1619 142.05C91.0194 142.083 90.8388 142.099 90.62 142.099C90.2886 142.099 89.9638 142.028 89.6456 141.886C89.3307 141.743 89.0689 141.526 88.8601 141.234C88.6546 140.943 88.5518 140.575 88.5518 140.131V132.534ZM97.0582 142V134.364H98.1918V135.517H98.2713C98.4105 135.139 98.6624 134.833 99.027 134.597C99.3916 134.362 99.8026 134.244 100.26 134.244C100.346 134.244 100.454 134.246 100.583 134.249C100.712 134.253 100.81 134.258 100.876 134.264V135.457C100.837 135.447 100.746 135.433 100.603 135.413C100.464 135.389 100.316 135.378 100.161 135.378C99.7893 135.378 99.4579 135.456 99.1662 135.612C98.8778 135.764 98.6491 135.976 98.4801 136.248C98.3144 136.516 98.2315 136.823 98.2315 137.168V142H97.0582ZM102.267 142V134.364H103.441V142H102.267ZM102.864 133.091C102.635 133.091 102.438 133.013 102.272 132.857C102.11 132.701 102.029 132.514 102.029 132.295C102.029 132.077 102.11 131.889 102.272 131.734C102.438 131.578 102.635 131.5 102.864 131.5C103.093 131.5 103.288 131.578 103.45 131.734C103.616 131.889 103.699 132.077 103.699 132.295C103.699 132.514 103.616 132.701 103.45 132.857C103.288 133.013 103.093 133.091 102.864 133.091ZM110.999 136.074L109.945 136.372C109.878 136.196 109.781 136.026 109.651 135.86C109.525 135.691 109.353 135.552 109.134 135.442C108.915 135.333 108.635 135.278 108.294 135.278C107.827 135.278 107.437 135.386 107.126 135.602C106.817 135.814 106.663 136.084 106.663 136.412C106.663 136.704 106.769 136.934 106.982 137.103C107.194 137.272 107.525 137.413 107.976 137.526L109.109 137.804C109.792 137.97 110.301 138.223 110.636 138.565C110.97 138.903 111.138 139.339 111.138 139.872C111.138 140.31 111.012 140.701 110.76 141.045C110.511 141.39 110.163 141.662 109.716 141.861C109.268 142.06 108.748 142.159 108.155 142.159C107.376 142.159 106.731 141.99 106.221 141.652C105.71 141.314 105.387 140.82 105.251 140.17L106.365 139.892C106.471 140.303 106.672 140.611 106.967 140.817C107.265 141.022 107.654 141.125 108.135 141.125C108.682 141.125 109.116 141.009 109.438 140.777C109.762 140.542 109.925 140.26 109.925 139.932C109.925 139.667 109.832 139.445 109.646 139.266C109.461 139.083 109.176 138.947 108.791 138.858L107.518 138.56C106.819 138.394 106.305 138.137 105.977 137.789C105.652 137.438 105.49 136.999 105.49 136.472C105.49 136.041 105.611 135.66 105.853 135.328C106.098 134.997 106.431 134.737 106.852 134.548C107.277 134.359 107.757 134.264 108.294 134.264C109.05 134.264 109.643 134.43 110.074 134.761C110.508 135.093 110.816 135.53 110.999 136.074ZM117.716 138.878V134.364H118.89V142H117.716V140.707H117.637C117.458 141.095 117.18 141.425 116.802 141.697C116.424 141.965 115.947 142.099 115.37 142.099C114.893 142.099 114.468 141.995 114.097 141.786C113.726 141.574 113.434 141.256 113.222 140.832C113.01 140.404 112.904 139.866 112.904 139.216V134.364H114.077V139.136C114.077 139.693 114.233 140.137 114.545 140.469C114.859 140.8 115.26 140.966 115.748 140.966C116.039 140.966 116.336 140.891 116.638 140.742C116.943 140.593 117.198 140.364 117.403 140.056C117.612 139.748 117.716 139.355 117.716 138.878ZM126.448 136.074L125.394 136.372C125.328 136.196 125.23 136.026 125.1 135.86C124.975 135.691 124.802 135.552 124.583 135.442C124.365 135.333 124.085 135.278 123.743 135.278C123.276 135.278 122.886 135.386 122.575 135.602C122.267 135.814 122.113 136.084 122.113 136.412C122.113 136.704 122.219 136.934 122.431 137.103C122.643 137.272 122.974 137.413 123.425 137.526L124.559 137.804C125.241 137.97 125.75 138.223 126.085 138.565C126.42 138.903 126.587 139.339 126.587 139.872C126.587 140.31 126.461 140.701 126.209 141.045C125.961 141.39 125.613 141.662 125.165 141.861C124.718 142.06 124.197 142.159 123.604 142.159C122.825 142.159 122.181 141.99 121.67 141.652C121.16 141.314 120.837 140.82 120.701 140.17L121.814 139.892C121.92 140.303 122.121 140.611 122.416 140.817C122.714 141.022 123.104 141.125 123.584 141.125C124.131 141.125 124.565 141.009 124.887 140.777C125.212 140.542 125.374 140.26 125.374 139.932C125.374 139.667 125.281 139.445 125.096 139.266C124.91 139.083 124.625 138.947 124.24 138.858L122.968 138.56C122.268 138.394 121.755 138.137 121.426 137.789C121.102 137.438 120.939 136.999 120.939 136.472C120.939 136.041 121.06 135.66 121.302 135.328C121.547 134.997 121.881 134.737 122.301 134.548C122.726 134.359 123.206 134.264 123.743 134.264C124.499 134.264 125.092 134.43 125.523 134.761C125.957 135.093 126.266 135.53 126.448 136.074ZM135.492 142.159C134.757 142.159 134.122 141.997 133.588 141.672C133.058 141.344 132.649 140.886 132.36 140.3C132.075 139.71 131.933 139.024 131.933 138.241C131.933 137.459 132.075 136.77 132.36 136.173C132.649 135.573 133.05 135.106 133.563 134.771C134.08 134.433 134.684 134.264 135.373 134.264C135.771 134.264 136.164 134.33 136.551 134.463C136.939 134.596 137.292 134.811 137.61 135.109C137.928 135.404 138.182 135.795 138.371 136.283C138.56 136.77 138.654 137.37 138.654 138.082V138.58H132.768V137.565H137.461C137.461 137.134 137.375 136.75 137.203 136.412C137.034 136.074 136.792 135.807 136.477 135.612C136.165 135.416 135.797 135.318 135.373 135.318C134.906 135.318 134.501 135.434 134.16 135.666C133.822 135.895 133.562 136.193 133.379 136.561C133.197 136.929 133.106 137.323 133.106 137.744V138.42C133.106 138.997 133.205 139.486 133.404 139.887C133.606 140.285 133.887 140.588 134.244 140.797C134.602 141.002 135.018 141.105 135.492 141.105C135.801 141.105 136.079 141.062 136.328 140.976C136.579 140.886 136.797 140.754 136.979 140.578C137.161 140.399 137.302 140.177 137.401 139.912L138.535 140.23C138.416 140.615 138.215 140.953 137.933 141.244C137.652 141.533 137.304 141.758 136.889 141.92C136.475 142.08 136.009 142.159 135.492 142.159ZM141.612 131.818V142H140.439V131.818H141.612ZM143.761 142V134.364H144.935V142H143.761ZM144.358 133.091C144.129 133.091 143.932 133.013 143.766 132.857C143.604 132.701 143.523 132.514 143.523 132.295C143.523 132.077 143.604 131.889 143.766 131.734C143.932 131.578 144.129 131.5 144.358 131.5C144.587 131.5 144.782 131.578 144.945 131.734C145.11 131.889 145.193 132.077 145.193 132.295C145.193 132.514 145.11 132.701 144.945 132.857C144.782 133.013 144.587 133.091 144.358 133.091ZM150.405 134.364V135.358H146.447V134.364H150.405ZM147.601 132.534H148.774V139.812C148.774 140.144 148.822 140.393 148.918 140.558C149.018 140.721 149.144 140.83 149.296 140.886C149.452 140.939 149.616 140.966 149.788 140.966C149.917 140.966 150.023 140.959 150.106 140.946C150.189 140.929 150.256 140.916 150.305 140.906L150.544 141.96C150.464 141.99 150.353 142.02 150.211 142.05C150.068 142.083 149.888 142.099 149.669 142.099C149.337 142.099 149.013 142.028 148.694 141.886C148.38 141.743 148.118 141.526 147.909 141.234C147.703 140.943 147.601 140.575 147.601 140.131V132.534ZM157.28 137.406V142H156.107V134.364H157.241V135.557H157.34C157.519 135.169 157.791 134.857 158.155 134.622C158.52 134.384 158.991 134.264 159.567 134.264C160.084 134.264 160.537 134.37 160.925 134.582C161.312 134.791 161.614 135.109 161.829 135.537C162.045 135.961 162.153 136.498 162.153 137.148V142H160.979V137.227C160.979 136.627 160.823 136.16 160.512 135.825C160.2 135.487 159.773 135.318 159.229 135.318C158.855 135.318 158.52 135.399 158.225 135.562C157.933 135.724 157.703 135.961 157.534 136.273C157.365 136.584 157.28 136.962 157.28 137.406ZM164.297 142V134.364H165.47V142H164.297ZM164.893 133.091C164.664 133.091 164.467 133.013 164.301 132.857C164.139 132.701 164.058 132.514 164.058 132.295C164.058 132.077 164.139 131.889 164.301 131.734C164.467 131.578 164.664 131.5 164.893 131.5C165.122 131.5 165.317 131.578 165.48 131.734C165.645 131.889 165.728 132.077 165.728 132.295C165.728 132.514 165.645 132.701 165.48 132.857C165.317 133.013 165.122 133.091 164.893 133.091ZM167.778 142V131.818H168.951V135.577H169.051C169.137 135.444 169.256 135.275 169.409 135.07C169.564 134.861 169.786 134.675 170.075 134.513C170.366 134.347 170.761 134.264 171.258 134.264C171.901 134.264 172.468 134.425 172.958 134.746C173.449 135.068 173.832 135.524 174.107 136.114C174.382 136.704 174.519 137.4 174.519 138.202C174.519 139.01 174.382 139.711 174.107 140.305C173.832 140.895 173.45 141.352 172.963 141.677C172.476 141.998 171.914 142.159 171.278 142.159C170.787 142.159 170.395 142.078 170.1 141.915C169.805 141.75 169.578 141.562 169.419 141.354C169.259 141.142 169.137 140.966 169.051 140.827H168.911V142H167.778ZM168.931 138.182C168.931 138.759 169.016 139.267 169.185 139.708C169.354 140.146 169.601 140.489 169.926 140.737C170.25 140.982 170.648 141.105 171.119 141.105C171.609 141.105 172.019 140.976 172.347 140.717C172.678 140.455 172.927 140.104 173.093 139.663C173.262 139.219 173.346 138.725 173.346 138.182C173.346 137.645 173.263 137.161 173.097 136.73C172.935 136.296 172.688 135.953 172.357 135.701C172.029 135.446 171.616 135.318 171.119 135.318C170.642 135.318 170.24 135.439 169.916 135.681C169.591 135.92 169.346 136.254 169.18 136.685C169.014 137.113 168.931 137.612 168.931 138.182ZM177.487 137.406V142H176.314V131.818H177.487V135.557H177.587C177.766 135.162 178.034 134.849 178.392 134.617C178.753 134.382 179.234 134.264 179.834 134.264C180.354 134.264 180.81 134.369 181.201 134.577C181.592 134.783 181.896 135.099 182.111 135.527C182.33 135.951 182.439 136.491 182.439 137.148V142H181.266V137.227C181.266 136.621 181.108 136.152 180.794 135.82C180.482 135.486 180.049 135.318 179.496 135.318C179.111 135.318 178.767 135.399 178.462 135.562C178.16 135.724 177.922 135.961 177.746 136.273C177.574 136.584 177.487 136.962 177.487 137.406ZM28.321 166.179C27.8371 166.179 27.398 166.088 27.0036 165.906C26.6091 165.72 26.2959 165.453 26.0639 165.105C25.8319 164.754 25.7159 164.33 25.7159 163.832C25.7159 163.395 25.8021 163.04 25.9744 162.768C26.1468 162.493 26.3771 162.278 26.6655 162.122C26.9538 161.966 27.272 161.85 27.62 161.774C27.9714 161.695 28.3243 161.632 28.679 161.585C29.143 161.526 29.5192 161.481 29.8075 161.451C30.0992 161.418 30.3113 161.363 30.4439 161.287C30.5798 161.211 30.6477 161.078 30.6477 160.889V160.849C30.6477 160.359 30.5135 159.978 30.245 159.706C29.9799 159.434 29.5772 159.298 29.0369 159.298C28.4768 159.298 28.0376 159.421 27.7195 159.666C27.4013 159.911 27.1776 160.173 27.0483 160.452L25.9347 160.054C26.1335 159.59 26.3987 159.229 26.7301 158.97C27.0649 158.708 27.4295 158.526 27.8239 158.423C28.2216 158.317 28.6127 158.264 28.9972 158.264C29.2424 158.264 29.5241 158.294 29.8423 158.354C30.1638 158.41 30.4737 158.528 30.772 158.707C31.0736 158.886 31.3239 159.156 31.5227 159.517C31.7216 159.878 31.821 160.362 31.821 160.969V166H30.6477V164.966H30.5881C30.5085 165.132 30.3759 165.309 30.1903 165.498C30.0047 165.687 29.7578 165.848 29.4496 165.98C29.1413 166.113 28.7652 166.179 28.321 166.179ZM28.5 165.125C28.964 165.125 29.3551 165.034 29.6733 164.852C29.9948 164.669 30.2367 164.434 30.3991 164.146C30.5649 163.857 30.6477 163.554 30.6477 163.236V162.162C30.598 162.222 30.4886 162.276 30.3196 162.326C30.1539 162.372 29.9616 162.414 29.7429 162.45C29.5275 162.483 29.317 162.513 29.1115 162.54C28.9093 162.563 28.7453 162.583 28.6193 162.599C28.3144 162.639 28.0294 162.704 27.7642 162.793C27.5024 162.879 27.2902 163.01 27.1278 163.186C26.9688 163.358 26.8892 163.594 26.8892 163.892C26.8892 164.3 27.04 164.608 27.3416 164.817C27.6465 165.022 28.0327 165.125 28.5 165.125ZM37.0648 166.159C36.3489 166.159 35.7324 165.99 35.2154 165.652C34.6983 165.314 34.3006 164.848 34.0222 164.255C33.7438 163.662 33.6046 162.984 33.6046 162.222C33.6046 161.446 33.7471 160.762 34.0321 160.168C34.3205 159.572 34.7215 159.106 35.2353 158.771C35.7523 158.433 36.3555 158.264 37.0449 158.264C37.5819 158.264 38.0658 158.364 38.4966 158.562C38.9275 158.761 39.2805 159.04 39.5556 159.398C39.8307 159.756 40.0014 160.173 40.0676 160.651H38.8944C38.8049 160.303 38.606 159.994 38.2978 159.726C37.9928 159.454 37.5819 159.318 37.0648 159.318C36.6074 159.318 36.2064 159.437 35.8617 159.676C35.5203 159.911 35.2535 160.245 35.0613 160.675C34.8723 161.103 34.7779 161.605 34.7779 162.182C34.7779 162.772 34.8707 163.286 35.0563 163.723C35.2452 164.161 35.5104 164.5 35.8517 164.742C36.1964 164.984 36.6008 165.105 37.0648 165.105C37.3697 165.105 37.6465 165.052 37.8951 164.946C38.1436 164.84 38.3541 164.688 38.5265 164.489C38.6988 164.29 38.8214 164.051 38.8944 163.773H40.0676C40.0014 164.223 39.8373 164.629 39.5755 164.991C39.3169 165.349 38.9739 165.634 38.5463 165.846C38.1221 166.055 37.6283 166.159 37.0648 166.159ZM44.8851 166.159C44.1692 166.159 43.5527 165.99 43.0357 165.652C42.5186 165.314 42.1209 164.848 41.8425 164.255C41.5641 163.662 41.4249 162.984 41.4249 162.222C41.4249 161.446 41.5674 160.762 41.8525 160.168C42.1408 159.572 42.5418 159.106 43.0556 158.771C43.5726 158.433 44.1758 158.264 44.8652 158.264C45.4022 158.264 45.8861 158.364 46.3169 158.562C46.7478 158.761 47.1008 159.04 47.3759 159.398C47.651 159.756 47.8217 160.173 47.888 160.651H46.7147C46.6252 160.303 46.4263 159.994 46.1181 159.726C45.8132 159.454 45.4022 159.318 44.8851 159.318C44.4277 159.318 44.0267 159.437 43.682 159.676C43.3406 159.911 43.0738 160.245 42.8816 160.675C42.6926 161.103 42.5982 161.605 42.5982 162.182C42.5982 162.772 42.691 163.286 42.8766 163.723C43.0655 164.161 43.3307 164.5 43.6721 164.742C44.0167 164.984 44.4211 165.105 44.8851 165.105C45.19 165.105 45.4668 165.052 45.7154 164.946C45.964 164.84 46.1744 164.688 46.3468 164.489C46.5191 164.29 46.6417 164.051 46.7147 163.773H47.888C47.8217 164.223 47.6576 164.629 47.3958 164.991C47.1373 165.349 46.7942 165.634 46.3667 165.846C45.9424 166.055 45.4486 166.159 44.8851 166.159ZM54.4157 162.878V158.364H55.589V166H54.4157V164.707H54.3361C54.1571 165.095 53.8787 165.425 53.5009 165.697C53.123 165.965 52.6458 166.099 52.0691 166.099C51.5918 166.099 51.1676 165.995 50.7963 165.786C50.4251 165.574 50.1335 165.256 49.9213 164.832C49.7092 164.404 49.6032 163.866 49.6032 163.216V158.364H50.7765V163.136C50.7765 163.693 50.9322 164.137 51.2438 164.469C51.5587 164.8 51.9597 164.966 52.4469 164.966C52.7386 164.966 53.0352 164.891 53.3368 164.742C53.6417 164.593 53.897 164.364 54.1025 164.056C54.3113 163.748 54.4157 163.355 54.4157 162.878ZM57.7379 166V158.364H58.8714V159.557H58.9709C59.13 159.149 59.3868 158.833 59.7415 158.607C60.0961 158.379 60.522 158.264 61.0192 158.264C61.523 158.264 61.9422 158.379 62.277 158.607C62.6151 158.833 62.8786 159.149 63.0675 159.557H63.147C63.3426 159.162 63.6359 158.849 64.027 158.617C64.4181 158.382 64.8871 158.264 65.4339 158.264C66.1167 158.264 66.6752 158.478 67.1094 158.906C67.5436 159.33 67.7607 159.991 67.7607 160.889V166H66.5874V160.889C66.5874 160.326 66.4332 159.923 66.125 159.681C65.8168 159.439 65.4538 159.318 65.0362 159.318C64.4993 159.318 64.0833 159.481 63.7884 159.805C63.4934 160.127 63.3459 160.535 63.3459 161.028V166H62.1527V160.77C62.1527 160.336 62.0118 159.986 61.7301 159.721C61.4484 159.452 61.0855 159.318 60.6413 159.318C60.3364 159.318 60.0514 159.399 59.7862 159.562C59.5244 159.724 59.3123 159.95 59.1499 160.238C58.9908 160.523 58.9112 160.853 58.9112 161.227V166H57.7379ZM75.315 160.074L74.261 160.372C74.1947 160.196 74.0969 160.026 73.9677 159.86C73.8417 159.691 73.6694 159.552 73.4506 159.442C73.2319 159.333 72.9518 159.278 72.6104 159.278C72.1431 159.278 71.7537 159.386 71.4421 159.602C71.1339 159.814 70.9798 160.084 70.9798 160.412C70.9798 160.704 71.0858 160.934 71.2979 161.103C71.5101 161.272 71.8415 161.413 72.2923 161.526L73.4258 161.804C74.1085 161.97 74.6173 162.223 74.9521 162.565C75.2868 162.903 75.4542 163.339 75.4542 163.872C75.4542 164.31 75.3282 164.701 75.0763 165.045C74.8278 165.39 74.4798 165.662 74.0323 165.861C73.5849 166.06 73.0645 166.159 72.4712 166.159C71.6924 166.159 71.0477 165.99 70.5373 165.652C70.0269 165.314 69.7037 164.82 69.5678 164.17L70.6815 163.892C70.7875 164.303 70.988 164.611 71.283 164.817C71.5813 165.022 71.9708 165.125 72.4513 165.125C72.9982 165.125 73.4324 165.009 73.7539 164.777C74.0787 164.542 74.2411 164.26 74.2411 163.932C74.2411 163.667 74.1483 163.445 73.9627 163.266C73.7771 163.083 73.4921 162.947 73.1076 162.858L71.8349 162.56C71.1355 162.394 70.6218 162.137 70.2937 161.789C69.9689 161.438 69.8065 160.999 69.8065 160.472C69.8065 160.041 69.9274 159.66 70.1694 159.328C70.4147 158.997 70.7478 158.737 71.1687 158.548C71.5929 158.359 72.0735 158.264 72.6104 158.264C73.3661 158.264 73.9594 158.43 74.3903 158.761C74.8245 159.093 75.1327 159.53 75.315 160.074ZM79.4675 166.179C78.9836 166.179 78.5444 166.088 78.15 165.906C77.7556 165.72 77.4424 165.453 77.2104 165.105C76.9784 164.754 76.8624 164.33 76.8624 163.832C76.8624 163.395 76.9486 163.04 77.1209 162.768C77.2933 162.493 77.5236 162.278 77.812 162.122C78.1003 161.966 78.4185 161.85 78.7665 161.774C79.1178 161.695 79.4708 161.632 79.8255 161.585C80.2895 161.526 80.6657 161.481 80.954 161.451C81.2457 161.418 81.4578 161.363 81.5904 161.287C81.7263 161.211 81.7942 161.078 81.7942 160.889V160.849C81.7942 160.359 81.66 159.978 81.3915 159.706C81.1264 159.434 80.7237 159.298 80.1834 159.298C79.6233 159.298 79.1841 159.421 78.8659 159.666C78.5478 159.911 78.324 160.173 78.1948 160.452L77.0811 160.054C77.28 159.59 77.5452 159.229 77.8766 158.97C78.2114 158.708 78.5759 158.526 78.9703 158.423C79.3681 158.317 79.7592 158.264 80.1436 158.264C80.3889 158.264 80.6706 158.294 80.9888 158.354C81.3103 158.41 81.6202 158.528 81.9185 158.707C82.2201 158.886 82.4703 159.156 82.6692 159.517C82.8681 159.878 82.9675 160.362 82.9675 160.969V166H81.7942V164.966H81.7346C81.655 165.132 81.5224 165.309 81.3368 165.498C81.1512 165.687 80.9043 165.848 80.5961 165.98C80.2878 166.113 79.9116 166.179 79.4675 166.179ZM79.6465 165.125C80.1105 165.125 80.5016 165.034 80.8198 164.852C81.1413 164.669 81.3832 164.434 81.5456 164.146C81.7114 163.857 81.7942 163.554 81.7942 163.236V162.162C81.7445 162.222 81.6351 162.276 81.4661 162.326C81.3004 162.372 81.1081 162.414 80.8894 162.45C80.6739 162.483 80.4635 162.513 80.258 162.54C80.0558 162.563 79.8917 162.583 79.7658 162.599C79.4609 162.639 79.1758 162.704 78.9107 162.793C78.6489 162.879 78.4367 163.01 78.2743 163.186C78.1152 163.358 78.0357 163.594 78.0357 163.892C78.0357 164.3 78.1865 164.608 78.4881 164.817C78.793 165.022 79.1792 165.125 79.6465 165.125ZM86.2823 161.406V166H85.109V158.364H86.2425V159.557H86.342C86.521 159.169 86.7927 158.857 87.1573 158.622C87.5219 158.384 87.9925 158.264 88.5692 158.264C89.0863 158.264 89.5387 158.37 89.9265 158.582C90.3143 158.791 90.6159 159.109 90.8313 159.537C91.0468 159.961 91.1545 160.498 91.1545 161.148V166H89.9812V161.227C89.9812 160.627 89.8254 160.16 89.5138 159.825C89.2023 159.487 88.7747 159.318 88.2312 159.318C87.8567 159.318 87.5219 159.399 87.2269 159.562C86.9353 159.724 86.7049 159.961 86.5359 160.273C86.3668 160.584 86.2823 160.962 86.2823 161.406ZM95.0485 164.608L94.9689 165.145C94.9126 165.523 94.8264 165.927 94.7104 166.358C94.5977 166.789 94.4801 167.195 94.3574 167.576C94.2348 167.957 94.1337 168.26 94.0542 168.486H93.1593C93.2024 168.274 93.2587 167.994 93.3283 167.646C93.3979 167.298 93.4675 166.908 93.5371 166.477C93.61 166.05 93.6697 165.612 93.7161 165.165L93.7757 164.608H95.0485ZM104.362 166.159C103.626 166.159 102.991 165.997 102.457 165.672C101.927 165.344 101.518 164.886 101.229 164.3C100.944 163.71 100.802 163.024 100.802 162.241C100.802 161.459 100.944 160.77 101.229 160.173C101.518 159.573 101.919 159.106 102.433 158.771C102.95 158.433 103.553 158.264 104.242 158.264C104.64 158.264 105.033 158.33 105.42 158.463C105.808 158.596 106.161 158.811 106.479 159.109C106.798 159.404 107.051 159.795 107.24 160.283C107.429 160.77 107.523 161.37 107.523 162.082V162.58H101.637V161.565H106.33C106.33 161.134 106.244 160.75 106.072 160.412C105.903 160.074 105.661 159.807 105.346 159.612C105.034 159.416 104.666 159.318 104.242 159.318C103.775 159.318 103.371 159.434 103.029 159.666C102.691 159.895 102.431 160.193 102.249 160.561C102.066 160.929 101.975 161.323 101.975 161.744V162.42C101.975 162.997 102.075 163.486 102.273 163.887C102.476 164.285 102.756 164.588 103.114 164.797C103.472 165.002 103.888 165.105 104.362 165.105C104.67 165.105 104.948 165.062 105.197 164.976C105.449 164.886 105.666 164.754 105.848 164.578C106.03 164.399 106.171 164.177 106.271 163.912L107.404 164.23C107.285 164.615 107.084 164.953 106.803 165.244C106.521 165.533 106.173 165.758 105.759 165.92C105.344 166.08 104.879 166.159 104.362 166.159ZM112.391 169.023C111.824 169.023 111.337 168.95 110.929 168.804C110.521 168.661 110.182 168.473 109.91 168.237C109.641 168.005 109.428 167.757 109.268 167.491L110.203 166.835C110.309 166.974 110.443 167.134 110.606 167.312C110.768 167.495 110.99 167.652 111.272 167.785C111.557 167.921 111.93 167.989 112.391 167.989C113.007 167.989 113.516 167.839 113.917 167.541C114.318 167.243 114.518 166.776 114.518 166.139V164.588H114.419C114.333 164.727 114.21 164.9 114.051 165.105C113.895 165.307 113.67 165.488 113.375 165.647C113.083 165.803 112.689 165.881 112.192 165.881C111.575 165.881 111.022 165.735 110.531 165.443C110.044 165.152 109.658 164.727 109.373 164.17C109.091 163.614 108.95 162.937 108.95 162.142C108.95 161.36 109.088 160.679 109.363 160.099C109.638 159.515 110.021 159.065 110.511 158.746C111.002 158.425 111.569 158.264 112.212 158.264C112.709 158.264 113.103 158.347 113.395 158.513C113.69 158.675 113.915 158.861 114.071 159.07C114.23 159.275 114.353 159.444 114.439 159.577H114.558V158.364H115.692V166.219C115.692 166.875 115.543 167.409 115.244 167.82C114.949 168.234 114.552 168.537 114.051 168.729C113.554 168.925 113 169.023 112.391 169.023ZM112.351 164.827C112.821 164.827 113.219 164.719 113.544 164.504C113.869 164.288 114.116 163.978 114.285 163.574C114.454 163.17 114.538 162.686 114.538 162.122C114.538 161.572 114.455 161.086 114.29 160.665C114.124 160.245 113.879 159.915 113.554 159.676C113.229 159.437 112.828 159.318 112.351 159.318C111.854 159.318 111.439 159.444 111.108 159.696C110.78 159.948 110.533 160.286 110.367 160.71C110.205 161.134 110.124 161.605 110.124 162.122C110.124 162.652 110.206 163.121 110.372 163.529C110.541 163.933 110.79 164.252 111.118 164.484C111.449 164.712 111.86 164.827 112.351 164.827ZM121.041 166.159C120.305 166.159 119.671 165.997 119.137 165.672C118.607 165.344 118.197 164.886 117.909 164.3C117.624 163.71 117.482 163.024 117.482 162.241C117.482 161.459 117.624 160.77 117.909 160.173C118.197 159.573 118.598 159.106 119.112 158.771C119.629 158.433 120.232 158.264 120.922 158.264C121.32 158.264 121.712 158.33 122.1 158.463C122.488 158.596 122.841 158.811 123.159 159.109C123.477 159.404 123.731 159.795 123.92 160.283C124.109 160.77 124.203 161.37 124.203 162.082V162.58H118.317V161.565H123.01C123.01 161.134 122.924 160.75 122.751 160.412C122.582 160.074 122.34 159.807 122.026 159.612C121.714 159.416 121.346 159.318 120.922 159.318C120.455 159.318 120.05 159.434 119.709 159.666C119.371 159.895 119.111 160.193 118.928 160.561C118.746 160.929 118.655 161.323 118.655 161.744V162.42C118.655 162.997 118.754 163.486 118.953 163.887C119.155 164.285 119.435 164.588 119.793 164.797C120.151 165.002 120.567 165.105 121.041 165.105C121.349 165.105 121.628 165.062 121.876 164.976C122.128 164.886 122.345 164.754 122.528 164.578C122.71 164.399 122.851 164.177 122.95 163.912L124.084 164.23C123.964 164.615 123.764 164.953 123.482 165.244C123.201 165.533 122.853 165.758 122.438 165.92C122.024 166.08 121.558 166.159 121.041 166.159ZM129.309 158.364V159.358H125.352V158.364H129.309ZM126.505 156.534H127.678V163.812C127.678 164.144 127.726 164.393 127.822 164.558C127.922 164.721 128.048 164.83 128.2 164.886C128.356 164.939 128.52 164.966 128.692 164.966C128.822 164.966 128.928 164.959 129.011 164.946C129.094 164.929 129.16 164.916 129.21 164.906L129.448 165.96C129.369 165.99 129.258 166.02 129.115 166.05C128.973 166.083 128.792 166.099 128.573 166.099C128.242 166.099 127.917 166.028 127.599 165.886C127.284 165.743 127.022 165.526 126.813 165.234C126.608 164.943 126.505 164.575 126.505 164.131V156.534ZM137.259 166.179C136.775 166.179 136.335 166.088 135.941 165.906C135.547 165.72 135.233 165.453 135.001 165.105C134.769 164.754 134.653 164.33 134.653 163.832C134.653 163.395 134.74 163.04 134.912 162.768C135.084 162.493 135.315 162.278 135.603 162.122C135.891 161.966 136.21 161.85 136.558 161.774C136.909 161.695 137.262 161.632 137.616 161.585C138.08 161.526 138.457 161.481 138.745 161.451C139.037 161.418 139.249 161.363 139.381 161.287C139.517 161.211 139.585 161.078 139.585 160.889V160.849C139.585 160.359 139.451 159.978 139.183 159.706C138.917 159.434 138.515 159.298 137.974 159.298C137.414 159.298 136.975 159.421 136.657 159.666C136.339 159.911 136.115 160.173 135.986 160.452L134.872 160.054C135.071 159.59 135.336 159.229 135.668 158.97C136.002 158.708 136.367 158.526 136.761 158.423C137.159 158.317 137.55 158.264 137.935 158.264C138.18 158.264 138.462 158.294 138.78 158.354C139.101 158.41 139.411 158.528 139.71 158.707C140.011 158.886 140.261 159.156 140.46 159.517C140.659 159.878 140.759 160.362 140.759 160.969V166H139.585V164.966H139.526C139.446 165.132 139.313 165.309 139.128 165.498C138.942 165.687 138.695 165.848 138.387 165.98C138.079 166.113 137.703 166.179 137.259 166.179ZM137.438 165.125C137.902 165.125 138.293 165.034 138.611 164.852C138.932 164.669 139.174 164.434 139.337 164.146C139.502 163.857 139.585 163.554 139.585 163.236V162.162C139.536 162.222 139.426 162.276 139.257 162.326C139.091 162.372 138.899 162.414 138.68 162.45C138.465 162.483 138.254 162.513 138.049 162.54C137.847 162.563 137.683 162.583 137.557 162.599C137.252 162.639 136.967 162.704 136.702 162.793C136.44 162.879 136.228 163.01 136.065 163.186C135.906 163.358 135.827 163.594 135.827 163.892C135.827 164.3 135.978 164.608 136.279 164.817C136.584 165.022 136.97 165.125 137.438 165.125ZM146.221 158.364V159.358H142.264V158.364H146.221ZM143.417 156.534H144.59V163.812C144.59 164.144 144.638 164.393 144.735 164.558C144.834 164.721 144.96 164.83 145.112 164.886C145.268 164.939 145.432 164.966 145.605 164.966C145.734 164.966 145.84 164.959 145.923 164.946C146.006 164.929 146.072 164.916 146.122 164.906L146.36 165.96C146.281 165.99 146.17 166.02 146.027 166.05C145.885 166.083 145.704 166.099 145.485 166.099C145.154 166.099 144.829 166.028 144.511 165.886C144.196 165.743 143.934 165.526 143.725 165.234C143.52 164.943 143.417 164.575 143.417 164.131V156.534Z" fill="#4A5568"/>
</g>
<defs>
<filter id="filter0_d_5551_27798" x="0.217206" y="0.940054" width="237.36" height="227.632" filterUnits="userSpaceOnUse" color-interpolation-filters="sRGB">
<feFlood flood-opacity="0" result="BackgroundImageFix"/>
<feColorMatrix in="SourceAlpha" type="matrix" values="0 0 0 0 0 0 0 0 0 0 0 0 0 0 0 0 0 0 127 0" result="hardAlpha"/>
<feOffset dx="9.39704" dy="10.1199"/>
<feGaussianBlur stdDeviation="7.58992"/>
<feComposite in2="hardAlpha" operator="out"/>
<feColorMatrix type="matrix" values="0 0 0 0 0.0375 0 0 0 0 0.18975 0 0 0 0 0.3 0 0 0 0.06 0"/>
<feBlend mode="normal" in2="BackgroundImageFix" result="effect1_dropShadow_5551_27798"/>
<feBlend mode="normal" in="SourceGraphic" in2="effect1_dropShadow_5551_27798" result="shape"/>
</filter>
</defs>
</svg>
