<svg width="275" height="229" viewBox="0 0 275 229" fill="none" xmlns="http://www.w3.org/2000/svg">
<g filter="url(#filter0_d_5551_27757)">
<rect x="6" y="6" width="244" height="197.272" rx="16" fill="#FFCF54"/>
<path d="M58.3239 43.2727H52.7159C52.6761 42.8087 52.5701 42.3878 52.3977 42.0099C52.232 41.6321 52 41.3073 51.7017 41.0355C51.41 40.7571 51.0554 40.545 50.6378 40.3991C50.2202 40.2467 49.7462 40.1705 49.2159 40.1705C48.2879 40.1705 47.5024 40.3958 46.8594 40.8466C46.223 41.2973 45.7391 41.9437 45.4077 42.7855C45.0829 43.6274 44.9205 44.6383 44.9205 45.8182C44.9205 47.0644 45.0862 48.1084 45.4176 48.9503C45.7557 49.7855 46.2429 50.4152 46.8793 50.8395C47.5156 51.2571 48.2813 51.4659 49.1761 51.4659C49.6866 51.4659 50.1439 51.4029 50.5483 51.277C50.9527 51.1444 51.304 50.9555 51.6023 50.7102C51.9006 50.465 52.1425 50.17 52.3281 49.8253C52.5204 49.474 52.6496 49.0795 52.7159 48.642L58.3239 48.6818C58.2576 49.5436 58.0156 50.4219 57.598 51.3168C57.1804 52.205 56.5871 53.027 55.8182 53.7827C55.0559 54.5317 54.1113 55.1349 52.9844 55.5923C51.8575 56.0497 50.5483 56.2784 49.0568 56.2784C47.1875 56.2784 45.5104 55.8774 44.0256 55.0753C42.5473 54.2732 41.3774 53.0933 40.5156 51.5355C39.6605 49.9777 39.233 48.072 39.233 45.8182C39.233 43.5511 39.6705 41.642 40.5455 40.0909C41.4205 38.5331 42.6004 37.3565 44.0852 36.5611C45.5701 35.759 47.2273 35.358 49.0568 35.358C50.3428 35.358 51.526 35.5336 52.6065 35.8849C53.687 36.2363 54.6349 36.75 55.4503 37.4261C56.2656 38.0956 56.9219 38.9209 57.419 39.902C57.9162 40.883 58.2178 42.0066 58.3239 43.2727ZM68.2298 56.2784C66.5991 56.2784 65.1938 55.9669 64.0138 55.3438C62.8406 54.714 61.9357 53.8125 61.2994 52.6392C60.6696 51.4593 60.3548 50.0473 60.3548 48.4034C60.3548 46.8258 60.6729 45.447 61.3093 44.267C61.9457 43.0871 62.8439 42.169 64.0039 41.5128C65.1639 40.8565 66.5328 40.5284 68.1104 40.5284C69.2638 40.5284 70.3079 40.7074 71.2425 41.0653C72.1772 41.4233 72.976 41.9437 73.6388 42.6264C74.3017 43.3026 74.8121 44.1245 75.1701 45.0923C75.5281 46.0601 75.707 47.1506 75.707 48.3636V49.6364H62.065V46.6136H70.6559C70.6493 46.1761 70.5366 45.7917 70.3178 45.4602C70.1057 45.1222 69.8174 44.8603 69.4528 44.6747C69.0948 44.4825 68.6871 44.3864 68.2298 44.3864C67.7856 44.3864 67.378 44.4825 67.0067 44.6747C66.6355 44.8603 66.3372 45.1188 66.1119 45.4503C65.8931 45.7817 65.7771 46.1695 65.7638 46.6136V49.875C65.7638 50.3655 65.8666 50.803 66.0721 51.1875C66.2776 51.572 66.5726 51.8736 66.957 52.0923C67.3415 52.3111 67.8055 52.4205 68.3491 52.4205C68.7269 52.4205 69.0716 52.3674 69.3832 52.2614C69.7013 52.1553 69.9731 52.0028 70.1985 51.804C70.4239 51.5985 70.5896 51.3532 70.6957 51.0682H75.707C75.5347 52.1288 75.127 53.0502 74.484 53.8324C73.841 54.608 72.9892 55.2112 71.9286 55.642C70.8746 56.0663 69.6417 56.2784 68.2298 56.2784ZM77.9467 56V40.7273H83.2763V43.6307H83.4354C83.7138 42.5568 84.1546 41.7713 84.7578 41.2741C85.3677 40.777 86.0803 40.5284 86.8956 40.5284C87.1342 40.5284 87.3696 40.5483 87.6016 40.5881C87.8402 40.6212 88.0689 40.6709 88.2876 40.7372V45.4205C88.0159 45.3277 87.6811 45.258 87.2834 45.2116C86.8857 45.1652 86.5443 45.142 86.2592 45.142C85.7223 45.142 85.2384 45.2647 84.8075 45.5099C84.3833 45.7486 84.0485 46.0866 83.8033 46.5241C83.558 46.955 83.4354 47.4621 83.4354 48.0455V56H77.9467ZM99.8242 40.7273V44.7045H89.7617V40.7273H99.8242ZM91.7106 37.0682H97.1992V51.0881C97.1992 51.3002 97.2357 51.4792 97.3086 51.625C97.3815 51.7642 97.4942 51.8703 97.6467 51.9432C97.7991 52.0095 97.9947 52.0426 98.2333 52.0426C98.399 52.0426 98.5913 52.0227 98.81 51.983C99.0354 51.9432 99.2011 51.91 99.3072 51.8835L100.103 55.7415C99.8574 55.8144 99.506 55.9039 99.0487 56.0099C98.5979 56.116 98.061 56.1856 97.4379 56.2188C96.1784 56.285 95.1211 56.1558 94.266 55.831C93.4109 55.4995 92.7679 54.9792 92.337 54.2699C91.9061 53.5606 91.6973 52.6723 91.7106 51.6051V37.0682ZM102.064 56V40.7273H107.553V56H102.064ZM104.808 39.1364C104.066 39.1364 103.429 38.8911 102.899 38.4006C102.369 37.91 102.104 37.3201 102.104 36.6307C102.104 35.9413 102.369 35.3513 102.899 34.8608C103.429 34.3703 104.066 34.125 104.808 34.125C105.557 34.125 106.194 34.3703 106.717 34.8608C107.248 35.3513 107.513 35.9413 107.513 36.6307C107.513 37.3201 107.248 37.91 106.717 38.4006C106.194 38.8911 105.557 39.1364 104.808 39.1364ZM119.497 40.7273V44.7045H109.275V40.7273H119.497ZM111.224 56V40.2898C111.224 39.0303 111.449 37.9863 111.9 37.1577C112.351 36.3291 112.987 35.7093 113.809 35.2983C114.631 34.8873 115.599 34.6818 116.713 34.6818C117.409 34.6818 118.085 34.7348 118.741 34.8409C119.404 34.947 119.895 35.0398 120.213 35.1193L119.417 39.0568C119.218 38.9972 118.986 38.9508 118.721 38.9176C118.456 38.8778 118.224 38.858 118.025 38.858C117.508 38.858 117.16 38.9673 116.981 39.1861C116.802 39.4048 116.713 39.6932 116.713 40.0511V56H111.224ZM121.615 56V40.7273H127.103V56H121.615ZM124.359 39.1364C123.617 39.1364 122.98 38.8911 122.45 38.4006C121.92 37.91 121.654 37.3201 121.654 36.6307C121.654 35.9413 121.92 35.3513 122.45 34.8608C122.98 34.3703 123.617 34.125 124.359 34.125C125.108 34.125 125.744 34.3703 126.268 34.8608C126.798 35.3513 127.064 35.9413 127.064 36.6307C127.064 37.3201 126.798 37.91 126.268 38.4006C125.744 38.8911 125.108 39.1364 124.359 39.1364ZM137.258 56.2784C135.601 56.2784 134.182 55.9503 133.002 55.294C131.822 54.6312 130.917 53.7098 130.288 52.5298C129.658 51.3433 129.343 49.9678 129.343 48.4034C129.343 46.839 129.658 45.4669 130.288 44.2869C130.917 43.1004 131.822 42.179 133.002 41.5227C134.182 40.8598 135.601 40.5284 137.258 40.5284C138.756 40.5284 140.052 40.8002 141.146 41.3438C142.246 41.8807 143.098 42.643 143.701 43.6307C144.304 44.6117 144.609 45.7652 144.616 47.0909H139.525C139.452 46.2888 139.22 45.679 138.829 45.2614C138.444 44.8371 137.947 44.625 137.337 44.625C136.86 44.625 136.442 44.7642 136.085 45.0426C135.727 45.3144 135.448 45.7287 135.249 46.2855C135.05 46.8357 134.951 47.5284 134.951 48.3636C134.951 49.1989 135.05 49.8949 135.249 50.4517C135.448 51.0019 135.727 51.4162 136.085 51.6946C136.442 51.9664 136.86 52.1023 137.337 52.1023C137.742 52.1023 138.1 52.0095 138.411 51.8239C138.723 51.6316 138.975 51.3532 139.167 50.9886C139.366 50.6174 139.485 50.1667 139.525 49.6364H144.616C144.596 50.982 144.288 52.1553 143.691 53.1562C143.094 54.1506 142.249 54.9195 141.156 55.4631C140.068 56.0066 138.769 56.2784 137.258 56.2784ZM151.136 56.2386C150.162 56.2386 149.3 56.0795 148.551 55.7614C147.808 55.4366 147.225 54.946 146.801 54.2898C146.377 53.6335 146.164 52.7983 146.164 51.7841C146.164 50.9489 146.307 50.2363 146.592 49.6463C146.877 49.0497 147.275 48.5625 147.785 48.1847C148.296 47.8068 148.889 47.5185 149.565 47.3196C150.248 47.1207 150.984 46.9915 151.772 46.9318C152.627 46.8655 153.314 46.786 153.831 46.6932C154.354 46.5937 154.732 46.4579 154.964 46.2855C155.196 46.1065 155.312 45.8712 155.312 45.5795V45.5398C155.312 45.142 155.16 44.8371 154.855 44.625C154.55 44.4129 154.159 44.3068 153.681 44.3068C153.158 44.3068 152.73 44.4228 152.399 44.6548C152.074 44.8802 151.878 45.2282 151.812 45.6989H146.761C146.827 44.7708 147.122 43.9157 147.646 43.1335C148.176 42.3447 148.949 41.715 149.963 41.2443C150.977 40.767 152.243 40.5284 153.761 40.5284C154.855 40.5284 155.836 40.6577 156.704 40.9162C157.573 41.1681 158.312 41.5227 158.922 41.9801C159.531 42.4309 159.995 42.9612 160.314 43.571C160.638 44.1742 160.801 44.8305 160.801 45.5398V56H155.67V53.8523H155.551C155.246 54.4223 154.875 54.883 154.437 55.2344C154.006 55.5857 153.512 55.8409 152.956 56C152.405 56.1591 151.799 56.2386 151.136 56.2386ZM152.926 52.7784C153.343 52.7784 153.734 52.6922 154.099 52.5199C154.47 52.3475 154.772 52.099 155.004 51.7741C155.236 51.4493 155.352 51.0549 155.352 50.5909V49.3182C155.206 49.3778 155.05 49.4342 154.885 49.4872C154.725 49.5402 154.553 49.59 154.368 49.6364C154.189 49.6828 153.996 49.7259 153.791 49.7656C153.592 49.8054 153.383 49.8419 153.164 49.875C152.74 49.9413 152.392 50.0507 152.12 50.2031C151.855 50.349 151.656 50.5312 151.524 50.75C151.398 50.9621 151.335 51.2008 151.335 51.4659C151.335 51.8902 151.484 52.215 151.782 52.4403C152.081 52.6657 152.462 52.7784 152.926 52.7784ZM172.531 40.7273V44.7045H162.469V40.7273H172.531ZM164.418 37.0682H169.906V51.0881C169.906 51.3002 169.943 51.4792 170.016 51.625C170.089 51.7642 170.201 51.8703 170.354 51.9432C170.506 52.0095 170.702 52.0426 170.94 52.0426C171.106 52.0426 171.298 52.0227 171.517 51.983C171.742 51.9432 171.908 51.91 172.014 51.8835L172.81 55.7415C172.564 55.8144 172.213 55.9039 171.756 56.0099C171.305 56.116 170.768 56.1856 170.145 56.2188C168.885 56.285 167.828 56.1558 166.973 55.831C166.118 55.4995 165.475 54.9792 165.044 54.2699C164.613 53.5606 164.404 52.6723 164.418 51.6051V37.0682ZM174.771 56V40.7273H180.26V56H174.771ZM177.515 39.1364C176.773 39.1364 176.136 38.8911 175.606 38.4006C175.076 37.91 174.811 37.3201 174.811 36.6307C174.811 35.9413 175.076 35.3513 175.606 34.8608C176.136 34.3703 176.773 34.125 177.515 34.125C178.264 34.125 178.901 34.3703 179.424 34.8608C179.955 35.3513 180.22 35.9413 180.22 36.6307C180.22 37.3201 179.955 37.91 179.424 38.4006C178.901 38.8911 178.264 39.1364 177.515 39.1364ZM190.414 56.2784C188.757 56.2784 187.338 55.9503 186.158 55.294C184.978 54.6312 184.074 53.7098 183.444 52.5298C182.814 51.3433 182.499 49.9678 182.499 48.4034C182.499 46.839 182.814 45.4669 183.444 44.2869C184.074 43.1004 184.978 42.179 186.158 41.5227C187.338 40.8598 188.757 40.5284 190.414 40.5284C192.071 40.5284 193.49 40.8598 194.67 41.5227C195.85 42.179 196.754 43.1004 197.384 44.2869C198.014 45.4669 198.329 46.839 198.329 48.4034C198.329 49.9678 198.014 51.3433 197.384 52.5298C196.754 53.7098 195.85 54.6312 194.67 55.294C193.49 55.9503 192.071 56.2784 190.414 56.2784ZM190.454 52.2216C190.918 52.2216 191.319 52.0658 191.657 51.7543C191.995 51.4427 192.257 50.9986 192.442 50.4219C192.628 49.8452 192.721 49.1591 192.721 48.3636C192.721 47.5616 192.628 46.8755 192.442 46.3054C192.257 45.7287 191.995 45.2846 191.657 44.973C191.319 44.6615 190.918 44.5057 190.454 44.5057C189.963 44.5057 189.542 44.6615 189.191 44.973C188.84 45.2846 188.571 45.7287 188.386 46.3054C188.2 46.8755 188.107 47.5616 188.107 48.3636C188.107 49.1591 188.2 49.8452 188.386 50.4219C188.571 50.9986 188.84 51.4427 189.191 51.7543C189.542 52.0658 189.963 52.2216 190.454 52.2216ZM206.045 47.4091V56H200.556V40.7273H205.766V43.6307H205.925C206.257 42.6629 206.84 41.9039 207.675 41.3537C208.517 40.8035 209.498 40.5284 210.619 40.5284C211.699 40.5284 212.637 40.777 213.433 41.2741C214.235 41.7647 214.854 42.4408 215.292 43.3026C215.736 44.1643 215.955 45.1487 215.948 46.2557V56H210.46V47.4091C210.466 46.6534 210.274 46.0601 209.883 45.6293C209.498 45.1984 208.961 44.983 208.272 44.983C207.821 44.983 207.427 45.0824 207.089 45.2812C206.757 45.4735 206.502 45.7519 206.323 46.1165C206.144 46.4744 206.051 46.9053 206.045 47.4091Z" fill="#615E4A"/>
<path d="M27.233 94V83.8182H28.4659V92.9062H33.1989V94H27.233ZM38.0511 94.1591C37.3617 94.1591 36.7569 93.995 36.2365 93.6669C35.7195 93.3388 35.3151 92.8797 35.0234 92.2898C34.7351 91.6998 34.5909 91.0104 34.5909 90.2216C34.5909 89.4261 34.7351 88.7318 35.0234 88.1385C35.3151 87.5452 35.7195 87.0845 36.2365 86.7564C36.7569 86.4283 37.3617 86.2642 38.0511 86.2642C38.7405 86.2642 39.3438 86.4283 39.8608 86.7564C40.3812 87.0845 40.7855 87.5452 41.0739 88.1385C41.3655 88.7318 41.5114 89.4261 41.5114 90.2216C41.5114 91.0104 41.3655 91.6998 41.0739 92.2898C40.7855 92.8797 40.3812 93.3388 39.8608 93.6669C39.3438 93.995 38.7405 94.1591 38.0511 94.1591ZM38.0511 93.1051C38.5748 93.1051 39.0057 92.9709 39.3438 92.7024C39.6818 92.4339 39.9321 92.081 40.0945 91.6435C40.2569 91.206 40.3381 90.732 40.3381 90.2216C40.3381 89.7112 40.2569 89.2356 40.0945 88.7947C39.9321 88.3539 39.6818 87.9976 39.3438 87.7259C39.0057 87.4541 38.5748 87.3182 38.0511 87.3182C37.5275 87.3182 37.0966 87.4541 36.7585 87.7259C36.4205 87.9976 36.1702 88.3539 36.0078 88.7947C35.8454 89.2356 35.7642 89.7112 35.7642 90.2216C35.7642 90.732 35.8454 91.206 36.0078 91.6435C36.1702 92.081 36.4205 92.4339 36.7585 92.7024C37.0966 92.9709 37.5275 93.1051 38.0511 93.1051ZM43.3024 94V86.3636H44.4359V87.517H44.5154C44.6547 87.1392 44.9065 86.8326 45.2711 86.5973C45.6357 86.362 46.0467 86.2443 46.5041 86.2443C46.5903 86.2443 46.698 86.246 46.8272 86.2493C46.9565 86.2526 47.0543 86.2576 47.1206 86.2642V87.4574C47.0808 87.4474 46.9896 87.4325 46.8471 87.4126C46.7079 87.3894 46.5604 87.3778 46.4047 87.3778C46.0334 87.3778 45.702 87.4557 45.4103 87.6115C45.122 87.764 44.8933 87.9761 44.7243 88.2479C44.5585 88.5163 44.4757 88.8229 44.4757 89.1676V94H43.3024ZM51.4806 94.1591C50.7449 94.1591 50.1101 93.9967 49.5765 93.6719C49.0462 93.3438 48.6369 92.8864 48.3485 92.2997C48.0635 91.7098 47.921 91.0237 47.921 90.2415C47.921 89.4593 48.0635 88.7699 48.3485 88.1733C48.6369 87.5734 49.0379 87.1061 49.5517 86.7713C50.0687 86.4332 50.6719 86.2642 51.3613 86.2642C51.7591 86.2642 52.1518 86.3305 52.5396 86.4631C52.9274 86.5956 53.2804 86.8111 53.5985 87.1094C53.9167 87.4044 54.1703 87.7955 54.3592 88.2827C54.5481 88.7699 54.6426 89.3698 54.6426 90.0824V90.5795H48.7562V89.5653H53.4494C53.4494 89.1345 53.3632 88.75 53.1909 88.4119C53.0218 88.0739 52.7799 87.8071 52.465 87.6115C52.1535 87.416 51.7856 87.3182 51.3613 87.3182C50.894 87.3182 50.4896 87.4342 50.1483 87.6662C49.8102 87.8949 49.55 88.1932 49.3677 88.5611C49.1854 88.929 49.0943 89.3234 49.0943 89.7443V90.4205C49.0943 90.9972 49.1937 91.486 49.3926 91.8871C49.5948 92.2848 49.8748 92.5881 50.2328 92.7969C50.5907 93.0024 51.0067 93.1051 51.4806 93.1051C51.7889 93.1051 52.0673 93.062 52.3159 92.9759C52.5678 92.8864 52.7849 92.7538 52.9672 92.5781C53.1494 92.3991 53.2903 92.1771 53.3897 91.9119L54.5233 92.2301C54.4039 92.6146 54.2034 92.9527 53.9217 93.2443C53.64 93.5327 53.292 93.758 52.8777 93.9205C52.4634 94.0795 51.9977 94.1591 51.4806 94.1591ZM56.4274 94V86.3636H57.5609V87.5568H57.6603C57.8194 87.1491 58.0763 86.8326 58.4309 86.6072C58.7856 86.3786 59.2115 86.2642 59.7086 86.2642C60.2124 86.2642 60.6317 86.3786 60.9664 86.6072C61.3045 86.8326 61.568 87.1491 61.7569 87.5568H61.8365C62.032 87.1624 62.3253 86.8492 62.7164 86.6172C63.1075 86.3819 63.5765 86.2642 64.1234 86.2642C64.8062 86.2642 65.3646 86.478 65.7988 86.9055C66.233 87.3298 66.4501 87.991 66.4501 88.8892V94H65.2768V88.8892C65.2768 88.3258 65.1227 87.9231 64.8145 87.6811C64.5062 87.4392 64.1433 87.3182 63.7257 87.3182C63.1887 87.3182 62.7728 87.4806 62.4778 87.8054C62.1828 88.1269 62.0353 88.5346 62.0353 89.0284V94H60.8422V88.7699C60.8422 88.3357 60.7013 87.986 60.4196 87.7209C60.1378 87.4524 59.7749 87.3182 59.3308 87.3182C59.0259 87.3182 58.7408 87.3994 58.4757 87.5618C58.2138 87.7242 58.0017 87.9496 57.8393 88.2379C57.6802 88.523 57.6007 88.8527 57.6007 89.2273V94H56.4274ZM72.5328 94V86.3636H73.7061V94H72.5328ZM73.1294 85.0909C72.9007 85.0909 72.7035 85.013 72.5378 84.8572C72.3754 84.7015 72.2942 84.5142 72.2942 84.2955C72.2942 84.0767 72.3754 83.8894 72.5378 83.7337C72.7035 83.5779 72.9007 83.5 73.1294 83.5C73.3581 83.5 73.5537 83.5779 73.7161 83.7337C73.8818 83.8894 73.9647 84.0767 73.9647 84.2955C73.9647 84.5142 73.8818 84.7015 73.7161 84.8572C73.5537 85.013 73.3581 85.0909 73.1294 85.0909ZM75.8551 96.8636V86.3636H76.9886V87.5767H77.1278C77.214 87.4441 77.3333 87.2751 77.4858 87.0696C77.6416 86.8608 77.8636 86.6752 78.152 86.5128C78.4437 86.3471 78.8381 86.2642 79.3352 86.2642C79.9782 86.2642 80.545 86.425 81.0355 86.7464C81.526 87.0679 81.9089 87.5237 82.1839 88.1136C82.459 88.7036 82.5966 89.3996 82.5966 90.2017C82.5966 91.0104 82.459 91.7114 82.1839 92.3047C81.9089 92.8946 81.5277 93.352 81.0405 93.6768C80.5533 93.9983 79.9915 94.1591 79.3551 94.1591C78.8646 94.1591 78.4718 94.0779 78.1768 93.9155C77.8819 93.7498 77.6548 93.5625 77.4957 93.3537C77.3366 93.1416 77.214 92.9659 77.1278 92.8267H77.0284V96.8636H75.8551ZM77.0085 90.1818C77.0085 90.7585 77.093 91.2673 77.2621 91.7081C77.4311 92.1456 77.678 92.4886 78.0028 92.7372C78.3277 92.9825 78.7254 93.1051 79.196 93.1051C79.6866 93.1051 80.0959 92.9759 80.424 92.7173C80.7554 92.4555 81.004 92.1042 81.1697 91.6634C81.3388 91.2192 81.4233 90.7254 81.4233 90.1818C81.4233 89.6449 81.3404 89.161 81.1747 88.7301C81.0123 88.2959 80.7654 87.9529 80.4339 87.701C80.1058 87.4458 79.6932 87.3182 79.196 87.3182C78.7188 87.3182 78.3177 87.4392 77.9929 87.6811C77.6681 87.9197 77.4228 88.2545 77.2571 88.6854C77.0914 89.1129 77.0085 89.6117 77.0085 90.1818ZM89.7955 88.0739L88.7415 88.3722C88.6752 88.1965 88.5774 88.0258 88.4482 87.8601C88.3222 87.6911 88.1499 87.5518 87.9311 87.4425C87.7124 87.3331 87.4323 87.2784 87.0909 87.2784C86.6236 87.2784 86.2341 87.3861 85.9226 87.6016C85.6143 87.8137 85.4602 88.0838 85.4602 88.4119C85.4602 88.7036 85.5663 88.9339 85.7784 89.103C85.9905 89.272 86.322 89.4129 86.7727 89.5256L87.9062 89.804C88.589 89.9697 89.0978 90.2232 89.4325 90.5646C89.7673 90.9027 89.9347 91.3385 89.9347 91.8722C89.9347 92.3097 89.8087 92.7008 89.5568 93.0455C89.3082 93.3902 88.9602 93.6619 88.5128 93.8608C88.0653 94.0597 87.545 94.1591 86.9517 94.1591C86.1728 94.1591 85.5282 93.9901 85.0178 93.652C84.5073 93.3139 84.1842 92.8201 84.0483 92.1705L85.1619 91.892C85.268 92.303 85.4685 92.6113 85.7635 92.8168C86.0618 93.0223 86.4512 93.125 86.9318 93.125C87.4787 93.125 87.9129 93.009 88.2344 92.777C88.5592 92.5417 88.7216 92.2599 88.7216 91.9318C88.7216 91.6667 88.6288 91.4446 88.4432 91.2656C88.2576 91.0833 87.9725 90.9474 87.5881 90.858L86.3153 90.5597C85.616 90.3939 85.1023 90.1371 84.7741 89.7891C84.4493 89.4377 84.2869 88.9986 84.2869 88.4716C84.2869 88.0407 84.4079 87.6596 84.6499 87.3281C84.8951 86.9967 85.2282 86.7365 85.6491 86.5476C86.0734 86.3587 86.554 86.2642 87.0909 86.2642C87.8466 86.2642 88.4399 86.4299 88.8707 86.7614C89.3049 87.0928 89.6132 87.5303 89.7955 88.0739ZM96.5133 90.8778V86.3636H97.6866V94H96.5133V92.7074H96.4338C96.2548 93.0952 95.9764 93.425 95.5985 93.6967C95.2207 93.9652 94.7434 94.0994 94.1667 94.0994C93.6895 94.0994 93.2652 93.995 92.894 93.7862C92.5228 93.5741 92.2311 93.2559 92.019 92.8317C91.8069 92.4041 91.7008 91.8655 91.7008 91.2159V86.3636H92.8741V91.1364C92.8741 91.6932 93.0299 92.1373 93.3414 92.4688C93.6563 92.8002 94.0574 92.9659 94.5446 92.9659C94.8362 92.9659 95.1329 92.8913 95.4345 92.7422C95.7394 92.593 95.9946 92.3643 96.2001 92.0561C96.4089 91.7479 96.5133 91.3551 96.5133 90.8778ZM99.8356 94V86.3636H100.969V87.5568H101.069C101.228 87.1491 101.484 86.8326 101.839 86.6072C102.194 86.3786 102.62 86.2642 103.117 86.2642C103.621 86.2642 104.04 86.3786 104.375 86.6072C104.713 86.8326 104.976 87.1491 105.165 87.5568H105.245C105.44 87.1624 105.734 86.8492 106.125 86.6172C106.516 86.3819 106.985 86.2642 107.532 86.2642C108.214 86.2642 108.773 86.478 109.207 86.9055C109.641 87.3298 109.858 87.991 109.858 88.8892V94H108.685V88.8892C108.685 88.3258 108.531 87.9231 108.223 87.6811C107.914 87.4392 107.551 87.3182 107.134 87.3182C106.597 87.3182 106.181 87.4806 105.886 87.8054C105.591 88.1269 105.444 88.5346 105.444 89.0284V94H104.25V88.7699C104.25 88.3357 104.109 87.986 103.828 87.7209C103.546 87.4524 103.183 87.3182 102.739 87.3182C102.434 87.3182 102.149 87.3994 101.884 87.5618C101.622 87.7242 101.41 87.9496 101.248 88.2379C101.088 88.523 101.009 88.8527 101.009 89.2273V94H99.8356ZM118.825 94.1591C118.188 94.1591 117.626 93.9983 117.139 93.6768C116.652 93.352 116.271 92.8946 115.996 92.3047C115.721 91.7114 115.583 91.0104 115.583 90.2017C115.583 89.3996 115.721 88.7036 115.996 88.1136C116.271 87.5237 116.654 87.0679 117.144 86.7464C117.635 86.425 118.201 86.2642 118.844 86.2642C119.342 86.2642 119.734 86.3471 120.023 86.5128C120.314 86.6752 120.536 86.8608 120.689 87.0696C120.845 87.2751 120.966 87.4441 121.052 87.5767H121.151V83.8182H122.325V94H121.191V92.8267H121.052C120.966 92.9659 120.843 93.1416 120.684 93.3537C120.525 93.5625 120.298 93.7498 120.003 93.9155C119.708 94.0779 119.315 94.1591 118.825 94.1591ZM118.984 93.1051C119.454 93.1051 119.852 92.9825 120.177 92.7372C120.502 92.4886 120.749 92.1456 120.918 91.7081C121.087 91.2673 121.171 90.7585 121.171 90.1818C121.171 89.6117 121.088 89.1129 120.923 88.6854C120.757 88.2545 120.512 87.9197 120.187 87.6811C119.862 87.4392 119.461 87.3182 118.984 87.3182C118.487 87.3182 118.072 87.4458 117.741 87.701C117.413 87.9529 117.166 88.2959 117 88.7301C116.838 89.161 116.756 89.6449 116.756 90.1818C116.756 90.7254 116.839 91.2192 117.005 91.6634C117.174 92.1042 117.423 92.4555 117.751 92.7173C118.082 92.9759 118.493 93.1051 118.984 93.1051ZM127.739 94.1591C127.049 94.1591 126.444 93.995 125.924 93.6669C125.407 93.3388 125.003 92.8797 124.711 92.2898C124.423 91.6998 124.278 91.0104 124.278 90.2216C124.278 89.4261 124.423 88.7318 124.711 88.1385C125.003 87.5452 125.407 87.0845 125.924 86.7564C126.444 86.4283 127.049 86.2642 127.739 86.2642C128.428 86.2642 129.031 86.4283 129.548 86.7564C130.069 87.0845 130.473 87.5452 130.761 88.1385C131.053 88.7318 131.199 89.4261 131.199 90.2216C131.199 91.0104 131.053 91.6998 130.761 92.2898C130.473 92.8797 130.069 93.3388 129.548 93.6669C129.031 93.995 128.428 94.1591 127.739 94.1591ZM127.739 93.1051C128.262 93.1051 128.693 92.9709 129.031 92.7024C129.369 92.4339 129.62 92.081 129.782 91.6435C129.944 91.206 130.026 90.732 130.026 90.2216C130.026 89.7112 129.944 89.2356 129.782 88.7947C129.62 88.3539 129.369 87.9976 129.031 87.7259C128.693 87.4541 128.262 87.3182 127.739 87.3182C127.215 87.3182 126.784 87.4541 126.446 87.7259C126.108 87.9976 125.858 88.3539 125.695 88.7947C125.533 89.2356 125.452 89.7112 125.452 90.2216C125.452 90.732 125.533 91.206 125.695 91.6435C125.858 92.081 126.108 92.4339 126.446 92.7024C126.784 92.9709 127.215 93.1051 127.739 93.1051ZM134.163 83.8182V94H132.99V83.8182H134.163ZM139.414 94.1591C138.725 94.1591 138.12 93.995 137.6 93.6669C137.083 93.3388 136.678 92.8797 136.387 92.2898C136.098 91.6998 135.954 91.0104 135.954 90.2216C135.954 89.4261 136.098 88.7318 136.387 88.1385C136.678 87.5452 137.083 87.0845 137.6 86.7564C138.12 86.4283 138.725 86.2642 139.414 86.2642C140.104 86.2642 140.707 86.4283 141.224 86.7564C141.744 87.0845 142.149 87.5452 142.437 88.1385C142.729 88.7318 142.875 89.4261 142.875 90.2216C142.875 91.0104 142.729 91.6998 142.437 92.2898C142.149 92.8797 141.744 93.3388 141.224 93.6669C140.707 93.995 140.104 94.1591 139.414 94.1591ZM139.414 93.1051C139.938 93.1051 140.369 92.9709 140.707 92.7024C141.045 92.4339 141.295 92.081 141.458 91.6435C141.62 91.206 141.701 90.732 141.701 90.2216C141.701 89.7112 141.62 89.2356 141.458 88.7947C141.295 88.3539 141.045 87.9976 140.707 87.7259C140.369 87.4541 139.938 87.3182 139.414 87.3182C138.891 87.3182 138.46 87.4541 138.122 87.7259C137.784 87.9976 137.533 88.3539 137.371 88.7947C137.209 89.2356 137.127 89.7112 137.127 90.2216C137.127 90.732 137.209 91.206 137.371 91.6435C137.533 92.081 137.784 92.4339 138.122 92.7024C138.46 92.9709 138.891 93.1051 139.414 93.1051ZM144.666 94V86.3636H145.799V87.517H145.879C146.018 87.1392 146.27 86.8326 146.634 86.5973C146.999 86.362 147.41 86.2443 147.867 86.2443C147.954 86.2443 148.061 86.246 148.191 86.2493C148.32 86.2526 148.418 86.2576 148.484 86.2642V87.4574C148.444 87.4474 148.353 87.4325 148.21 87.4126C148.071 87.3894 147.924 87.3778 147.768 87.3778C147.397 87.3778 147.065 87.4557 146.774 87.6115C146.485 87.764 146.257 87.9761 146.088 88.2479C145.922 88.5163 145.839 88.8229 145.839 89.1676V94H144.666ZM159.221 88.0739L158.167 88.3722C158.101 88.1965 158.003 88.0258 157.874 87.8601C157.748 87.6911 157.576 87.5518 157.357 87.4425C157.138 87.3331 156.858 87.2784 156.517 87.2784C156.049 87.2784 155.66 87.3861 155.348 87.6016C155.04 87.8137 154.886 88.0838 154.886 88.4119C154.886 88.7036 154.992 88.9339 155.204 89.103C155.416 89.272 155.748 89.4129 156.199 89.5256L157.332 89.804C158.015 89.9697 158.524 90.2232 158.858 90.5646C159.193 90.9027 159.36 91.3385 159.36 91.8722C159.36 92.3097 159.234 92.7008 158.983 93.0455C158.734 93.3902 158.386 93.6619 157.939 93.8608C157.491 94.0597 156.971 94.1591 156.377 94.1591C155.599 94.1591 154.954 93.9901 154.444 93.652C153.933 93.3139 153.61 92.8201 153.474 92.1705L154.588 91.892C154.694 92.303 154.894 92.6113 155.189 92.8168C155.488 93.0223 155.877 93.125 156.358 93.125C156.904 93.125 157.339 93.009 157.66 92.777C157.985 92.5417 158.147 92.2599 158.147 91.9318C158.147 91.6667 158.055 91.4446 157.869 91.2656C157.683 91.0833 157.398 90.9474 157.014 90.858L155.741 90.5597C155.042 90.3939 154.528 90.1371 154.2 89.7891C153.875 89.4377 153.713 88.9986 153.713 88.4716C153.713 88.0407 153.834 87.6596 154.076 87.3281C154.321 86.9967 154.654 86.7365 155.075 86.5476C155.499 86.3587 155.98 86.2642 156.517 86.2642C157.272 86.2642 157.866 86.4299 158.297 86.7614C158.731 87.0928 159.039 87.5303 159.221 88.0739ZM161.127 94V86.3636H162.3V94H161.127ZM161.723 85.0909C161.494 85.0909 161.297 85.013 161.132 84.8572C160.969 84.7015 160.888 84.5142 160.888 84.2955C160.888 84.0767 160.969 83.8894 161.132 83.7337C161.297 83.5779 161.494 83.5 161.723 83.5C161.952 83.5 162.147 83.5779 162.31 83.7337C162.476 83.8894 162.558 84.0767 162.558 84.2955C162.558 84.5142 162.476 84.7015 162.31 84.8572C162.147 85.013 161.952 85.0909 161.723 85.0909ZM167.77 86.3636V87.358H163.812V86.3636H167.77ZM164.966 84.5341H166.139V91.8125C166.139 92.1439 166.187 92.3925 166.283 92.5582C166.383 92.7206 166.509 92.83 166.661 92.8864C166.817 92.9394 166.981 92.9659 167.153 92.9659C167.283 92.9659 167.389 92.9593 167.472 92.946C167.554 92.9295 167.621 92.9162 167.67 92.9062L167.909 93.9602C167.83 93.9901 167.719 94.0199 167.576 94.0497C167.433 94.0829 167.253 94.0994 167.034 94.0994C166.703 94.0994 166.378 94.0282 166.06 93.8857C165.745 93.7431 165.483 93.526 165.274 93.2344C165.069 92.9427 164.966 92.5748 164.966 92.1307V84.5341ZM175.719 94.179C175.236 94.179 174.796 94.0878 174.402 93.9055C174.008 93.7199 173.694 93.4531 173.462 93.1051C173.23 92.7538 173.114 92.3295 173.114 91.8324C173.114 91.3949 173.201 91.0402 173.373 90.7685C173.545 90.4934 173.776 90.2779 174.064 90.1222C174.352 89.9664 174.67 89.8504 175.018 89.7741C175.37 89.6946 175.723 89.6316 176.077 89.5852C176.541 89.5256 176.918 89.4808 177.206 89.451C177.498 89.4179 177.71 89.3632 177.842 89.2869C177.978 89.2107 178.046 89.0781 178.046 88.8892V88.8494C178.046 88.3589 177.912 87.9777 177.643 87.706C177.378 87.4342 176.976 87.2983 176.435 87.2983C175.875 87.2983 175.436 87.4209 175.118 87.6662C174.8 87.9115 174.576 88.1733 174.447 88.4517L173.333 88.054C173.532 87.59 173.797 87.2287 174.129 86.9702C174.463 86.7083 174.828 86.526 175.222 86.4233C175.62 86.3172 176.011 86.2642 176.396 86.2642C176.641 86.2642 176.923 86.294 177.241 86.3537C177.562 86.41 177.872 86.5277 178.17 86.7067C178.472 86.8857 178.722 87.1558 178.921 87.517C179.12 87.8783 179.219 88.3622 179.219 88.9688V94H178.046V92.9659H177.987C177.907 93.1316 177.774 93.3089 177.589 93.4979C177.403 93.6868 177.156 93.8475 176.848 93.9801C176.54 94.1127 176.164 94.179 175.719 94.179ZM175.898 93.125C176.362 93.125 176.754 93.0339 177.072 92.8516C177.393 92.6693 177.635 92.4339 177.798 92.1456C177.963 91.8572 178.046 91.554 178.046 91.2358V90.1619C177.996 90.2216 177.887 90.2763 177.718 90.326C177.552 90.3724 177.36 90.4138 177.141 90.4503C176.926 90.4834 176.715 90.5133 176.51 90.5398C176.308 90.563 176.144 90.5829 176.018 90.5994C175.713 90.6392 175.428 90.7038 175.163 90.7933C174.901 90.8795 174.689 91.0104 174.526 91.1861C174.367 91.3584 174.288 91.5937 174.288 91.892C174.288 92.2997 174.438 92.608 174.74 92.8168C175.045 93.0223 175.431 93.125 175.898 93.125ZM181.361 94V86.3636H182.494V87.5568H182.594C182.753 87.1491 183.01 86.8326 183.365 86.6072C183.719 86.3786 184.145 86.2642 184.642 86.2642C185.146 86.2642 185.565 86.3786 185.9 86.6072C186.238 86.8326 186.502 87.1491 186.691 87.5568H186.77C186.966 87.1624 187.259 86.8492 187.65 86.6172C188.041 86.3819 188.51 86.2642 189.057 86.2642C189.74 86.2642 190.298 86.478 190.732 86.9055C191.167 87.3298 191.384 87.991 191.384 88.8892V94H190.21V88.8892C190.21 88.3258 190.056 87.9231 189.748 87.6811C189.44 87.4392 189.077 87.3182 188.659 87.3182C188.122 87.3182 187.706 87.4806 187.411 87.8054C187.116 88.1269 186.969 88.5346 186.969 89.0284V94H185.776V88.7699C185.776 88.3357 185.635 87.986 185.353 87.7209C185.071 87.4524 184.709 87.3182 184.264 87.3182C183.959 87.3182 183.674 87.3994 183.409 87.5618C183.147 87.7242 182.935 87.9496 182.773 88.2379C182.614 88.523 182.534 88.8527 182.534 89.2273V94H181.361ZM196.731 94.1591C195.995 94.1591 195.36 93.9967 194.827 93.6719C194.296 93.3438 193.887 92.8864 193.599 92.2997C193.314 91.7098 193.171 91.0237 193.171 90.2415C193.171 89.4593 193.314 88.7699 193.599 88.1733C193.887 87.5734 194.288 87.1061 194.802 86.7713C195.319 86.4332 195.922 86.2642 196.611 86.2642C197.009 86.2642 197.402 86.3305 197.79 86.4631C198.177 86.5956 198.53 86.8111 198.849 87.1094C199.167 87.4044 199.42 87.7955 199.609 88.2827C199.798 88.7699 199.893 89.3698 199.893 90.0824V90.5795H194.006V89.5653H198.699C198.699 89.1345 198.613 88.75 198.441 88.4119C198.272 88.0739 198.03 87.8071 197.715 87.6115C197.403 87.416 197.036 87.3182 196.611 87.3182C196.144 87.3182 195.74 87.4342 195.398 87.6662C195.06 87.8949 194.8 88.1932 194.618 88.5611C194.435 88.929 194.344 89.3234 194.344 89.7443V90.4205C194.344 90.9972 194.444 91.486 194.643 91.8871C194.845 92.2848 195.125 92.5881 195.483 92.7969C195.841 93.0024 196.257 93.1051 196.731 93.1051C197.039 93.1051 197.317 93.062 197.566 92.9759C197.818 92.8864 198.035 92.7538 198.217 92.5781C198.399 92.3991 198.54 92.1771 198.64 91.9119L199.773 92.2301C199.654 92.6146 199.453 92.9527 199.172 93.2443C198.89 93.5327 198.542 93.758 198.128 93.9205C197.713 94.0795 197.248 94.1591 196.731 94.1591ZM204.998 86.3636V87.358H201.041V86.3636H204.998ZM202.194 84.5341H203.368V91.8125C203.368 92.1439 203.416 92.3925 203.512 92.5582C203.611 92.7206 203.737 92.83 203.89 92.8864C204.046 92.9394 204.21 92.9659 204.382 92.9659C204.511 92.9659 204.617 92.9593 204.7 92.946C204.783 92.9295 204.849 92.9162 204.899 92.9062L205.138 93.9602C205.058 93.9901 204.947 94.0199 204.805 94.0497C204.662 94.0829 204.481 94.0994 204.263 94.0994C203.931 94.0994 203.606 94.0282 203.288 93.8857C202.973 93.7431 202.711 93.526 202.503 93.2344C202.297 92.9427 202.194 92.5748 202.194 92.1307V84.5341ZM30.1761 118.159C29.4602 118.159 28.8438 117.99 28.3267 117.652C27.8097 117.314 27.4119 116.848 27.1335 116.255C26.8551 115.662 26.7159 114.984 26.7159 114.222C26.7159 113.446 26.8584 112.762 27.1435 112.168C27.4318 111.572 27.8329 111.106 28.3466 110.771C28.8636 110.433 29.4669 110.264 30.1562 110.264C30.6932 110.264 31.1771 110.364 31.608 110.562C32.0388 110.761 32.3918 111.04 32.6669 111.398C32.942 111.756 33.1127 112.173 33.179 112.651H32.0057C31.9162 112.303 31.7173 111.994 31.4091 111.726C31.1042 111.454 30.6932 111.318 30.1761 111.318C29.7188 111.318 29.3177 111.437 28.973 111.676C28.6316 111.911 28.3648 112.245 28.1726 112.675C27.9837 113.103 27.8892 113.605 27.8892 114.182C27.8892 114.772 27.982 115.286 28.1676 115.723C28.3565 116.161 28.6217 116.5 28.9631 116.742C29.3078 116.984 29.7121 117.105 30.1761 117.105C30.4811 117.105 30.7578 117.052 31.0064 116.946C31.255 116.84 31.4654 116.688 31.6378 116.489C31.8101 116.29 31.9328 116.051 32.0057 115.773H33.179C33.1127 116.223 32.9486 116.629 32.6868 116.991C32.4283 117.349 32.0852 117.634 31.6577 117.846C31.2334 118.055 30.7396 118.159 30.1761 118.159ZM37.9964 118.159C37.3071 118.159 36.7022 117.995 36.1818 117.667C35.6648 117.339 35.2604 116.88 34.9688 116.29C34.6804 115.7 34.5362 115.01 34.5362 114.222C34.5362 113.426 34.6804 112.732 34.9688 112.138C35.2604 111.545 35.6648 111.085 36.1818 110.756C36.7022 110.428 37.3071 110.264 37.9964 110.264C38.6858 110.264 39.2891 110.428 39.8061 110.756C40.3265 111.085 40.7308 111.545 41.0192 112.138C41.3108 112.732 41.4567 113.426 41.4567 114.222C41.4567 115.01 41.3108 115.7 41.0192 116.29C40.7308 116.88 40.3265 117.339 39.8061 117.667C39.2891 117.995 38.6858 118.159 37.9964 118.159ZM37.9964 117.105C38.5201 117.105 38.951 116.971 39.2891 116.702C39.6271 116.434 39.8774 116.081 40.0398 115.643C40.2022 115.206 40.2834 114.732 40.2834 114.222C40.2834 113.711 40.2022 113.236 40.0398 112.795C39.8774 112.354 39.6271 111.998 39.2891 111.726C38.951 111.454 38.5201 111.318 37.9964 111.318C37.4728 111.318 37.0419 111.454 36.7038 111.726C36.3658 111.998 36.1155 112.354 35.9531 112.795C35.7907 113.236 35.7095 113.711 35.7095 114.222C35.7095 114.732 35.7907 115.206 35.9531 115.643C36.1155 116.081 36.3658 116.434 36.7038 116.702C37.0419 116.971 37.4728 117.105 37.9964 117.105ZM44.421 113.406V118H43.2477V110.364H44.3812V111.557H44.4806C44.6596 111.169 44.9314 110.857 45.296 110.622C45.6606 110.384 46.1312 110.264 46.7079 110.264C47.225 110.264 47.6774 110.37 48.0652 110.582C48.4529 110.791 48.7546 111.109 48.97 111.537C49.1854 111.961 49.2931 112.498 49.2931 113.148V118H48.1199V113.227C48.1199 112.627 47.9641 112.16 47.6525 111.825C47.341 111.487 46.9134 111.318 46.3699 111.318C45.9953 111.318 45.6606 111.399 45.3656 111.562C45.0739 111.724 44.8436 111.961 44.6745 112.273C44.5055 112.584 44.421 112.962 44.421 113.406ZM56.8462 112.074L55.7923 112.372C55.726 112.196 55.6282 112.026 55.4989 111.86C55.373 111.691 55.2006 111.552 54.9819 111.442C54.7631 111.333 54.4831 111.278 54.1417 111.278C53.6744 111.278 53.2849 111.386 52.9734 111.602C52.6651 111.814 52.511 112.084 52.511 112.412C52.511 112.704 52.6171 112.934 52.8292 113.103C53.0413 113.272 53.3728 113.413 53.8235 113.526L54.957 113.804C55.6398 113.97 56.1486 114.223 56.4833 114.565C56.8181 114.903 56.9854 115.339 56.9854 115.872C56.9854 116.31 56.8595 116.701 56.6076 117.045C56.359 117.39 56.011 117.662 55.5636 117.861C55.1161 118.06 54.5958 118.159 54.0025 118.159C53.2236 118.159 52.579 117.99 52.0685 117.652C51.5581 117.314 51.235 116.82 51.0991 116.17L52.2127 115.892C52.3188 116.303 52.5193 116.611 52.8143 116.817C53.1126 117.022 53.502 117.125 53.9826 117.125C54.5295 117.125 54.9637 117.009 55.2852 116.777C55.61 116.542 55.7724 116.26 55.7724 115.932C55.7724 115.667 55.6796 115.445 55.494 115.266C55.3084 115.083 55.0233 114.947 54.6388 114.858L53.3661 114.56C52.6668 114.394 52.1531 114.137 51.8249 113.789C51.5001 113.438 51.3377 112.999 51.3377 112.472C51.3377 112.041 51.4587 111.66 51.7006 111.328C51.9459 110.997 52.279 110.737 52.6999 110.548C53.1242 110.359 53.6048 110.264 54.1417 110.264C54.8974 110.264 55.4906 110.43 55.9215 110.761C56.3557 111.093 56.6639 111.53 56.8462 112.074ZM61.9533 118.159C61.2175 118.159 60.5828 117.997 60.0492 117.672C59.5189 117.344 59.1096 116.886 58.8212 116.3C58.5362 115.71 58.3936 115.024 58.3936 114.241C58.3936 113.459 58.5362 112.77 58.8212 112.173C59.1096 111.573 59.5106 111.106 60.0243 110.771C60.5414 110.433 61.1446 110.264 61.834 110.264C62.2317 110.264 62.6245 110.33 63.0123 110.463C63.4 110.596 63.753 110.811 64.0712 111.109C64.3894 111.404 64.6429 111.795 64.8319 112.283C65.0208 112.77 65.1152 113.37 65.1152 114.082V114.58H59.2289V113.565H63.9221C63.9221 113.134 63.8359 112.75 63.6635 112.412C63.4945 112.074 63.2525 111.807 62.9377 111.612C62.6261 111.416 62.2582 111.318 61.834 111.318C61.3667 111.318 60.9623 111.434 60.6209 111.666C60.2828 111.895 60.0227 112.193 59.8404 112.561C59.6581 112.929 59.5669 113.323 59.5669 113.744V114.42C59.5669 114.997 59.6664 115.486 59.8652 115.887C60.0674 116.285 60.3475 116.588 60.7054 116.797C61.0634 117.002 61.4793 117.105 61.9533 117.105C62.2615 117.105 62.54 117.062 62.7885 116.976C63.0404 116.886 63.2575 116.754 63.4398 116.578C63.6221 116.399 63.763 116.177 63.8624 115.912L64.9959 116.23C64.8766 116.615 64.6761 116.953 64.3944 117.244C64.1126 117.533 63.7646 117.758 63.3503 117.92C62.936 118.08 62.4703 118.159 61.9533 118.159ZM70.0023 118.159C69.2864 118.159 68.6699 117.99 68.1529 117.652C67.6358 117.314 67.2381 116.848 66.9597 116.255C66.6813 115.662 66.5421 114.984 66.5421 114.222C66.5421 113.446 66.6846 112.762 66.9696 112.168C67.258 111.572 67.659 111.106 68.1728 110.771C68.6898 110.433 69.293 110.264 69.9824 110.264C70.5194 110.264 71.0033 110.364 71.4341 110.562C71.865 110.761 72.218 111.04 72.4931 111.398C72.7682 111.756 72.9389 112.173 73.0051 112.651H71.8319C71.7424 112.303 71.5435 111.994 71.2353 111.726C70.9303 111.454 70.5194 111.318 70.0023 111.318C69.5449 111.318 69.1439 111.437 68.7992 111.676C68.4578 111.911 68.191 112.245 67.9988 112.675C67.8098 113.103 67.7154 113.605 67.7154 114.182C67.7154 114.772 67.8082 115.286 67.9938 115.723C68.1827 116.161 68.4479 116.5 68.7892 116.742C69.1339 116.984 69.5383 117.105 70.0023 117.105C70.3072 117.105 70.584 117.052 70.8326 116.946C71.0811 116.84 71.2916 116.688 71.464 116.489C71.6363 116.29 71.7589 116.051 71.8319 115.773H73.0051C72.9389 116.223 72.7748 116.629 72.513 116.991C72.2544 117.349 71.9114 117.634 71.4838 117.846C71.0596 118.055 70.5658 118.159 70.0023 118.159ZM78.0414 110.364V111.358H74.084V110.364H78.0414ZM75.2374 108.534H76.4107V115.812C76.4107 116.144 76.4587 116.393 76.5549 116.558C76.6543 116.721 76.7802 116.83 76.9327 116.886C77.0885 116.939 77.2525 116.966 77.4249 116.966C77.5542 116.966 77.6602 116.959 77.7431 116.946C77.8259 116.929 77.8922 116.916 77.9419 116.906L78.1806 117.96C78.101 117.99 77.99 118.02 77.8475 118.05C77.705 118.083 77.5243 118.099 77.3056 118.099C76.9741 118.099 76.6493 118.028 76.3311 117.886C76.0163 117.743 75.7544 117.526 75.5456 117.234C75.3401 116.943 75.2374 116.575 75.2374 116.131V108.534ZM82.926 118.159C82.1902 118.159 81.5555 117.997 81.0218 117.672C80.4915 117.344 80.0822 116.886 79.7939 116.3C79.5088 115.71 79.3663 115.024 79.3663 114.241C79.3663 113.459 79.5088 112.77 79.7939 112.173C80.0822 111.573 80.4833 111.106 80.997 110.771C81.514 110.433 82.1172 110.264 82.8066 110.264C83.2044 110.264 83.5971 110.33 83.9849 110.463C84.3727 110.596 84.7257 110.811 85.0439 111.109C85.362 111.404 85.6156 111.795 85.8045 112.283C85.9934 112.77 86.0879 113.37 86.0879 114.082V114.58H80.2015V113.565H84.8947C84.8947 113.134 84.8085 112.75 84.6362 112.412C84.4672 112.074 84.2252 111.807 83.9103 111.612C83.5988 111.416 83.2309 111.318 82.8066 111.318C82.3393 111.318 81.935 111.434 81.5936 111.666C81.2555 111.895 80.9953 112.193 80.813 112.561C80.6307 112.929 80.5396 113.323 80.5396 113.744V114.42C80.5396 114.997 80.639 115.486 80.8379 115.887C81.0401 116.285 81.3201 116.588 81.6781 116.797C82.036 117.002 82.452 117.105 82.926 117.105C83.2342 117.105 83.5126 117.062 83.7612 116.976C84.0131 116.886 84.2302 116.754 84.4125 116.578C84.5948 116.399 84.7356 116.177 84.835 115.912L85.9686 116.23C85.8493 116.615 85.6487 116.953 85.367 117.244C85.0853 117.533 84.7373 117.758 84.323 117.92C83.9087 118.08 83.443 118.159 82.926 118.159ZM91.1937 110.364V111.358H87.2363V110.364H91.1937ZM88.3897 108.534H89.563V115.812C89.563 116.144 89.6111 116.393 89.7072 116.558C89.8066 116.721 89.9326 116.83 90.085 116.886C90.2408 116.939 90.4049 116.966 90.5772 116.966C90.7065 116.966 90.8126 116.959 90.8954 116.946C90.9783 116.929 91.0446 116.916 91.0943 116.906L91.3329 117.96C91.2534 117.99 91.1423 118.02 90.9998 118.05C90.8573 118.083 90.6767 118.099 90.4579 118.099C90.1265 118.099 89.8017 118.028 89.4835 117.886C89.1686 117.743 88.9068 117.526 88.698 117.234C88.4925 116.943 88.3897 116.575 88.3897 116.131V108.534ZM97.7711 114.878V110.364H98.9444V118H97.7711V116.707H97.6916C97.5126 117.095 97.2342 117.425 96.8564 117.697C96.4785 117.965 96.0012 118.099 95.4245 118.099C94.9473 118.099 94.523 117.995 94.1518 117.786C93.7806 117.574 93.4889 117.256 93.2768 116.832C93.0647 116.404 92.9586 115.866 92.9586 115.216V110.364H94.1319V115.136C94.1319 115.693 94.2877 116.137 94.5993 116.469C94.9141 116.8 95.3152 116.966 95.8024 116.966C96.094 116.966 96.3907 116.891 96.6923 116.742C96.9972 116.593 97.2524 116.364 97.4579 116.056C97.6667 115.748 97.7711 115.355 97.7711 114.878ZM101.093 118V110.364H102.227V111.517H102.306C102.446 111.139 102.698 110.833 103.062 110.597C103.427 110.362 103.838 110.244 104.295 110.244C104.381 110.244 104.489 110.246 104.618 110.249C104.748 110.253 104.845 110.258 104.912 110.264V111.457C104.872 111.447 104.781 111.433 104.638 111.413C104.499 111.389 104.351 111.378 104.196 111.378C103.824 111.378 103.493 111.456 103.201 111.612C102.913 111.764 102.684 111.976 102.515 112.248C102.35 112.516 102.267 112.823 102.267 113.168V118H101.093ZM112.487 118.179C112.003 118.179 111.564 118.088 111.17 117.906C110.775 117.72 110.462 117.453 110.23 117.105C109.998 116.754 109.882 116.33 109.882 115.832C109.882 115.395 109.968 115.04 110.14 114.768C110.313 114.493 110.543 114.278 110.831 114.122C111.12 113.966 111.438 113.85 111.786 113.774C112.137 113.695 112.49 113.632 112.845 113.585C113.309 113.526 113.685 113.481 113.974 113.451C114.265 113.418 114.477 113.363 114.61 113.287C114.746 113.211 114.814 113.078 114.814 112.889V112.849C114.814 112.359 114.68 111.978 114.411 111.706C114.146 111.434 113.743 111.298 113.203 111.298C112.643 111.298 112.204 111.421 111.885 111.666C111.567 111.911 111.344 112.173 111.214 112.452L110.101 112.054C110.3 111.59 110.565 111.229 110.896 110.97C111.231 110.708 111.595 110.526 111.99 110.423C112.388 110.317 112.779 110.264 113.163 110.264C113.408 110.264 113.69 110.294 114.008 110.354C114.33 110.41 114.64 110.528 114.938 110.707C115.24 110.886 115.49 111.156 115.689 111.517C115.888 111.878 115.987 112.362 115.987 112.969V118H114.814V116.966H114.754C114.675 117.132 114.542 117.309 114.356 117.498C114.171 117.687 113.924 117.848 113.616 117.98C113.307 118.113 112.931 118.179 112.487 118.179ZM112.666 117.125C113.13 117.125 113.521 117.034 113.839 116.852C114.161 116.669 114.403 116.434 114.565 116.146C114.731 115.857 114.814 115.554 114.814 115.236V114.162C114.764 114.222 114.655 114.276 114.486 114.326C114.32 114.372 114.128 114.414 113.909 114.45C113.693 114.483 113.483 114.513 113.278 114.54C113.075 114.563 112.911 114.583 112.785 114.599C112.48 114.639 112.195 114.704 111.93 114.793C111.668 114.879 111.456 115.01 111.294 115.186C111.135 115.358 111.055 115.594 111.055 115.892C111.055 116.3 111.206 116.608 111.508 116.817C111.813 117.022 112.199 117.125 112.666 117.125ZM121.012 118.159C120.376 118.159 119.814 117.998 119.327 117.677C118.839 117.352 118.458 116.895 118.183 116.305C117.908 115.711 117.771 115.01 117.771 114.202C117.771 113.4 117.908 112.704 118.183 112.114C118.458 111.524 118.841 111.068 119.332 110.746C119.822 110.425 120.389 110.264 121.032 110.264C121.529 110.264 121.922 110.347 122.21 110.513C122.502 110.675 122.724 110.861 122.876 111.07C123.032 111.275 123.153 111.444 123.239 111.577H123.339V107.818H124.512V118H123.379V116.827H123.239C123.153 116.966 123.031 117.142 122.871 117.354C122.712 117.562 122.485 117.75 122.19 117.915C121.895 118.078 121.503 118.159 121.012 118.159ZM121.171 117.105C121.642 117.105 122.04 116.982 122.364 116.737C122.689 116.489 122.936 116.146 123.105 115.708C123.274 115.267 123.359 114.759 123.359 114.182C123.359 113.612 123.276 113.113 123.11 112.685C122.944 112.254 122.699 111.92 122.374 111.681C122.049 111.439 121.648 111.318 121.171 111.318C120.674 111.318 120.26 111.446 119.928 111.701C119.6 111.953 119.353 112.296 119.188 112.73C119.025 113.161 118.944 113.645 118.944 114.182C118.944 114.725 119.027 115.219 119.192 115.663C119.362 116.104 119.61 116.455 119.938 116.717C120.27 116.976 120.681 117.105 121.171 117.105ZM126.824 118V110.364H127.997V118H126.824ZM127.42 109.091C127.192 109.091 126.995 109.013 126.829 108.857C126.666 108.701 126.585 108.514 126.585 108.295C126.585 108.077 126.666 107.889 126.829 107.734C126.995 107.578 127.192 107.5 127.42 107.5C127.649 107.5 127.845 107.578 128.007 107.734C128.173 107.889 128.256 108.077 128.256 108.295C128.256 108.514 128.173 108.701 128.007 108.857C127.845 109.013 127.649 109.091 127.42 109.091ZM130.146 120.864V110.364H131.28V111.577H131.419C131.505 111.444 131.624 111.275 131.777 111.07C131.933 110.861 132.155 110.675 132.443 110.513C132.735 110.347 133.129 110.264 133.626 110.264C134.269 110.264 134.836 110.425 135.327 110.746C135.817 111.068 136.2 111.524 136.475 112.114C136.75 112.704 136.888 113.4 136.888 114.202C136.888 115.01 136.75 115.711 136.475 116.305C136.2 116.895 135.819 117.352 135.331 117.677C134.844 117.998 134.282 118.159 133.646 118.159C133.156 118.159 132.763 118.078 132.468 117.915C132.173 117.75 131.946 117.562 131.787 117.354C131.628 117.142 131.505 116.966 131.419 116.827H131.319V120.864H130.146ZM131.3 114.182C131.3 114.759 131.384 115.267 131.553 115.708C131.722 116.146 131.969 116.489 132.294 116.737C132.619 116.982 133.016 117.105 133.487 117.105C133.978 117.105 134.387 116.976 134.715 116.717C135.046 116.455 135.295 116.104 135.461 115.663C135.63 115.219 135.714 114.725 135.714 114.182C135.714 113.645 135.631 113.161 135.466 112.73C135.303 112.296 135.056 111.953 134.725 111.701C134.397 111.446 133.984 111.318 133.487 111.318C133.01 111.318 132.609 111.439 132.284 111.681C131.959 111.92 131.714 112.254 131.548 112.685C131.382 113.113 131.3 113.612 131.3 114.182ZM138.677 118V110.364H139.851V118H138.677ZM139.274 109.091C139.045 109.091 138.848 109.013 138.682 108.857C138.52 108.701 138.439 108.514 138.439 108.295C138.439 108.077 138.52 107.889 138.682 107.734C138.848 107.578 139.045 107.5 139.274 107.5C139.503 107.5 139.698 107.578 139.861 107.734C140.026 107.889 140.109 108.077 140.109 108.295C140.109 108.514 140.026 108.701 139.861 108.857C139.698 109.013 139.503 109.091 139.274 109.091ZM147.409 112.074L146.355 112.372C146.288 112.196 146.191 112.026 146.061 111.86C145.935 111.691 145.763 111.552 145.544 111.442C145.326 111.333 145.046 111.278 144.704 111.278C144.237 111.278 143.847 111.386 143.536 111.602C143.228 111.814 143.074 112.084 143.074 112.412C143.074 112.704 143.18 112.934 143.392 113.103C143.604 113.272 143.935 113.413 144.386 113.526L145.52 113.804C146.202 113.97 146.711 114.223 147.046 114.565C147.381 114.903 147.548 115.339 147.548 115.872C147.548 116.31 147.422 116.701 147.17 117.045C146.922 117.39 146.574 117.662 146.126 117.861C145.679 118.06 145.158 118.159 144.565 118.159C143.786 118.159 143.141 117.99 142.631 117.652C142.121 117.314 141.797 116.82 141.662 116.17L142.775 115.892C142.881 116.303 143.082 116.611 143.377 116.817C143.675 117.022 144.065 117.125 144.545 117.125C145.092 117.125 145.526 117.009 145.848 116.777C146.172 116.542 146.335 116.26 146.335 115.932C146.335 115.667 146.242 115.445 146.056 115.266C145.871 115.083 145.586 114.947 145.201 114.858L143.929 114.56C143.229 114.394 142.716 114.137 142.387 113.789C142.063 113.438 141.9 112.999 141.9 112.472C141.9 112.041 142.021 111.66 142.263 111.328C142.508 110.997 142.842 110.737 143.262 110.548C143.687 110.359 144.167 110.264 144.704 110.264C145.46 110.264 146.053 110.43 146.484 110.761C146.918 111.093 147.226 111.53 147.409 112.074ZM152.416 118.159C151.7 118.159 151.084 117.99 150.567 117.652C150.05 117.314 149.652 116.848 149.374 116.255C149.095 115.662 148.956 114.984 148.956 114.222C148.956 113.446 149.099 112.762 149.384 112.168C149.672 111.572 150.073 111.106 150.587 110.771C151.104 110.433 151.707 110.264 152.396 110.264C152.933 110.264 153.417 110.364 153.848 110.562C154.279 110.761 154.632 111.04 154.907 111.398C155.182 111.756 155.353 112.173 155.419 112.651H154.246C154.156 112.303 153.958 111.994 153.649 111.726C153.344 111.454 152.933 111.318 152.416 111.318C151.959 111.318 151.558 111.437 151.213 111.676C150.872 111.911 150.605 112.245 150.413 112.675C150.224 113.103 150.129 113.605 150.129 114.182C150.129 114.772 150.222 115.286 150.408 115.723C150.597 116.161 150.862 116.5 151.203 116.742C151.548 116.984 151.952 117.105 152.416 117.105C152.721 117.105 152.998 117.052 153.247 116.946C153.495 116.84 153.706 116.688 153.878 116.489C154.05 116.29 154.173 116.051 154.246 115.773H155.419C155.353 116.223 155.189 116.629 154.927 116.991C154.669 117.349 154.325 117.634 153.898 117.846C153.474 118.055 152.98 118.159 152.416 118.159ZM157.134 118V110.364H158.308V118H157.134ZM157.731 109.091C157.502 109.091 157.305 109.013 157.139 108.857C156.977 108.701 156.896 108.514 156.896 108.295C156.896 108.077 156.977 107.889 157.139 107.734C157.305 107.578 157.502 107.5 157.731 107.5C157.96 107.5 158.155 107.578 158.318 107.734C158.483 107.889 158.566 108.077 158.566 108.295C158.566 108.514 158.483 108.701 158.318 108.857C158.155 109.013 157.96 109.091 157.731 109.091ZM161.63 113.406V118H160.457V110.364H161.59V111.557H161.69C161.869 111.169 162.14 110.857 162.505 110.622C162.87 110.384 163.34 110.264 163.917 110.264C164.434 110.264 164.886 110.37 165.274 110.582C165.662 110.791 165.964 111.109 166.179 111.537C166.394 111.961 166.502 112.498 166.502 113.148V118H165.329V113.227C165.329 112.627 165.173 112.16 164.862 111.825C164.55 111.487 164.122 111.318 163.579 111.318C163.204 111.318 162.87 111.399 162.575 111.562C162.283 111.724 162.053 111.961 161.884 112.273C161.714 112.584 161.63 112.962 161.63 113.406ZM171.729 121.023C171.162 121.023 170.675 120.95 170.267 120.804C169.859 120.661 169.519 120.473 169.248 120.237C168.979 120.005 168.765 119.757 168.606 119.491L169.541 118.835C169.647 118.974 169.781 119.134 169.944 119.312C170.106 119.495 170.328 119.652 170.61 119.785C170.895 119.921 171.268 119.989 171.729 119.989C172.345 119.989 172.854 119.839 173.255 119.541C173.656 119.243 173.856 118.776 173.856 118.139V116.588H173.757C173.671 116.727 173.548 116.9 173.389 117.105C173.233 117.307 173.008 117.488 172.713 117.647C172.421 117.803 172.027 117.881 171.53 117.881C170.913 117.881 170.36 117.735 169.869 117.443C169.382 117.152 168.996 116.727 168.711 116.17C168.429 115.614 168.288 114.937 168.288 114.142C168.288 113.36 168.426 112.679 168.701 112.099C168.976 111.515 169.359 111.065 169.849 110.746C170.34 110.425 170.907 110.264 171.55 110.264C172.047 110.264 172.441 110.347 172.733 110.513C173.028 110.675 173.253 110.861 173.409 111.07C173.568 111.275 173.691 111.444 173.777 111.577H173.896V110.364H175.03V118.219C175.03 118.875 174.881 119.409 174.582 119.82C174.287 120.234 173.89 120.537 173.389 120.729C172.892 120.925 172.338 121.023 171.729 121.023ZM171.689 116.827C172.159 116.827 172.557 116.719 172.882 116.504C173.207 116.288 173.454 115.978 173.623 115.574C173.792 115.17 173.876 114.686 173.876 114.122C173.876 113.572 173.793 113.086 173.628 112.665C173.462 112.245 173.217 111.915 172.892 111.676C172.567 111.437 172.166 111.318 171.689 111.318C171.192 111.318 170.777 111.444 170.446 111.696C170.118 111.948 169.871 112.286 169.705 112.71C169.543 113.134 169.461 113.605 169.461 114.122C169.461 114.652 169.544 115.121 169.71 115.529C169.879 115.933 170.128 116.252 170.456 116.484C170.787 116.712 171.198 116.827 171.689 116.827ZM184.317 118.159C183.581 118.159 182.946 117.997 182.412 117.672C181.882 117.344 181.473 116.886 181.184 116.3C180.899 115.71 180.757 115.024 180.757 114.241C180.757 113.459 180.899 112.77 181.184 112.173C181.473 111.573 181.874 111.106 182.388 110.771C182.905 110.433 183.508 110.264 184.197 110.264C184.595 110.264 184.988 110.33 185.376 110.463C185.763 110.596 186.116 110.811 186.434 111.109C186.753 111.404 187.006 111.795 187.195 112.283C187.384 112.77 187.479 113.37 187.479 114.082V114.58H181.592V113.565H186.285C186.285 113.134 186.199 112.75 186.027 112.412C185.858 112.074 185.616 111.807 185.301 111.612C184.989 111.416 184.622 111.318 184.197 111.318C183.73 111.318 183.326 111.434 182.984 111.666C182.646 111.895 182.386 112.193 182.204 112.561C182.021 112.929 181.93 113.323 181.93 113.744V114.42C181.93 114.997 182.03 115.486 182.229 115.887C182.431 116.285 182.711 116.588 183.069 116.797C183.427 117.002 183.843 117.105 184.317 117.105C184.625 117.105 184.903 117.062 185.152 116.976C185.404 116.886 185.621 116.754 185.803 116.578C185.985 116.399 186.126 116.177 186.226 115.912L187.359 116.23C187.24 116.615 187.039 116.953 186.758 117.244C186.476 117.533 186.128 117.758 185.714 117.92C185.299 118.08 184.834 118.159 184.317 118.159ZM190.437 107.818V118H189.263V107.818H190.437ZM192.586 118V110.364H193.759V118H192.586ZM193.182 109.091C192.953 109.091 192.756 109.013 192.591 108.857C192.428 108.701 192.347 108.514 192.347 108.295C192.347 108.077 192.428 107.889 192.591 107.734C192.756 107.578 192.953 107.5 193.182 107.5C193.411 107.5 193.606 107.578 193.769 107.734C193.935 107.889 194.017 108.077 194.017 108.295C194.017 108.514 193.935 108.701 193.769 108.857C193.606 109.013 193.411 109.091 193.182 109.091ZM199.229 110.364V111.358H195.271V110.364H199.229ZM196.425 108.534H197.598V115.812C197.598 116.144 197.646 116.393 197.742 116.558C197.842 116.721 197.968 116.83 198.12 116.886C198.276 116.939 198.44 116.966 198.612 116.966C198.742 116.966 198.848 116.959 198.931 116.946C199.013 116.929 199.08 116.916 199.129 116.906L199.368 117.96C199.289 117.99 199.177 118.02 199.035 118.05C198.892 118.083 198.712 118.099 198.493 118.099C198.162 118.099 197.837 118.028 197.519 117.886C197.204 117.743 196.942 117.526 196.733 117.234C196.528 116.943 196.425 116.575 196.425 116.131V108.534ZM201.849 118.08C201.604 118.08 201.393 117.992 201.218 117.816C201.042 117.64 200.954 117.43 200.954 117.185C200.954 116.939 201.042 116.729 201.218 116.553C201.393 116.378 201.604 116.29 201.849 116.29C202.094 116.29 202.305 116.378 202.48 116.553C202.656 116.729 202.744 116.939 202.744 117.185C202.744 117.347 202.702 117.496 202.619 117.632C202.54 117.768 202.432 117.877 202.296 117.96C202.164 118.04 202.015 118.08 201.849 118.08ZM209.363 118H208.071L211.809 107.818H213.082L216.821 118H215.528L212.486 109.429H212.406L209.363 118ZM209.841 114.023H215.051V115.116H209.841V114.023ZM221.09 110.364V111.358H217.133V110.364H221.09ZM218.286 108.534H219.46V115.812C219.46 116.144 219.508 116.393 219.604 116.558C219.703 116.721 219.829 116.83 219.982 116.886C220.137 116.939 220.301 116.966 220.474 116.966C220.603 116.966 220.709 116.959 220.792 116.946C220.875 116.929 220.941 116.916 220.991 116.906L221.229 117.96C221.15 117.99 221.039 118.02 220.896 118.05C220.754 118.083 220.573 118.099 220.354 118.099C220.023 118.099 219.698 118.028 219.38 117.886C219.065 117.743 218.803 117.526 218.594 117.234C218.389 116.943 218.286 116.575 218.286 116.131V108.534ZM27.0739 134.364H28.2472V142.557C28.2472 143.027 28.166 143.435 28.0036 143.78C27.8445 144.125 27.6025 144.391 27.2777 144.58C26.9562 144.769 26.5502 144.864 26.0597 144.864C26.0199 144.864 25.9801 144.864 25.9403 144.864C25.9006 144.864 25.8608 144.864 25.821 144.864V143.77C25.8608 143.77 25.8973 143.77 25.9304 143.77C25.9635 143.77 26 143.77 26.0398 143.77C26.3977 143.77 26.6596 143.664 26.8253 143.452C26.991 143.243 27.0739 142.945 27.0739 142.557V134.364ZM27.6506 133.091C27.4219 133.091 27.2247 133.013 27.0589 132.857C26.8965 132.701 26.8153 132.514 26.8153 132.295C26.8153 132.077 26.8965 131.889 27.0589 131.734C27.2247 131.578 27.4219 131.5 27.6506 131.5C27.8793 131.5 28.0748 131.578 28.2372 131.734C28.4029 131.889 28.4858 132.077 28.4858 132.295C28.4858 132.514 28.4029 132.701 28.2372 132.857C28.0748 133.013 27.8793 133.091 27.6506 133.091ZM35.2086 138.878V134.364H36.3819V142H35.2086V140.707H35.1291C34.9501 141.095 34.6717 141.425 34.2939 141.697C33.916 141.965 33.4387 142.099 32.862 142.099C32.3848 142.099 31.9605 141.995 31.5893 141.786C31.2181 141.574 30.9264 141.256 30.7143 140.832C30.5022 140.404 30.3961 139.866 30.3961 139.216V134.364H31.5694V139.136C31.5694 139.693 31.7252 140.137 32.0368 140.469C32.3516 140.8 32.7527 140.966 33.2399 140.966C33.5315 140.966 33.8282 140.891 34.1298 140.742C34.4347 140.593 34.6899 140.364 34.8954 140.056C35.1042 139.748 35.2086 139.355 35.2086 138.878ZM43.94 136.074L42.886 136.372C42.8197 136.196 42.7219 136.026 42.5927 135.86C42.4667 135.691 42.2944 135.552 42.0756 135.442C41.8569 135.333 41.5768 135.278 41.2354 135.278C40.7681 135.278 40.3787 135.386 40.0671 135.602C39.7589 135.814 39.6048 136.084 39.6048 136.412C39.6048 136.704 39.7108 136.934 39.9229 137.103C40.1351 137.272 40.4665 137.413 40.9173 137.526L42.0508 137.804C42.7335 137.97 43.2423 138.223 43.5771 138.565C43.9118 138.903 44.0792 139.339 44.0792 139.872C44.0792 140.31 43.9532 140.701 43.7013 141.045C43.4528 141.39 43.1048 141.662 42.6573 141.861C42.2099 142.06 41.6895 142.159 41.0962 142.159C40.3174 142.159 39.6727 141.99 39.1623 141.652C38.6519 141.314 38.3287 140.82 38.1928 140.17L39.3065 139.892C39.4125 140.303 39.613 140.611 39.908 140.817C40.2063 141.022 40.5958 141.125 41.0763 141.125C41.6232 141.125 42.0574 141.009 42.3789 140.777C42.7037 140.542 42.8661 140.26 42.8661 139.932C42.8661 139.667 42.7733 139.445 42.5877 139.266C42.4021 139.083 42.1171 138.947 41.7326 138.858L40.4599 138.56C39.7605 138.394 39.2468 138.137 38.9187 137.789C38.5939 137.438 38.4315 136.999 38.4315 136.472C38.4315 136.041 38.5524 135.66 38.7944 135.328C39.0397 134.997 39.3728 134.737 39.7937 134.548C40.2179 134.359 40.6985 134.264 41.2354 134.264C41.9911 134.264 42.5844 134.43 43.0153 134.761C43.4495 135.093 43.7577 135.53 43.94 136.074ZM49.1664 134.364V135.358H45.209V134.364H49.1664ZM46.3624 132.534H47.5357V139.812C47.5357 140.144 47.5837 140.393 47.6799 140.558C47.7793 140.721 47.9052 140.83 48.0577 140.886C48.2135 140.939 48.3775 140.966 48.5499 140.966C48.6792 140.966 48.7852 140.959 48.8681 140.946C48.9509 140.929 49.0172 140.916 49.0669 140.906L49.3056 141.96C49.226 141.99 49.115 142.02 48.9725 142.05C48.83 142.083 48.6493 142.099 48.4306 142.099C48.0991 142.099 47.7743 142.028 47.4561 141.886C47.1413 141.743 46.8794 141.526 46.6706 141.234C46.4651 140.943 46.3624 140.575 46.3624 140.131V132.534ZM53.9515 142.159C53.2621 142.159 52.6573 141.995 52.1369 141.667C51.6199 141.339 51.2155 140.88 50.9238 140.29C50.6355 139.7 50.4913 139.01 50.4913 138.222C50.4913 137.426 50.6355 136.732 50.9238 136.138C51.2155 135.545 51.6199 135.085 52.1369 134.756C52.6573 134.428 53.2621 134.264 53.9515 134.264C54.6409 134.264 55.2441 134.428 55.7612 134.756C56.2815 135.085 56.6859 135.545 56.9743 136.138C57.2659 136.732 57.4118 137.426 57.4118 138.222C57.4118 139.01 57.2659 139.7 56.9743 140.29C56.6859 140.88 56.2815 141.339 55.7612 141.667C55.2441 141.995 54.6409 142.159 53.9515 142.159ZM53.9515 141.105C54.4752 141.105 54.9061 140.971 55.2441 140.702C55.5822 140.434 55.8324 140.081 55.9949 139.643C56.1573 139.206 56.2385 138.732 56.2385 138.222C56.2385 137.711 56.1573 137.236 55.9949 136.795C55.8324 136.354 55.5822 135.998 55.2441 135.726C54.9061 135.454 54.4752 135.318 53.9515 135.318C53.4279 135.318 52.997 135.454 52.6589 135.726C52.3208 135.998 52.0706 136.354 51.9082 136.795C51.7458 137.236 51.6646 137.711 51.6646 138.222C51.6646 138.732 51.7458 139.206 51.9082 139.643C52.0706 140.081 52.3208 140.434 52.6589 140.702C52.997 140.971 53.4279 141.105 53.9515 141.105ZM65.3874 142.179C64.9035 142.179 64.4644 142.088 64.07 141.906C63.6755 141.72 63.3623 141.453 63.1303 141.105C62.8983 140.754 62.7823 140.33 62.7823 139.832C62.7823 139.395 62.8685 139.04 63.0408 138.768C63.2132 138.493 63.4435 138.278 63.7319 138.122C64.0202 137.966 64.3384 137.85 64.6864 137.774C65.0378 137.695 65.3907 137.632 65.7454 137.585C66.2094 137.526 66.5856 137.481 66.8739 137.451C67.1656 137.418 67.3777 137.363 67.5103 137.287C67.6462 137.211 67.7141 137.078 67.7141 136.889V136.849C67.7141 136.359 67.5799 135.978 67.3114 135.706C67.0463 135.434 66.6436 135.298 66.1033 135.298C65.5432 135.298 65.104 135.421 64.7859 135.666C64.4677 135.911 64.244 136.173 64.1147 136.452L63.0011 136.054C63.1999 135.59 63.4651 135.229 63.7965 134.97C64.1313 134.708 64.4959 134.526 64.8903 134.423C65.288 134.317 65.6791 134.264 66.0636 134.264C66.3088 134.264 66.5906 134.294 66.9087 134.354C67.2302 134.41 67.5401 134.528 67.8384 134.707C68.14 134.886 68.3903 135.156 68.5891 135.517C68.788 135.878 68.8874 136.362 68.8874 136.969V142H67.7141V140.966H67.6545C67.5749 141.132 67.4424 141.309 67.2567 141.498C67.0711 141.687 66.8242 141.848 66.516 141.98C66.2077 142.113 65.8316 142.179 65.3874 142.179ZM65.5664 141.125C66.0304 141.125 66.4215 141.034 66.7397 140.852C67.0612 140.669 67.3031 140.434 67.4656 140.146C67.6313 139.857 67.7141 139.554 67.7141 139.236V138.162C67.6644 138.222 67.555 138.276 67.386 138.326C67.2203 138.372 67.0281 138.414 66.8093 138.45C66.5939 138.483 66.3834 138.513 66.1779 138.54C65.9757 138.563 65.8117 138.583 65.6857 138.599C65.3808 138.639 65.0958 138.704 64.8306 138.793C64.5688 138.879 64.3567 139.01 64.1942 139.186C64.0352 139.358 63.9556 139.594 63.9556 139.892C63.9556 140.3 64.1064 140.608 64.408 140.817C64.7129 141.022 65.0991 141.125 65.5664 141.125ZM74.35 134.364V135.358H70.3926V134.364H74.35ZM71.546 132.534H72.7193V139.812C72.7193 140.144 72.7673 140.393 72.8635 140.558C72.9629 140.721 73.0888 140.83 73.2413 140.886C73.3971 140.939 73.5611 140.966 73.7335 140.966C73.8627 140.966 73.9688 140.959 74.0517 140.946C74.1345 140.929 74.2008 140.916 74.2505 140.906L74.4892 141.96C74.4096 141.99 74.2986 142.02 74.1561 142.05C74.0136 142.083 73.8329 142.099 73.6142 142.099C73.2827 142.099 72.9579 142.028 72.6397 141.886C72.3249 141.743 72.063 141.526 71.8542 141.234C71.6487 140.943 71.546 140.575 71.546 140.131V132.534ZM80.0524 142V134.364H81.1859V135.517H81.2654C81.4047 135.139 81.6565 134.833 82.0211 134.597C82.3857 134.362 82.7967 134.244 83.2541 134.244C83.3403 134.244 83.448 134.246 83.5772 134.249C83.7065 134.253 83.8043 134.258 83.8706 134.264V135.457C83.8308 135.447 83.7396 135.433 83.5971 135.413C83.4579 135.389 83.3104 135.378 83.1547 135.378C82.7834 135.378 82.452 135.456 82.1603 135.612C81.872 135.764 81.6433 135.976 81.4743 136.248C81.3085 136.516 81.2257 136.823 81.2257 137.168V142H80.0524ZM85.2614 142V134.364H86.4347V142H85.2614ZM85.858 133.091C85.6293 133.091 85.4321 133.013 85.2663 132.857C85.1039 132.701 85.0227 132.514 85.0227 132.295C85.0227 132.077 85.1039 131.889 85.2663 131.734C85.4321 131.578 85.6293 131.5 85.858 131.5C86.0866 131.5 86.2822 131.578 86.4446 131.734C86.6103 131.889 86.6932 132.077 86.6932 132.295C86.6932 132.514 86.6103 132.701 86.4446 132.857C86.2822 133.013 86.0866 133.091 85.858 133.091ZM93.9927 136.074L92.9387 136.372C92.8725 136.196 92.7747 136.026 92.6454 135.86C92.5195 135.691 92.3471 135.552 92.1284 135.442C91.9096 135.333 91.6296 135.278 91.2882 135.278C90.8208 135.278 90.4314 135.386 90.1199 135.602C89.8116 135.814 89.6575 136.084 89.6575 136.412C89.6575 136.704 89.7636 136.934 89.9757 137.103C90.1878 137.272 90.5192 137.413 90.97 137.526L92.1035 137.804C92.7863 137.97 93.295 138.223 93.6298 138.565C93.9645 138.903 94.1319 139.339 94.1319 139.872C94.1319 140.31 94.006 140.701 93.7541 141.045C93.5055 141.39 93.1575 141.662 92.71 141.861C92.2626 142.06 91.7422 142.159 91.149 142.159C90.3701 142.159 89.7254 141.99 89.215 141.652C88.7046 141.314 88.3815 140.82 88.2456 140.17L89.3592 139.892C89.4653 140.303 89.6658 140.611 89.9608 140.817C90.2591 141.022 90.6485 141.125 91.1291 141.125C91.676 141.125 92.1101 141.009 92.4316 140.777C92.7565 140.542 92.9189 140.26 92.9189 139.932C92.9189 139.667 92.8261 139.445 92.6404 139.266C92.4548 139.083 92.1698 138.947 91.7853 138.858L90.5126 138.56C89.8133 138.394 89.2995 138.137 88.9714 137.789C88.6466 137.438 88.4842 136.999 88.4842 136.472C88.4842 136.041 88.6052 135.66 88.8471 135.328C89.0924 134.997 89.4255 134.737 89.8464 134.548C90.2707 134.359 90.7512 134.264 91.2882 134.264C92.0439 134.264 92.6371 134.43 93.068 134.761C93.5022 135.093 93.8104 135.53 93.9927 136.074ZM100.711 138.878V134.364H101.884V142H100.711V140.707H100.631C100.452 141.095 100.174 141.425 99.7958 141.697C99.418 141.965 98.9407 142.099 98.364 142.099C97.8867 142.099 97.4625 141.995 97.0913 141.786C96.7201 141.574 96.4284 141.256 96.2163 140.832C96.0041 140.404 95.8981 139.866 95.8981 139.216V134.364H97.0714V139.136C97.0714 139.693 97.2272 140.137 97.5387 140.469C97.8536 140.8 98.2546 140.966 98.7418 140.966C99.0335 140.966 99.3301 140.891 99.6317 140.742C99.9367 140.593 100.192 140.364 100.397 140.056C100.606 139.748 100.711 139.355 100.711 138.878ZM109.442 136.074L108.388 136.372C108.322 136.196 108.224 136.026 108.095 135.86C107.969 135.691 107.796 135.552 107.578 135.442C107.359 135.333 107.079 135.278 106.737 135.278C106.27 135.278 105.881 135.386 105.569 135.602C105.261 135.814 105.107 136.084 105.107 136.412C105.107 136.704 105.213 136.934 105.425 137.103C105.637 137.272 105.968 137.413 106.419 137.526L107.553 137.804C108.235 137.97 108.744 138.223 109.079 138.565C109.414 138.903 109.581 139.339 109.581 139.872C109.581 140.31 109.455 140.701 109.203 141.045C108.955 141.39 108.607 141.662 108.159 141.861C107.712 142.06 107.191 142.159 106.598 142.159C105.819 142.159 105.175 141.99 104.664 141.652C104.154 141.314 103.831 140.82 103.695 140.17L104.808 139.892C104.914 140.303 105.115 140.611 105.41 140.817C105.708 141.022 106.098 141.125 106.578 141.125C107.125 141.125 107.559 141.009 107.881 140.777C108.206 140.542 108.368 140.26 108.368 139.932C108.368 139.667 108.275 139.445 108.09 139.266C107.904 139.083 107.619 138.947 107.235 138.858L105.962 138.56C105.262 138.394 104.749 138.137 104.421 137.789C104.096 137.438 103.933 136.999 103.933 136.472C103.933 136.041 104.054 135.66 104.296 135.328C104.542 134.997 104.875 134.737 105.296 134.548C105.72 134.359 106.2 134.264 106.737 134.264C107.493 134.264 108.086 134.43 108.517 134.761C108.951 135.093 109.26 135.53 109.442 136.074ZM118.487 142.159C117.751 142.159 117.116 141.997 116.582 141.672C116.052 141.344 115.643 140.886 115.354 140.3C115.069 139.71 114.927 139.024 114.927 138.241C114.927 137.459 115.069 136.77 115.354 136.173C115.643 135.573 116.044 135.106 116.558 134.771C117.075 134.433 117.678 134.264 118.367 134.264C118.765 134.264 119.158 134.33 119.545 134.463C119.933 134.596 120.286 134.811 120.604 135.109C120.923 135.404 121.176 135.795 121.365 136.283C121.554 136.77 121.648 137.37 121.648 138.082V138.58H115.762V137.565H120.455C120.455 137.134 120.369 136.75 120.197 136.412C120.028 136.074 119.786 135.807 119.471 135.612C119.159 135.416 118.791 135.318 118.367 135.318C117.9 135.318 117.496 135.434 117.154 135.666C116.816 135.895 116.556 136.193 116.374 136.561C116.191 136.929 116.1 137.323 116.1 137.744V138.42C116.1 138.997 116.2 139.486 116.398 139.887C116.601 140.285 116.881 140.588 117.239 140.797C117.597 141.002 118.013 141.105 118.487 141.105C118.795 141.105 119.073 141.062 119.322 140.976C119.574 140.886 119.791 140.754 119.973 140.578C120.155 140.399 120.296 140.177 120.396 139.912L121.529 140.23C121.41 140.615 121.209 140.953 120.928 141.244C120.646 141.533 120.298 141.758 119.884 141.92C119.469 142.08 119.004 142.159 118.487 142.159ZM124.607 131.818V142H123.433V131.818H124.607ZM126.756 142V134.364H127.929V142H126.756ZM127.352 133.091C127.123 133.091 126.926 133.013 126.76 132.857C126.598 132.701 126.517 132.514 126.517 132.295C126.517 132.077 126.598 131.889 126.76 131.734C126.926 131.578 127.123 131.5 127.352 131.5C127.581 131.5 127.776 131.578 127.939 131.734C128.104 131.889 128.187 132.077 128.187 132.295C128.187 132.514 128.104 132.701 127.939 132.857C127.776 133.013 127.581 133.091 127.352 133.091ZM133.399 134.364V135.358H129.441V134.364H133.399ZM130.595 132.534H131.768V139.812C131.768 140.144 131.816 140.393 131.912 140.558C132.012 140.721 132.138 140.83 132.29 140.886C132.446 140.939 132.61 140.966 132.782 140.966C132.912 140.966 133.018 140.959 133.1 140.946C133.183 140.929 133.25 140.916 133.299 140.906L133.538 141.96C133.458 141.99 133.347 142.02 133.205 142.05C133.062 142.083 132.882 142.099 132.663 142.099C132.332 142.099 132.007 142.028 131.689 141.886C131.374 141.743 131.112 141.526 130.903 141.234C130.698 140.943 130.595 140.575 130.595 140.131V132.534ZM140.275 137.406V142H139.101V134.364H140.235V135.557H140.334C140.513 135.169 140.785 134.857 141.15 134.622C141.514 134.384 141.985 134.264 142.561 134.264C143.078 134.264 143.531 134.37 143.919 134.582C144.306 134.791 144.608 135.109 144.824 135.537C145.039 135.961 145.147 136.498 145.147 137.148V142H143.973V137.227C143.973 136.627 143.818 136.16 143.506 135.825C143.194 135.487 142.767 135.318 142.223 135.318C141.849 135.318 141.514 135.399 141.219 135.562C140.927 135.724 140.697 135.961 140.528 136.273C140.359 136.584 140.275 136.962 140.275 137.406ZM147.291 142V134.364H148.464V142H147.291ZM147.887 133.091C147.659 133.091 147.461 133.013 147.296 132.857C147.133 132.701 147.052 132.514 147.052 132.295C147.052 132.077 147.133 131.889 147.296 131.734C147.461 131.578 147.659 131.5 147.887 131.5C148.116 131.5 148.311 131.578 148.474 131.734C148.64 131.889 148.722 132.077 148.722 132.295C148.722 132.514 148.64 132.701 148.474 132.857C148.311 133.013 148.116 133.091 147.887 133.091ZM150.772 142V131.818H151.945V135.577H152.045C152.131 135.444 152.25 135.275 152.403 135.07C152.558 134.861 152.781 134.675 153.069 134.513C153.361 134.347 153.755 134.264 154.252 134.264C154.895 134.264 155.462 134.425 155.952 134.746C156.443 135.068 156.826 135.524 157.101 136.114C157.376 136.704 157.513 137.4 157.513 138.202C157.513 139.01 157.376 139.711 157.101 140.305C156.826 140.895 156.445 141.352 155.957 141.677C155.47 141.998 154.908 142.159 154.272 142.159C153.781 142.159 153.389 142.078 153.094 141.915C152.799 141.75 152.572 141.562 152.413 141.354C152.254 141.142 152.131 140.966 152.045 140.827H151.906V142H150.772ZM151.925 138.182C151.925 138.759 152.01 139.267 152.179 139.708C152.348 140.146 152.595 140.489 152.92 140.737C153.245 140.982 153.642 141.105 154.113 141.105C154.603 141.105 155.013 140.976 155.341 140.717C155.672 140.455 155.921 140.104 156.087 139.663C156.256 139.219 156.34 138.725 156.34 138.182C156.34 137.645 156.257 137.161 156.092 136.73C155.929 136.296 155.682 135.953 155.351 135.701C155.023 135.446 154.61 135.318 154.113 135.318C153.636 135.318 153.235 135.439 152.91 135.681C152.585 135.92 152.34 136.254 152.174 136.685C152.008 137.113 151.925 137.612 151.925 138.182ZM160.482 137.406V142H159.308V131.818H160.482V135.557H160.581C160.76 135.162 161.028 134.849 161.386 134.617C161.748 134.382 162.228 134.264 162.828 134.264C163.348 134.264 163.804 134.369 164.195 134.577C164.586 134.783 164.89 135.099 165.105 135.527C165.324 135.951 165.433 136.491 165.433 137.148V142H164.26V137.227C164.26 136.621 164.103 136.152 163.788 135.82C163.476 135.486 163.044 135.318 162.49 135.318C162.106 135.318 161.761 135.399 161.456 135.562C161.154 135.724 160.916 135.961 160.74 136.273C160.568 136.584 160.482 136.962 160.482 137.406ZM29.321 166.179C28.8371 166.179 28.398 166.088 28.0036 165.906C27.6091 165.72 27.2959 165.453 27.0639 165.105C26.8319 164.754 26.7159 164.33 26.7159 163.832C26.7159 163.395 26.8021 163.04 26.9744 162.768C27.1468 162.493 27.3771 162.278 27.6655 162.122C27.9538 161.966 28.272 161.85 28.62 161.774C28.9714 161.695 29.3243 161.632 29.679 161.585C30.143 161.526 30.5192 161.481 30.8075 161.451C31.0992 161.418 31.3113 161.363 31.4439 161.287C31.5798 161.211 31.6477 161.078 31.6477 160.889V160.849C31.6477 160.359 31.5135 159.978 31.245 159.706C30.9799 159.434 30.5772 159.298 30.0369 159.298C29.4768 159.298 29.0376 159.421 28.7195 159.666C28.4013 159.911 28.1776 160.173 28.0483 160.452L26.9347 160.054C27.1335 159.59 27.3987 159.229 27.7301 158.97C28.0649 158.708 28.4295 158.526 28.8239 158.423C29.2216 158.317 29.6127 158.264 29.9972 158.264C30.2424 158.264 30.5241 158.294 30.8423 158.354C31.1638 158.41 31.4737 158.528 31.772 158.707C32.0736 158.886 32.3239 159.156 32.5227 159.517C32.7216 159.878 32.821 160.362 32.821 160.969V166H31.6477V164.966H31.5881C31.5085 165.132 31.3759 165.309 31.1903 165.498C31.0047 165.687 30.7578 165.848 30.4496 165.98C30.1413 166.113 29.7652 166.179 29.321 166.179ZM29.5 165.125C29.964 165.125 30.3551 165.034 30.6733 164.852C30.9948 164.669 31.2367 164.434 31.3991 164.146C31.5649 163.857 31.6477 163.554 31.6477 163.236V162.162C31.598 162.222 31.4886 162.276 31.3196 162.326C31.1539 162.372 30.9616 162.414 30.7429 162.45C30.5275 162.483 30.317 162.513 30.1115 162.54C29.9093 162.563 29.7453 162.583 29.6193 162.599C29.3144 162.639 29.0294 162.704 28.7642 162.793C28.5024 162.879 28.2902 163.01 28.1278 163.186C27.9688 163.358 27.8892 163.594 27.8892 163.892C27.8892 164.3 28.04 164.608 28.3416 164.817C28.6465 165.022 29.0327 165.125 29.5 165.125ZM38.0648 166.159C37.3489 166.159 36.7324 165.99 36.2154 165.652C35.6983 165.314 35.3006 164.848 35.0222 164.255C34.7438 163.662 34.6046 162.984 34.6046 162.222C34.6046 161.446 34.7471 160.762 35.0321 160.168C35.3205 159.572 35.7215 159.106 36.2353 158.771C36.7523 158.433 37.3555 158.264 38.0449 158.264C38.5819 158.264 39.0658 158.364 39.4966 158.562C39.9275 158.761 40.2805 159.04 40.5556 159.398C40.8307 159.756 41.0014 160.173 41.0676 160.651H39.8944C39.8049 160.303 39.606 159.994 39.2978 159.726C38.9928 159.454 38.5819 159.318 38.0648 159.318C37.6074 159.318 37.2064 159.437 36.8617 159.676C36.5203 159.911 36.2535 160.245 36.0613 160.675C35.8723 161.103 35.7779 161.605 35.7779 162.182C35.7779 162.772 35.8707 163.286 36.0563 163.723C36.2452 164.161 36.5104 164.5 36.8517 164.742C37.1964 164.984 37.6008 165.105 38.0648 165.105C38.3697 165.105 38.6465 165.052 38.8951 164.946C39.1436 164.84 39.3541 164.688 39.5265 164.489C39.6988 164.29 39.8214 164.051 39.8944 163.773H41.0676C41.0014 164.223 40.8373 164.629 40.5755 164.991C40.3169 165.349 39.9739 165.634 39.5463 165.846C39.1221 166.055 38.6283 166.159 38.0648 166.159ZM45.8851 166.159C45.1692 166.159 44.5527 165.99 44.0357 165.652C43.5186 165.314 43.1209 164.848 42.8425 164.255C42.5641 163.662 42.4249 162.984 42.4249 162.222C42.4249 161.446 42.5674 160.762 42.8525 160.168C43.1408 159.572 43.5418 159.106 44.0556 158.771C44.5726 158.433 45.1758 158.264 45.8652 158.264C46.4022 158.264 46.8861 158.364 47.3169 158.562C47.7478 158.761 48.1008 159.04 48.3759 159.398C48.651 159.756 48.8217 160.173 48.888 160.651H47.7147C47.6252 160.303 47.4263 159.994 47.1181 159.726C46.8132 159.454 46.4022 159.318 45.8851 159.318C45.4277 159.318 45.0267 159.437 44.682 159.676C44.3406 159.911 44.0738 160.245 43.8816 160.675C43.6926 161.103 43.5982 161.605 43.5982 162.182C43.5982 162.772 43.691 163.286 43.8766 163.723C44.0655 164.161 44.3307 164.5 44.6721 164.742C45.0167 164.984 45.4211 165.105 45.8851 165.105C46.19 165.105 46.4668 165.052 46.7154 164.946C46.964 164.84 47.1744 164.688 47.3468 164.489C47.5191 164.29 47.6417 164.051 47.7147 163.773H48.888C48.8217 164.223 48.6576 164.629 48.3958 164.991C48.1373 165.349 47.7942 165.634 47.3667 165.846C46.9424 166.055 46.4486 166.159 45.8851 166.159ZM55.4157 162.878V158.364H56.589V166H55.4157V164.707H55.3361C55.1571 165.095 54.8787 165.425 54.5009 165.697C54.123 165.965 53.6458 166.099 53.0691 166.099C52.5918 166.099 52.1676 165.995 51.7963 165.786C51.4251 165.574 51.1335 165.256 50.9213 164.832C50.7092 164.404 50.6032 163.866 50.6032 163.216V158.364H51.7765V163.136C51.7765 163.693 51.9322 164.137 52.2438 164.469C52.5587 164.8 52.9597 164.966 53.4469 164.966C53.7386 164.966 54.0352 164.891 54.3368 164.742C54.6417 164.593 54.897 164.364 55.1025 164.056C55.3113 163.748 55.4157 163.355 55.4157 162.878ZM58.7379 166V158.364H59.8714V159.557H59.9709C60.13 159.149 60.3868 158.833 60.7415 158.607C61.0961 158.379 61.522 158.264 62.0192 158.264C62.523 158.264 62.9422 158.379 63.277 158.607C63.6151 158.833 63.8786 159.149 64.0675 159.557H64.147C64.3426 159.162 64.6359 158.849 65.027 158.617C65.4181 158.382 65.8871 158.264 66.4339 158.264C67.1167 158.264 67.6752 158.478 68.1094 158.906C68.5436 159.33 68.7607 159.991 68.7607 160.889V166H67.5874V160.889C67.5874 160.326 67.4332 159.923 67.125 159.681C66.8168 159.439 66.4538 159.318 66.0362 159.318C65.4993 159.318 65.0833 159.481 64.7884 159.805C64.4934 160.127 64.3459 160.535 64.3459 161.028V166H63.1527V160.77C63.1527 160.336 63.0118 159.986 62.7301 159.721C62.4484 159.452 62.0855 159.318 61.6413 159.318C61.3364 159.318 61.0514 159.399 60.7862 159.562C60.5244 159.724 60.3123 159.95 60.1499 160.238C59.9908 160.523 59.9112 160.853 59.9112 161.227V166H58.7379ZM76.315 160.074L75.261 160.372C75.1947 160.196 75.0969 160.026 74.9677 159.86C74.8417 159.691 74.6694 159.552 74.4506 159.442C74.2319 159.333 73.9518 159.278 73.6104 159.278C73.1431 159.278 72.7537 159.386 72.4421 159.602C72.1339 159.814 71.9798 160.084 71.9798 160.412C71.9798 160.704 72.0858 160.934 72.2979 161.103C72.5101 161.272 72.8415 161.413 73.2923 161.526L74.4258 161.804C75.1085 161.97 75.6173 162.223 75.9521 162.565C76.2868 162.903 76.4542 163.339 76.4542 163.872C76.4542 164.31 76.3282 164.701 76.0763 165.045C75.8278 165.39 75.4798 165.662 75.0323 165.861C74.5849 166.06 74.0645 166.159 73.4712 166.159C72.6924 166.159 72.0477 165.99 71.5373 165.652C71.0269 165.314 70.7037 164.82 70.5678 164.17L71.6815 163.892C71.7875 164.303 71.988 164.611 72.283 164.817C72.5813 165.022 72.9708 165.125 73.4513 165.125C73.9982 165.125 74.4324 165.009 74.7539 164.777C75.0787 164.542 75.2411 164.26 75.2411 163.932C75.2411 163.667 75.1483 163.445 74.9627 163.266C74.7771 163.083 74.4921 162.947 74.1076 162.858L72.8349 162.56C72.1355 162.394 71.6218 162.137 71.2937 161.789C70.9689 161.438 70.8065 160.999 70.8065 160.472C70.8065 160.041 70.9274 159.66 71.1694 159.328C71.4147 158.997 71.7478 158.737 72.1687 158.548C72.5929 158.359 73.0735 158.264 73.6104 158.264C74.3661 158.264 74.9594 158.43 75.3903 158.761C75.8245 159.093 76.1327 159.53 76.315 160.074ZM80.4675 166.179C79.9836 166.179 79.5444 166.088 79.15 165.906C78.7556 165.72 78.4424 165.453 78.2104 165.105C77.9784 164.754 77.8624 164.33 77.8624 163.832C77.8624 163.395 77.9486 163.04 78.1209 162.768C78.2933 162.493 78.5236 162.278 78.812 162.122C79.1003 161.966 79.4185 161.85 79.7665 161.774C80.1178 161.695 80.4708 161.632 80.8255 161.585C81.2895 161.526 81.6657 161.481 81.954 161.451C82.2457 161.418 82.4578 161.363 82.5904 161.287C82.7263 161.211 82.7942 161.078 82.7942 160.889V160.849C82.7942 160.359 82.66 159.978 82.3915 159.706C82.1264 159.434 81.7237 159.298 81.1834 159.298C80.6233 159.298 80.1841 159.421 79.8659 159.666C79.5478 159.911 79.324 160.173 79.1948 160.452L78.0811 160.054C78.28 159.59 78.5452 159.229 78.8766 158.97C79.2114 158.708 79.5759 158.526 79.9703 158.423C80.3681 158.317 80.7592 158.264 81.1436 158.264C81.3889 158.264 81.6706 158.294 81.9888 158.354C82.3103 158.41 82.6202 158.528 82.9185 158.707C83.2201 158.886 83.4703 159.156 83.6692 159.517C83.8681 159.878 83.9675 160.362 83.9675 160.969V166H82.7942V164.966H82.7346C82.655 165.132 82.5224 165.309 82.3368 165.498C82.1512 165.687 81.9043 165.848 81.5961 165.98C81.2878 166.113 80.9116 166.179 80.4675 166.179ZM80.6465 165.125C81.1105 165.125 81.5016 165.034 81.8198 164.852C82.1413 164.669 82.3832 164.434 82.5456 164.146C82.7114 163.857 82.7942 163.554 82.7942 163.236V162.162C82.7445 162.222 82.6351 162.276 82.4661 162.326C82.3004 162.372 82.1081 162.414 81.8894 162.45C81.6739 162.483 81.4635 162.513 81.258 162.54C81.0558 162.563 80.8917 162.583 80.7658 162.599C80.4609 162.639 80.1758 162.704 79.9107 162.793C79.6489 162.879 79.4367 163.01 79.2743 163.186C79.1152 163.358 79.0357 163.594 79.0357 163.892C79.0357 164.3 79.1865 164.608 79.4881 164.817C79.793 165.022 80.1792 165.125 80.6465 165.125ZM87.2823 161.406V166H86.109V158.364H87.2425V159.557H87.342C87.521 159.169 87.7927 158.857 88.1573 158.622C88.5219 158.384 88.9925 158.264 89.5692 158.264C90.0863 158.264 90.5387 158.37 90.9265 158.582C91.3143 158.791 91.6159 159.109 91.8313 159.537C92.0468 159.961 92.1545 160.498 92.1545 161.148V166H90.9812V161.227C90.9812 160.627 90.8254 160.16 90.5138 159.825C90.2023 159.487 89.7747 159.318 89.2312 159.318C88.8567 159.318 88.5219 159.399 88.2269 159.562C87.9353 159.724 87.7049 159.961 87.5359 160.273C87.3668 160.584 87.2823 160.962 87.2823 161.406ZM96.0485 164.608L95.9689 165.145C95.9126 165.523 95.8264 165.927 95.7104 166.358C95.5977 166.789 95.4801 167.195 95.3574 167.576C95.2348 167.957 95.1337 168.26 95.0542 168.486H94.1593C94.2024 168.274 94.2587 167.994 94.3283 167.646C94.3979 167.298 94.4675 166.908 94.5371 166.477C94.61 166.05 94.6697 165.612 94.7161 165.165L94.7757 164.608H96.0485ZM105.362 166.159C104.626 166.159 103.991 165.997 103.457 165.672C102.927 165.344 102.518 164.886 102.229 164.3C101.944 163.71 101.802 163.024 101.802 162.241C101.802 161.459 101.944 160.77 102.229 160.173C102.518 159.573 102.919 159.106 103.433 158.771C103.95 158.433 104.553 158.264 105.242 158.264C105.64 158.264 106.033 158.33 106.42 158.463C106.808 158.596 107.161 158.811 107.479 159.109C107.798 159.404 108.051 159.795 108.24 160.283C108.429 160.77 108.523 161.37 108.523 162.082V162.58H102.637V161.565H107.33C107.33 161.134 107.244 160.75 107.072 160.412C106.903 160.074 106.661 159.807 106.346 159.612C106.034 159.416 105.666 159.318 105.242 159.318C104.775 159.318 104.371 159.434 104.029 159.666C103.691 159.895 103.431 160.193 103.249 160.561C103.066 160.929 102.975 161.323 102.975 161.744V162.42C102.975 162.997 103.075 163.486 103.273 163.887C103.476 164.285 103.756 164.588 104.114 164.797C104.472 165.002 104.888 165.105 105.362 165.105C105.67 165.105 105.948 165.062 106.197 164.976C106.449 164.886 106.666 164.754 106.848 164.578C107.03 164.399 107.171 164.177 107.271 163.912L108.404 164.23C108.285 164.615 108.084 164.953 107.803 165.244C107.521 165.533 107.173 165.758 106.759 165.92C106.344 166.08 105.879 166.159 105.362 166.159ZM113.391 169.023C112.824 169.023 112.337 168.95 111.929 168.804C111.521 168.661 111.182 168.473 110.91 168.237C110.641 168.005 110.428 167.757 110.268 167.491L111.203 166.835C111.309 166.974 111.443 167.134 111.606 167.312C111.768 167.495 111.99 167.652 112.272 167.785C112.557 167.921 112.93 167.989 113.391 167.989C114.007 167.989 114.516 167.839 114.917 167.541C115.318 167.243 115.518 166.776 115.518 166.139V164.588H115.419C115.333 164.727 115.21 164.9 115.051 165.105C114.895 165.307 114.67 165.488 114.375 165.647C114.083 165.803 113.689 165.881 113.192 165.881C112.575 165.881 112.022 165.735 111.531 165.443C111.044 165.152 110.658 164.727 110.373 164.17C110.091 163.614 109.95 162.937 109.95 162.142C109.95 161.36 110.088 160.679 110.363 160.099C110.638 159.515 111.021 159.065 111.511 158.746C112.002 158.425 112.569 158.264 113.212 158.264C113.709 158.264 114.103 158.347 114.395 158.513C114.69 158.675 114.915 158.861 115.071 159.07C115.23 159.275 115.353 159.444 115.439 159.577H115.558V158.364H116.692V166.219C116.692 166.875 116.543 167.409 116.244 167.82C115.949 168.234 115.552 168.537 115.051 168.729C114.554 168.925 114 169.023 113.391 169.023ZM113.351 164.827C113.821 164.827 114.219 164.719 114.544 164.504C114.869 164.288 115.116 163.978 115.285 163.574C115.454 163.17 115.538 162.686 115.538 162.122C115.538 161.572 115.455 161.086 115.29 160.665C115.124 160.245 114.879 159.915 114.554 159.676C114.229 159.437 113.828 159.318 113.351 159.318C112.854 159.318 112.439 159.444 112.108 159.696C111.78 159.948 111.533 160.286 111.367 160.71C111.205 161.134 111.124 161.605 111.124 162.122C111.124 162.652 111.206 163.121 111.372 163.529C111.541 163.933 111.79 164.252 112.118 164.484C112.449 164.712 112.86 164.827 113.351 164.827ZM122.041 166.159C121.305 166.159 120.671 165.997 120.137 165.672C119.607 165.344 119.197 164.886 118.909 164.3C118.624 163.71 118.482 163.024 118.482 162.241C118.482 161.459 118.624 160.77 118.909 160.173C119.197 159.573 119.598 159.106 120.112 158.771C120.629 158.433 121.232 158.264 121.922 158.264C122.32 158.264 122.712 158.33 123.1 158.463C123.488 158.596 123.841 158.811 124.159 159.109C124.477 159.404 124.731 159.795 124.92 160.283C125.109 160.77 125.203 161.37 125.203 162.082V162.58H119.317V161.565H124.01C124.01 161.134 123.924 160.75 123.751 160.412C123.582 160.074 123.34 159.807 123.026 159.612C122.714 159.416 122.346 159.318 121.922 159.318C121.455 159.318 121.05 159.434 120.709 159.666C120.371 159.895 120.111 160.193 119.928 160.561C119.746 160.929 119.655 161.323 119.655 161.744V162.42C119.655 162.997 119.754 163.486 119.953 163.887C120.155 164.285 120.435 164.588 120.793 164.797C121.151 165.002 121.567 165.105 122.041 165.105C122.349 165.105 122.628 165.062 122.876 164.976C123.128 164.886 123.345 164.754 123.528 164.578C123.71 164.399 123.851 164.177 123.95 163.912L125.084 164.23C124.964 164.615 124.764 164.953 124.482 165.244C124.201 165.533 123.853 165.758 123.438 165.92C123.024 166.08 122.558 166.159 122.041 166.159ZM130.309 158.364V159.358H126.352V158.364H130.309ZM127.505 156.534H128.678V163.812C128.678 164.144 128.726 164.393 128.822 164.558C128.922 164.721 129.048 164.83 129.2 164.886C129.356 164.939 129.52 164.966 129.692 164.966C129.822 164.966 129.928 164.959 130.011 164.946C130.094 164.929 130.16 164.916 130.21 164.906L130.448 165.96C130.369 165.99 130.258 166.02 130.115 166.05C129.973 166.083 129.792 166.099 129.573 166.099C129.242 166.099 128.917 166.028 128.599 165.886C128.284 165.743 128.022 165.526 127.813 165.234C127.608 164.943 127.505 164.575 127.505 164.131V156.534ZM138.259 166.179C137.775 166.179 137.335 166.088 136.941 165.906C136.547 165.72 136.233 165.453 136.001 165.105C135.769 164.754 135.653 164.33 135.653 163.832C135.653 163.395 135.74 163.04 135.912 162.768C136.084 162.493 136.315 162.278 136.603 162.122C136.891 161.966 137.21 161.85 137.558 161.774C137.909 161.695 138.262 161.632 138.616 161.585C139.08 161.526 139.457 161.481 139.745 161.451C140.037 161.418 140.249 161.363 140.381 161.287C140.517 161.211 140.585 161.078 140.585 160.889V160.849C140.585 160.359 140.451 159.978 140.183 159.706C139.917 159.434 139.515 159.298 138.974 159.298C138.414 159.298 137.975 159.421 137.657 159.666C137.339 159.911 137.115 160.173 136.986 160.452L135.872 160.054C136.071 159.59 136.336 159.229 136.668 158.97C137.002 158.708 137.367 158.526 137.761 158.423C138.159 158.317 138.55 158.264 138.935 158.264C139.18 158.264 139.462 158.294 139.78 158.354C140.101 158.41 140.411 158.528 140.71 158.707C141.011 158.886 141.261 159.156 141.46 159.517C141.659 159.878 141.759 160.362 141.759 160.969V166H140.585V164.966H140.526C140.446 165.132 140.313 165.309 140.128 165.498C139.942 165.687 139.695 165.848 139.387 165.98C139.079 166.113 138.703 166.179 138.259 166.179ZM138.438 165.125C138.902 165.125 139.293 165.034 139.611 164.852C139.932 164.669 140.174 164.434 140.337 164.146C140.502 163.857 140.585 163.554 140.585 163.236V162.162C140.536 162.222 140.426 162.276 140.257 162.326C140.091 162.372 139.899 162.414 139.68 162.45C139.465 162.483 139.254 162.513 139.049 162.54C138.847 162.563 138.683 162.583 138.557 162.599C138.252 162.639 137.967 162.704 137.702 162.793C137.44 162.879 137.228 163.01 137.065 163.186C136.906 163.358 136.827 163.594 136.827 163.892C136.827 164.3 136.978 164.608 137.279 164.817C137.584 165.022 137.97 165.125 138.438 165.125ZM147.221 158.364V159.358H143.264V158.364H147.221ZM144.417 156.534H145.59V163.812C145.59 164.144 145.638 164.393 145.735 164.558C145.834 164.721 145.96 164.83 146.112 164.886C146.268 164.939 146.432 164.966 146.605 164.966C146.734 164.966 146.84 164.959 146.923 164.946C147.006 164.929 147.072 164.916 147.122 164.906L147.36 165.96C147.281 165.99 147.17 166.02 147.027 166.05C146.885 166.083 146.704 166.099 146.485 166.099C146.154 166.099 145.829 166.028 145.511 165.886C145.196 165.743 144.934 165.526 144.725 165.234C144.52 164.943 144.417 164.575 144.417 164.131V156.534ZM154.097 161.406V166H152.923V155.818H154.097V159.557H154.196C154.375 159.162 154.644 158.849 155.002 158.617C155.363 158.382 155.843 158.264 156.443 158.264C156.964 158.264 157.419 158.369 157.811 158.577C158.202 158.783 158.505 159.099 158.72 159.527C158.939 159.951 159.048 160.491 159.048 161.148V166H157.875V161.227C157.875 160.621 157.718 160.152 157.403 159.82C157.091 159.486 156.659 159.318 156.105 159.318C155.721 159.318 155.376 159.399 155.071 159.562C154.77 159.724 154.531 159.961 154.355 160.273C154.183 160.584 154.097 160.962 154.097 161.406ZM164.397 166.159C163.661 166.159 163.026 165.997 162.493 165.672C161.962 165.344 161.553 164.886 161.265 164.3C160.98 163.71 160.837 163.024 160.837 162.241C160.837 161.459 160.98 160.77 161.265 160.173C161.553 159.573 161.954 159.106 162.468 158.771C162.985 158.433 163.588 158.264 164.277 158.264C164.675 158.264 165.068 158.33 165.456 158.463C165.843 158.596 166.196 158.811 166.515 159.109C166.833 159.404 167.086 159.795 167.275 160.283C167.464 160.77 167.559 161.37 167.559 162.082V162.58H161.672V161.565H166.365C166.365 161.134 166.279 160.75 166.107 160.412C165.938 160.074 165.696 159.807 165.381 159.612C165.069 159.416 164.702 159.318 164.277 159.318C163.81 159.318 163.406 159.434 163.064 159.666C162.726 159.895 162.466 160.193 162.284 160.561C162.101 160.929 162.01 161.323 162.01 161.744V162.42C162.01 162.997 162.11 163.486 162.309 163.887C162.511 164.285 162.791 164.588 163.149 164.797C163.507 165.002 163.923 165.105 164.397 165.105C164.705 165.105 164.983 165.062 165.232 164.976C165.484 164.886 165.701 164.754 165.883 164.578C166.065 164.399 166.206 164.177 166.306 163.912L167.439 164.23C167.32 164.615 167.119 164.953 166.838 165.244C166.556 165.533 166.208 165.758 165.794 165.92C165.379 166.08 164.914 166.159 164.397 166.159ZM170.517 161.406V166H169.343V158.364H170.477V159.557H170.576C170.755 159.169 171.027 158.857 171.392 158.622C171.756 158.384 172.227 158.264 172.804 158.264C173.321 158.264 173.773 158.37 174.161 158.582C174.549 158.791 174.85 159.109 175.066 159.537C175.281 159.961 175.389 160.498 175.389 161.148V166H174.216V161.227C174.216 160.627 174.06 160.16 173.748 159.825C173.437 159.487 173.009 159.318 172.466 159.318C172.091 159.318 171.756 159.399 171.461 159.562C171.17 159.724 170.939 159.961 170.77 160.273C170.601 160.584 170.517 160.962 170.517 161.406ZM180.416 166.159C179.78 166.159 179.218 165.998 178.731 165.677C178.244 165.352 177.863 164.895 177.588 164.305C177.312 163.711 177.175 163.01 177.175 162.202C177.175 161.4 177.312 160.704 177.588 160.114C177.863 159.524 178.245 159.068 178.736 158.746C179.227 158.425 179.793 158.264 180.436 158.264C180.933 158.264 181.326 158.347 181.615 158.513C181.906 158.675 182.128 158.861 182.281 159.07C182.436 159.275 182.557 159.444 182.644 159.577H182.743V155.818H183.916V166H182.783V164.827H182.644C182.557 164.966 182.435 165.142 182.276 165.354C182.117 165.562 181.89 165.75 181.595 165.915C181.3 166.078 180.907 166.159 180.416 166.159ZM180.575 165.105C181.046 165.105 181.444 164.982 181.769 164.737C182.093 164.489 182.34 164.146 182.509 163.708C182.678 163.267 182.763 162.759 182.763 162.182C182.763 161.612 182.68 161.113 182.514 160.685C182.349 160.254 182.103 159.92 181.779 159.681C181.454 159.439 181.053 159.318 180.575 159.318C180.078 159.318 179.664 159.446 179.333 159.701C179.004 159.953 178.758 160.296 178.592 160.73C178.429 161.161 178.348 161.645 178.348 162.182C178.348 162.725 178.431 163.219 178.597 163.663C178.766 164.104 179.014 164.455 179.343 164.717C179.674 164.976 180.085 165.105 180.575 165.105ZM186.228 166V158.364H187.362V159.517H187.441C187.58 159.139 187.832 158.833 188.197 158.597C188.561 158.362 188.972 158.244 189.43 158.244C189.516 158.244 189.624 158.246 189.753 158.249C189.882 158.253 189.98 158.258 190.046 158.264V159.457C190.007 159.447 189.915 159.433 189.773 159.413C189.634 159.389 189.486 159.378 189.33 159.378C188.959 159.378 188.628 159.456 188.336 159.612C188.048 159.764 187.819 159.976 187.65 160.248C187.484 160.516 187.401 160.823 187.401 161.168V166H186.228ZM194.406 166.159C193.671 166.159 193.036 165.997 192.502 165.672C191.972 165.344 191.563 164.886 191.274 164.3C190.989 163.71 190.847 163.024 190.847 162.241C190.847 161.459 190.989 160.77 191.274 160.173C191.563 159.573 191.964 159.106 192.477 158.771C192.994 158.433 193.598 158.264 194.287 158.264C194.685 158.264 195.078 158.33 195.465 158.463C195.853 158.596 196.206 158.811 196.524 159.109C196.843 159.404 197.096 159.795 197.285 160.283C197.474 160.77 197.568 161.37 197.568 162.082V162.58H191.682V161.565H196.375C196.375 161.134 196.289 160.75 196.117 160.412C195.948 160.074 195.706 159.807 195.391 159.612C195.079 159.416 194.711 159.318 194.287 159.318C193.82 159.318 193.415 159.434 193.074 159.666C192.736 159.895 192.476 160.193 192.294 160.561C192.111 160.929 192.02 161.323 192.02 161.744V162.42C192.02 162.997 192.119 163.486 192.318 163.887C192.521 164.285 192.801 164.588 193.159 164.797C193.517 165.002 193.932 165.105 194.406 165.105C194.715 165.105 194.993 165.062 195.242 164.976C195.494 164.886 195.711 164.754 195.893 164.578C196.075 164.399 196.216 164.177 196.316 163.912L197.449 164.23C197.33 164.615 197.129 164.953 196.847 165.244C196.566 165.533 196.218 165.758 195.803 165.92C195.389 166.08 194.923 166.159 194.406 166.159ZM199.353 166V158.364H200.487V159.517H200.566C200.705 159.139 200.957 158.833 201.322 158.597C201.686 158.362 202.097 158.244 202.555 158.244C202.641 158.244 202.749 158.246 202.878 158.249C203.007 158.253 203.105 158.258 203.171 158.264V159.457C203.132 159.447 203.04 159.433 202.898 159.413C202.759 159.389 202.611 159.378 202.455 159.378C202.084 159.378 201.753 159.456 201.461 159.612C201.173 159.764 200.944 159.976 200.775 160.248C200.609 160.516 200.526 160.823 200.526 161.168V166H199.353ZM204.562 166V158.364H205.735V166H204.562ZM205.159 157.091C204.93 157.091 204.733 157.013 204.567 156.857C204.405 156.701 204.324 156.514 204.324 156.295C204.324 156.077 204.405 155.889 204.567 155.734C204.733 155.578 204.93 155.5 205.159 155.5C205.387 155.5 205.583 155.578 205.745 155.734C205.911 155.889 205.994 156.077 205.994 156.295C205.994 156.514 205.911 156.701 205.745 156.857C205.583 157.013 205.387 157.091 205.159 157.091ZM211.205 158.364V159.358H207.248V158.364H211.205ZM208.401 156.534H209.575V163.812C209.575 164.144 209.623 164.393 209.719 164.558C209.818 164.721 209.944 164.83 210.097 164.886C210.253 164.939 210.417 164.966 210.589 164.966C210.718 164.966 210.824 164.959 210.907 164.946C210.99 164.929 211.056 164.916 211.106 164.906L211.345 165.96C211.265 165.99 211.154 166.02 211.012 166.05C210.869 166.083 210.688 166.099 210.47 166.099C210.138 166.099 209.813 166.028 209.495 165.886C209.18 165.743 208.919 165.526 208.71 165.234C208.504 164.943 208.401 164.575 208.401 164.131V156.534ZM213.825 166.08C213.58 166.08 213.37 165.992 213.194 165.816C213.018 165.64 212.931 165.43 212.931 165.185C212.931 164.939 213.018 164.729 213.194 164.553C213.37 164.378 213.58 164.29 213.825 164.29C214.071 164.29 214.281 164.378 214.457 164.553C214.633 164.729 214.72 164.939 214.72 165.185C214.72 165.347 214.679 165.496 214.596 165.632C214.517 165.768 214.409 165.877 214.273 165.96C214.14 166.04 213.991 166.08 213.825 166.08Z" fill="#4A5568"/>
</g>
<defs>
<filter id="filter0_d_5551_27757" x="0.217206" y="0.940054" width="274.36" height="227.632" filterUnits="userSpaceOnUse" color-interpolation-filters="sRGB">
<feFlood flood-opacity="0" result="BackgroundImageFix"/>
<feColorMatrix in="SourceAlpha" type="matrix" values="0 0 0 0 0 0 0 0 0 0 0 0 0 0 0 0 0 0 127 0" result="hardAlpha"/>
<feOffset dx="9.39704" dy="10.1199"/>
<feGaussianBlur stdDeviation="7.58992"/>
<feComposite in2="hardAlpha" operator="out"/>
<feColorMatrix type="matrix" values="0 0 0 0 0.0375 0 0 0 0 0.18975 0 0 0 0 0.3 0 0 0 0.06 0"/>
<feBlend mode="normal" in2="BackgroundImageFix" result="effect1_dropShadow_5551_27757"/>
<feBlend mode="normal" in="SourceGraphic" in2="effect1_dropShadow_5551_27757" result="shape"/>
</filter>
</defs>
</svg>
