<svg width="254" height="228" viewBox="0 0 254 228" fill="none" xmlns="http://www.w3.org/2000/svg">
<g filter="url(#filter0_d_5551_27771)">
<rect x="6" y="5.27246" width="223" height="197.272" rx="16" fill="#FFCF54"/>
<path d="M39.3125 55V34.6364H53.9886V39.0909H44.8409V42.5909H53.233V47.0455H44.8409V50.5455H53.9489V55H39.3125ZM61.543 39.7273L63.7702 44.4602L66.1168 39.7273H71.5657L67.4691 47.3636L71.7646 55H66.3555L63.7702 50.1477L61.2646 55H55.7759L60.1112 47.3636L56.0543 39.7273H61.543ZM73.517 60.7273V39.7273H78.9659V42.392H79.0852C79.2841 41.875 79.5758 41.401 79.9602 40.9702C80.3447 40.5327 80.822 40.1847 81.392 39.9261C81.9621 39.661 82.625 39.5284 83.3807 39.5284C84.3883 39.5284 85.3461 39.7969 86.2543 40.3338C87.169 40.8707 87.9115 41.7159 88.4815 42.8693C89.0582 44.0227 89.3466 45.5208 89.3466 47.3636C89.3466 49.1269 89.0715 50.5885 88.5213 51.7486C87.9777 52.9086 87.2486 53.7737 86.3338 54.3438C85.4257 54.9138 84.428 55.1989 83.3409 55.1989C82.625 55.1989 81.9853 55.0829 81.4219 54.8509C80.8651 54.6122 80.3878 54.2907 79.9901 53.8864C79.599 53.4754 79.2973 53.0114 79.0852 52.4943H79.0057V60.7273H73.517ZM78.8864 47.3636C78.8864 48.1061 78.9825 48.7491 79.1747 49.2926C79.3736 49.8295 79.652 50.2472 80.0099 50.5455C80.3745 50.8371 80.8087 50.983 81.3125 50.983C81.8163 50.983 82.2438 50.8404 82.5952 50.5554C82.9531 50.2637 83.2249 49.8494 83.4105 49.3125C83.6027 48.7689 83.6989 48.1193 83.6989 47.3636C83.6989 46.608 83.6027 45.9616 83.4105 45.4247C83.2249 44.8812 82.9531 44.4669 82.5952 44.1818C82.2438 43.8902 81.8163 43.7443 81.3125 43.7443C80.8087 43.7443 80.3745 43.8902 80.0099 44.1818C79.652 44.4669 79.3736 44.8812 79.1747 45.4247C78.9825 45.9616 78.8864 46.608 78.8864 47.3636ZM98.9641 55.2784C97.3335 55.2784 95.9281 54.9669 94.7482 54.3438C93.5749 53.714 92.6701 52.8125 92.0337 51.6392C91.404 50.4593 91.0891 49.0473 91.0891 47.4034C91.0891 45.8258 91.4073 44.447 92.0437 43.267C92.68 42.0871 93.5782 41.169 94.7383 40.5128C95.8983 39.8565 97.2672 39.5284 98.8448 39.5284C99.9982 39.5284 101.042 39.7074 101.977 40.0653C102.912 40.4233 103.71 40.9437 104.373 41.6264C105.036 42.3026 105.547 43.1245 105.904 44.0923C106.262 45.0601 106.441 46.1506 106.441 47.3636V48.6364H92.7994V45.6136H101.39C101.384 45.1761 101.271 44.7917 101.052 44.4602C100.84 44.1222 100.552 43.8603 100.187 43.6747C99.8292 43.4825 99.4215 43.3864 98.9641 43.3864C98.52 43.3864 98.1123 43.4825 97.7411 43.6747C97.3699 43.8603 97.0716 44.1188 96.8462 44.4503C96.6275 44.7817 96.5115 45.1695 96.4982 45.6136V48.875C96.4982 49.3655 96.601 49.803 96.8065 50.1875C97.012 50.572 97.3069 50.8736 97.6914 51.0923C98.0759 51.3111 98.5399 51.4205 99.0835 51.4205C99.4613 51.4205 99.806 51.3674 100.118 51.2614C100.436 51.1553 100.708 51.0028 100.933 50.804C101.158 50.5985 101.324 50.3532 101.43 50.0682H106.441C106.269 51.1288 105.861 52.0502 105.218 52.8324C104.575 53.608 103.724 54.2112 102.663 54.642C101.609 55.0663 100.376 55.2784 98.9641 55.2784ZM108.681 55V39.7273H114.011V42.6307H114.17C114.448 41.5568 114.889 40.7713 115.492 40.2741C116.102 39.777 116.815 39.5284 117.63 39.5284C117.869 39.5284 118.104 39.5483 118.336 39.5881C118.575 39.6212 118.803 39.6709 119.022 39.7372V44.4205C118.75 44.3277 118.415 44.258 118.018 44.2116C117.62 44.1652 117.279 44.142 116.994 44.142C116.457 44.142 115.973 44.2647 115.542 44.5099C115.118 44.7486 114.783 45.0866 114.538 45.5241C114.292 45.955 114.17 46.4621 114.17 47.0455V55H108.681ZM120.822 55V39.7273H126.31V55H120.822ZM123.566 38.1364C122.824 38.1364 122.187 37.8911 121.657 37.4006C121.127 36.91 120.862 36.3201 120.862 35.6307C120.862 34.9413 121.127 34.3513 121.657 33.8608C122.187 33.3703 122.824 33.125 123.566 33.125C124.315 33.125 124.951 33.3703 125.475 33.8608C126.005 34.3513 126.271 34.9413 126.271 35.6307C126.271 36.3201 126.005 36.91 125.475 37.4006C124.951 37.8911 124.315 38.1364 123.566 38.1364ZM136.425 55.2784C134.794 55.2784 133.389 54.9669 132.209 54.3438C131.036 53.714 130.131 52.8125 129.495 51.6392C128.865 50.4593 128.55 49.0473 128.55 47.4034C128.55 45.8258 128.868 44.447 129.505 43.267C130.141 42.0871 131.039 41.169 132.199 40.5128C133.359 39.8565 134.728 39.5284 136.306 39.5284C137.459 39.5284 138.503 39.7074 139.438 40.0653C140.373 40.4233 141.171 40.9437 141.834 41.6264C142.497 42.3026 143.007 43.1245 143.365 44.0923C143.723 45.0601 143.902 46.1506 143.902 47.3636V48.6364H130.26V45.6136H138.851C138.845 45.1761 138.732 44.7917 138.513 44.4602C138.301 44.1222 138.013 43.8603 137.648 43.6747C137.29 43.4825 136.882 43.3864 136.425 43.3864C135.981 43.3864 135.573 43.4825 135.202 43.6747C134.831 43.8603 134.533 44.1188 134.307 44.4503C134.088 44.7817 133.972 45.1695 133.959 45.6136V48.875C133.959 49.3655 134.062 49.803 134.267 50.1875C134.473 50.572 134.768 50.8736 135.152 51.0923C135.537 51.3111 136.001 51.4205 136.544 51.4205C136.922 51.4205 137.267 51.3674 137.578 51.2614C137.897 51.1553 138.168 51.0028 138.394 50.804C138.619 50.5985 138.785 50.3532 138.891 50.0682H143.902C143.73 51.1288 143.322 52.0502 142.679 52.8324C142.036 53.608 141.185 54.2112 140.124 54.642C139.07 55.0663 137.837 55.2784 136.425 55.2784ZM151.631 46.4091V55H146.142V39.7273H151.352V42.6307H151.511C151.843 41.6629 152.426 40.9039 153.261 40.3537C154.103 39.8035 155.084 39.5284 156.205 39.5284C157.285 39.5284 158.223 39.777 159.018 40.2741C159.821 40.7647 160.44 41.4408 160.878 42.3026C161.322 43.1643 161.541 44.1487 161.534 45.2557V55H156.045V46.4091C156.052 45.6534 155.86 45.0601 155.469 44.6293C155.084 44.1984 154.547 43.983 153.858 43.983C153.407 43.983 153.013 44.0824 152.675 44.2812C152.343 44.4735 152.088 44.7519 151.909 45.1165C151.73 45.4744 151.637 45.9053 151.631 46.4091ZM171.602 55.2784C169.944 55.2784 168.526 54.9503 167.346 54.294C166.166 53.6312 165.261 52.7098 164.631 51.5298C164.002 50.3433 163.687 48.9678 163.687 47.4034C163.687 45.839 164.002 44.4669 164.631 43.2869C165.261 42.1004 166.166 41.179 167.346 40.5227C168.526 39.8598 169.944 39.5284 171.602 39.5284C173.1 39.5284 174.396 39.8002 175.489 40.3438C176.59 40.8807 177.442 41.643 178.045 42.6307C178.648 43.6117 178.953 44.7652 178.96 46.0909H173.869C173.796 45.2888 173.564 44.679 173.173 44.2614C172.788 43.8371 172.291 43.625 171.681 43.625C171.204 43.625 170.786 43.7642 170.428 44.0426C170.07 44.3144 169.792 44.7287 169.593 45.2855C169.394 45.8357 169.295 46.5284 169.295 47.3636C169.295 48.1989 169.394 48.8949 169.593 49.4517C169.792 50.0019 170.07 50.4162 170.428 50.6946C170.786 50.9664 171.204 51.1023 171.681 51.1023C172.085 51.1023 172.443 51.0095 172.755 50.8239C173.067 50.6316 173.318 50.3532 173.511 49.9886C173.71 49.6174 173.829 49.1667 173.869 48.6364H178.96C178.94 49.982 178.631 51.1553 178.035 52.1562C177.438 53.1506 176.593 53.9195 175.499 54.4631C174.412 55.0066 173.113 55.2784 171.602 55.2784ZM188.542 55.2784C186.912 55.2784 185.506 54.9669 184.326 54.3438C183.153 53.714 182.248 52.8125 181.612 51.6392C180.982 50.4593 180.667 49.0473 180.667 47.4034C180.667 45.8258 180.985 44.447 181.622 43.267C182.258 42.0871 183.156 41.169 184.316 40.5128C185.476 39.8565 186.845 39.5284 188.423 39.5284C189.576 39.5284 190.62 39.7074 191.555 40.0653C192.49 40.4233 193.288 40.9437 193.951 41.6264C194.614 42.3026 195.125 43.1245 195.483 44.0923C195.841 45.0601 196.02 46.1506 196.02 47.3636V48.6364H182.377V45.6136H190.968C190.962 45.1761 190.849 44.7917 190.63 44.4602C190.418 44.1222 190.13 43.8603 189.765 43.6747C189.407 43.4825 189 43.3864 188.542 43.3864C188.098 43.3864 187.69 43.4825 187.319 43.6747C186.948 43.8603 186.65 44.1188 186.424 44.4503C186.206 44.7817 186.09 45.1695 186.076 45.6136V48.875C186.076 49.3655 186.179 49.803 186.385 50.1875C186.59 50.572 186.885 50.8736 187.27 51.0923C187.654 51.3111 188.118 51.4205 188.662 51.4205C189.039 51.4205 189.384 51.3674 189.696 51.2614C190.014 51.1553 190.286 51.0028 190.511 50.804C190.736 50.5985 190.902 50.3532 191.008 50.0682H196.02C195.847 51.1288 195.44 52.0502 194.797 52.8324C194.154 53.608 193.302 54.2112 192.241 54.642C191.187 55.0663 189.954 55.2784 188.542 55.2784Z" fill="#615E4A"/>
<path d="M23.233 93V82.8182H24.4659V91.9062H29.1989V93H23.233ZM34.0511 93.1591C33.3617 93.1591 32.7569 92.995 32.2365 92.6669C31.7195 92.3388 31.3151 91.8797 31.0234 91.2898C30.7351 90.6998 30.5909 90.0104 30.5909 89.2216C30.5909 88.4261 30.7351 87.7318 31.0234 87.1385C31.3151 86.5452 31.7195 86.0845 32.2365 85.7564C32.7569 85.4283 33.3617 85.2642 34.0511 85.2642C34.7405 85.2642 35.3438 85.4283 35.8608 85.7564C36.3812 86.0845 36.7855 86.5452 37.0739 87.1385C37.3655 87.7318 37.5114 88.4261 37.5114 89.2216C37.5114 90.0104 37.3655 90.6998 37.0739 91.2898C36.7855 91.8797 36.3812 92.3388 35.8608 92.6669C35.3438 92.995 34.7405 93.1591 34.0511 93.1591ZM34.0511 92.1051C34.5748 92.1051 35.0057 91.9709 35.3438 91.7024C35.6818 91.4339 35.9321 91.081 36.0945 90.6435C36.2569 90.206 36.3381 89.732 36.3381 89.2216C36.3381 88.7112 36.2569 88.2356 36.0945 87.7947C35.9321 87.3539 35.6818 86.9976 35.3438 86.7259C35.0057 86.4541 34.5748 86.3182 34.0511 86.3182C33.5275 86.3182 33.0966 86.4541 32.7585 86.7259C32.4205 86.9976 32.1702 87.3539 32.0078 87.7947C31.8454 88.2356 31.7642 88.7112 31.7642 89.2216C31.7642 89.732 31.8454 90.206 32.0078 90.6435C32.1702 91.081 32.4205 91.4339 32.7585 91.7024C33.0966 91.9709 33.5275 92.1051 34.0511 92.1051ZM39.3024 93V85.3636H40.4359V86.517H40.5154C40.6547 86.1392 40.9065 85.8326 41.2711 85.5973C41.6357 85.362 42.0467 85.2443 42.5041 85.2443C42.5903 85.2443 42.698 85.246 42.8272 85.2493C42.9565 85.2526 43.0543 85.2576 43.1206 85.2642V86.4574C43.0808 86.4474 42.9896 86.4325 42.8471 86.4126C42.7079 86.3894 42.5604 86.3778 42.4047 86.3778C42.0334 86.3778 41.702 86.4557 41.4103 86.6115C41.122 86.764 40.8933 86.9761 40.7243 87.2479C40.5585 87.5163 40.4757 87.8229 40.4757 88.1676V93H39.3024ZM47.4806 93.1591C46.7449 93.1591 46.1101 92.9967 45.5765 92.6719C45.0462 92.3438 44.6369 91.8864 44.3485 91.2997C44.0635 90.7098 43.921 90.0237 43.921 89.2415C43.921 88.4593 44.0635 87.7699 44.3485 87.1733C44.6369 86.5734 45.0379 86.1061 45.5517 85.7713C46.0687 85.4332 46.6719 85.2642 47.3613 85.2642C47.7591 85.2642 48.1518 85.3305 48.5396 85.4631C48.9274 85.5956 49.2804 85.8111 49.5985 86.1094C49.9167 86.4044 50.1703 86.7955 50.3592 87.2827C50.5481 87.7699 50.6426 88.3698 50.6426 89.0824V89.5795H44.7562V88.5653H49.4494C49.4494 88.1345 49.3632 87.75 49.1909 87.4119C49.0218 87.0739 48.7799 86.8071 48.465 86.6115C48.1535 86.416 47.7856 86.3182 47.3613 86.3182C46.894 86.3182 46.4896 86.4342 46.1483 86.6662C45.8102 86.8949 45.55 87.1932 45.3677 87.5611C45.1854 87.929 45.0943 88.3234 45.0943 88.7443V89.4205C45.0943 89.9972 45.1937 90.486 45.3926 90.8871C45.5948 91.2848 45.8748 91.5881 46.2328 91.7969C46.5907 92.0024 47.0067 92.1051 47.4806 92.1051C47.7889 92.1051 48.0673 92.062 48.3159 91.9759C48.5678 91.8864 48.7849 91.7538 48.9672 91.5781C49.1494 91.3991 49.2903 91.1771 49.3897 90.9119L50.5233 91.2301C50.4039 91.6146 50.2034 91.9527 49.9217 92.2443C49.64 92.5327 49.292 92.758 48.8777 92.9205C48.4634 93.0795 47.9977 93.1591 47.4806 93.1591ZM52.4274 93V85.3636H53.5609V86.5568H53.6603C53.8194 86.1491 54.0763 85.8326 54.4309 85.6072C54.7856 85.3786 55.2115 85.2642 55.7086 85.2642C56.2124 85.2642 56.6317 85.3786 56.9664 85.6072C57.3045 85.8326 57.568 86.1491 57.7569 86.5568H57.8365C58.032 86.1624 58.3253 85.8492 58.7164 85.6172C59.1075 85.3819 59.5765 85.2642 60.1234 85.2642C60.8062 85.2642 61.3646 85.478 61.7988 85.9055C62.233 86.3298 62.4501 86.991 62.4501 87.8892V93H61.2768V87.8892C61.2768 87.3258 61.1227 86.9231 60.8145 86.6811C60.5062 86.4392 60.1433 86.3182 59.7257 86.3182C59.1887 86.3182 58.7728 86.4806 58.4778 86.8054C58.1828 87.1269 58.0353 87.5346 58.0353 88.0284V93H56.8422V87.7699C56.8422 87.3357 56.7013 86.986 56.4196 86.7209C56.1378 86.4524 55.7749 86.3182 55.3308 86.3182C55.0259 86.3182 54.7408 86.3994 54.4757 86.5618C54.2138 86.7242 54.0017 86.9496 53.8393 87.2379C53.6802 87.523 53.6007 87.8527 53.6007 88.2273V93H52.4274ZM68.5328 93V85.3636H69.7061V93H68.5328ZM69.1294 84.0909C68.9007 84.0909 68.7035 84.013 68.5378 83.8572C68.3754 83.7015 68.2942 83.5142 68.2942 83.2955C68.2942 83.0767 68.3754 82.8894 68.5378 82.7337C68.7035 82.5779 68.9007 82.5 69.1294 82.5C69.3581 82.5 69.5537 82.5779 69.7161 82.7337C69.8818 82.8894 69.9647 83.0767 69.9647 83.2955C69.9647 83.5142 69.8818 83.7015 69.7161 83.8572C69.5537 84.013 69.3581 84.0909 69.1294 84.0909ZM71.8551 95.8636V85.3636H72.9886V86.5767H73.1278C73.214 86.4441 73.3333 86.2751 73.4858 86.0696C73.6416 85.8608 73.8636 85.6752 74.152 85.5128C74.4437 85.3471 74.8381 85.2642 75.3352 85.2642C75.9782 85.2642 76.545 85.425 77.0355 85.7464C77.526 86.0679 77.9089 86.5237 78.1839 87.1136C78.459 87.7036 78.5966 88.3996 78.5966 89.2017C78.5966 90.0104 78.459 90.7114 78.1839 91.3047C77.9089 91.8946 77.5277 92.352 77.0405 92.6768C76.5533 92.9983 75.9915 93.1591 75.3551 93.1591C74.8646 93.1591 74.4718 93.0779 74.1768 92.9155C73.8819 92.7498 73.6548 92.5625 73.4957 92.3537C73.3366 92.1416 73.214 91.9659 73.1278 91.8267H73.0284V95.8636H71.8551ZM73.0085 89.1818C73.0085 89.7585 73.093 90.2673 73.2621 90.7081C73.4311 91.1456 73.678 91.4886 74.0028 91.7372C74.3277 91.9825 74.7254 92.1051 75.196 92.1051C75.6866 92.1051 76.0959 91.9759 76.424 91.7173C76.7554 91.4555 77.004 91.1042 77.1697 90.6634C77.3388 90.2192 77.4233 89.7254 77.4233 89.1818C77.4233 88.6449 77.3404 88.161 77.1747 87.7301C77.0123 87.2959 76.7654 86.9529 76.4339 86.701C76.1058 86.4458 75.6932 86.3182 75.196 86.3182C74.7188 86.3182 74.3177 86.4392 73.9929 86.6811C73.6681 86.9197 73.4228 87.2545 73.2571 87.6854C73.0914 88.1129 73.0085 88.6117 73.0085 89.1818ZM85.7955 87.0739L84.7415 87.3722C84.6752 87.1965 84.5774 87.0258 84.4482 86.8601C84.3222 86.6911 84.1499 86.5518 83.9311 86.4425C83.7124 86.3331 83.4323 86.2784 83.0909 86.2784C82.6236 86.2784 82.2341 86.3861 81.9226 86.6016C81.6143 86.8137 81.4602 87.0838 81.4602 87.4119C81.4602 87.7036 81.5663 87.9339 81.7784 88.103C81.9905 88.272 82.322 88.4129 82.7727 88.5256L83.9062 88.804C84.589 88.9697 85.0978 89.2232 85.4325 89.5646C85.7673 89.9027 85.9347 90.3385 85.9347 90.8722C85.9347 91.3097 85.8087 91.7008 85.5568 92.0455C85.3082 92.3902 84.9602 92.6619 84.5128 92.8608C84.0653 93.0597 83.545 93.1591 82.9517 93.1591C82.1728 93.1591 81.5282 92.9901 81.0178 92.652C80.5073 92.3139 80.1842 91.8201 80.0483 91.1705L81.1619 90.892C81.268 91.303 81.4685 91.6113 81.7635 91.8168C82.0618 92.0223 82.4512 92.125 82.9318 92.125C83.4787 92.125 83.9129 92.009 84.2344 91.777C84.5592 91.5417 84.7216 91.2599 84.7216 90.9318C84.7216 90.6667 84.6288 90.4446 84.4432 90.2656C84.2576 90.0833 83.9725 89.9474 83.5881 89.858L82.3153 89.5597C81.616 89.3939 81.1023 89.1371 80.7741 88.7891C80.4493 88.4377 80.2869 87.9986 80.2869 87.4716C80.2869 87.0407 80.4079 86.6596 80.6499 86.3281C80.8951 85.9967 81.2282 85.7365 81.6491 85.5476C82.0734 85.3587 82.554 85.2642 83.0909 85.2642C83.8466 85.2642 84.4399 85.4299 84.8707 85.7614C85.3049 86.0928 85.6132 86.5303 85.7955 87.0739ZM92.5133 89.8778V85.3636H93.6866V93H92.5133V91.7074H92.4338C92.2548 92.0952 91.9764 92.425 91.5985 92.6967C91.2207 92.9652 90.7434 93.0994 90.1667 93.0994C89.6895 93.0994 89.2652 92.995 88.894 92.7862C88.5228 92.5741 88.2311 92.2559 88.019 91.8317C87.8069 91.4041 87.7008 90.8655 87.7008 90.2159V85.3636H88.8741V90.1364C88.8741 90.6932 89.0299 91.1373 89.3414 91.4688C89.6563 91.8002 90.0574 91.9659 90.5446 91.9659C90.8362 91.9659 91.1329 91.8913 91.4345 91.7422C91.7394 91.593 91.9946 91.3643 92.2001 91.0561C92.4089 90.7479 92.5133 90.3551 92.5133 89.8778ZM95.8356 93V85.3636H96.9691V86.5568H97.0685C97.2276 86.1491 97.4845 85.8326 97.8391 85.6072C98.1938 85.3786 98.6197 85.2642 99.1168 85.2642C99.6206 85.2642 100.04 85.3786 100.375 85.6072C100.713 85.8326 100.976 86.1491 101.165 86.5568H101.245C101.44 86.1624 101.734 85.8492 102.125 85.6172C102.516 85.3819 102.985 85.2642 103.532 85.2642C104.214 85.2642 104.773 85.478 105.207 85.9055C105.641 86.3298 105.858 86.991 105.858 87.8892V93H104.685V87.8892C104.685 87.3258 104.531 86.9231 104.223 86.6811C103.914 86.4392 103.551 86.3182 103.134 86.3182C102.597 86.3182 102.181 86.4806 101.886 86.8054C101.591 87.1269 101.444 87.5346 101.444 88.0284V93H100.25V87.7699C100.25 87.3357 100.109 86.986 99.8278 86.7209C99.546 86.4524 99.1831 86.3182 98.739 86.3182C98.4341 86.3182 98.149 86.3994 97.8839 86.5618C97.622 86.7242 97.4099 86.9496 97.2475 87.2379C97.0884 87.523 97.0089 87.8527 97.0089 88.2273V93H95.8356ZM114.825 93.1591C114.188 93.1591 113.626 92.9983 113.139 92.6768C112.652 92.352 112.271 91.8946 111.996 91.3047C111.721 90.7114 111.583 90.0104 111.583 89.2017C111.583 88.3996 111.721 87.7036 111.996 87.1136C112.271 86.5237 112.654 86.0679 113.144 85.7464C113.635 85.425 114.201 85.2642 114.844 85.2642C115.342 85.2642 115.734 85.3471 116.023 85.5128C116.314 85.6752 116.536 85.8608 116.689 86.0696C116.845 86.2751 116.966 86.4441 117.052 86.5767H117.151V82.8182H118.325V93H117.191V91.8267H117.052C116.966 91.9659 116.843 92.1416 116.684 92.3537C116.525 92.5625 116.298 92.7498 116.003 92.9155C115.708 93.0779 115.315 93.1591 114.825 93.1591ZM114.984 92.1051C115.454 92.1051 115.852 91.9825 116.177 91.7372C116.502 91.4886 116.749 91.1456 116.918 90.7081C117.087 90.2673 117.171 89.7585 117.171 89.1818C117.171 88.6117 117.088 88.1129 116.923 87.6854C116.757 87.2545 116.512 86.9197 116.187 86.6811C115.862 86.4392 115.461 86.3182 114.984 86.3182C114.487 86.3182 114.072 86.4458 113.741 86.701C113.413 86.9529 113.166 87.2959 113 87.7301C112.838 88.161 112.756 88.6449 112.756 89.1818C112.756 89.7254 112.839 90.2192 113.005 90.6634C113.174 91.1042 113.423 91.4555 113.751 91.7173C114.082 91.9759 114.493 92.1051 114.984 92.1051ZM123.739 93.1591C123.049 93.1591 122.444 92.995 121.924 92.6669C121.407 92.3388 121.003 91.8797 120.711 91.2898C120.423 90.6998 120.278 90.0104 120.278 89.2216C120.278 88.4261 120.423 87.7318 120.711 87.1385C121.003 86.5452 121.407 86.0845 121.924 85.7564C122.444 85.4283 123.049 85.2642 123.739 85.2642C124.428 85.2642 125.031 85.4283 125.548 85.7564C126.069 86.0845 126.473 86.5452 126.761 87.1385C127.053 87.7318 127.199 88.4261 127.199 89.2216C127.199 90.0104 127.053 90.6998 126.761 91.2898C126.473 91.8797 126.069 92.3388 125.548 92.6669C125.031 92.995 124.428 93.1591 123.739 93.1591ZM123.739 92.1051C124.262 92.1051 124.693 91.9709 125.031 91.7024C125.369 91.4339 125.62 91.081 125.782 90.6435C125.944 90.206 126.026 89.732 126.026 89.2216C126.026 88.7112 125.944 88.2356 125.782 87.7947C125.62 87.3539 125.369 86.9976 125.031 86.7259C124.693 86.4541 124.262 86.3182 123.739 86.3182C123.215 86.3182 122.784 86.4541 122.446 86.7259C122.108 86.9976 121.858 87.3539 121.695 87.7947C121.533 88.2356 121.452 88.7112 121.452 89.2216C121.452 89.732 121.533 90.206 121.695 90.6435C121.858 91.081 122.108 91.4339 122.446 91.7024C122.784 91.9709 123.215 92.1051 123.739 92.1051ZM130.163 82.8182V93H128.99V82.8182H130.163ZM135.414 93.1591C134.725 93.1591 134.12 92.995 133.6 92.6669C133.083 92.3388 132.678 91.8797 132.387 91.2898C132.098 90.6998 131.954 90.0104 131.954 89.2216C131.954 88.4261 132.098 87.7318 132.387 87.1385C132.678 86.5452 133.083 86.0845 133.6 85.7564C134.12 85.4283 134.725 85.2642 135.414 85.2642C136.104 85.2642 136.707 85.4283 137.224 85.7564C137.744 86.0845 138.149 86.5452 138.437 87.1385C138.729 87.7318 138.875 88.4261 138.875 89.2216C138.875 90.0104 138.729 90.6998 138.437 91.2898C138.149 91.8797 137.744 92.3388 137.224 92.6669C136.707 92.995 136.104 93.1591 135.414 93.1591ZM135.414 92.1051C135.938 92.1051 136.369 91.9709 136.707 91.7024C137.045 91.4339 137.295 91.081 137.458 90.6435C137.62 90.206 137.701 89.732 137.701 89.2216C137.701 88.7112 137.62 88.2356 137.458 87.7947C137.295 87.3539 137.045 86.9976 136.707 86.7259C136.369 86.4541 135.938 86.3182 135.414 86.3182C134.891 86.3182 134.46 86.4541 134.122 86.7259C133.784 86.9976 133.533 87.3539 133.371 87.7947C133.209 88.2356 133.127 88.7112 133.127 89.2216C133.127 89.732 133.209 90.206 133.371 90.6435C133.533 91.081 133.784 91.4339 134.122 91.7024C134.46 91.9709 134.891 92.1051 135.414 92.1051ZM140.666 93V85.3636H141.799V86.517H141.879C142.018 86.1392 142.27 85.8326 142.634 85.5973C142.999 85.362 143.41 85.2443 143.867 85.2443C143.954 85.2443 144.061 85.246 144.191 85.2493C144.32 85.2526 144.418 85.2576 144.484 85.2642V86.4574C144.444 86.4474 144.353 86.4325 144.21 86.4126C144.071 86.3894 143.924 86.3778 143.768 86.3778C143.397 86.3778 143.065 86.4557 142.774 86.6115C142.485 86.764 142.257 86.9761 142.088 87.2479C141.922 87.5163 141.839 87.8229 141.839 88.1676V93H140.666ZM155.221 87.0739L154.167 87.3722C154.101 87.1965 154.003 87.0258 153.874 86.8601C153.748 86.6911 153.576 86.5518 153.357 86.4425C153.138 86.3331 152.858 86.2784 152.517 86.2784C152.049 86.2784 151.66 86.3861 151.348 86.6016C151.04 86.8137 150.886 87.0838 150.886 87.4119C150.886 87.7036 150.992 87.9339 151.204 88.103C151.416 88.272 151.748 88.4129 152.199 88.5256L153.332 88.804C154.015 88.9697 154.524 89.2232 154.858 89.5646C155.193 89.9027 155.36 90.3385 155.36 90.8722C155.36 91.3097 155.234 91.7008 154.983 92.0455C154.734 92.3902 154.386 92.6619 153.939 92.8608C153.491 93.0597 152.971 93.1591 152.377 93.1591C151.599 93.1591 150.954 92.9901 150.444 92.652C149.933 92.3139 149.61 91.8201 149.474 91.1705L150.588 90.892C150.694 91.303 150.894 91.6113 151.189 91.8168C151.488 92.0223 151.877 92.125 152.358 92.125C152.904 92.125 153.339 92.009 153.66 91.777C153.985 91.5417 154.147 91.2599 154.147 90.9318C154.147 90.6667 154.055 90.4446 153.869 90.2656C153.683 90.0833 153.398 89.9474 153.014 89.858L151.741 89.5597C151.042 89.3939 150.528 89.1371 150.2 88.7891C149.875 88.4377 149.713 87.9986 149.713 87.4716C149.713 87.0407 149.834 86.6596 150.076 86.3281C150.321 85.9967 150.654 85.7365 151.075 85.5476C151.499 85.3587 151.98 85.2642 152.517 85.2642C153.272 85.2642 153.866 85.4299 154.297 85.7614C154.731 86.0928 155.039 86.5303 155.221 87.0739ZM157.127 93V85.3636H158.3V93H157.127ZM157.723 84.0909C157.494 84.0909 157.297 84.013 157.132 83.8572C156.969 83.7015 156.888 83.5142 156.888 83.2955C156.888 83.0767 156.969 82.8894 157.132 82.7337C157.297 82.5779 157.494 82.5 157.723 82.5C157.952 82.5 158.147 82.5779 158.31 82.7337C158.476 82.8894 158.558 83.0767 158.558 83.2955C158.558 83.5142 158.476 83.7015 158.31 83.8572C158.147 84.013 157.952 84.0909 157.723 84.0909ZM163.77 85.3636V86.358H159.812V85.3636H163.77ZM160.966 83.5341H162.139V90.8125C162.139 91.1439 162.187 91.3925 162.283 91.5582C162.383 91.7206 162.509 91.83 162.661 91.8864C162.817 91.9394 162.981 91.9659 163.153 91.9659C163.283 91.9659 163.389 91.9593 163.472 91.946C163.554 91.9295 163.621 91.9162 163.67 91.9062L163.909 92.9602C163.83 92.9901 163.719 93.0199 163.576 93.0497C163.433 93.0829 163.253 93.0994 163.034 93.0994C162.703 93.0994 162.378 93.0282 162.06 92.8857C161.745 92.7431 161.483 92.526 161.274 92.2344C161.069 91.9427 160.966 91.5748 160.966 91.1307V83.5341ZM171.719 93.179C171.236 93.179 170.796 93.0878 170.402 92.9055C170.008 92.7199 169.694 92.4531 169.462 92.1051C169.23 91.7538 169.114 91.3295 169.114 90.8324C169.114 90.3949 169.201 90.0402 169.373 89.7685C169.545 89.4934 169.776 89.2779 170.064 89.1222C170.352 88.9664 170.67 88.8504 171.018 88.7741C171.37 88.6946 171.723 88.6316 172.077 88.5852C172.541 88.5256 172.918 88.4808 173.206 88.451C173.498 88.4179 173.71 88.3632 173.842 88.2869C173.978 88.2107 174.046 88.0781 174.046 87.8892V87.8494C174.046 87.3589 173.912 86.9777 173.643 86.706C173.378 86.4342 172.976 86.2983 172.435 86.2983C171.875 86.2983 171.436 86.4209 171.118 86.6662C170.8 86.9115 170.576 87.1733 170.447 87.4517L169.333 87.054C169.532 86.59 169.797 86.2287 170.129 85.9702C170.463 85.7083 170.828 85.526 171.222 85.4233C171.62 85.3172 172.011 85.2642 172.396 85.2642C172.641 85.2642 172.923 85.294 173.241 85.3537C173.562 85.41 173.872 85.5277 174.17 85.7067C174.472 85.8857 174.722 86.1558 174.921 86.517C175.12 86.8783 175.219 87.3622 175.219 87.9688V93H174.046V91.9659H173.987C173.907 92.1316 173.774 92.3089 173.589 92.4979C173.403 92.6868 173.156 92.8475 172.848 92.9801C172.54 93.1127 172.164 93.179 171.719 93.179ZM171.898 92.125C172.362 92.125 172.754 92.0339 173.072 91.8516C173.393 91.6693 173.635 91.4339 173.798 91.1456C173.963 90.8572 174.046 90.554 174.046 90.2358V89.1619C173.996 89.2216 173.887 89.2763 173.718 89.326C173.552 89.3724 173.36 89.4138 173.141 89.4503C172.926 89.4834 172.715 89.5133 172.51 89.5398C172.308 89.563 172.144 89.5829 172.018 89.5994C171.713 89.6392 171.428 89.7038 171.163 89.7933C170.901 89.8795 170.689 90.0104 170.526 90.1861C170.367 90.3584 170.288 90.5937 170.288 90.892C170.288 91.2997 170.438 91.608 170.74 91.8168C171.045 92.0223 171.431 92.125 171.898 92.125ZM177.361 93V85.3636H178.494V86.5568H178.594C178.753 86.1491 179.01 85.8326 179.365 85.6072C179.719 85.3786 180.145 85.2642 180.642 85.2642C181.146 85.2642 181.565 85.3786 181.9 85.6072C182.238 85.8326 182.502 86.1491 182.691 86.5568H182.77C182.966 86.1624 183.259 85.8492 183.65 85.6172C184.041 85.3819 184.51 85.2642 185.057 85.2642C185.74 85.2642 186.298 85.478 186.732 85.9055C187.167 86.3298 187.384 86.991 187.384 87.8892V93H186.21V87.8892C186.21 87.3258 186.056 86.9231 185.748 86.6811C185.44 86.4392 185.077 86.3182 184.659 86.3182C184.122 86.3182 183.706 86.4806 183.411 86.8054C183.116 87.1269 182.969 87.5346 182.969 88.0284V93H181.776V87.7699C181.776 87.3357 181.635 86.986 181.353 86.7209C181.071 86.4524 180.709 86.3182 180.264 86.3182C179.959 86.3182 179.674 86.3994 179.409 86.5618C179.147 86.7242 178.935 86.9496 178.773 87.2379C178.614 87.523 178.534 87.8527 178.534 88.2273V93H177.361ZM192.731 93.1591C191.995 93.1591 191.36 92.9967 190.827 92.6719C190.296 92.3438 189.887 91.8864 189.599 91.2997C189.314 90.7098 189.171 90.0237 189.171 89.2415C189.171 88.4593 189.314 87.7699 189.599 87.1733C189.887 86.5734 190.288 86.1061 190.802 85.7713C191.319 85.4332 191.922 85.2642 192.611 85.2642C193.009 85.2642 193.402 85.3305 193.79 85.4631C194.177 85.5956 194.53 85.8111 194.849 86.1094C195.167 86.4044 195.42 86.7955 195.609 87.2827C195.798 87.7699 195.893 88.3698 195.893 89.0824V89.5795H190.006V88.5653H194.699C194.699 88.1345 194.613 87.75 194.441 87.4119C194.272 87.0739 194.03 86.8071 193.715 86.6115C193.403 86.416 193.036 86.3182 192.611 86.3182C192.144 86.3182 191.74 86.4342 191.398 86.6662C191.06 86.8949 190.8 87.1932 190.618 87.5611C190.435 87.929 190.344 88.3234 190.344 88.7443V89.4205C190.344 89.9972 190.444 90.486 190.643 90.8871C190.845 91.2848 191.125 91.5881 191.483 91.7969C191.841 92.0024 192.257 92.1051 192.731 92.1051C193.039 92.1051 193.317 92.062 193.566 91.9759C193.818 91.8864 194.035 91.7538 194.217 91.5781C194.399 91.3991 194.54 91.1771 194.64 90.9119L195.773 91.2301C195.654 91.6146 195.453 91.9527 195.172 92.2443C194.89 92.5327 194.542 92.758 194.128 92.9205C193.713 93.0795 193.248 93.1591 192.731 93.1591ZM200.998 85.3636V86.358H197.041V85.3636H200.998ZM198.194 83.5341H199.368V90.8125C199.368 91.1439 199.416 91.3925 199.512 91.5582C199.611 91.7206 199.737 91.83 199.89 91.8864C200.046 91.9394 200.21 91.9659 200.382 91.9659C200.511 91.9659 200.617 91.9593 200.7 91.946C200.783 91.9295 200.849 91.9162 200.899 91.9062L201.138 92.9602C201.058 92.9901 200.947 93.0199 200.805 93.0497C200.662 93.0829 200.481 93.0994 200.263 93.0994C199.931 93.0994 199.606 93.0282 199.288 92.8857C198.973 92.7431 198.711 92.526 198.503 92.2344C198.297 91.9427 198.194 91.5748 198.194 91.1307V83.5341ZM26.1761 117.159C25.4602 117.159 24.8438 116.99 24.3267 116.652C23.8097 116.314 23.4119 115.848 23.1335 115.255C22.8551 114.662 22.7159 113.984 22.7159 113.222C22.7159 112.446 22.8584 111.762 23.1435 111.168C23.4318 110.572 23.8329 110.106 24.3466 109.771C24.8636 109.433 25.4669 109.264 26.1562 109.264C26.6932 109.264 27.1771 109.364 27.608 109.562C28.0388 109.761 28.3918 110.04 28.6669 110.398C28.942 110.756 29.1127 111.173 29.179 111.651H28.0057C27.9162 111.303 27.7173 110.994 27.4091 110.726C27.1042 110.454 26.6932 110.318 26.1761 110.318C25.7188 110.318 25.3177 110.437 24.973 110.676C24.6316 110.911 24.3648 111.245 24.1726 111.675C23.9837 112.103 23.8892 112.605 23.8892 113.182C23.8892 113.772 23.982 114.286 24.1676 114.723C24.3565 115.161 24.6217 115.5 24.9631 115.742C25.3078 115.984 25.7121 116.105 26.1761 116.105C26.4811 116.105 26.7578 116.052 27.0064 115.946C27.255 115.84 27.4654 115.688 27.6378 115.489C27.8101 115.29 27.9328 115.051 28.0057 114.773H29.179C29.1127 115.223 28.9486 115.629 28.6868 115.991C28.4283 116.349 28.0852 116.634 27.6577 116.846C27.2334 117.055 26.7396 117.159 26.1761 117.159ZM33.9964 117.159C33.3071 117.159 32.7022 116.995 32.1818 116.667C31.6648 116.339 31.2604 115.88 30.9688 115.29C30.6804 114.7 30.5362 114.01 30.5362 113.222C30.5362 112.426 30.6804 111.732 30.9688 111.138C31.2604 110.545 31.6648 110.085 32.1818 109.756C32.7022 109.428 33.3071 109.264 33.9964 109.264C34.6858 109.264 35.2891 109.428 35.8061 109.756C36.3265 110.085 36.7308 110.545 37.0192 111.138C37.3108 111.732 37.4567 112.426 37.4567 113.222C37.4567 114.01 37.3108 114.7 37.0192 115.29C36.7308 115.88 36.3265 116.339 35.8061 116.667C35.2891 116.995 34.6858 117.159 33.9964 117.159ZM33.9964 116.105C34.5201 116.105 34.951 115.971 35.2891 115.702C35.6271 115.434 35.8774 115.081 36.0398 114.643C36.2022 114.206 36.2834 113.732 36.2834 113.222C36.2834 112.711 36.2022 112.236 36.0398 111.795C35.8774 111.354 35.6271 110.998 35.2891 110.726C34.951 110.454 34.5201 110.318 33.9964 110.318C33.4728 110.318 33.0419 110.454 32.7038 110.726C32.3658 110.998 32.1155 111.354 31.9531 111.795C31.7907 112.236 31.7095 112.711 31.7095 113.222C31.7095 113.732 31.7907 114.206 31.9531 114.643C32.1155 115.081 32.3658 115.434 32.7038 115.702C33.0419 115.971 33.4728 116.105 33.9964 116.105ZM40.421 112.406V117H39.2477V109.364H40.3812V110.557H40.4806C40.6596 110.169 40.9314 109.857 41.296 109.622C41.6606 109.384 42.1312 109.264 42.7079 109.264C43.225 109.264 43.6774 109.37 44.0652 109.582C44.4529 109.791 44.7546 110.109 44.97 110.537C45.1854 110.961 45.2931 111.498 45.2931 112.148V117H44.1199V112.227C44.1199 111.627 43.9641 111.16 43.6525 110.825C43.341 110.487 42.9134 110.318 42.3699 110.318C41.9953 110.318 41.6606 110.399 41.3656 110.562C41.0739 110.724 40.8436 110.961 40.6745 111.273C40.5055 111.584 40.421 111.962 40.421 112.406ZM52.8462 111.074L51.7923 111.372C51.726 111.196 51.6282 111.026 51.4989 110.86C51.373 110.691 51.2006 110.552 50.9819 110.442C50.7631 110.333 50.4831 110.278 50.1417 110.278C49.6744 110.278 49.2849 110.386 48.9734 110.602C48.6651 110.814 48.511 111.084 48.511 111.412C48.511 111.704 48.6171 111.934 48.8292 112.103C49.0413 112.272 49.3728 112.413 49.8235 112.526L50.957 112.804C51.6398 112.97 52.1486 113.223 52.4833 113.565C52.8181 113.903 52.9854 114.339 52.9854 114.872C52.9854 115.31 52.8595 115.701 52.6076 116.045C52.359 116.39 52.011 116.662 51.5636 116.861C51.1161 117.06 50.5958 117.159 50.0025 117.159C49.2236 117.159 48.579 116.99 48.0685 116.652C47.5581 116.314 47.235 115.82 47.0991 115.17L48.2127 114.892C48.3188 115.303 48.5193 115.611 48.8143 115.817C49.1126 116.022 49.502 116.125 49.9826 116.125C50.5295 116.125 50.9637 116.009 51.2852 115.777C51.61 115.542 51.7724 115.26 51.7724 114.932C51.7724 114.667 51.6796 114.445 51.494 114.266C51.3084 114.083 51.0233 113.947 50.6388 113.858L49.3661 113.56C48.6668 113.394 48.1531 113.137 47.8249 112.789C47.5001 112.438 47.3377 111.999 47.3377 111.472C47.3377 111.041 47.4587 110.66 47.7006 110.328C47.9459 109.997 48.279 109.737 48.6999 109.548C49.1242 109.359 49.6048 109.264 50.1417 109.264C50.8974 109.264 51.4906 109.43 51.9215 109.761C52.3557 110.093 52.6639 110.53 52.8462 111.074ZM57.9533 117.159C57.2175 117.159 56.5828 116.997 56.0492 116.672C55.5189 116.344 55.1096 115.886 54.8212 115.3C54.5362 114.71 54.3936 114.024 54.3936 113.241C54.3936 112.459 54.5362 111.77 54.8212 111.173C55.1096 110.573 55.5106 110.106 56.0243 109.771C56.5414 109.433 57.1446 109.264 57.834 109.264C58.2317 109.264 58.6245 109.33 59.0123 109.463C59.4 109.596 59.753 109.811 60.0712 110.109C60.3894 110.404 60.6429 110.795 60.8319 111.283C61.0208 111.77 61.1152 112.37 61.1152 113.082V113.58H55.2289V112.565H59.9221C59.9221 112.134 59.8359 111.75 59.6635 111.412C59.4945 111.074 59.2525 110.807 58.9377 110.612C58.6261 110.416 58.2582 110.318 57.834 110.318C57.3667 110.318 56.9623 110.434 56.6209 110.666C56.2828 110.895 56.0227 111.193 55.8404 111.561C55.6581 111.929 55.5669 112.323 55.5669 112.744V113.42C55.5669 113.997 55.6664 114.486 55.8652 114.887C56.0674 115.285 56.3475 115.588 56.7054 115.797C57.0634 116.002 57.4793 116.105 57.9533 116.105C58.2615 116.105 58.54 116.062 58.7885 115.976C59.0404 115.886 59.2575 115.754 59.4398 115.578C59.6221 115.399 59.763 115.177 59.8624 114.912L60.9959 115.23C60.8766 115.615 60.6761 115.953 60.3944 116.244C60.1126 116.533 59.7646 116.758 59.3503 116.92C58.936 117.08 58.4703 117.159 57.9533 117.159ZM66.0023 117.159C65.2864 117.159 64.6699 116.99 64.1529 116.652C63.6358 116.314 63.2381 115.848 62.9597 115.255C62.6813 114.662 62.5421 113.984 62.5421 113.222C62.5421 112.446 62.6846 111.762 62.9696 111.168C63.258 110.572 63.659 110.106 64.1728 109.771C64.6898 109.433 65.293 109.264 65.9824 109.264C66.5194 109.264 67.0033 109.364 67.4341 109.562C67.865 109.761 68.218 110.04 68.4931 110.398C68.7682 110.756 68.9389 111.173 69.0051 111.651H67.8319C67.7424 111.303 67.5435 110.994 67.2353 110.726C66.9303 110.454 66.5194 110.318 66.0023 110.318C65.5449 110.318 65.1439 110.437 64.7992 110.676C64.4578 110.911 64.191 111.245 63.9988 111.675C63.8098 112.103 63.7154 112.605 63.7154 113.182C63.7154 113.772 63.8082 114.286 63.9938 114.723C64.1827 115.161 64.4479 115.5 64.7892 115.742C65.1339 115.984 65.5383 116.105 66.0023 116.105C66.3072 116.105 66.584 116.052 66.8326 115.946C67.0811 115.84 67.2916 115.688 67.464 115.489C67.6363 115.29 67.7589 115.051 67.8319 114.773H69.0051C68.9389 115.223 68.7748 115.629 68.513 115.991C68.2544 116.349 67.9114 116.634 67.4838 116.846C67.0596 117.055 66.5658 117.159 66.0023 117.159ZM74.0414 109.364V110.358H70.084V109.364H74.0414ZM71.2374 107.534H72.4107V114.812C72.4107 115.144 72.4587 115.393 72.5549 115.558C72.6543 115.721 72.7802 115.83 72.9327 115.886C73.0885 115.939 73.2525 115.966 73.4249 115.966C73.5542 115.966 73.6602 115.959 73.7431 115.946C73.8259 115.929 73.8922 115.916 73.9419 115.906L74.1806 116.96C74.101 116.99 73.99 117.02 73.8475 117.05C73.705 117.083 73.5243 117.099 73.3056 117.099C72.9741 117.099 72.6493 117.028 72.3311 116.886C72.0163 116.743 71.7544 116.526 71.5456 116.234C71.3401 115.943 71.2374 115.575 71.2374 115.131V107.534ZM78.926 117.159C78.1902 117.159 77.5555 116.997 77.0218 116.672C76.4915 116.344 76.0822 115.886 75.7939 115.3C75.5088 114.71 75.3663 114.024 75.3663 113.241C75.3663 112.459 75.5088 111.77 75.7939 111.173C76.0822 110.573 76.4833 110.106 76.997 109.771C77.514 109.433 78.1172 109.264 78.8066 109.264C79.2044 109.264 79.5971 109.33 79.9849 109.463C80.3727 109.596 80.7257 109.811 81.0439 110.109C81.362 110.404 81.6156 110.795 81.8045 111.283C81.9934 111.77 82.0879 112.37 82.0879 113.082V113.58H76.2015V112.565H80.8947C80.8947 112.134 80.8085 111.75 80.6362 111.412C80.4672 111.074 80.2252 110.807 79.9103 110.612C79.5988 110.416 79.2309 110.318 78.8066 110.318C78.3393 110.318 77.935 110.434 77.5936 110.666C77.2555 110.895 76.9953 111.193 76.813 111.561C76.6307 111.929 76.5396 112.323 76.5396 112.744V113.42C76.5396 113.997 76.639 114.486 76.8379 114.887C77.0401 115.285 77.3201 115.588 77.6781 115.797C78.036 116.002 78.452 116.105 78.926 116.105C79.2342 116.105 79.5126 116.062 79.7612 115.976C80.0131 115.886 80.2302 115.754 80.4125 115.578C80.5948 115.399 80.7356 115.177 80.835 114.912L81.9686 115.23C81.8493 115.615 81.6487 115.953 81.367 116.244C81.0853 116.533 80.7373 116.758 80.323 116.92C79.9087 117.08 79.443 117.159 78.926 117.159ZM87.1937 109.364V110.358H83.2363V109.364H87.1937ZM84.3897 107.534H85.563V114.812C85.563 115.144 85.6111 115.393 85.7072 115.558C85.8066 115.721 85.9326 115.83 86.085 115.886C86.2408 115.939 86.4049 115.966 86.5772 115.966C86.7065 115.966 86.8126 115.959 86.8954 115.946C86.9783 115.929 87.0446 115.916 87.0943 115.906L87.3329 116.96C87.2534 116.99 87.1423 117.02 86.9998 117.05C86.8573 117.083 86.6767 117.099 86.4579 117.099C86.1265 117.099 85.8017 117.028 85.4835 116.886C85.1686 116.743 84.9068 116.526 84.698 116.234C84.4925 115.943 84.3897 115.575 84.3897 115.131V107.534ZM93.7711 113.878V109.364H94.9444V117H93.7711V115.707H93.6916C93.5126 116.095 93.2342 116.425 92.8564 116.697C92.4785 116.965 92.0012 117.099 91.4245 117.099C90.9473 117.099 90.523 116.995 90.1518 116.786C89.7806 116.574 89.4889 116.256 89.2768 115.832C89.0647 115.404 88.9586 114.866 88.9586 114.216V109.364H90.1319V114.136C90.1319 114.693 90.2877 115.137 90.5993 115.469C90.9141 115.8 91.3152 115.966 91.8024 115.966C92.094 115.966 92.3907 115.891 92.6923 115.742C92.9972 115.593 93.2524 115.364 93.4579 115.056C93.6667 114.748 93.7711 114.355 93.7711 113.878ZM97.0934 117V109.364H98.2269V110.517H98.3065C98.4457 110.139 98.6976 109.833 99.0621 109.597C99.4267 109.362 99.8377 109.244 100.295 109.244C100.381 109.244 100.489 109.246 100.618 109.249C100.748 109.253 100.845 109.258 100.912 109.264V110.457C100.872 110.447 100.781 110.433 100.638 110.413C100.499 110.389 100.351 110.378 100.196 110.378C99.8245 110.378 99.493 110.456 99.2013 110.612C98.913 110.764 98.6843 110.976 98.5153 111.248C98.3496 111.516 98.2667 111.823 98.2667 112.168V117H97.0934ZM108.487 117.179C108.003 117.179 107.564 117.088 107.17 116.906C106.775 116.72 106.462 116.453 106.23 116.105C105.998 115.754 105.882 115.33 105.882 114.832C105.882 114.395 105.968 114.04 106.14 113.768C106.313 113.493 106.543 113.278 106.831 113.122C107.12 112.966 107.438 112.85 107.786 112.774C108.137 112.695 108.49 112.632 108.845 112.585C109.309 112.526 109.685 112.481 109.974 112.451C110.265 112.418 110.477 112.363 110.61 112.287C110.746 112.211 110.814 112.078 110.814 111.889V111.849C110.814 111.359 110.68 110.978 110.411 110.706C110.146 110.434 109.743 110.298 109.203 110.298C108.643 110.298 108.204 110.421 107.885 110.666C107.567 110.911 107.344 111.173 107.214 111.452L106.101 111.054C106.3 110.59 106.565 110.229 106.896 109.97C107.231 109.708 107.595 109.526 107.99 109.423C108.388 109.317 108.779 109.264 109.163 109.264C109.408 109.264 109.69 109.294 110.008 109.354C110.33 109.41 110.64 109.528 110.938 109.707C111.24 109.886 111.49 110.156 111.689 110.517C111.888 110.878 111.987 111.362 111.987 111.969V117H110.814V115.966H110.754C110.675 116.132 110.542 116.309 110.356 116.498C110.171 116.687 109.924 116.848 109.616 116.98C109.307 117.113 108.931 117.179 108.487 117.179ZM108.666 116.125C109.13 116.125 109.521 116.034 109.839 115.852C110.161 115.669 110.403 115.434 110.565 115.146C110.731 114.857 110.814 114.554 110.814 114.236V113.162C110.764 113.222 110.655 113.276 110.486 113.326C110.32 113.372 110.128 113.414 109.909 113.45C109.693 113.483 109.483 113.513 109.278 113.54C109.075 113.563 108.911 113.583 108.785 113.599C108.48 113.639 108.195 113.704 107.93 113.793C107.668 113.879 107.456 114.01 107.294 114.186C107.135 114.358 107.055 114.594 107.055 114.892C107.055 115.3 107.206 115.608 107.508 115.817C107.813 116.022 108.199 116.125 108.666 116.125ZM117.012 117.159C116.376 117.159 115.814 116.998 115.327 116.677C114.839 116.352 114.458 115.895 114.183 115.305C113.908 114.711 113.771 114.01 113.771 113.202C113.771 112.4 113.908 111.704 114.183 111.114C114.458 110.524 114.841 110.068 115.332 109.746C115.822 109.425 116.389 109.264 117.032 109.264C117.529 109.264 117.922 109.347 118.21 109.513C118.502 109.675 118.724 109.861 118.876 110.07C119.032 110.275 119.153 110.444 119.239 110.577H119.339V106.818H120.512V117H119.379V115.827H119.239C119.153 115.966 119.031 116.142 118.871 116.354C118.712 116.562 118.485 116.75 118.19 116.915C117.895 117.078 117.503 117.159 117.012 117.159ZM117.171 116.105C117.642 116.105 118.04 115.982 118.364 115.737C118.689 115.489 118.936 115.146 119.105 114.708C119.274 114.267 119.359 113.759 119.359 113.182C119.359 112.612 119.276 112.113 119.11 111.685C118.944 111.254 118.699 110.92 118.374 110.681C118.049 110.439 117.648 110.318 117.171 110.318C116.674 110.318 116.26 110.446 115.928 110.701C115.6 110.953 115.353 111.296 115.188 111.73C115.025 112.161 114.944 112.645 114.944 113.182C114.944 113.725 115.027 114.219 115.192 114.663C115.362 115.104 115.61 115.455 115.938 115.717C116.27 115.976 116.681 116.105 117.171 116.105ZM122.824 117V109.364H123.997V117H122.824ZM123.42 108.091C123.192 108.091 122.995 108.013 122.829 107.857C122.666 107.701 122.585 107.514 122.585 107.295C122.585 107.077 122.666 106.889 122.829 106.734C122.995 106.578 123.192 106.5 123.42 106.5C123.649 106.5 123.845 106.578 124.007 106.734C124.173 106.889 124.256 107.077 124.256 107.295C124.256 107.514 124.173 107.701 124.007 107.857C123.845 108.013 123.649 108.091 123.42 108.091ZM126.146 119.864V109.364H127.28V110.577H127.419C127.505 110.444 127.624 110.275 127.777 110.07C127.933 109.861 128.155 109.675 128.443 109.513C128.735 109.347 129.129 109.264 129.626 109.264C130.269 109.264 130.836 109.425 131.327 109.746C131.817 110.068 132.2 110.524 132.475 111.114C132.75 111.704 132.888 112.4 132.888 113.202C132.888 114.01 132.75 114.711 132.475 115.305C132.2 115.895 131.819 116.352 131.331 116.677C130.844 116.998 130.282 117.159 129.646 117.159C129.156 117.159 128.763 117.078 128.468 116.915C128.173 116.75 127.946 116.562 127.787 116.354C127.628 116.142 127.505 115.966 127.419 115.827H127.319V119.864H126.146ZM127.3 113.182C127.3 113.759 127.384 114.267 127.553 114.708C127.722 115.146 127.969 115.489 128.294 115.737C128.619 115.982 129.016 116.105 129.487 116.105C129.978 116.105 130.387 115.976 130.715 115.717C131.046 115.455 131.295 115.104 131.461 114.663C131.63 114.219 131.714 113.725 131.714 113.182C131.714 112.645 131.631 112.161 131.466 111.73C131.303 111.296 131.056 110.953 130.725 110.701C130.397 110.446 129.984 110.318 129.487 110.318C129.01 110.318 128.609 110.439 128.284 110.681C127.959 110.92 127.714 111.254 127.548 111.685C127.382 112.113 127.3 112.612 127.3 113.182ZM134.677 117V109.364H135.851V117H134.677ZM135.274 108.091C135.045 108.091 134.848 108.013 134.682 107.857C134.52 107.701 134.439 107.514 134.439 107.295C134.439 107.077 134.52 106.889 134.682 106.734C134.848 106.578 135.045 106.5 135.274 106.5C135.503 106.5 135.698 106.578 135.861 106.734C136.026 106.889 136.109 107.077 136.109 107.295C136.109 107.514 136.026 107.701 135.861 107.857C135.698 108.013 135.503 108.091 135.274 108.091ZM143.409 111.074L142.355 111.372C142.288 111.196 142.191 111.026 142.061 110.86C141.935 110.691 141.763 110.552 141.544 110.442C141.326 110.333 141.046 110.278 140.704 110.278C140.237 110.278 139.847 110.386 139.536 110.602C139.228 110.814 139.074 111.084 139.074 111.412C139.074 111.704 139.18 111.934 139.392 112.103C139.604 112.272 139.935 112.413 140.386 112.526L141.52 112.804C142.202 112.97 142.711 113.223 143.046 113.565C143.381 113.903 143.548 114.339 143.548 114.872C143.548 115.31 143.422 115.701 143.17 116.045C142.922 116.39 142.574 116.662 142.126 116.861C141.679 117.06 141.158 117.159 140.565 117.159C139.786 117.159 139.141 116.99 138.631 116.652C138.121 116.314 137.797 115.82 137.662 115.17L138.775 114.892C138.881 115.303 139.082 115.611 139.377 115.817C139.675 116.022 140.065 116.125 140.545 116.125C141.092 116.125 141.526 116.009 141.848 115.777C142.172 115.542 142.335 115.26 142.335 114.932C142.335 114.667 142.242 114.445 142.056 114.266C141.871 114.083 141.586 113.947 141.201 113.858L139.929 113.56C139.229 113.394 138.716 113.137 138.387 112.789C138.063 112.438 137.9 111.999 137.9 111.472C137.9 111.041 138.021 110.66 138.263 110.328C138.508 109.997 138.842 109.737 139.262 109.548C139.687 109.359 140.167 109.264 140.704 109.264C141.46 109.264 142.053 109.43 142.484 109.761C142.918 110.093 143.226 110.53 143.409 111.074ZM148.416 117.159C147.7 117.159 147.084 116.99 146.567 116.652C146.05 116.314 145.652 115.848 145.374 115.255C145.095 114.662 144.956 113.984 144.956 113.222C144.956 112.446 145.099 111.762 145.384 111.168C145.672 110.572 146.073 110.106 146.587 109.771C147.104 109.433 147.707 109.264 148.396 109.264C148.933 109.264 149.417 109.364 149.848 109.562C150.279 109.761 150.632 110.04 150.907 110.398C151.182 110.756 151.353 111.173 151.419 111.651H150.246C150.156 111.303 149.958 110.994 149.649 110.726C149.344 110.454 148.933 110.318 148.416 110.318C147.959 110.318 147.558 110.437 147.213 110.676C146.872 110.911 146.605 111.245 146.413 111.675C146.224 112.103 146.129 112.605 146.129 113.182C146.129 113.772 146.222 114.286 146.408 114.723C146.597 115.161 146.862 115.5 147.203 115.742C147.548 115.984 147.952 116.105 148.416 116.105C148.721 116.105 148.998 116.052 149.247 115.946C149.495 115.84 149.706 115.688 149.878 115.489C150.05 115.29 150.173 115.051 150.246 114.773H151.419C151.353 115.223 151.189 115.629 150.927 115.991C150.669 116.349 150.325 116.634 149.898 116.846C149.474 117.055 148.98 117.159 148.416 117.159ZM153.134 117V109.364H154.308V117H153.134ZM153.731 108.091C153.502 108.091 153.305 108.013 153.139 107.857C152.977 107.701 152.896 107.514 152.896 107.295C152.896 107.077 152.977 106.889 153.139 106.734C153.305 106.578 153.502 106.5 153.731 106.5C153.96 106.5 154.155 106.578 154.318 106.734C154.483 106.889 154.566 107.077 154.566 107.295C154.566 107.514 154.483 107.701 154.318 107.857C154.155 108.013 153.96 108.091 153.731 108.091ZM157.63 112.406V117H156.457V109.364H157.59V110.557H157.69C157.869 110.169 158.14 109.857 158.505 109.622C158.87 109.384 159.34 109.264 159.917 109.264C160.434 109.264 160.886 109.37 161.274 109.582C161.662 109.791 161.964 110.109 162.179 110.537C162.394 110.961 162.502 111.498 162.502 112.148V117H161.329V112.227C161.329 111.627 161.173 111.16 160.862 110.825C160.55 110.487 160.122 110.318 159.579 110.318C159.204 110.318 158.87 110.399 158.575 110.562C158.283 110.724 158.053 110.961 157.884 111.273C157.714 111.584 157.63 111.962 157.63 112.406ZM167.729 120.023C167.162 120.023 166.675 119.95 166.267 119.804C165.859 119.661 165.519 119.473 165.248 119.237C164.979 119.005 164.765 118.757 164.606 118.491L165.541 117.835C165.647 117.974 165.781 118.134 165.944 118.312C166.106 118.495 166.328 118.652 166.61 118.785C166.895 118.921 167.268 118.989 167.729 118.989C168.345 118.989 168.854 118.839 169.255 118.541C169.656 118.243 169.856 117.776 169.856 117.139V115.588H169.757C169.671 115.727 169.548 115.9 169.389 116.105C169.233 116.307 169.008 116.488 168.713 116.647C168.421 116.803 168.027 116.881 167.53 116.881C166.913 116.881 166.36 116.735 165.869 116.443C165.382 116.152 164.996 115.727 164.711 115.17C164.429 114.614 164.288 113.937 164.288 113.142C164.288 112.36 164.426 111.679 164.701 111.099C164.976 110.515 165.359 110.065 165.849 109.746C166.34 109.425 166.907 109.264 167.55 109.264C168.047 109.264 168.441 109.347 168.733 109.513C169.028 109.675 169.253 109.861 169.409 110.07C169.568 110.275 169.691 110.444 169.777 110.577H169.896V109.364H171.03V117.219C171.03 117.875 170.881 118.409 170.582 118.82C170.287 119.234 169.89 119.537 169.389 119.729C168.892 119.925 168.338 120.023 167.729 120.023ZM167.689 115.827C168.159 115.827 168.557 115.719 168.882 115.504C169.207 115.288 169.454 114.978 169.623 114.574C169.792 114.17 169.876 113.686 169.876 113.122C169.876 112.572 169.793 112.086 169.628 111.665C169.462 111.245 169.217 110.915 168.892 110.676C168.567 110.437 168.166 110.318 167.689 110.318C167.192 110.318 166.777 110.444 166.446 110.696C166.118 110.948 165.871 111.286 165.705 111.71C165.543 112.134 165.461 112.605 165.461 113.122C165.461 113.652 165.544 114.121 165.71 114.529C165.879 114.933 166.128 115.252 166.456 115.484C166.787 115.712 167.198 115.827 167.689 115.827ZM180.317 117.159C179.581 117.159 178.946 116.997 178.412 116.672C177.882 116.344 177.473 115.886 177.184 115.3C176.899 114.71 176.757 114.024 176.757 113.241C176.757 112.459 176.899 111.77 177.184 111.173C177.473 110.573 177.874 110.106 178.388 109.771C178.905 109.433 179.508 109.264 180.197 109.264C180.595 109.264 180.988 109.33 181.376 109.463C181.763 109.596 182.116 109.811 182.434 110.109C182.753 110.404 183.006 110.795 183.195 111.283C183.384 111.77 183.479 112.37 183.479 113.082V113.58H177.592V112.565H182.285C182.285 112.134 182.199 111.75 182.027 111.412C181.858 111.074 181.616 110.807 181.301 110.612C180.989 110.416 180.622 110.318 180.197 110.318C179.73 110.318 179.326 110.434 178.984 110.666C178.646 110.895 178.386 111.193 178.204 111.561C178.021 111.929 177.93 112.323 177.93 112.744V113.42C177.93 113.997 178.03 114.486 178.229 114.887C178.431 115.285 178.711 115.588 179.069 115.797C179.427 116.002 179.843 116.105 180.317 116.105C180.625 116.105 180.903 116.062 181.152 115.976C181.404 115.886 181.621 115.754 181.803 115.578C181.985 115.399 182.126 115.177 182.226 114.912L183.359 115.23C183.24 115.615 183.039 115.953 182.758 116.244C182.476 116.533 182.128 116.758 181.714 116.92C181.299 117.08 180.834 117.159 180.317 117.159ZM186.437 106.818V117H185.263V106.818H186.437ZM188.586 117V109.364H189.759V117H188.586ZM189.182 108.091C188.953 108.091 188.756 108.013 188.591 107.857C188.428 107.701 188.347 107.514 188.347 107.295C188.347 107.077 188.428 106.889 188.591 106.734C188.756 106.578 188.953 106.5 189.182 106.5C189.411 106.5 189.606 106.578 189.769 106.734C189.935 106.889 190.017 107.077 190.017 107.295C190.017 107.514 189.935 107.701 189.769 107.857C189.606 108.013 189.411 108.091 189.182 108.091ZM195.229 109.364V110.358H191.271V109.364H195.229ZM192.425 107.534H193.598V114.812C193.598 115.144 193.646 115.393 193.742 115.558C193.842 115.721 193.968 115.83 194.12 115.886C194.276 115.939 194.44 115.966 194.612 115.966C194.742 115.966 194.848 115.959 194.931 115.946C195.013 115.929 195.08 115.916 195.129 115.906L195.368 116.96C195.289 116.99 195.177 117.02 195.035 117.05C194.892 117.083 194.712 117.099 194.493 117.099C194.162 117.099 193.837 117.028 193.519 116.886C193.204 116.743 192.942 116.526 192.733 116.234C192.528 115.943 192.425 115.575 192.425 115.131V107.534ZM197.849 117.08C197.604 117.08 197.393 116.992 197.218 116.816C197.042 116.64 196.954 116.43 196.954 116.185C196.954 115.939 197.042 115.729 197.218 115.553C197.393 115.378 197.604 115.29 197.849 115.29C198.094 115.29 198.305 115.378 198.48 115.553C198.656 115.729 198.744 115.939 198.744 116.185C198.744 116.347 198.702 116.496 198.619 116.632C198.54 116.768 198.432 116.877 198.296 116.96C198.164 117.04 198.015 117.08 197.849 117.08ZM23.6506 141H22.358L26.0966 130.818H27.3693L31.108 141H29.8153L26.7727 132.429H26.6932L23.6506 141ZM24.1278 137.023H29.3381V138.116H24.1278V137.023ZM35.3773 133.364V134.358H31.4199V133.364H35.3773ZM32.5733 131.534H33.7466V138.812C33.7466 139.144 33.7947 139.393 33.8908 139.558C33.9902 139.721 34.1162 139.83 34.2686 139.886C34.4244 139.939 34.5885 139.966 34.7608 139.966C34.8901 139.966 34.9962 139.959 35.079 139.946C35.1619 139.929 35.2282 139.916 35.2779 139.906L35.5165 140.96C35.437 140.99 35.3259 141.02 35.1834 141.05C35.0409 141.083 34.8603 141.099 34.6415 141.099C34.3101 141.099 33.9853 141.028 33.6671 140.886C33.3522 140.743 33.0904 140.526 32.8816 140.234C32.6761 139.943 32.5733 139.575 32.5733 139.131V131.534ZM41.0797 133.364H42.253V141.557C42.253 142.027 42.1718 142.435 42.0094 142.78C41.8503 143.125 41.6084 143.391 41.2836 143.58C40.9621 143.769 40.556 143.864 40.0655 143.864C40.0257 143.864 39.986 143.864 39.9462 143.864C39.9064 143.864 39.8667 143.864 39.8269 143.864V142.77C39.8667 142.77 39.9031 142.77 39.9363 142.77C39.9694 142.77 40.0059 142.77 40.0456 142.77C40.4036 142.77 40.6654 142.664 40.8311 142.452C40.9969 142.243 41.0797 141.945 41.0797 141.557V133.364ZM41.6564 132.091C41.4277 132.091 41.2305 132.013 41.0648 131.857C40.9024 131.701 40.8212 131.514 40.8212 131.295C40.8212 131.077 40.9024 130.889 41.0648 130.734C41.2305 130.578 41.4277 130.5 41.6564 130.5C41.8851 130.5 42.0807 130.578 42.2431 130.734C42.4088 130.889 42.4917 131.077 42.4917 131.295C42.4917 131.514 42.4088 131.701 42.2431 131.857C42.0807 132.013 41.8851 132.091 41.6564 132.091ZM49.2145 137.878V133.364H50.3878V141H49.2145V139.707H49.1349C48.956 140.095 48.6776 140.425 48.2997 140.697C47.9219 140.965 47.4446 141.099 46.8679 141.099C46.3906 141.099 45.9664 140.995 45.5952 140.786C45.224 140.574 44.9323 140.256 44.7202 139.832C44.508 139.404 44.402 138.866 44.402 138.216V133.364H45.5753V138.136C45.5753 138.693 45.7311 139.137 46.0426 139.469C46.3575 139.8 46.7585 139.966 47.2457 139.966C47.5374 139.966 47.834 139.891 48.1357 139.742C48.4406 139.593 48.6958 139.364 48.9013 139.056C49.1101 138.748 49.2145 138.355 49.2145 137.878ZM57.9458 135.074L56.8919 135.372C56.8256 135.196 56.7278 135.026 56.5985 134.86C56.4726 134.691 56.3002 134.552 56.0815 134.442C55.8627 134.333 55.5827 134.278 55.2413 134.278C54.774 134.278 54.3845 134.386 54.073 134.602C53.7647 134.814 53.6106 135.084 53.6106 135.412C53.6106 135.704 53.7167 135.934 53.9288 136.103C54.1409 136.272 54.4724 136.413 54.9231 136.526L56.0566 136.804C56.7394 136.97 57.2482 137.223 57.5829 137.565C57.9177 137.903 58.085 138.339 58.085 138.872C58.085 139.31 57.9591 139.701 57.7072 140.045C57.4586 140.39 57.1106 140.662 56.6632 140.861C56.2157 141.06 55.6954 141.159 55.1021 141.159C54.3232 141.159 53.6786 140.99 53.1681 140.652C52.6577 140.314 52.3346 139.82 52.1987 139.17L53.3123 138.892C53.4184 139.303 53.6189 139.611 53.9139 139.817C54.2122 140.022 54.6016 140.125 55.0822 140.125C55.6291 140.125 56.0633 140.009 56.3848 139.777C56.7096 139.542 56.872 139.26 56.872 138.932C56.872 138.667 56.7792 138.445 56.5936 138.266C56.408 138.083 56.1229 137.947 55.7385 137.858L54.4657 137.56C53.7664 137.394 53.2527 137.137 52.9245 136.789C52.5997 136.438 52.4373 135.999 52.4373 135.472C52.4373 135.041 52.5583 134.66 52.8002 134.328C53.0455 133.997 53.3786 133.737 53.7995 133.548C54.2238 133.359 54.7044 133.264 55.2413 133.264C55.997 133.264 56.5903 133.43 57.0211 133.761C57.4553 134.093 57.7636 134.53 57.9458 135.074ZM63.1722 133.364V134.358H59.2148V133.364H63.1722ZM60.3683 131.534H61.5415V138.812C61.5415 139.144 61.5896 139.393 61.6857 139.558C61.7852 139.721 61.9111 139.83 62.0636 139.886C62.2193 139.939 62.3834 139.966 62.5558 139.966C62.685 139.966 62.7911 139.959 62.8739 139.946C62.9568 139.929 63.0231 139.916 63.0728 139.906L63.3114 140.96C63.2319 140.99 63.1209 141.02 62.9783 141.05C62.8358 141.083 62.6552 141.099 62.4364 141.099C62.105 141.099 61.7802 141.028 61.462 140.886C61.1471 140.743 60.8853 140.526 60.6765 140.234C60.471 139.943 60.3683 139.575 60.3683 139.131V131.534ZM67.9574 141.159C67.268 141.159 66.6631 140.995 66.1428 140.667C65.6257 140.339 65.2214 139.88 64.9297 139.29C64.6413 138.7 64.4972 138.01 64.4972 137.222C64.4972 136.426 64.6413 135.732 64.9297 135.138C65.2214 134.545 65.6257 134.085 66.1428 133.756C66.6631 133.428 67.268 133.264 67.9574 133.264C68.6468 133.264 69.25 133.428 69.767 133.756C70.2874 134.085 70.6918 134.545 70.9801 135.138C71.2718 135.732 71.4176 136.426 71.4176 137.222C71.4176 138.01 71.2718 138.7 70.9801 139.29C70.6918 139.88 70.2874 140.339 69.767 140.667C69.25 140.995 68.6468 141.159 67.9574 141.159ZM67.9574 140.105C68.4811 140.105 68.9119 139.971 69.25 139.702C69.5881 139.434 69.8383 139.081 70.0007 138.643C70.1631 138.206 70.2443 137.732 70.2443 137.222C70.2443 136.711 70.1631 136.236 70.0007 135.795C69.8383 135.354 69.5881 134.998 69.25 134.726C68.9119 134.454 68.4811 134.318 67.9574 134.318C67.4337 134.318 67.0028 134.454 66.6648 134.726C66.3267 134.998 66.0765 135.354 65.9141 135.795C65.7517 136.236 65.6705 136.711 65.6705 137.222C65.6705 137.732 65.7517 138.206 65.9141 138.643C66.0765 139.081 66.3267 139.434 66.6648 139.702C67.0028 139.971 67.4337 140.105 67.9574 140.105ZM79.3933 141.179C78.9094 141.179 78.4702 141.088 78.0758 140.906C77.6814 140.72 77.3682 140.453 77.1362 140.105C76.9042 139.754 76.7882 139.33 76.7882 138.832C76.7882 138.395 76.8743 138.04 77.0467 137.768C77.219 137.493 77.4494 137.278 77.7377 137.122C78.0261 136.966 78.3443 136.85 78.6923 136.774C79.0436 136.695 79.3966 136.632 79.7512 136.585C80.2153 136.526 80.5914 136.481 80.8798 136.451C81.1715 136.418 81.3836 136.363 81.5162 136.287C81.652 136.211 81.72 136.078 81.72 135.889V135.849C81.72 135.359 81.5858 134.978 81.3173 134.706C81.0521 134.434 80.6494 134.298 80.1092 134.298C79.5491 134.298 79.1099 134.421 78.7917 134.666C78.4735 134.911 78.2498 135.173 78.1206 135.452L77.0069 135.054C77.2058 134.59 77.4709 134.229 77.8024 133.97C78.1371 133.708 78.5017 133.526 78.8961 133.423C79.2939 133.317 79.685 133.264 80.0694 133.264C80.3147 133.264 80.5964 133.294 80.9146 133.354C81.2361 133.41 81.546 133.528 81.8443 133.707C82.1459 133.886 82.3961 134.156 82.595 134.517C82.7939 134.878 82.8933 135.362 82.8933 135.969V141H81.72V139.966H81.6603C81.5808 140.132 81.4482 140.309 81.2626 140.498C81.077 140.687 80.8301 140.848 80.5218 140.98C80.2136 141.113 79.8374 141.179 79.3933 141.179ZM79.5723 140.125C80.0363 140.125 80.4274 140.034 80.7456 139.852C81.0671 139.669 81.309 139.434 81.4714 139.146C81.6371 138.857 81.72 138.554 81.72 138.236V137.162C81.6703 137.222 81.5609 137.276 81.3919 137.326C81.2261 137.372 81.0339 137.414 80.8152 137.45C80.5997 137.483 80.3893 137.513 80.1838 137.54C79.9816 137.563 79.8175 137.583 79.6916 137.599C79.3867 137.639 79.1016 137.704 78.8365 137.793C78.5746 137.879 78.3625 138.01 78.2001 138.186C78.041 138.358 77.9615 138.594 77.9615 138.892C77.9615 139.3 78.1123 139.608 78.4139 139.817C78.7188 140.022 79.1049 140.125 79.5723 140.125ZM88.3558 133.364V134.358H84.3984V133.364H88.3558ZM85.5518 131.534H86.7251V138.812C86.7251 139.144 86.7732 139.393 86.8693 139.558C86.9688 139.721 87.0947 139.83 87.2472 139.886C87.4029 139.939 87.567 139.966 87.7393 139.966C87.8686 139.966 87.9747 139.959 88.0575 139.946C88.1404 139.929 88.2067 139.916 88.2564 139.906L88.495 140.96C88.4155 140.99 88.3045 141.02 88.1619 141.05C88.0194 141.083 87.8388 141.099 87.62 141.099C87.2886 141.099 86.9638 141.028 86.6456 140.886C86.3307 140.743 86.0689 140.526 85.8601 140.234C85.6546 139.943 85.5518 139.575 85.5518 139.131V131.534ZM94.0582 141V133.364H95.1918V134.517H95.2713C95.4105 134.139 95.6624 133.833 96.027 133.597C96.3916 133.362 96.8026 133.244 97.2599 133.244C97.3461 133.244 97.4538 133.246 97.5831 133.249C97.7124 133.253 97.8101 133.258 97.8764 133.264V134.457C97.8366 134.447 97.7455 134.433 97.603 134.413C97.4638 134.389 97.3163 134.378 97.1605 134.378C96.7893 134.378 96.4579 134.456 96.1662 134.612C95.8778 134.764 95.6491 134.976 95.4801 135.248C95.3144 135.516 95.2315 135.823 95.2315 136.168V141H94.0582ZM99.2672 141V133.364H100.441V141H99.2672ZM99.8638 132.091C99.6351 132.091 99.4379 132.013 99.2722 131.857C99.1098 131.701 99.0286 131.514 99.0286 131.295C99.0286 131.077 99.1098 130.889 99.2722 130.734C99.4379 130.578 99.6351 130.5 99.8638 130.5C100.093 130.5 100.288 130.578 100.45 130.734C100.616 130.889 100.699 131.077 100.699 131.295C100.699 131.514 100.616 131.701 100.45 131.857C100.288 132.013 100.093 132.091 99.8638 132.091ZM107.999 135.074L106.945 135.372C106.878 135.196 106.781 135.026 106.651 134.86C106.525 134.691 106.353 134.552 106.134 134.442C105.915 134.333 105.635 134.278 105.294 134.278C104.827 134.278 104.437 134.386 104.126 134.602C103.817 134.814 103.663 135.084 103.663 135.412C103.663 135.704 103.769 135.934 103.982 136.103C104.194 136.272 104.525 136.413 104.976 136.526L106.109 136.804C106.792 136.97 107.301 137.223 107.636 137.565C107.97 137.903 108.138 138.339 108.138 138.872C108.138 139.31 108.012 139.701 107.76 140.045C107.511 140.39 107.163 140.662 106.716 140.861C106.268 141.06 105.748 141.159 105.155 141.159C104.376 141.159 103.731 140.99 103.221 140.652C102.71 140.314 102.387 139.82 102.251 139.17L103.365 138.892C103.471 139.303 103.672 139.611 103.967 139.817C104.265 140.022 104.654 140.125 105.135 140.125C105.682 140.125 106.116 140.009 106.438 139.777C106.762 139.542 106.925 139.26 106.925 138.932C106.925 138.667 106.832 138.445 106.646 138.266C106.461 138.083 106.176 137.947 105.791 137.858L104.518 137.56C103.819 137.394 103.305 137.137 102.977 136.789C102.652 136.438 102.49 135.999 102.49 135.472C102.49 135.041 102.611 134.66 102.853 134.328C103.098 133.997 103.431 133.737 103.852 133.548C104.277 133.359 104.757 133.264 105.294 133.264C106.05 133.264 106.643 133.43 107.074 133.761C107.508 134.093 107.816 134.53 107.999 135.074ZM114.716 137.878V133.364H115.89V141H114.716V139.707H114.637C114.458 140.095 114.18 140.425 113.802 140.697C113.424 140.965 112.947 141.099 112.37 141.099C111.893 141.099 111.468 140.995 111.097 140.786C110.726 140.574 110.434 140.256 110.222 139.832C110.01 139.404 109.904 138.866 109.904 138.216V133.364H111.077V138.136C111.077 138.693 111.233 139.137 111.545 139.469C111.859 139.8 112.26 139.966 112.748 139.966C113.039 139.966 113.336 139.891 113.638 139.742C113.943 139.593 114.198 139.364 114.403 139.056C114.612 138.748 114.716 138.355 114.716 137.878ZM123.448 135.074L122.394 135.372C122.328 135.196 122.23 135.026 122.1 134.86C121.975 134.691 121.802 134.552 121.583 134.442C121.365 134.333 121.085 134.278 120.743 134.278C120.276 134.278 119.886 134.386 119.575 134.602C119.267 134.814 119.113 135.084 119.113 135.412C119.113 135.704 119.219 135.934 119.431 136.103C119.643 136.272 119.974 136.413 120.425 136.526L121.559 136.804C122.241 136.97 122.75 137.223 123.085 137.565C123.42 137.903 123.587 138.339 123.587 138.872C123.587 139.31 123.461 139.701 123.209 140.045C122.961 140.39 122.613 140.662 122.165 140.861C121.718 141.06 121.197 141.159 120.604 141.159C119.825 141.159 119.181 140.99 118.67 140.652C118.16 140.314 117.837 139.82 117.701 139.17L118.814 138.892C118.92 139.303 119.121 139.611 119.416 139.817C119.714 140.022 120.104 140.125 120.584 140.125C121.131 140.125 121.565 140.009 121.887 139.777C122.212 139.542 122.374 139.26 122.374 138.932C122.374 138.667 122.281 138.445 122.096 138.266C121.91 138.083 121.625 137.947 121.24 137.858L119.968 137.56C119.268 137.394 118.755 137.137 118.426 136.789C118.102 136.438 117.939 135.999 117.939 135.472C117.939 135.041 118.06 134.66 118.302 134.328C118.547 133.997 118.881 133.737 119.301 133.548C119.726 133.359 120.206 133.264 120.743 133.264C121.499 133.264 122.092 133.43 122.523 133.761C122.957 134.093 123.266 134.53 123.448 135.074ZM132.492 141.159C131.757 141.159 131.122 140.997 130.588 140.672C130.058 140.344 129.649 139.886 129.36 139.3C129.075 138.71 128.933 138.024 128.933 137.241C128.933 136.459 129.075 135.77 129.36 135.173C129.649 134.573 130.05 134.106 130.563 133.771C131.08 133.433 131.684 133.264 132.373 133.264C132.771 133.264 133.164 133.33 133.551 133.463C133.939 133.596 134.292 133.811 134.61 134.109C134.928 134.404 135.182 134.795 135.371 135.283C135.56 135.77 135.654 136.37 135.654 137.082V137.58H129.768V136.565H134.461C134.461 136.134 134.375 135.75 134.203 135.412C134.034 135.074 133.792 134.807 133.477 134.612C133.165 134.416 132.797 134.318 132.373 134.318C131.906 134.318 131.501 134.434 131.16 134.666C130.822 134.895 130.562 135.193 130.379 135.561C130.197 135.929 130.106 136.323 130.106 136.744V137.42C130.106 137.997 130.205 138.486 130.404 138.887C130.606 139.285 130.887 139.588 131.244 139.797C131.602 140.002 132.018 140.105 132.492 140.105C132.801 140.105 133.079 140.062 133.328 139.976C133.579 139.886 133.797 139.754 133.979 139.578C134.161 139.399 134.302 139.177 134.401 138.912L135.535 139.23C135.416 139.615 135.215 139.953 134.933 140.244C134.652 140.533 134.304 140.758 133.889 140.92C133.475 141.08 133.009 141.159 132.492 141.159ZM138.612 130.818V141H137.439V130.818H138.612ZM140.761 141V133.364H141.935V141H140.761ZM141.358 132.091C141.129 132.091 140.932 132.013 140.766 131.857C140.604 131.701 140.523 131.514 140.523 131.295C140.523 131.077 140.604 130.889 140.766 130.734C140.932 130.578 141.129 130.5 141.358 130.5C141.587 130.5 141.782 130.578 141.945 130.734C142.11 130.889 142.193 131.077 142.193 131.295C142.193 131.514 142.11 131.701 141.945 131.857C141.782 132.013 141.587 132.091 141.358 132.091ZM147.405 133.364V134.358H143.447V133.364H147.405ZM144.601 131.534H145.774V138.812C145.774 139.144 145.822 139.393 145.918 139.558C146.018 139.721 146.144 139.83 146.296 139.886C146.452 139.939 146.616 139.966 146.788 139.966C146.917 139.966 147.023 139.959 147.106 139.946C147.189 139.929 147.256 139.916 147.305 139.906L147.544 140.96C147.464 140.99 147.353 141.02 147.211 141.05C147.068 141.083 146.888 141.099 146.669 141.099C146.337 141.099 146.013 141.028 145.694 140.886C145.38 140.743 145.118 140.526 144.909 140.234C144.703 139.943 144.601 139.575 144.601 139.131V131.534ZM154.28 136.406V141H153.107V133.364H154.241V134.557H154.34C154.519 134.169 154.791 133.857 155.155 133.622C155.52 133.384 155.991 133.264 156.567 133.264C157.084 133.264 157.537 133.37 157.925 133.582C158.312 133.791 158.614 134.109 158.829 134.537C159.045 134.961 159.153 135.498 159.153 136.148V141H157.979V136.227C157.979 135.627 157.823 135.16 157.512 134.825C157.2 134.487 156.773 134.318 156.229 134.318C155.855 134.318 155.52 134.399 155.225 134.562C154.933 134.724 154.703 134.961 154.534 135.273C154.365 135.584 154.28 135.962 154.28 136.406ZM161.297 141V133.364H162.47V141H161.297ZM161.893 132.091C161.664 132.091 161.467 132.013 161.301 131.857C161.139 131.701 161.058 131.514 161.058 131.295C161.058 131.077 161.139 130.889 161.301 130.734C161.467 130.578 161.664 130.5 161.893 130.5C162.122 130.5 162.317 130.578 162.48 130.734C162.645 130.889 162.728 131.077 162.728 131.295C162.728 131.514 162.645 131.701 162.48 131.857C162.317 132.013 162.122 132.091 161.893 132.091ZM164.778 141V130.818H165.951V134.577H166.051C166.137 134.444 166.256 134.275 166.409 134.07C166.564 133.861 166.786 133.675 167.075 133.513C167.366 133.347 167.761 133.264 168.258 133.264C168.901 133.264 169.468 133.425 169.958 133.746C170.449 134.068 170.832 134.524 171.107 135.114C171.382 135.704 171.519 136.4 171.519 137.202C171.519 138.01 171.382 138.711 171.107 139.305C170.832 139.895 170.45 140.352 169.963 140.677C169.476 140.998 168.914 141.159 168.278 141.159C167.787 141.159 167.395 141.078 167.1 140.915C166.805 140.75 166.578 140.562 166.419 140.354C166.259 140.142 166.137 139.966 166.051 139.827H165.911V141H164.778ZM165.931 137.182C165.931 137.759 166.016 138.267 166.185 138.708C166.354 139.146 166.601 139.489 166.926 139.737C167.25 139.982 167.648 140.105 168.119 140.105C168.609 140.105 169.019 139.976 169.347 139.717C169.678 139.455 169.927 139.104 170.093 138.663C170.262 138.219 170.346 137.725 170.346 137.182C170.346 136.645 170.263 136.161 170.097 135.73C169.935 135.296 169.688 134.953 169.357 134.701C169.029 134.446 168.616 134.318 168.119 134.318C167.642 134.318 167.24 134.439 166.916 134.681C166.591 134.92 166.346 135.254 166.18 135.685C166.014 136.113 165.931 136.612 165.931 137.182ZM174.487 136.406V141H173.314V130.818H174.487V134.557H174.587C174.766 134.162 175.034 133.849 175.392 133.617C175.753 133.382 176.234 133.264 176.834 133.264C177.354 133.264 177.81 133.369 178.201 133.577C178.592 133.783 178.896 134.099 179.111 134.527C179.33 134.951 179.439 135.491 179.439 136.148V141H178.266V136.227C178.266 135.621 178.108 135.152 177.794 134.82C177.482 134.486 177.049 134.318 176.496 134.318C176.111 134.318 175.767 134.399 175.462 134.562C175.16 134.724 174.922 134.961 174.746 135.273C174.574 135.584 174.487 135.962 174.487 136.406ZM25.321 165.179C24.8371 165.179 24.398 165.088 24.0036 164.906C23.6091 164.72 23.2959 164.453 23.0639 164.105C22.8319 163.754 22.7159 163.33 22.7159 162.832C22.7159 162.395 22.8021 162.04 22.9744 161.768C23.1468 161.493 23.3771 161.278 23.6655 161.122C23.9538 160.966 24.272 160.85 24.62 160.774C24.9714 160.695 25.3243 160.632 25.679 160.585C26.143 160.526 26.5192 160.481 26.8075 160.451C27.0992 160.418 27.3113 160.363 27.4439 160.287C27.5798 160.211 27.6477 160.078 27.6477 159.889V159.849C27.6477 159.359 27.5135 158.978 27.245 158.706C26.9799 158.434 26.5772 158.298 26.0369 158.298C25.4768 158.298 25.0376 158.421 24.7195 158.666C24.4013 158.911 24.1776 159.173 24.0483 159.452L22.9347 159.054C23.1335 158.59 23.3987 158.229 23.7301 157.97C24.0649 157.708 24.4295 157.526 24.8239 157.423C25.2216 157.317 25.6127 157.264 25.9972 157.264C26.2424 157.264 26.5241 157.294 26.8423 157.354C27.1638 157.41 27.4737 157.528 27.772 157.707C28.0736 157.886 28.3239 158.156 28.5227 158.517C28.7216 158.878 28.821 159.362 28.821 159.969V165H27.6477V163.966H27.5881C27.5085 164.132 27.3759 164.309 27.1903 164.498C27.0047 164.687 26.7578 164.848 26.4496 164.98C26.1413 165.113 25.7652 165.179 25.321 165.179ZM25.5 164.125C25.964 164.125 26.3551 164.034 26.6733 163.852C26.9948 163.669 27.2367 163.434 27.3991 163.146C27.5649 162.857 27.6477 162.554 27.6477 162.236V161.162C27.598 161.222 27.4886 161.276 27.3196 161.326C27.1539 161.372 26.9616 161.414 26.7429 161.45C26.5275 161.483 26.317 161.513 26.1115 161.54C25.9093 161.563 25.7453 161.583 25.6193 161.599C25.3144 161.639 25.0294 161.704 24.7642 161.793C24.5024 161.879 24.2902 162.01 24.1278 162.186C23.9688 162.358 23.8892 162.594 23.8892 162.892C23.8892 163.3 24.04 163.608 24.3416 163.817C24.6465 164.022 25.0327 164.125 25.5 164.125ZM34.0648 165.159C33.3489 165.159 32.7324 164.99 32.2154 164.652C31.6983 164.314 31.3006 163.848 31.0222 163.255C30.7438 162.662 30.6046 161.984 30.6046 161.222C30.6046 160.446 30.7471 159.762 31.0321 159.168C31.3205 158.572 31.7215 158.106 32.2353 157.771C32.7523 157.433 33.3555 157.264 34.0449 157.264C34.5819 157.264 35.0658 157.364 35.4966 157.562C35.9275 157.761 36.2805 158.04 36.5556 158.398C36.8307 158.756 37.0014 159.173 37.0676 159.651H35.8944C35.8049 159.303 35.606 158.994 35.2978 158.726C34.9928 158.454 34.5819 158.318 34.0648 158.318C33.6074 158.318 33.2064 158.437 32.8617 158.676C32.5203 158.911 32.2535 159.245 32.0613 159.675C31.8723 160.103 31.7779 160.605 31.7779 161.182C31.7779 161.772 31.8707 162.286 32.0563 162.723C32.2452 163.161 32.5104 163.5 32.8517 163.742C33.1964 163.984 33.6008 164.105 34.0648 164.105C34.3697 164.105 34.6465 164.052 34.8951 163.946C35.1436 163.84 35.3541 163.688 35.5265 163.489C35.6988 163.29 35.8214 163.051 35.8944 162.773H37.0676C37.0014 163.223 36.8373 163.629 36.5755 163.991C36.3169 164.349 35.9739 164.634 35.5463 164.846C35.1221 165.055 34.6283 165.159 34.0648 165.159ZM41.8851 165.159C41.1692 165.159 40.5527 164.99 40.0357 164.652C39.5186 164.314 39.1209 163.848 38.8425 163.255C38.5641 162.662 38.4249 161.984 38.4249 161.222C38.4249 160.446 38.5674 159.762 38.8525 159.168C39.1408 158.572 39.5418 158.106 40.0556 157.771C40.5726 157.433 41.1758 157.264 41.8652 157.264C42.4022 157.264 42.8861 157.364 43.3169 157.562C43.7478 157.761 44.1008 158.04 44.3759 158.398C44.651 158.756 44.8217 159.173 44.888 159.651H43.7147C43.6252 159.303 43.4263 158.994 43.1181 158.726C42.8132 158.454 42.4022 158.318 41.8851 158.318C41.4277 158.318 41.0267 158.437 40.682 158.676C40.3406 158.911 40.0738 159.245 39.8816 159.675C39.6926 160.103 39.5982 160.605 39.5982 161.182C39.5982 161.772 39.691 162.286 39.8766 162.723C40.0655 163.161 40.3307 163.5 40.6721 163.742C41.0167 163.984 41.4211 164.105 41.8851 164.105C42.19 164.105 42.4668 164.052 42.7154 163.946C42.964 163.84 43.1744 163.688 43.3468 163.489C43.5191 163.29 43.6417 163.051 43.7147 162.773H44.888C44.8217 163.223 44.6576 163.629 44.3958 163.991C44.1373 164.349 43.7942 164.634 43.3667 164.846C42.9424 165.055 42.4486 165.159 41.8851 165.159ZM51.4157 161.878V157.364H52.589V165H51.4157V163.707H51.3361C51.1571 164.095 50.8787 164.425 50.5009 164.697C50.123 164.965 49.6458 165.099 49.0691 165.099C48.5918 165.099 48.1676 164.995 47.7963 164.786C47.4251 164.574 47.1335 164.256 46.9213 163.832C46.7092 163.404 46.6032 162.866 46.6032 162.216V157.364H47.7765V162.136C47.7765 162.693 47.9322 163.137 48.2438 163.469C48.5587 163.8 48.9597 163.966 49.4469 163.966C49.7386 163.966 50.0352 163.891 50.3368 163.742C50.6417 163.593 50.897 163.364 51.1025 163.056C51.3113 162.748 51.4157 162.355 51.4157 161.878ZM54.7379 165V157.364H55.8714V158.557H55.9709C56.13 158.149 56.3868 157.833 56.7415 157.607C57.0961 157.379 57.522 157.264 58.0192 157.264C58.523 157.264 58.9422 157.379 59.277 157.607C59.6151 157.833 59.8786 158.149 60.0675 158.557H60.147C60.3426 158.162 60.6359 157.849 61.027 157.617C61.4181 157.382 61.8871 157.264 62.4339 157.264C63.1167 157.264 63.6752 157.478 64.1094 157.906C64.5436 158.33 64.7607 158.991 64.7607 159.889V165H63.5874V159.889C63.5874 159.326 63.4332 158.923 63.125 158.681C62.8168 158.439 62.4538 158.318 62.0362 158.318C61.4993 158.318 61.0833 158.481 60.7884 158.805C60.4934 159.127 60.3459 159.535 60.3459 160.028V165H59.1527V159.77C59.1527 159.336 59.0118 158.986 58.7301 158.721C58.4484 158.452 58.0855 158.318 57.6413 158.318C57.3364 158.318 57.0514 158.399 56.7862 158.562C56.5244 158.724 56.3123 158.95 56.1499 159.238C55.9908 159.523 55.9112 159.853 55.9112 160.227V165H54.7379ZM72.315 159.074L71.261 159.372C71.1947 159.196 71.0969 159.026 70.9677 158.86C70.8417 158.691 70.6694 158.552 70.4506 158.442C70.2319 158.333 69.9518 158.278 69.6104 158.278C69.1431 158.278 68.7537 158.386 68.4421 158.602C68.1339 158.814 67.9798 159.084 67.9798 159.412C67.9798 159.704 68.0858 159.934 68.2979 160.103C68.5101 160.272 68.8415 160.413 69.2923 160.526L70.4258 160.804C71.1085 160.97 71.6173 161.223 71.9521 161.565C72.2868 161.903 72.4542 162.339 72.4542 162.872C72.4542 163.31 72.3282 163.701 72.0763 164.045C71.8278 164.39 71.4798 164.662 71.0323 164.861C70.5849 165.06 70.0645 165.159 69.4712 165.159C68.6924 165.159 68.0477 164.99 67.5373 164.652C67.0269 164.314 66.7037 163.82 66.5678 163.17L67.6815 162.892C67.7875 163.303 67.988 163.611 68.283 163.817C68.5813 164.022 68.9708 164.125 69.4513 164.125C69.9982 164.125 70.4324 164.009 70.7539 163.777C71.0787 163.542 71.2411 163.26 71.2411 162.932C71.2411 162.667 71.1483 162.445 70.9627 162.266C70.7771 162.083 70.4921 161.947 70.1076 161.858L68.8349 161.56C68.1355 161.394 67.6218 161.137 67.2937 160.789C66.9689 160.438 66.8065 159.999 66.8065 159.472C66.8065 159.041 66.9274 158.66 67.1694 158.328C67.4147 157.997 67.7478 157.737 68.1687 157.548C68.5929 157.359 69.0735 157.264 69.6104 157.264C70.3661 157.264 70.9594 157.43 71.3903 157.761C71.8245 158.093 72.1327 158.53 72.315 159.074ZM76.4675 165.179C75.9836 165.179 75.5444 165.088 75.15 164.906C74.7556 164.72 74.4424 164.453 74.2104 164.105C73.9784 163.754 73.8624 163.33 73.8624 162.832C73.8624 162.395 73.9486 162.04 74.1209 161.768C74.2933 161.493 74.5236 161.278 74.812 161.122C75.1003 160.966 75.4185 160.85 75.7665 160.774C76.1178 160.695 76.4708 160.632 76.8255 160.585C77.2895 160.526 77.6657 160.481 77.954 160.451C78.2457 160.418 78.4578 160.363 78.5904 160.287C78.7263 160.211 78.7942 160.078 78.7942 159.889V159.849C78.7942 159.359 78.66 158.978 78.3915 158.706C78.1264 158.434 77.7237 158.298 77.1834 158.298C76.6233 158.298 76.1841 158.421 75.8659 158.666C75.5478 158.911 75.324 159.173 75.1948 159.452L74.0811 159.054C74.28 158.59 74.5452 158.229 74.8766 157.97C75.2114 157.708 75.5759 157.526 75.9703 157.423C76.3681 157.317 76.7592 157.264 77.1436 157.264C77.3889 157.264 77.6706 157.294 77.9888 157.354C78.3103 157.41 78.6202 157.528 78.9185 157.707C79.2201 157.886 79.4703 158.156 79.6692 158.517C79.8681 158.878 79.9675 159.362 79.9675 159.969V165H78.7942V163.966H78.7346C78.655 164.132 78.5224 164.309 78.3368 164.498C78.1512 164.687 77.9043 164.848 77.5961 164.98C77.2878 165.113 76.9116 165.179 76.4675 165.179ZM76.6465 164.125C77.1105 164.125 77.5016 164.034 77.8198 163.852C78.1413 163.669 78.3832 163.434 78.5456 163.146C78.7114 162.857 78.7942 162.554 78.7942 162.236V161.162C78.7445 161.222 78.6351 161.276 78.4661 161.326C78.3004 161.372 78.1081 161.414 77.8894 161.45C77.6739 161.483 77.4635 161.513 77.258 161.54C77.0558 161.563 76.8917 161.583 76.7658 161.599C76.4609 161.639 76.1758 161.704 75.9107 161.793C75.6489 161.879 75.4367 162.01 75.2743 162.186C75.1152 162.358 75.0357 162.594 75.0357 162.892C75.0357 163.3 75.1865 163.608 75.4881 163.817C75.793 164.022 76.1792 164.125 76.6465 164.125ZM83.2823 160.406V165H82.109V157.364H83.2425V158.557H83.342C83.521 158.169 83.7927 157.857 84.1573 157.622C84.5219 157.384 84.9925 157.264 85.5692 157.264C86.0863 157.264 86.5387 157.37 86.9265 157.582C87.3143 157.791 87.6159 158.109 87.8313 158.537C88.0468 158.961 88.1545 159.498 88.1545 160.148V165H86.9812V160.227C86.9812 159.627 86.8254 159.16 86.5138 158.825C86.2023 158.487 85.7747 158.318 85.2312 158.318C84.8567 158.318 84.5219 158.399 84.2269 158.562C83.9353 158.724 83.7049 158.961 83.5359 159.273C83.3668 159.584 83.2823 159.962 83.2823 160.406ZM92.0485 163.608L91.9689 164.145C91.9126 164.523 91.8264 164.927 91.7104 165.358C91.5977 165.789 91.4801 166.195 91.3574 166.576C91.2348 166.957 91.1337 167.26 91.0542 167.486H90.1593C90.2024 167.274 90.2587 166.994 90.3283 166.646C90.3979 166.298 90.4675 165.908 90.5371 165.477C90.61 165.05 90.6697 164.612 90.7161 164.165L90.7757 163.608H92.0485ZM101.362 165.159C100.626 165.159 99.991 164.997 99.4574 164.672C98.9271 164.344 98.5178 163.886 98.2294 163.3C97.9444 162.71 97.8018 162.024 97.8018 161.241C97.8018 160.459 97.9444 159.77 98.2294 159.173C98.5178 158.573 98.9188 158.106 99.4325 157.771C99.9496 157.433 100.553 157.264 101.242 157.264C101.64 157.264 102.033 157.33 102.42 157.463C102.808 157.596 103.161 157.811 103.479 158.109C103.798 158.404 104.051 158.795 104.24 159.283C104.429 159.77 104.523 160.37 104.523 161.082V161.58H98.6371V160.565H103.33C103.33 160.134 103.244 159.75 103.072 159.412C102.903 159.074 102.661 158.807 102.346 158.612C102.034 158.416 101.666 158.318 101.242 158.318C100.775 158.318 100.371 158.434 100.029 158.666C99.6911 158.895 99.4309 159.193 99.2486 159.561C99.0663 159.929 98.9751 160.323 98.9751 160.744V161.42C98.9751 161.997 99.0746 162.486 99.2734 162.887C99.4756 163.285 99.7557 163.588 100.114 163.797C100.472 164.002 100.888 164.105 101.362 164.105C101.67 164.105 101.948 164.062 102.197 163.976C102.449 163.886 102.666 163.754 102.848 163.578C103.03 163.399 103.171 163.177 103.271 162.912L104.404 163.23C104.285 163.615 104.084 163.953 103.803 164.244C103.521 164.533 103.173 164.758 102.759 164.92C102.344 165.08 101.879 165.159 101.362 165.159ZM109.391 168.023C108.824 168.023 108.337 167.95 107.929 167.804C107.521 167.661 107.182 167.473 106.91 167.237C106.641 167.005 106.428 166.757 106.268 166.491L107.203 165.835C107.309 165.974 107.443 166.134 107.606 166.312C107.768 166.495 107.99 166.652 108.272 166.785C108.557 166.921 108.93 166.989 109.391 166.989C110.007 166.989 110.516 166.839 110.917 166.541C111.318 166.243 111.518 165.776 111.518 165.139V163.588H111.419C111.333 163.727 111.21 163.9 111.051 164.105C110.895 164.307 110.67 164.488 110.375 164.647C110.083 164.803 109.689 164.881 109.192 164.881C108.575 164.881 108.022 164.735 107.531 164.443C107.044 164.152 106.658 163.727 106.373 163.17C106.091 162.614 105.95 161.937 105.95 161.142C105.95 160.36 106.088 159.679 106.363 159.099C106.638 158.515 107.021 158.065 107.511 157.746C108.002 157.425 108.569 157.264 109.212 157.264C109.709 157.264 110.103 157.347 110.395 157.513C110.69 157.675 110.915 157.861 111.071 158.07C111.23 158.275 111.353 158.444 111.439 158.577H111.558V157.364H112.692V165.219C112.692 165.875 112.543 166.409 112.244 166.82C111.949 167.234 111.552 167.537 111.051 167.729C110.554 167.925 110 168.023 109.391 168.023ZM109.351 163.827C109.821 163.827 110.219 163.719 110.544 163.504C110.869 163.288 111.116 162.978 111.285 162.574C111.454 162.17 111.538 161.686 111.538 161.122C111.538 160.572 111.455 160.086 111.29 159.665C111.124 159.245 110.879 158.915 110.554 158.676C110.229 158.437 109.828 158.318 109.351 158.318C108.854 158.318 108.439 158.444 108.108 158.696C107.78 158.948 107.533 159.286 107.367 159.71C107.205 160.134 107.124 160.605 107.124 161.122C107.124 161.652 107.206 162.121 107.372 162.529C107.541 162.933 107.79 163.252 108.118 163.484C108.449 163.712 108.86 163.827 109.351 163.827ZM118.041 165.159C117.305 165.159 116.671 164.997 116.137 164.672C115.607 164.344 115.197 163.886 114.909 163.3C114.624 162.71 114.482 162.024 114.482 161.241C114.482 160.459 114.624 159.77 114.909 159.173C115.197 158.573 115.598 158.106 116.112 157.771C116.629 157.433 117.232 157.264 117.922 157.264C118.32 157.264 118.712 157.33 119.1 157.463C119.488 157.596 119.841 157.811 120.159 158.109C120.477 158.404 120.731 158.795 120.92 159.283C121.109 159.77 121.203 160.37 121.203 161.082V161.58H115.317V160.565H120.01C120.01 160.134 119.924 159.75 119.751 159.412C119.582 159.074 119.34 158.807 119.026 158.612C118.714 158.416 118.346 158.318 117.922 158.318C117.455 158.318 117.05 158.434 116.709 158.666C116.371 158.895 116.111 159.193 115.928 159.561C115.746 159.929 115.655 160.323 115.655 160.744V161.42C115.655 161.997 115.754 162.486 115.953 162.887C116.155 163.285 116.435 163.588 116.793 163.797C117.151 164.002 117.567 164.105 118.041 164.105C118.349 164.105 118.628 164.062 118.876 163.976C119.128 163.886 119.345 163.754 119.528 163.578C119.71 163.399 119.851 163.177 119.95 162.912L121.084 163.23C120.964 163.615 120.764 163.953 120.482 164.244C120.201 164.533 119.853 164.758 119.438 164.92C119.024 165.08 118.558 165.159 118.041 165.159ZM126.309 157.364V158.358H122.352V157.364H126.309ZM123.505 155.534H124.678V162.812C124.678 163.144 124.726 163.393 124.822 163.558C124.922 163.721 125.048 163.83 125.2 163.886C125.356 163.939 125.52 163.966 125.692 163.966C125.822 163.966 125.928 163.959 126.011 163.946C126.094 163.929 126.16 163.916 126.21 163.906L126.448 164.96C126.369 164.99 126.258 165.02 126.115 165.05C125.973 165.083 125.792 165.099 125.573 165.099C125.242 165.099 124.917 165.028 124.599 164.886C124.284 164.743 124.022 164.526 123.813 164.234C123.608 163.943 123.505 163.575 123.505 163.131V155.534ZM134.259 165.179C133.775 165.179 133.335 165.088 132.941 164.906C132.547 164.72 132.233 164.453 132.001 164.105C131.769 163.754 131.653 163.33 131.653 162.832C131.653 162.395 131.74 162.04 131.912 161.768C132.084 161.493 132.315 161.278 132.603 161.122C132.891 160.966 133.21 160.85 133.558 160.774C133.909 160.695 134.262 160.632 134.616 160.585C135.08 160.526 135.457 160.481 135.745 160.451C136.037 160.418 136.249 160.363 136.381 160.287C136.517 160.211 136.585 160.078 136.585 159.889V159.849C136.585 159.359 136.451 158.978 136.183 158.706C135.917 158.434 135.515 158.298 134.974 158.298C134.414 158.298 133.975 158.421 133.657 158.666C133.339 158.911 133.115 159.173 132.986 159.452L131.872 159.054C132.071 158.59 132.336 158.229 132.668 157.97C133.002 157.708 133.367 157.526 133.761 157.423C134.159 157.317 134.55 157.264 134.935 157.264C135.18 157.264 135.462 157.294 135.78 157.354C136.101 157.41 136.411 157.528 136.71 157.707C137.011 157.886 137.261 158.156 137.46 158.517C137.659 158.878 137.759 159.362 137.759 159.969V165H136.585V163.966H136.526C136.446 164.132 136.313 164.309 136.128 164.498C135.942 164.687 135.695 164.848 135.387 164.98C135.079 165.113 134.703 165.179 134.259 165.179ZM134.438 164.125C134.902 164.125 135.293 164.034 135.611 163.852C135.932 163.669 136.174 163.434 136.337 163.146C136.502 162.857 136.585 162.554 136.585 162.236V161.162C136.536 161.222 136.426 161.276 136.257 161.326C136.091 161.372 135.899 161.414 135.68 161.45C135.465 161.483 135.254 161.513 135.049 161.54C134.847 161.563 134.683 161.583 134.557 161.599C134.252 161.639 133.967 161.704 133.702 161.793C133.44 161.879 133.228 162.01 133.065 162.186C132.906 162.358 132.827 162.594 132.827 162.892C132.827 163.3 132.978 163.608 133.279 163.817C133.584 164.022 133.97 164.125 134.438 164.125ZM143.221 157.364V158.358H139.264V157.364H143.221ZM140.417 155.534H141.59V162.812C141.59 163.144 141.638 163.393 141.735 163.558C141.834 163.721 141.96 163.83 142.112 163.886C142.268 163.939 142.432 163.966 142.605 163.966C142.734 163.966 142.84 163.959 142.923 163.946C143.006 163.929 143.072 163.916 143.122 163.906L143.36 164.96C143.281 164.99 143.17 165.02 143.027 165.05C142.885 165.083 142.704 165.099 142.485 165.099C142.154 165.099 141.829 165.028 141.511 164.886C141.196 164.743 140.934 164.526 140.725 164.234C140.52 163.943 140.417 163.575 140.417 163.131V155.534ZM150.097 160.406V165H148.923V154.818H150.097V158.557H150.196C150.375 158.162 150.644 157.849 151.002 157.617C151.363 157.382 151.843 157.264 152.443 157.264C152.964 157.264 153.419 157.369 153.811 157.577C154.202 157.783 154.505 158.099 154.72 158.527C154.939 158.951 155.048 159.491 155.048 160.148V165H153.875V160.227C153.875 159.621 153.718 159.152 153.403 158.82C153.091 158.486 152.659 158.318 152.105 158.318C151.721 158.318 151.376 158.399 151.071 158.562C150.77 158.724 150.531 158.961 150.355 159.273C150.183 159.584 150.097 159.962 150.097 160.406ZM160.397 165.159C159.661 165.159 159.026 164.997 158.493 164.672C157.962 164.344 157.553 163.886 157.265 163.3C156.98 162.71 156.837 162.024 156.837 161.241C156.837 160.459 156.98 159.77 157.265 159.173C157.553 158.573 157.954 158.106 158.468 157.771C158.985 157.433 159.588 157.264 160.277 157.264C160.675 157.264 161.068 157.33 161.456 157.463C161.843 157.596 162.196 157.811 162.515 158.109C162.833 158.404 163.086 158.795 163.275 159.283C163.464 159.77 163.559 160.37 163.559 161.082V161.58H157.672V160.565H162.365C162.365 160.134 162.279 159.75 162.107 159.412C161.938 159.074 161.696 158.807 161.381 158.612C161.069 158.416 160.702 158.318 160.277 158.318C159.81 158.318 159.406 158.434 159.064 158.666C158.726 158.895 158.466 159.193 158.284 159.561C158.101 159.929 158.01 160.323 158.01 160.744V161.42C158.01 161.997 158.11 162.486 158.309 162.887C158.511 163.285 158.791 163.588 159.149 163.797C159.507 164.002 159.923 164.105 160.397 164.105C160.705 164.105 160.983 164.062 161.232 163.976C161.484 163.886 161.701 163.754 161.883 163.578C162.065 163.399 162.206 163.177 162.306 162.912L163.439 163.23C163.32 163.615 163.119 163.953 162.838 164.244C162.556 164.533 162.208 164.758 161.794 164.92C161.379 165.08 160.914 165.159 160.397 165.159ZM166.517 160.406V165H165.343V157.364H166.477V158.557H166.576C166.755 158.169 167.027 157.857 167.392 157.622C167.756 157.384 168.227 157.264 168.804 157.264C169.321 157.264 169.773 157.37 170.161 157.582C170.549 157.791 170.85 158.109 171.066 158.537C171.281 158.961 171.389 159.498 171.389 160.148V165H170.216V160.227C170.216 159.627 170.06 159.16 169.748 158.825C169.437 158.487 169.009 158.318 168.466 158.318C168.091 158.318 167.756 158.399 167.461 158.562C167.17 158.724 166.939 158.961 166.77 159.273C166.601 159.584 166.517 159.962 166.517 160.406ZM176.416 165.159C175.78 165.159 175.218 164.998 174.731 164.677C174.244 164.352 173.863 163.895 173.588 163.305C173.312 162.711 173.175 162.01 173.175 161.202C173.175 160.4 173.312 159.704 173.588 159.114C173.863 158.524 174.245 158.068 174.736 157.746C175.227 157.425 175.793 157.264 176.436 157.264C176.933 157.264 177.326 157.347 177.615 157.513C177.906 157.675 178.128 157.861 178.281 158.07C178.436 158.275 178.557 158.444 178.644 158.577H178.743V154.818H179.916V165H178.783V163.827H178.644C178.557 163.966 178.435 164.142 178.276 164.354C178.117 164.562 177.89 164.75 177.595 164.915C177.3 165.078 176.907 165.159 176.416 165.159ZM176.575 164.105C177.046 164.105 177.444 163.982 177.769 163.737C178.093 163.489 178.34 163.146 178.509 162.708C178.678 162.267 178.763 161.759 178.763 161.182C178.763 160.612 178.68 160.113 178.514 159.685C178.349 159.254 178.103 158.92 177.779 158.681C177.454 158.439 177.053 158.318 176.575 158.318C176.078 158.318 175.664 158.446 175.333 158.701C175.004 158.953 174.758 159.296 174.592 159.73C174.429 160.161 174.348 160.645 174.348 161.182C174.348 161.725 174.431 162.219 174.597 162.663C174.766 163.104 175.014 163.455 175.343 163.717C175.674 163.976 176.085 164.105 176.575 164.105ZM182.228 165V157.364H183.362V158.517H183.441C183.58 158.139 183.832 157.833 184.197 157.597C184.561 157.362 184.972 157.244 185.43 157.244C185.516 157.244 185.624 157.246 185.753 157.249C185.882 157.253 185.98 157.258 186.046 157.264V158.457C186.007 158.447 185.915 158.433 185.773 158.413C185.634 158.389 185.486 158.378 185.33 158.378C184.959 158.378 184.628 158.456 184.336 158.612C184.048 158.764 183.819 158.976 183.65 159.248C183.484 159.516 183.401 159.823 183.401 160.168V165H182.228ZM190.406 165.159C189.671 165.159 189.036 164.997 188.502 164.672C187.972 164.344 187.563 163.886 187.274 163.3C186.989 162.71 186.847 162.024 186.847 161.241C186.847 160.459 186.989 159.77 187.274 159.173C187.563 158.573 187.964 158.106 188.477 157.771C188.994 157.433 189.598 157.264 190.287 157.264C190.685 157.264 191.078 157.33 191.465 157.463C191.853 157.596 192.206 157.811 192.524 158.109C192.843 158.404 193.096 158.795 193.285 159.283C193.474 159.77 193.568 160.37 193.568 161.082V161.58H187.682V160.565H192.375C192.375 160.134 192.289 159.75 192.117 159.412C191.948 159.074 191.706 158.807 191.391 158.612C191.079 158.416 190.711 158.318 190.287 158.318C189.82 158.318 189.415 158.434 189.074 158.666C188.736 158.895 188.476 159.193 188.294 159.561C188.111 159.929 188.02 160.323 188.02 160.744V161.42C188.02 161.997 188.119 162.486 188.318 162.887C188.521 163.285 188.801 163.588 189.159 163.797C189.517 164.002 189.932 164.105 190.406 164.105C190.715 164.105 190.993 164.062 191.242 163.976C191.494 163.886 191.711 163.754 191.893 163.578C192.075 163.399 192.216 163.177 192.316 162.912L193.449 163.23C193.33 163.615 193.129 163.953 192.847 164.244C192.566 164.533 192.218 164.758 191.803 164.92C191.389 165.08 190.923 165.159 190.406 165.159ZM195.353 165V157.364H196.487V158.517H196.566C196.705 158.139 196.957 157.833 197.322 157.597C197.686 157.362 198.097 157.244 198.555 157.244C198.641 157.244 198.749 157.246 198.878 157.249C199.007 157.253 199.105 157.258 199.171 157.264V158.457C199.132 158.447 199.04 158.433 198.898 158.413C198.759 158.389 198.611 158.378 198.455 158.378C198.084 158.378 197.753 158.456 197.461 158.612C197.173 158.764 196.944 158.976 196.775 159.248C196.609 159.516 196.526 159.823 196.526 160.168V165H195.353ZM200.562 165V157.364H201.735V165H200.562ZM201.159 156.091C200.93 156.091 200.733 156.013 200.567 155.857C200.405 155.701 200.324 155.514 200.324 155.295C200.324 155.077 200.405 154.889 200.567 154.734C200.733 154.578 200.93 154.5 201.159 154.5C201.387 154.5 201.583 154.578 201.745 154.734C201.911 154.889 201.994 155.077 201.994 155.295C201.994 155.514 201.911 155.701 201.745 155.857C201.583 156.013 201.387 156.091 201.159 156.091ZM207.205 157.364V158.358H203.248V157.364H207.205ZM204.401 155.534H205.575V162.812C205.575 163.144 205.623 163.393 205.719 163.558C205.818 163.721 205.944 163.83 206.097 163.886C206.253 163.939 206.417 163.966 206.589 163.966C206.718 163.966 206.824 163.959 206.907 163.946C206.99 163.929 207.056 163.916 207.106 163.906L207.345 164.96C207.265 164.99 207.154 165.02 207.012 165.05C206.869 165.083 206.688 165.099 206.47 165.099C206.138 165.099 205.813 165.028 205.495 164.886C205.18 164.743 204.919 164.526 204.71 164.234C204.504 163.943 204.401 163.575 204.401 163.131V155.534ZM209.825 165.08C209.58 165.08 209.37 164.992 209.194 164.816C209.018 164.64 208.931 164.43 208.931 164.185C208.931 163.939 209.018 163.729 209.194 163.553C209.37 163.378 209.58 163.29 209.825 163.29C210.071 163.29 210.281 163.378 210.457 163.553C210.633 163.729 210.72 163.939 210.72 164.185C210.72 164.347 210.679 164.496 210.596 164.632C210.517 164.768 210.409 164.877 210.273 164.96C210.14 165.04 209.991 165.08 209.825 165.08Z" fill="#4A5568"/>
</g>
<defs>
<filter id="filter0_d_5551_27771" x="0.217206" y="0.212515" width="253.36" height="227.632" filterUnits="userSpaceOnUse" color-interpolation-filters="sRGB">
<feFlood flood-opacity="0" result="BackgroundImageFix"/>
<feColorMatrix in="SourceAlpha" type="matrix" values="0 0 0 0 0 0 0 0 0 0 0 0 0 0 0 0 0 0 127 0" result="hardAlpha"/>
<feOffset dx="9.39704" dy="10.1199"/>
<feGaussianBlur stdDeviation="7.58992"/>
<feComposite in2="hardAlpha" operator="out"/>
<feColorMatrix type="matrix" values="0 0 0 0 0.0375 0 0 0 0 0.18975 0 0 0 0 0.3 0 0 0 0.06 0"/>
<feBlend mode="normal" in2="BackgroundImageFix" result="effect1_dropShadow_5551_27771"/>
<feBlend mode="normal" in="SourceGraphic" in2="effect1_dropShadow_5551_27771" result="shape"/>
</filter>
</defs>
</svg>
