<svg width="238" height="228" viewBox="0 0 238 228" fill="none" xmlns="http://www.w3.org/2000/svg">
<g filter="url(#filter0_d_5551_27812)">
<rect x="6" y="5.27246" width="207" height="197.272" rx="16" fill="#FFCF54"/>
<path d="M91.2898 39C91.2367 38.3371 90.9882 37.8201 90.544 37.4489C90.1065 37.0777 89.4403 36.892 88.5455 36.892C87.9754 36.892 87.508 36.9616 87.1435 37.1009C86.7855 37.2334 86.5204 37.4157 86.348 37.6477C86.1757 37.8797 86.0862 38.1449 86.0795 38.4432C86.0663 38.6884 86.1094 38.9105 86.2088 39.1094C86.3149 39.3016 86.4806 39.4773 86.706 39.6364C86.9313 39.7888 87.2197 39.928 87.571 40.054C87.9223 40.1799 88.34 40.2926 88.8239 40.392L90.4943 40.75C91.6212 40.9886 92.5857 41.3035 93.3878 41.6946C94.1899 42.0857 94.8461 42.5464 95.3565 43.0767C95.867 43.6004 96.2415 44.1903 96.4801 44.8466C96.7254 45.5028 96.8513 46.2187 96.858 46.9943C96.8513 48.3333 96.5166 49.4669 95.8537 50.3949C95.1908 51.3229 94.2429 52.0289 93.0099 52.5128C91.7836 52.9967 90.3087 53.2386 88.5852 53.2386C86.8153 53.2386 85.2708 52.9768 83.9517 52.4531C82.6392 51.9295 81.6184 51.1241 80.8892 50.0369C80.1667 48.9432 79.8021 47.5445 79.7955 45.8409H85.0455C85.0786 46.464 85.2344 46.9877 85.5128 47.4119C85.7912 47.8362 86.1823 48.1577 86.6861 48.3764C87.1965 48.5952 87.803 48.7045 88.5057 48.7045C89.0956 48.7045 89.5895 48.6316 89.9872 48.4858C90.3849 48.34 90.6866 48.1378 90.892 47.8793C91.0975 47.6207 91.2036 47.3258 91.2102 46.9943C91.2036 46.6828 91.1009 46.411 90.902 46.179C90.7098 45.9403 90.3916 45.7282 89.9474 45.5426C89.5033 45.3504 88.9034 45.1714 88.1477 45.0057L86.1193 44.5682C84.3163 44.1771 82.8944 43.5241 81.8537 42.6094C80.8196 41.688 80.3059 40.4318 80.3125 38.8409C80.3059 37.5483 80.6506 36.4181 81.3466 35.4503C82.0492 34.4759 83.0204 33.7169 84.2599 33.1733C85.5062 32.6297 86.9347 32.358 88.5455 32.358C90.1894 32.358 91.6113 32.633 92.8111 33.1832C94.0109 33.7334 94.9356 34.509 95.5852 35.5099C96.2415 36.5043 96.5729 37.6676 96.5795 39H91.2898ZM103.972 49.3807L104.012 42.858H104.728L108.427 37.7273H114.592L108.387 45.7216H106.836L103.972 49.3807ZM99.0405 53V32.6364H104.529V53H99.0405ZM108.467 53L104.967 46.9545L108.546 43.0568L114.751 53H108.467ZM116.021 53V37.7273H121.51V53H116.021ZM118.765 36.1364C118.023 36.1364 117.386 35.8911 116.856 35.4006C116.326 34.91 116.061 34.3201 116.061 33.6307C116.061 32.9413 116.326 32.3513 116.856 31.8608C117.386 31.3703 118.023 31.125 118.765 31.125C119.514 31.125 120.151 31.3703 120.674 31.8608C121.205 32.3513 121.47 32.9413 121.47 33.6307C121.47 34.3201 121.205 34.91 120.674 35.4006C120.151 35.8911 119.514 36.1364 118.765 36.1364ZM129.795 32.6364V53H124.306V32.6364H129.795ZM138.08 32.6364V53H132.591V32.6364H138.08Z" fill="#615E4A"/>
<path d="M29.233 87V76.8182H30.4659V85.9062H35.1989V87H29.233ZM40.0511 87.1591C39.3617 87.1591 38.7569 86.995 38.2365 86.6669C37.7195 86.3388 37.3151 85.8797 37.0234 85.2898C36.7351 84.6998 36.5909 84.0104 36.5909 83.2216C36.5909 82.4261 36.7351 81.7318 37.0234 81.1385C37.3151 80.5452 37.7195 80.0845 38.2365 79.7564C38.7569 79.4283 39.3617 79.2642 40.0511 79.2642C40.7405 79.2642 41.3438 79.4283 41.8608 79.7564C42.3812 80.0845 42.7855 80.5452 43.0739 81.1385C43.3655 81.7318 43.5114 82.4261 43.5114 83.2216C43.5114 84.0104 43.3655 84.6998 43.0739 85.2898C42.7855 85.8797 42.3812 86.3388 41.8608 86.6669C41.3438 86.995 40.7405 87.1591 40.0511 87.1591ZM40.0511 86.1051C40.5748 86.1051 41.0057 85.9709 41.3438 85.7024C41.6818 85.4339 41.9321 85.081 42.0945 84.6435C42.2569 84.206 42.3381 83.732 42.3381 83.2216C42.3381 82.7112 42.2569 82.2356 42.0945 81.7947C41.9321 81.3539 41.6818 80.9976 41.3438 80.7259C41.0057 80.4541 40.5748 80.3182 40.0511 80.3182C39.5275 80.3182 39.0966 80.4541 38.7585 80.7259C38.4205 80.9976 38.1702 81.3539 38.0078 81.7947C37.8454 82.2356 37.7642 82.7112 37.7642 83.2216C37.7642 83.732 37.8454 84.206 38.0078 84.6435C38.1702 85.081 38.4205 85.4339 38.7585 85.7024C39.0966 85.9709 39.5275 86.1051 40.0511 86.1051ZM45.3024 87V79.3636H46.4359V80.517H46.5154C46.6547 80.1392 46.9065 79.8326 47.2711 79.5973C47.6357 79.362 48.0467 79.2443 48.5041 79.2443C48.5903 79.2443 48.698 79.246 48.8272 79.2493C48.9565 79.2526 49.0543 79.2576 49.1206 79.2642V80.4574C49.0808 80.4474 48.9896 80.4325 48.8471 80.4126C48.7079 80.3894 48.5604 80.3778 48.4047 80.3778C48.0334 80.3778 47.702 80.4557 47.4103 80.6115C47.122 80.764 46.8933 80.9761 46.7243 81.2479C46.5585 81.5163 46.4757 81.8229 46.4757 82.1676V87H45.3024ZM53.4806 87.1591C52.7449 87.1591 52.1101 86.9967 51.5765 86.6719C51.0462 86.3438 50.6369 85.8864 50.3485 85.2997C50.0635 84.7098 49.921 84.0237 49.921 83.2415C49.921 82.4593 50.0635 81.7699 50.3485 81.1733C50.6369 80.5734 51.0379 80.1061 51.5517 79.7713C52.0687 79.4332 52.6719 79.2642 53.3613 79.2642C53.7591 79.2642 54.1518 79.3305 54.5396 79.4631C54.9274 79.5956 55.2804 79.8111 55.5985 80.1094C55.9167 80.4044 56.1703 80.7955 56.3592 81.2827C56.5481 81.7699 56.6426 82.3698 56.6426 83.0824V83.5795H50.7562V82.5653H55.4494C55.4494 82.1345 55.3632 81.75 55.1909 81.4119C55.0218 81.0739 54.7799 80.8071 54.465 80.6115C54.1535 80.416 53.7856 80.3182 53.3613 80.3182C52.894 80.3182 52.4896 80.4342 52.1483 80.6662C51.8102 80.8949 51.55 81.1932 51.3677 81.5611C51.1854 81.929 51.0943 82.3234 51.0943 82.7443V83.4205C51.0943 83.9972 51.1937 84.486 51.3926 84.8871C51.5948 85.2848 51.8748 85.5881 52.2328 85.7969C52.5907 86.0024 53.0067 86.1051 53.4806 86.1051C53.7889 86.1051 54.0673 86.062 54.3159 85.9759C54.5678 85.8864 54.7849 85.7538 54.9672 85.5781C55.1494 85.3991 55.2903 85.1771 55.3897 84.9119L56.5233 85.2301C56.4039 85.6146 56.2034 85.9527 55.9217 86.2443C55.64 86.5327 55.292 86.758 54.8777 86.9205C54.4634 87.0795 53.9977 87.1591 53.4806 87.1591ZM58.4274 87V79.3636H59.5609V80.5568H59.6603C59.8194 80.1491 60.0763 79.8326 60.4309 79.6072C60.7856 79.3786 61.2115 79.2642 61.7086 79.2642C62.2124 79.2642 62.6317 79.3786 62.9664 79.6072C63.3045 79.8326 63.568 80.1491 63.7569 80.5568H63.8365C64.032 80.1624 64.3253 79.8492 64.7164 79.6172C65.1075 79.3819 65.5765 79.2642 66.1234 79.2642C66.8062 79.2642 67.3646 79.478 67.7988 79.9055C68.233 80.3298 68.4501 80.991 68.4501 81.8892V87H67.2768V81.8892C67.2768 81.3258 67.1227 80.9231 66.8145 80.6811C66.5062 80.4392 66.1433 80.3182 65.7257 80.3182C65.1887 80.3182 64.7728 80.4806 64.4778 80.8054C64.1828 81.1269 64.0353 81.5346 64.0353 82.0284V87H62.8422V81.7699C62.8422 81.3357 62.7013 80.986 62.4196 80.7209C62.1378 80.4524 61.7749 80.3182 61.3308 80.3182C61.0259 80.3182 60.7408 80.3994 60.4757 80.5618C60.2138 80.7242 60.0017 80.9496 59.8393 81.2379C59.6802 81.523 59.6007 81.8527 59.6007 82.2273V87H58.4274ZM74.5328 87V79.3636H75.7061V87H74.5328ZM75.1294 78.0909C74.9007 78.0909 74.7035 78.013 74.5378 77.8572C74.3754 77.7015 74.2942 77.5142 74.2942 77.2955C74.2942 77.0767 74.3754 76.8894 74.5378 76.7337C74.7035 76.5779 74.9007 76.5 75.1294 76.5C75.3581 76.5 75.5537 76.5779 75.7161 76.7337C75.8818 76.8894 75.9647 77.0767 75.9647 77.2955C75.9647 77.5142 75.8818 77.7015 75.7161 77.8572C75.5537 78.013 75.3581 78.0909 75.1294 78.0909ZM77.8551 89.8636V79.3636H78.9886V80.5767H79.1278C79.214 80.4441 79.3333 80.2751 79.4858 80.0696C79.6416 79.8608 79.8636 79.6752 80.152 79.5128C80.4437 79.3471 80.8381 79.2642 81.3352 79.2642C81.9782 79.2642 82.545 79.425 83.0355 79.7464C83.526 80.0679 83.9089 80.5237 84.1839 81.1136C84.459 81.7036 84.5966 82.3996 84.5966 83.2017C84.5966 84.0104 84.459 84.7114 84.1839 85.3047C83.9089 85.8946 83.5277 86.352 83.0405 86.6768C82.5533 86.9983 81.9915 87.1591 81.3551 87.1591C80.8646 87.1591 80.4718 87.0779 80.1768 86.9155C79.8819 86.7498 79.6548 86.5625 79.4957 86.3537C79.3366 86.1416 79.214 85.9659 79.1278 85.8267H79.0284V89.8636H77.8551ZM79.0085 83.1818C79.0085 83.7585 79.093 84.2673 79.2621 84.7081C79.4311 85.1456 79.678 85.4886 80.0028 85.7372C80.3277 85.9825 80.7254 86.1051 81.196 86.1051C81.6866 86.1051 82.0959 85.9759 82.424 85.7173C82.7554 85.4555 83.004 85.1042 83.1697 84.6634C83.3388 84.2192 83.4233 83.7254 83.4233 83.1818C83.4233 82.6449 83.3404 82.161 83.1747 81.7301C83.0123 81.2959 82.7654 80.9529 82.4339 80.701C82.1058 80.4458 81.6932 80.3182 81.196 80.3182C80.7188 80.3182 80.3177 80.4392 79.9929 80.6811C79.6681 80.9197 79.4228 81.2545 79.2571 81.6854C79.0914 82.1129 79.0085 82.6117 79.0085 83.1818ZM91.7955 81.0739L90.7415 81.3722C90.6752 81.1965 90.5774 81.0258 90.4482 80.8601C90.3222 80.6911 90.1499 80.5518 89.9311 80.4425C89.7124 80.3331 89.4323 80.2784 89.0909 80.2784C88.6236 80.2784 88.2341 80.3861 87.9226 80.6016C87.6143 80.8137 87.4602 81.0838 87.4602 81.4119C87.4602 81.7036 87.5663 81.9339 87.7784 82.103C87.9905 82.272 88.322 82.4129 88.7727 82.5256L89.9062 82.804C90.589 82.9697 91.0978 83.2232 91.4325 83.5646C91.7673 83.9027 91.9347 84.3385 91.9347 84.8722C91.9347 85.3097 91.8087 85.7008 91.5568 86.0455C91.3082 86.3902 90.9602 86.6619 90.5128 86.8608C90.0653 87.0597 89.545 87.1591 88.9517 87.1591C88.1728 87.1591 87.5282 86.9901 87.0178 86.652C86.5073 86.3139 86.1842 85.8201 86.0483 85.1705L87.1619 84.892C87.268 85.303 87.4685 85.6113 87.7635 85.8168C88.0618 86.0223 88.4512 86.125 88.9318 86.125C89.4787 86.125 89.9129 86.009 90.2344 85.777C90.5592 85.5417 90.7216 85.2599 90.7216 84.9318C90.7216 84.6667 90.6288 84.4446 90.4432 84.2656C90.2576 84.0833 89.9725 83.9474 89.5881 83.858L88.3153 83.5597C87.616 83.3939 87.1023 83.1371 86.7741 82.7891C86.4493 82.4377 86.2869 81.9986 86.2869 81.4716C86.2869 81.0407 86.4079 80.6596 86.6499 80.3281C86.8951 79.9967 87.2282 79.7365 87.6491 79.5476C88.0734 79.3587 88.554 79.2642 89.0909 79.2642C89.8466 79.2642 90.4399 79.4299 90.8707 79.7614C91.3049 80.0928 91.6132 80.5303 91.7955 81.0739ZM98.5133 83.8778V79.3636H99.6866V87H98.5133V85.7074H98.4338C98.2548 86.0952 97.9764 86.425 97.5985 86.6967C97.2207 86.9652 96.7434 87.0994 96.1667 87.0994C95.6895 87.0994 95.2652 86.995 94.894 86.7862C94.5228 86.5741 94.2311 86.2559 94.019 85.8317C93.8069 85.4041 93.7008 84.8655 93.7008 84.2159V79.3636H94.8741V84.1364C94.8741 84.6932 95.0299 85.1373 95.3414 85.4688C95.6563 85.8002 96.0574 85.9659 96.5446 85.9659C96.8362 85.9659 97.1329 85.8913 97.4345 85.7422C97.7394 85.593 97.9946 85.3643 98.2001 85.0561C98.4089 84.7479 98.5133 84.3551 98.5133 83.8778ZM101.836 87V79.3636H102.969V80.5568H103.069C103.228 80.1491 103.484 79.8326 103.839 79.6072C104.194 79.3786 104.62 79.2642 105.117 79.2642C105.621 79.2642 106.04 79.3786 106.375 79.6072C106.713 79.8326 106.976 80.1491 107.165 80.5568H107.245C107.44 80.1624 107.734 79.8492 108.125 79.6172C108.516 79.3819 108.985 79.2642 109.532 79.2642C110.214 79.2642 110.773 79.478 111.207 79.9055C111.641 80.3298 111.858 80.991 111.858 81.8892V87H110.685V81.8892C110.685 81.3258 110.531 80.9231 110.223 80.6811C109.914 80.4392 109.551 80.3182 109.134 80.3182C108.597 80.3182 108.181 80.4806 107.886 80.8054C107.591 81.1269 107.444 81.5346 107.444 82.0284V87H106.25V81.7699C106.25 81.3357 106.109 80.986 105.828 80.7209C105.546 80.4524 105.183 80.3182 104.739 80.3182C104.434 80.3182 104.149 80.3994 103.884 80.5618C103.622 80.7242 103.41 80.9496 103.248 81.2379C103.088 81.523 103.009 81.8527 103.009 82.2273V87H101.836ZM120.825 87.1591C120.188 87.1591 119.626 86.9983 119.139 86.6768C118.652 86.352 118.271 85.8946 117.996 85.3047C117.721 84.7114 117.583 84.0104 117.583 83.2017C117.583 82.3996 117.721 81.7036 117.996 81.1136C118.271 80.5237 118.654 80.0679 119.144 79.7464C119.635 79.425 120.201 79.2642 120.844 79.2642C121.342 79.2642 121.734 79.3471 122.023 79.5128C122.314 79.6752 122.536 79.8608 122.689 80.0696C122.845 80.2751 122.966 80.4441 123.052 80.5767H123.151V76.8182H124.325V87H123.191V85.8267H123.052C122.966 85.9659 122.843 86.1416 122.684 86.3537C122.525 86.5625 122.298 86.7498 122.003 86.9155C121.708 87.0779 121.315 87.1591 120.825 87.1591ZM120.984 86.1051C121.454 86.1051 121.852 85.9825 122.177 85.7372C122.502 85.4886 122.749 85.1456 122.918 84.7081C123.087 84.2673 123.171 83.7585 123.171 83.1818C123.171 82.6117 123.088 82.1129 122.923 81.6854C122.757 81.2545 122.512 80.9197 122.187 80.6811C121.862 80.4392 121.461 80.3182 120.984 80.3182C120.487 80.3182 120.072 80.4458 119.741 80.701C119.413 80.9529 119.166 81.2959 119 81.7301C118.838 82.161 118.756 82.6449 118.756 83.1818C118.756 83.7254 118.839 84.2192 119.005 84.6634C119.174 85.1042 119.423 85.4555 119.751 85.7173C120.082 85.9759 120.493 86.1051 120.984 86.1051ZM129.739 87.1591C129.049 87.1591 128.444 86.995 127.924 86.6669C127.407 86.3388 127.003 85.8797 126.711 85.2898C126.423 84.6998 126.278 84.0104 126.278 83.2216C126.278 82.4261 126.423 81.7318 126.711 81.1385C127.003 80.5452 127.407 80.0845 127.924 79.7564C128.444 79.4283 129.049 79.2642 129.739 79.2642C130.428 79.2642 131.031 79.4283 131.548 79.7564C132.069 80.0845 132.473 80.5452 132.761 81.1385C133.053 81.7318 133.199 82.4261 133.199 83.2216C133.199 84.0104 133.053 84.6998 132.761 85.2898C132.473 85.8797 132.069 86.3388 131.548 86.6669C131.031 86.995 130.428 87.1591 129.739 87.1591ZM129.739 86.1051C130.262 86.1051 130.693 85.9709 131.031 85.7024C131.369 85.4339 131.62 85.081 131.782 84.6435C131.944 84.206 132.026 83.732 132.026 83.2216C132.026 82.7112 131.944 82.2356 131.782 81.7947C131.62 81.3539 131.369 80.9976 131.031 80.7259C130.693 80.4541 130.262 80.3182 129.739 80.3182C129.215 80.3182 128.784 80.4541 128.446 80.7259C128.108 80.9976 127.858 81.3539 127.695 81.7947C127.533 82.2356 127.452 82.7112 127.452 83.2216C127.452 83.732 127.533 84.206 127.695 84.6435C127.858 85.081 128.108 85.4339 128.446 85.7024C128.784 85.9709 129.215 86.1051 129.739 86.1051ZM136.163 76.8182V87H134.99V76.8182H136.163ZM141.414 87.1591C140.725 87.1591 140.12 86.995 139.6 86.6669C139.083 86.3388 138.678 85.8797 138.387 85.2898C138.098 84.6998 137.954 84.0104 137.954 83.2216C137.954 82.4261 138.098 81.7318 138.387 81.1385C138.678 80.5452 139.083 80.0845 139.6 79.7564C140.12 79.4283 140.725 79.2642 141.414 79.2642C142.104 79.2642 142.707 79.4283 143.224 79.7564C143.744 80.0845 144.149 80.5452 144.437 81.1385C144.729 81.7318 144.875 82.4261 144.875 83.2216C144.875 84.0104 144.729 84.6998 144.437 85.2898C144.149 85.8797 143.744 86.3388 143.224 86.6669C142.707 86.995 142.104 87.1591 141.414 87.1591ZM141.414 86.1051C141.938 86.1051 142.369 85.9709 142.707 85.7024C143.045 85.4339 143.295 85.081 143.458 84.6435C143.62 84.206 143.701 83.732 143.701 83.2216C143.701 82.7112 143.62 82.2356 143.458 81.7947C143.295 81.3539 143.045 80.9976 142.707 80.7259C142.369 80.4541 141.938 80.3182 141.414 80.3182C140.891 80.3182 140.46 80.4541 140.122 80.7259C139.784 80.9976 139.533 81.3539 139.371 81.7947C139.209 82.2356 139.127 82.7112 139.127 83.2216C139.127 83.732 139.209 84.206 139.371 84.6435C139.533 85.081 139.784 85.4339 140.122 85.7024C140.46 85.9709 140.891 86.1051 141.414 86.1051ZM146.666 87V79.3636H147.799V80.517H147.879C148.018 80.1392 148.27 79.8326 148.634 79.5973C148.999 79.362 149.41 79.2443 149.867 79.2443C149.954 79.2443 150.061 79.246 150.191 79.2493C150.32 79.2526 150.418 79.2576 150.484 79.2642V80.4574C150.444 80.4474 150.353 80.4325 150.21 80.4126C150.071 80.3894 149.924 80.3778 149.768 80.3778C149.397 80.3778 149.065 80.4557 148.774 80.6115C148.485 80.764 148.257 80.9761 148.088 81.2479C147.922 81.5163 147.839 81.8229 147.839 82.1676V87H146.666ZM161.221 81.0739L160.167 81.3722C160.101 81.1965 160.003 81.0258 159.874 80.8601C159.748 80.6911 159.576 80.5518 159.357 80.4425C159.138 80.3331 158.858 80.2784 158.517 80.2784C158.049 80.2784 157.66 80.3861 157.348 80.6016C157.04 80.8137 156.886 81.0838 156.886 81.4119C156.886 81.7036 156.992 81.9339 157.204 82.103C157.416 82.272 157.748 82.4129 158.199 82.5256L159.332 82.804C160.015 82.9697 160.524 83.2232 160.858 83.5646C161.193 83.9027 161.36 84.3385 161.36 84.8722C161.36 85.3097 161.234 85.7008 160.983 86.0455C160.734 86.3902 160.386 86.6619 159.939 86.8608C159.491 87.0597 158.971 87.1591 158.377 87.1591C157.599 87.1591 156.954 86.9901 156.444 86.652C155.933 86.3139 155.61 85.8201 155.474 85.1705L156.588 84.892C156.694 85.303 156.894 85.6113 157.189 85.8168C157.488 86.0223 157.877 86.125 158.358 86.125C158.904 86.125 159.339 86.009 159.66 85.777C159.985 85.5417 160.147 85.2599 160.147 84.9318C160.147 84.6667 160.055 84.4446 159.869 84.2656C159.683 84.0833 159.398 83.9474 159.014 83.858L157.741 83.5597C157.042 83.3939 156.528 83.1371 156.2 82.7891C155.875 82.4377 155.713 81.9986 155.713 81.4716C155.713 81.0407 155.834 80.6596 156.076 80.3281C156.321 79.9967 156.654 79.7365 157.075 79.5476C157.499 79.3587 157.98 79.2642 158.517 79.2642C159.272 79.2642 159.866 79.4299 160.297 79.7614C160.731 80.0928 161.039 80.5303 161.221 81.0739ZM163.127 87V79.3636H164.3V87H163.127ZM163.723 78.0909C163.494 78.0909 163.297 78.013 163.132 77.8572C162.969 77.7015 162.888 77.5142 162.888 77.2955C162.888 77.0767 162.969 76.8894 163.132 76.7337C163.297 76.5779 163.494 76.5 163.723 76.5C163.952 76.5 164.147 76.5779 164.31 76.7337C164.476 76.8894 164.558 77.0767 164.558 77.2955C164.558 77.5142 164.476 77.7015 164.31 77.8572C164.147 78.013 163.952 78.0909 163.723 78.0909ZM169.77 79.3636V80.358H165.812V79.3636H169.77ZM166.966 77.5341H168.139V84.8125C168.139 85.1439 168.187 85.3925 168.283 85.5582C168.383 85.7206 168.509 85.83 168.661 85.8864C168.817 85.9394 168.981 85.9659 169.153 85.9659C169.283 85.9659 169.389 85.9593 169.472 85.946C169.554 85.9295 169.621 85.9162 169.67 85.9062L169.909 86.9602C169.83 86.9901 169.719 87.0199 169.576 87.0497C169.433 87.0829 169.253 87.0994 169.034 87.0994C168.703 87.0994 168.378 87.0282 168.06 86.8857C167.745 86.7431 167.483 86.526 167.274 86.2344C167.069 85.9427 166.966 85.5748 166.966 85.1307V77.5341ZM31.321 111.179C30.8371 111.179 30.398 111.088 30.0036 110.906C29.6091 110.72 29.2959 110.453 29.0639 110.105C28.8319 109.754 28.7159 109.33 28.7159 108.832C28.7159 108.395 28.8021 108.04 28.9744 107.768C29.1468 107.493 29.3771 107.278 29.6655 107.122C29.9538 106.966 30.272 106.85 30.62 106.774C30.9714 106.695 31.3243 106.632 31.679 106.585C32.143 106.526 32.5192 106.481 32.8075 106.451C33.0992 106.418 33.3113 106.363 33.4439 106.287C33.5798 106.211 33.6477 106.078 33.6477 105.889V105.849C33.6477 105.359 33.5135 104.978 33.245 104.706C32.9799 104.434 32.5772 104.298 32.0369 104.298C31.4768 104.298 31.0376 104.421 30.7195 104.666C30.4013 104.911 30.1776 105.173 30.0483 105.452L28.9347 105.054C29.1335 104.59 29.3987 104.229 29.7301 103.97C30.0649 103.708 30.4295 103.526 30.8239 103.423C31.2216 103.317 31.6127 103.264 31.9972 103.264C32.2424 103.264 32.5241 103.294 32.8423 103.354C33.1638 103.41 33.4737 103.528 33.772 103.707C34.0736 103.886 34.3239 104.156 34.5227 104.517C34.7216 104.878 34.821 105.362 34.821 105.969V111H33.6477V109.966H33.5881C33.5085 110.132 33.3759 110.309 33.1903 110.498C33.0047 110.687 32.7578 110.848 32.4496 110.98C32.1413 111.113 31.7652 111.179 31.321 111.179ZM31.5 110.125C31.964 110.125 32.3551 110.034 32.6733 109.852C32.9948 109.669 33.2367 109.434 33.3991 109.146C33.5649 108.857 33.6477 108.554 33.6477 108.236V107.162C33.598 107.222 33.4886 107.276 33.3196 107.326C33.1539 107.372 32.9616 107.414 32.7429 107.45C32.5275 107.483 32.317 107.513 32.1115 107.54C31.9093 107.563 31.7453 107.583 31.6193 107.599C31.3144 107.639 31.0294 107.704 30.7642 107.793C30.5024 107.879 30.2902 108.01 30.1278 108.186C29.9688 108.358 29.8892 108.594 29.8892 108.892C29.8892 109.3 30.04 109.608 30.3416 109.817C30.6465 110.022 31.0327 110.125 31.5 110.125ZM36.9625 111V103.364H38.0961V104.557H38.1955C38.3546 104.149 38.6114 103.833 38.9661 103.607C39.3207 103.379 39.7466 103.264 40.2438 103.264C40.7476 103.264 41.1668 103.379 41.5016 103.607C41.8397 103.833 42.1032 104.149 42.2921 104.557H42.3716C42.5672 104.162 42.8605 103.849 43.2516 103.617C43.6427 103.382 44.1117 103.264 44.6586 103.264C45.3413 103.264 45.8998 103.478 46.334 103.906C46.7682 104.33 46.9853 104.991 46.9853 105.889V111H45.812V105.889C45.812 105.326 45.6578 104.923 45.3496 104.681C45.0414 104.439 44.6784 104.318 44.2608 104.318C43.7239 104.318 43.3079 104.481 43.013 104.805C42.718 105.127 42.5705 105.535 42.5705 106.028V111H41.3773V105.77C41.3773 105.336 41.2364 104.986 40.9547 104.721C40.673 104.452 40.3101 104.318 39.8659 104.318C39.561 104.318 39.276 104.399 39.0108 104.562C38.749 104.724 38.5369 104.95 38.3745 105.238C38.2154 105.523 38.1358 105.853 38.1358 106.227V111H36.9625ZM52.3322 111.159C51.5964 111.159 50.9617 110.997 50.4281 110.672C49.8978 110.344 49.4885 109.886 49.2001 109.3C48.9151 108.71 48.7725 108.024 48.7725 107.241C48.7725 106.459 48.9151 105.77 49.2001 105.173C49.4885 104.573 49.8895 104.106 50.4032 103.771C50.9203 103.433 51.5235 103.264 52.2129 103.264C52.6106 103.264 53.0034 103.33 53.3912 103.463C53.7789 103.596 54.1319 103.811 54.4501 104.109C54.7683 104.404 55.0218 104.795 55.2108 105.283C55.3997 105.77 55.4941 106.37 55.4941 107.082V107.58H49.6078V106.565H54.301C54.301 106.134 54.2148 105.75 54.0424 105.412C53.8734 105.074 53.6315 104.807 53.3166 104.612C53.005 104.416 52.6371 104.318 52.2129 104.318C51.7456 104.318 51.3412 104.434 50.9998 104.666C50.6618 104.895 50.4016 105.193 50.2193 105.561C50.037 105.929 49.9458 106.323 49.9458 106.744V107.42C49.9458 107.997 50.0453 108.486 50.2441 108.887C50.4463 109.285 50.7264 109.588 51.0843 109.797C51.4423 110.002 51.8583 110.105 52.3322 110.105C52.6404 110.105 52.9189 110.062 53.1674 109.976C53.4193 109.886 53.6364 109.754 53.8187 109.578C54.001 109.399 54.1419 109.177 54.2413 108.912L55.3748 109.23C55.2555 109.615 55.055 109.953 54.7733 110.244C54.4915 110.533 54.1435 110.758 53.7292 110.92C53.3149 111.08 52.8493 111.159 52.3322 111.159ZM60.6 103.364V104.358H56.6426V103.364H60.6ZM57.796 101.534H58.9693V108.812C58.9693 109.144 59.0173 109.393 59.1135 109.558C59.2129 109.721 59.3388 109.83 59.4913 109.886C59.6471 109.939 59.8111 109.966 59.9835 109.966C60.1127 109.966 60.2188 109.959 60.3017 109.946C60.3845 109.929 60.4508 109.916 60.5005 109.906L60.7392 110.96C60.6596 110.99 60.5486 111.02 60.4061 111.05C60.2636 111.083 60.0829 111.099 59.8642 111.099C59.5327 111.099 59.2079 111.028 58.8897 110.886C58.5749 110.743 58.313 110.526 58.1042 110.234C57.8987 109.943 57.796 109.575 57.796 109.131V101.534ZM73.3422 111.159C72.6262 111.159 72.0098 110.99 71.4927 110.652C70.9757 110.314 70.5779 109.848 70.2995 109.255C70.0211 108.662 69.8819 107.984 69.8819 107.222C69.8819 106.446 70.0244 105.762 70.3095 105.168C70.5978 104.572 70.9989 104.106 71.5126 103.771C72.0297 103.433 72.6329 103.264 73.3223 103.264C73.8592 103.264 74.3431 103.364 74.774 103.562C75.2048 103.761 75.5578 104.04 75.8329 104.398C76.108 104.756 76.2787 105.173 76.345 105.651H75.1717C75.0822 105.303 74.8833 104.994 74.5751 104.726C74.2702 104.454 73.8592 104.318 73.3422 104.318C72.8848 104.318 72.4837 104.437 72.139 104.676C71.7976 104.911 71.5308 105.245 71.3386 105.675C71.1497 106.103 71.0552 106.605 71.0552 107.182C71.0552 107.772 71.148 108.286 71.3336 108.723C71.5225 109.161 71.7877 109.5 72.1291 109.742C72.4738 109.984 72.8781 110.105 73.3422 110.105C73.6471 110.105 73.9238 110.052 74.1724 109.946C74.421 109.84 74.6315 109.688 74.8038 109.489C74.9761 109.29 75.0988 109.051 75.1717 108.773H76.345C76.2787 109.223 76.1146 109.629 75.8528 109.991C75.5943 110.349 75.2512 110.634 74.8237 110.846C74.3994 111.055 73.9056 111.159 73.3422 111.159ZM81.1625 111.159C80.4731 111.159 79.8682 110.995 79.3478 110.667C78.8308 110.339 78.4264 109.88 78.1348 109.29C77.8464 108.7 77.7022 108.01 77.7022 107.222C77.7022 106.426 77.8464 105.732 78.1348 105.138C78.4264 104.545 78.8308 104.085 79.3478 103.756C79.8682 103.428 80.4731 103.264 81.1625 103.264C81.8519 103.264 82.4551 103.428 82.9721 103.756C83.4925 104.085 83.8968 104.545 84.1852 105.138C84.4769 105.732 84.6227 106.426 84.6227 107.222C84.6227 108.01 84.4769 108.7 84.1852 109.29C83.8968 109.88 83.4925 110.339 82.9721 110.667C82.4551 110.995 81.8519 111.159 81.1625 111.159ZM81.1625 110.105C81.6861 110.105 82.117 109.971 82.4551 109.702C82.7931 109.434 83.0434 109.081 83.2058 108.643C83.3682 108.206 83.4494 107.732 83.4494 107.222C83.4494 106.711 83.3682 106.236 83.2058 105.795C83.0434 105.354 82.7931 104.998 82.4551 104.726C82.117 104.454 81.6861 104.318 81.1625 104.318C80.6388 104.318 80.2079 104.454 79.8699 104.726C79.5318 104.998 79.2815 105.354 79.1191 105.795C78.9567 106.236 78.8755 106.711 78.8755 107.222C78.8755 107.732 78.9567 108.206 79.1191 108.643C79.2815 109.081 79.5318 109.434 79.8699 109.702C80.2079 109.971 80.6388 110.105 81.1625 110.105ZM87.587 106.406V111H86.4137V103.364H87.5472V104.557H87.6467C87.8256 104.169 88.0974 103.857 88.462 103.622C88.8266 103.384 89.2972 103.264 89.8739 103.264C90.391 103.264 90.8434 103.37 91.2312 103.582C91.619 103.791 91.9206 104.109 92.136 104.537C92.3514 104.961 92.4592 105.498 92.4592 106.148V111H91.2859V106.227C91.2859 105.627 91.1301 105.16 90.8185 104.825C90.507 104.487 90.0794 104.318 89.5359 104.318C89.1613 104.318 88.8266 104.399 88.5316 104.562C88.2399 104.724 88.0096 104.961 87.8406 105.273C87.6715 105.584 87.587 105.962 87.587 106.406ZM100.012 105.074L98.9583 105.372C98.892 105.196 98.7942 105.026 98.665 104.86C98.539 104.691 98.3667 104.552 98.1479 104.442C97.9292 104.333 97.6491 104.278 97.3077 104.278C96.8404 104.278 96.4509 104.386 96.1394 104.602C95.8311 104.814 95.677 105.084 95.677 105.412C95.677 105.704 95.7831 105.934 95.9952 106.103C96.2073 106.272 96.5388 106.413 96.9895 106.526L98.123 106.804C98.8058 106.97 99.3146 107.223 99.6493 107.565C99.9841 107.903 100.151 108.339 100.151 108.872C100.151 109.31 100.026 109.701 99.7736 110.045C99.525 110.39 99.177 110.662 98.7296 110.861C98.2821 111.06 97.7618 111.159 97.1685 111.159C96.3896 111.159 95.745 110.99 95.2346 110.652C94.7241 110.314 94.401 109.82 94.2651 109.17L95.3787 108.892C95.4848 109.303 95.6853 109.611 95.9803 109.817C96.2786 110.022 96.668 110.125 97.1486 110.125C97.6955 110.125 98.1297 110.009 98.4512 109.777C98.776 109.542 98.9384 109.26 98.9384 108.932C98.9384 108.667 98.8456 108.445 98.66 108.266C98.4744 108.083 98.1893 107.947 97.8049 107.858L96.5321 107.56C95.8328 107.394 95.3191 107.137 94.9909 106.789C94.6661 106.438 94.5037 105.999 94.5037 105.472C94.5037 105.041 94.6247 104.66 94.8667 104.328C95.1119 103.997 95.445 103.737 95.8659 103.548C96.2902 103.359 96.7708 103.264 97.3077 103.264C98.0634 103.264 98.6567 103.43 99.0875 103.761C99.5217 104.093 99.83 104.53 100.012 105.074ZM105.119 111.159C104.384 111.159 103.749 110.997 103.215 110.672C102.685 110.344 102.276 109.886 101.987 109.3C101.702 108.71 101.56 108.024 101.56 107.241C101.56 106.459 101.702 105.77 101.987 105.173C102.276 104.573 102.677 104.106 103.19 103.771C103.707 103.433 104.311 103.264 105 103.264C105.398 103.264 105.79 103.33 106.178 103.463C106.566 103.596 106.919 103.811 107.237 104.109C107.555 104.404 107.809 104.795 107.998 105.283C108.187 105.77 108.281 106.37 108.281 107.082V107.58H102.395V106.565H107.088C107.088 106.134 107.002 105.75 106.83 105.412C106.661 105.074 106.419 104.807 106.104 104.612C105.792 104.416 105.424 104.318 105 104.318C104.533 104.318 104.128 104.434 103.787 104.666C103.449 104.895 103.189 105.193 103.006 105.561C102.824 105.929 102.733 106.323 102.733 106.744V107.42C102.733 107.997 102.832 108.486 103.031 108.887C103.233 109.285 103.513 109.588 103.871 109.797C104.229 110.002 104.645 110.105 105.119 110.105C105.428 110.105 105.706 110.062 105.955 109.976C106.206 109.886 106.424 109.754 106.606 109.578C106.788 109.399 106.929 109.177 107.028 108.912L108.162 109.23C108.043 109.615 107.842 109.953 107.56 110.244C107.279 110.533 106.931 110.758 106.516 110.92C106.102 111.08 105.636 111.159 105.119 111.159ZM113.168 111.159C112.452 111.159 111.836 110.99 111.319 110.652C110.802 110.314 110.404 109.848 110.126 109.255C109.847 108.662 109.708 107.984 109.708 107.222C109.708 106.446 109.851 105.762 110.136 105.168C110.424 104.572 110.825 104.106 111.339 103.771C111.856 103.433 112.459 103.264 113.148 103.264C113.685 103.264 114.169 103.364 114.6 103.562C115.031 103.761 115.384 104.04 115.659 104.398C115.934 104.756 116.105 105.173 116.171 105.651H114.998C114.908 105.303 114.71 104.994 114.401 104.726C114.096 104.454 113.685 104.318 113.168 104.318C112.711 104.318 112.31 104.437 111.965 104.676C111.624 104.911 111.357 105.245 111.165 105.675C110.976 106.103 110.881 106.605 110.881 107.182C110.881 107.772 110.974 108.286 111.16 108.723C111.349 109.161 111.614 109.5 111.955 109.742C112.3 109.984 112.704 110.105 113.168 110.105C113.473 110.105 113.75 110.052 113.999 109.946C114.247 109.84 114.458 109.688 114.63 109.489C114.802 109.29 114.925 109.051 114.998 108.773H116.171C116.105 109.223 115.941 109.629 115.679 109.991C115.42 110.349 115.077 110.634 114.65 110.846C114.226 111.055 113.732 111.159 113.168 111.159ZM121.207 103.364V104.358H117.25V103.364H121.207ZM118.403 101.534H119.577V108.812C119.577 109.144 119.625 109.393 119.721 109.558C119.82 109.721 119.946 109.83 120.099 109.886C120.254 109.939 120.419 109.966 120.591 109.966C120.72 109.966 120.826 109.959 120.909 109.946C120.992 109.929 121.058 109.916 121.108 109.906L121.347 110.96C121.267 110.99 121.156 111.02 121.013 111.05C120.871 111.083 120.69 111.099 120.472 111.099C120.14 111.099 119.815 111.028 119.497 110.886C119.182 110.743 118.92 110.526 118.712 110.234C118.506 109.943 118.403 109.575 118.403 109.131V101.534ZM126.092 111.159C125.356 111.159 124.721 110.997 124.188 110.672C123.658 110.344 123.248 109.886 122.96 109.3C122.675 108.71 122.532 108.024 122.532 107.241C122.532 106.459 122.675 105.77 122.96 105.173C123.248 104.573 123.649 104.106 124.163 103.771C124.68 103.433 125.283 103.264 125.973 103.264C126.37 103.264 126.763 103.33 127.151 103.463C127.539 103.596 127.892 103.811 128.21 104.109C128.528 104.404 128.782 104.795 128.971 105.283C129.159 105.77 129.254 106.37 129.254 107.082V107.58H123.368V106.565H128.061C128.061 106.134 127.975 105.75 127.802 105.412C127.633 105.074 127.391 104.807 127.076 104.612C126.765 104.416 126.397 104.318 125.973 104.318C125.505 104.318 125.101 104.434 124.76 104.666C124.422 104.895 124.161 105.193 123.979 105.561C123.797 105.929 123.706 106.323 123.706 106.744V107.42C123.706 107.997 123.805 108.486 124.004 108.887C124.206 109.285 124.486 109.588 124.844 109.797C125.202 110.002 125.618 110.105 126.092 110.105C126.4 110.105 126.679 110.062 126.927 109.976C127.179 109.886 127.396 109.754 127.578 109.578C127.761 109.399 127.902 109.177 128.001 108.912L129.135 109.23C129.015 109.615 128.815 109.953 128.533 110.244C128.251 110.533 127.903 110.758 127.489 110.92C127.075 111.08 126.609 111.159 126.092 111.159ZM134.36 103.364V104.358H130.402V103.364H134.36ZM131.556 101.534H132.729V108.812C132.729 109.144 132.777 109.393 132.873 109.558C132.973 109.721 133.099 109.83 133.251 109.886C133.407 109.939 133.571 109.966 133.743 109.966C133.873 109.966 133.979 109.959 134.061 109.946C134.144 109.929 134.211 109.916 134.26 109.906L134.499 110.96C134.419 110.99 134.308 111.02 134.166 111.05C134.023 111.083 133.843 111.099 133.624 111.099C133.292 111.099 132.968 111.028 132.65 110.886C132.335 110.743 132.073 110.526 131.864 110.234C131.658 109.943 131.556 109.575 131.556 109.131V101.534ZM140.937 107.878V103.364H142.11V111H140.937V109.707H140.858C140.679 110.095 140.4 110.425 140.022 110.697C139.645 110.965 139.167 111.099 138.591 111.099C138.113 111.099 137.689 110.995 137.318 110.786C136.947 110.574 136.655 110.256 136.443 109.832C136.231 109.404 136.125 108.866 136.125 108.216V103.364H137.298V108.136C137.298 108.693 137.454 109.137 137.765 109.469C138.08 109.8 138.481 109.966 138.968 109.966C139.26 109.966 139.557 109.891 139.858 109.742C140.163 109.593 140.418 109.364 140.624 109.056C140.833 108.748 140.937 108.355 140.937 107.878ZM144.259 111V103.364H145.393V104.517H145.472C145.612 104.139 145.864 103.833 146.228 103.597C146.593 103.362 147.004 103.244 147.461 103.244C147.547 103.244 147.655 103.246 147.784 103.249C147.914 103.253 148.011 103.258 148.078 103.264V104.457C148.038 104.447 147.947 104.433 147.804 104.413C147.665 104.389 147.517 104.378 147.362 104.378C146.99 104.378 146.659 104.456 146.367 104.612C146.079 104.764 145.85 104.976 145.681 105.248C145.516 105.516 145.433 105.823 145.433 106.168V111H144.259ZM31.321 135.179C30.8371 135.179 30.398 135.088 30.0036 134.906C29.6091 134.72 29.2959 134.453 29.0639 134.105C28.8319 133.754 28.7159 133.33 28.7159 132.832C28.7159 132.395 28.8021 132.04 28.9744 131.768C29.1468 131.493 29.3771 131.278 29.6655 131.122C29.9538 130.966 30.272 130.85 30.62 130.774C30.9714 130.695 31.3243 130.632 31.679 130.585C32.143 130.526 32.5192 130.481 32.8075 130.451C33.0992 130.418 33.3113 130.363 33.4439 130.287C33.5798 130.211 33.6477 130.078 33.6477 129.889V129.849C33.6477 129.359 33.5135 128.978 33.245 128.706C32.9799 128.434 32.5772 128.298 32.0369 128.298C31.4768 128.298 31.0376 128.421 30.7195 128.666C30.4013 128.911 30.1776 129.173 30.0483 129.452L28.9347 129.054C29.1335 128.59 29.3987 128.229 29.7301 127.97C30.0649 127.708 30.4295 127.526 30.8239 127.423C31.2216 127.317 31.6127 127.264 31.9972 127.264C32.2424 127.264 32.5241 127.294 32.8423 127.354C33.1638 127.41 33.4737 127.528 33.772 127.707C34.0736 127.886 34.3239 128.156 34.5227 128.517C34.7216 128.878 34.821 129.362 34.821 129.969V135H33.6477V133.966H33.5881C33.5085 134.132 33.3759 134.309 33.1903 134.498C33.0047 134.687 32.7578 134.848 32.4496 134.98C32.1413 135.113 31.7652 135.179 31.321 135.179ZM31.5 134.125C31.964 134.125 32.3551 134.034 32.6733 133.852C32.9948 133.669 33.2367 133.434 33.3991 133.146C33.5649 132.857 33.6477 132.554 33.6477 132.236V131.162C33.598 131.222 33.4886 131.276 33.3196 131.326C33.1539 131.372 32.9616 131.414 32.7429 131.45C32.5275 131.483 32.317 131.513 32.1115 131.54C31.9093 131.563 31.7453 131.583 31.6193 131.599C31.3144 131.639 31.0294 131.704 30.7642 131.793C30.5024 131.879 30.2902 132.01 30.1278 132.186C29.9688 132.358 29.8892 132.594 29.8892 132.892C29.8892 133.3 30.04 133.608 30.3416 133.817C30.6465 134.022 31.0327 134.125 31.5 134.125ZM39.8461 135.159C39.2097 135.159 38.6479 134.998 38.1607 134.677C37.6735 134.352 37.2923 133.895 37.0172 133.305C36.7421 132.711 36.6046 132.01 36.6046 131.202C36.6046 130.4 36.7421 129.704 37.0172 129.114C37.2923 128.524 37.6751 128.068 38.1657 127.746C38.6562 127.425 39.223 127.264 39.8659 127.264C40.3631 127.264 40.7559 127.347 41.0442 127.513C41.3359 127.675 41.5579 127.861 41.7104 128.07C41.8662 128.275 41.9872 128.444 42.0733 128.577H42.1728V124.818H43.3461V135H42.2125V133.827H42.0733C41.9872 133.966 41.8645 134.142 41.7054 134.354C41.5463 134.562 41.3193 134.75 41.0243 134.915C40.7293 135.078 40.3366 135.159 39.8461 135.159ZM40.0051 134.105C40.4758 134.105 40.8735 133.982 41.1983 133.737C41.5231 133.489 41.7701 133.146 41.9391 132.708C42.1081 132.267 42.1926 131.759 42.1926 131.182C42.1926 130.612 42.1098 130.113 41.9441 129.685C41.7784 129.254 41.5331 128.92 41.2083 128.681C40.8835 128.439 40.4824 128.318 40.0051 128.318C39.508 128.318 39.0937 128.446 38.7623 128.701C38.4341 128.953 38.1872 129.296 38.0215 129.73C37.8591 130.161 37.7779 130.645 37.7779 131.182C37.7779 131.725 37.8607 132.219 38.0265 132.663C38.1955 133.104 38.4441 133.455 38.7722 133.717C39.1036 133.976 39.5146 134.105 40.0051 134.105ZM45.6578 135V127.364H46.8311V135H45.6578ZM46.2544 126.091C46.0257 126.091 45.8285 126.013 45.6628 125.857C45.5004 125.701 45.4192 125.514 45.4192 125.295C45.4192 125.077 45.5004 124.889 45.6628 124.734C45.8285 124.578 46.0257 124.5 46.2544 124.5C46.4831 124.5 46.6787 124.578 46.8411 124.734C47.0068 124.889 47.0897 125.077 47.0897 125.295C47.0897 125.514 47.0068 125.701 46.8411 125.857C46.6787 126.013 46.4831 126.091 46.2544 126.091ZM48.9801 137.864V127.364H50.1136V128.577H50.2528C50.339 128.444 50.4583 128.275 50.6108 128.07C50.7666 127.861 50.9886 127.675 51.277 127.513C51.5687 127.347 51.9631 127.264 52.4602 127.264C53.1032 127.264 53.67 127.425 54.1605 127.746C54.651 128.068 55.0339 128.524 55.3089 129.114C55.584 129.704 55.7216 130.4 55.7216 131.202C55.7216 132.01 55.584 132.711 55.3089 133.305C55.0339 133.895 54.6527 134.352 54.1655 134.677C53.6783 134.998 53.1165 135.159 52.4801 135.159C51.9896 135.159 51.5968 135.078 51.3018 134.915C51.0069 134.75 50.7798 134.562 50.6207 134.354C50.4616 134.142 50.339 133.966 50.2528 133.827H50.1534V137.864H48.9801ZM50.1335 131.182C50.1335 131.759 50.218 132.267 50.3871 132.708C50.5561 133.146 50.803 133.489 51.1278 133.737C51.4527 133.982 51.8504 134.105 52.321 134.105C52.8116 134.105 53.2209 133.976 53.549 133.717C53.8804 133.455 54.129 133.104 54.2947 132.663C54.4638 132.219 54.5483 131.725 54.5483 131.182C54.5483 130.645 54.4654 130.161 54.2997 129.73C54.1373 129.296 53.8904 128.953 53.5589 128.701C53.2308 128.446 52.8182 128.318 52.321 128.318C51.8438 128.318 51.4427 128.439 51.1179 128.681C50.7931 128.92 50.5478 129.254 50.3821 129.685C50.2164 130.113 50.1335 130.612 50.1335 131.182ZM57.5114 135V127.364H58.6847V135H57.5114ZM58.108 126.091C57.8793 126.091 57.6821 126.013 57.5163 125.857C57.3539 125.701 57.2727 125.514 57.2727 125.295C57.2727 125.077 57.3539 124.889 57.5163 124.734C57.6821 124.578 57.8793 124.5 58.108 124.5C58.3366 124.5 58.5322 124.578 58.6946 124.734C58.8603 124.889 58.9432 125.077 58.9432 125.295C58.9432 125.514 58.8603 125.701 58.6946 125.857C58.5322 126.013 58.3366 126.091 58.108 126.091ZM66.2427 129.074L65.1887 129.372C65.1225 129.196 65.0247 129.026 64.8954 128.86C64.7695 128.691 64.5971 128.552 64.3784 128.442C64.1596 128.333 63.8796 128.278 63.5382 128.278C63.0708 128.278 62.6814 128.386 62.3699 128.602C62.0616 128.814 61.9075 129.084 61.9075 129.412C61.9075 129.704 62.0136 129.934 62.2257 130.103C62.4378 130.272 62.7692 130.413 63.22 130.526L64.3535 130.804C65.0363 130.97 65.545 131.223 65.8798 131.565C66.2145 131.903 66.3819 132.339 66.3819 132.872C66.3819 133.31 66.256 133.701 66.0041 134.045C65.7555 134.39 65.4075 134.662 64.96 134.861C64.5126 135.06 63.9922 135.159 63.399 135.159C62.6201 135.159 61.9754 134.99 61.465 134.652C60.9546 134.314 60.6315 133.82 60.4956 133.17L61.6092 132.892C61.7153 133.303 61.9158 133.611 62.2108 133.817C62.5091 134.022 62.8985 134.125 63.3791 134.125C63.926 134.125 64.3601 134.009 64.6816 133.777C65.0065 133.542 65.1689 133.26 65.1689 132.932C65.1689 132.667 65.0761 132.445 64.8904 132.266C64.7048 132.083 64.4198 131.947 64.0353 131.858L62.7626 131.56C62.0633 131.394 61.5495 131.137 61.2214 130.789C60.8966 130.438 60.7342 129.999 60.7342 129.472C60.7342 129.041 60.8552 128.66 61.0971 128.328C61.3424 127.997 61.6755 127.737 62.0964 127.548C62.5207 127.359 63.0012 127.264 63.5382 127.264C64.2939 127.264 64.8871 127.43 65.318 127.761C65.7522 128.093 66.0604 128.53 66.2427 129.074ZM71.2504 135.159C70.5344 135.159 69.918 134.99 69.4009 134.652C68.8839 134.314 68.4862 133.848 68.2077 133.255C67.9293 132.662 67.7901 131.984 67.7901 131.222C67.7901 130.446 67.9326 129.762 68.2177 129.168C68.506 128.572 68.9071 128.106 69.4208 127.771C69.9379 127.433 70.5411 127.264 71.2305 127.264C71.7674 127.264 72.2513 127.364 72.6822 127.562C73.113 127.761 73.466 128.04 73.7411 128.398C74.0162 128.756 74.1869 129.173 74.2532 129.651H73.0799C72.9904 129.303 72.7915 128.994 72.4833 128.726C72.1784 128.454 71.7674 128.318 71.2504 128.318C70.793 128.318 70.3919 128.437 70.0472 128.676C69.7058 128.911 69.439 129.245 69.2468 129.675C69.0579 130.103 68.9634 130.605 68.9634 131.182C68.9634 131.772 69.0562 132.286 69.2418 132.723C69.4308 133.161 69.6959 133.5 70.0373 133.742C70.382 133.984 70.7863 134.105 71.2504 134.105C71.5553 134.105 71.832 134.052 72.0806 133.946C72.3292 133.84 72.5397 133.688 72.712 133.489C72.8844 133.29 73.007 133.051 73.0799 132.773H74.2532C74.1869 133.223 74.0228 133.629 73.761 133.991C73.5025 134.349 73.1594 134.634 72.7319 134.846C72.3076 135.055 71.8138 135.159 71.2504 135.159ZM75.9684 135V127.364H77.1417V135H75.9684ZM76.565 126.091C76.3363 126.091 76.1391 126.013 75.9734 125.857C75.811 125.701 75.7298 125.514 75.7298 125.295C75.7298 125.077 75.811 124.889 75.9734 124.734C76.1391 124.578 76.3363 124.5 76.565 124.5C76.7937 124.5 76.9892 124.578 77.1516 124.734C77.3174 124.889 77.4002 125.077 77.4002 125.295C77.4002 125.514 77.3174 125.701 77.1516 125.857C76.9892 126.013 76.7937 126.091 76.565 126.091ZM80.464 130.406V135H79.2907V127.364H80.4242V128.557H80.5236C80.7026 128.169 80.9744 127.857 81.339 127.622C81.7035 127.384 82.1742 127.264 82.7509 127.264C83.2679 127.264 83.7203 127.37 84.1081 127.582C84.4959 127.791 84.7975 128.109 85.013 128.537C85.2284 128.961 85.3361 129.498 85.3361 130.148V135H84.1628V130.227C84.1628 129.627 84.007 129.16 83.6955 128.825C83.3839 128.487 82.9564 128.318 82.4128 128.318C82.0383 128.318 81.7035 128.399 81.4086 128.562C81.1169 128.724 80.8865 128.961 80.7175 129.273C80.5485 129.584 80.464 129.962 80.464 130.406ZM90.5625 138.023C89.9957 138.023 89.5085 137.95 89.1009 137.804C88.6932 137.661 88.3535 137.473 88.0817 137.237C87.8132 137.005 87.5994 136.757 87.4403 136.491L88.375 135.835C88.4811 135.974 88.6153 136.134 88.7777 136.312C88.9401 136.495 89.1622 136.652 89.4439 136.785C89.7289 136.921 90.1018 136.989 90.5625 136.989C91.179 136.989 91.6877 136.839 92.0888 136.541C92.4898 136.243 92.6903 135.776 92.6903 135.139V133.588H92.5909C92.5047 133.727 92.3821 133.9 92.223 134.105C92.0672 134.307 91.8419 134.488 91.5469 134.647C91.2552 134.803 90.8608 134.881 90.3636 134.881C89.7472 134.881 89.1937 134.735 88.7031 134.443C88.2159 134.152 87.8298 133.727 87.5447 133.17C87.263 132.614 87.1222 131.937 87.1222 131.142C87.1222 130.36 87.2597 129.679 87.5348 129.099C87.8099 128.515 88.1927 128.065 88.6832 127.746C89.1738 127.425 89.7405 127.264 90.3835 127.264C90.8807 127.264 91.2751 127.347 91.5668 127.513C91.8617 127.675 92.0871 127.861 92.2429 128.07C92.402 128.275 92.5246 128.444 92.6108 128.577H92.7301V127.364H93.8636V135.219C93.8636 135.875 93.7145 136.409 93.4162 136.82C93.1212 137.234 92.7235 137.537 92.223 137.729C91.7259 137.925 91.1723 138.023 90.5625 138.023ZM90.5227 133.827C90.9934 133.827 91.3911 133.719 91.7159 133.504C92.0407 133.288 92.2876 132.978 92.4567 132.574C92.6257 132.17 92.7102 131.686 92.7102 131.122C92.7102 130.572 92.6274 130.086 92.4616 129.665C92.2959 129.245 92.0507 128.915 91.7259 128.676C91.401 128.437 91 128.318 90.5227 128.318C90.0256 128.318 89.6113 128.444 89.2798 128.696C88.9517 128.948 88.7048 129.286 88.5391 129.71C88.3767 130.134 88.2955 130.605 88.2955 131.122C88.2955 131.652 88.3783 132.121 88.544 132.529C88.7131 132.933 88.9616 133.252 89.2898 133.484C89.6212 133.712 90.0322 133.827 90.5227 133.827ZM103.151 135.159C102.415 135.159 101.78 134.997 101.246 134.672C100.716 134.344 100.307 133.886 100.018 133.3C99.7334 132.71 99.5909 132.024 99.5909 131.241C99.5909 130.459 99.7334 129.77 100.018 129.173C100.307 128.573 100.708 128.106 101.222 127.771C101.739 127.433 102.342 127.264 103.031 127.264C103.429 127.264 103.822 127.33 104.21 127.463C104.597 127.596 104.95 127.811 105.268 128.109C105.587 128.404 105.84 128.795 106.029 129.283C106.218 129.77 106.312 130.37 106.312 131.082V131.58H100.426V130.565H105.119C105.119 130.134 105.033 129.75 104.861 129.412C104.692 129.074 104.45 128.807 104.135 128.612C103.823 128.416 103.455 128.318 103.031 128.318C102.564 128.318 102.16 128.434 101.818 128.666C101.48 128.895 101.22 129.193 101.038 129.561C100.855 129.929 100.764 130.323 100.764 130.744V131.42C100.764 131.997 100.864 132.486 101.062 132.887C101.265 133.285 101.545 133.588 101.903 133.797C102.261 134.002 102.677 134.105 103.151 134.105C103.459 134.105 103.737 134.062 103.986 133.976C104.238 133.886 104.455 133.754 104.637 133.578C104.819 133.399 104.96 133.177 105.06 132.912L106.193 133.23C106.074 133.615 105.873 133.953 105.592 134.244C105.31 134.533 104.962 134.758 104.548 134.92C104.133 135.08 103.668 135.159 103.151 135.159ZM109.271 124.818V135H108.097V124.818H109.271ZM111.42 135V127.364H112.593V135H111.42ZM112.016 126.091C111.787 126.091 111.59 126.013 111.425 125.857C111.262 125.701 111.181 125.514 111.181 125.295C111.181 125.077 111.262 124.889 111.425 124.734C111.59 124.578 111.787 124.5 112.016 124.5C112.245 124.5 112.44 124.578 112.603 124.734C112.769 124.889 112.851 125.077 112.851 125.295C112.851 125.514 112.769 125.701 112.603 125.857C112.44 126.013 112.245 126.091 112.016 126.091ZM118.063 127.364V128.358H114.105V127.364H118.063ZM115.259 125.534H116.432V132.812C116.432 133.144 116.48 133.393 116.576 133.558C116.676 133.721 116.802 133.83 116.954 133.886C117.11 133.939 117.274 133.966 117.446 133.966C117.576 133.966 117.682 133.959 117.765 133.946C117.847 133.929 117.914 133.916 117.963 133.906L118.202 134.96C118.123 134.99 118.011 135.02 117.869 135.05C117.726 135.083 117.546 135.099 117.327 135.099C116.996 135.099 116.671 135.028 116.353 134.886C116.038 134.743 115.776 134.526 115.567 134.234C115.362 133.943 115.259 133.575 115.259 133.131V125.534ZM120.683 135.08C120.438 135.08 120.227 134.992 120.051 134.816C119.876 134.64 119.788 134.43 119.788 134.185C119.788 133.939 119.876 133.729 120.051 133.553C120.227 133.378 120.438 133.29 120.683 133.29C120.928 133.29 121.139 133.378 121.314 133.553C121.49 133.729 121.578 133.939 121.578 134.185C121.578 134.347 121.536 134.496 121.453 134.632C121.374 134.768 121.266 134.877 121.13 134.96C120.998 135.04 120.849 135.08 120.683 135.08ZM128.197 135H126.905L130.643 124.818H131.916L135.655 135H134.362L131.32 126.429H131.24L128.197 135ZM128.675 131.023H133.885V132.116H128.675V131.023ZM139.924 127.364V128.358H135.967V127.364H139.924ZM137.12 125.534H138.294V132.812C138.294 133.144 138.342 133.393 138.438 133.558C138.537 133.721 138.663 133.83 138.816 133.886C138.971 133.939 139.135 133.966 139.308 133.966C139.437 133.966 139.543 133.959 139.626 133.946C139.709 133.929 139.775 133.916 139.825 133.906L140.063 134.96C139.984 134.99 139.873 135.02 139.73 135.05C139.588 135.083 139.407 135.099 139.188 135.099C138.857 135.099 138.532 135.028 138.214 134.886C137.899 134.743 137.637 134.526 137.428 134.234C137.223 133.943 137.12 133.575 137.12 133.131V125.534ZM145.627 127.364H146.8V135.557C146.8 136.027 146.719 136.435 146.556 136.78C146.397 137.125 146.155 137.391 145.83 137.58C145.509 137.769 145.103 137.864 144.612 137.864C144.573 137.864 144.533 137.864 144.493 137.864C144.453 137.864 144.414 137.864 144.374 137.864V136.77C144.414 136.77 144.45 136.77 144.483 136.77C144.516 136.77 144.553 136.77 144.593 136.77C144.95 136.77 145.212 136.664 145.378 136.452C145.544 136.243 145.627 135.945 145.627 135.557V127.364ZM146.203 126.091C145.975 126.091 145.777 126.013 145.612 125.857C145.449 125.701 145.368 125.514 145.368 125.295C145.368 125.077 145.449 124.889 145.612 124.734C145.777 124.578 145.975 124.5 146.203 124.5C146.432 124.5 146.628 124.578 146.79 124.734C146.956 124.889 147.039 125.077 147.039 125.295C147.039 125.514 146.956 125.701 146.79 125.857C146.628 126.013 146.432 126.091 146.203 126.091ZM153.761 131.878V127.364H154.935V135H153.761V133.707H153.682C153.503 134.095 153.224 134.425 152.847 134.697C152.469 134.965 151.991 135.099 151.415 135.099C150.938 135.099 150.513 134.995 150.142 134.786C149.771 134.574 149.479 134.256 149.267 133.832C149.055 133.404 148.949 132.866 148.949 132.216V127.364H150.122V132.136C150.122 132.693 150.278 133.137 150.589 133.469C150.904 133.8 151.305 133.966 151.793 133.966C152.084 133.966 152.381 133.891 152.683 133.742C152.987 133.593 153.243 133.364 153.448 133.056C153.657 132.748 153.761 132.355 153.761 131.878ZM162.493 129.074L161.439 129.372C161.372 129.196 161.275 129.026 161.145 128.86C161.019 128.691 160.847 128.552 160.628 128.442C160.41 128.333 160.13 128.278 159.788 128.278C159.321 128.278 158.931 128.386 158.62 128.602C158.312 128.814 158.157 129.084 158.157 129.412C158.157 129.704 158.264 129.934 158.476 130.103C158.688 130.272 159.019 130.413 159.47 130.526L160.604 130.804C161.286 130.97 161.795 131.223 162.13 131.565C162.465 131.903 162.632 132.339 162.632 132.872C162.632 133.31 162.506 133.701 162.254 134.045C162.006 134.39 161.657 134.662 161.21 134.861C160.763 135.06 160.242 135.159 159.649 135.159C158.87 135.159 158.225 134.99 157.715 134.652C157.205 134.314 156.881 133.82 156.746 133.17L157.859 132.892C157.965 133.303 158.166 133.611 158.461 133.817C158.759 134.022 159.148 134.125 159.629 134.125C160.176 134.125 160.61 134.009 160.932 133.777C161.256 133.542 161.419 133.26 161.419 132.932C161.419 132.667 161.326 132.445 161.14 132.266C160.955 132.083 160.67 131.947 160.285 131.858L159.013 131.56C158.313 131.394 157.8 131.137 157.471 130.789C157.147 130.438 156.984 129.999 156.984 129.472C156.984 129.041 157.105 128.66 157.347 128.328C157.592 127.997 157.925 127.737 158.346 127.548C158.771 127.359 159.251 127.264 159.788 127.264C160.544 127.264 161.137 127.43 161.568 127.761C162.002 128.093 162.31 128.53 162.493 129.074ZM167.719 127.364V128.358H163.762V127.364H167.719ZM164.915 125.534H166.088V132.812C166.088 133.144 166.136 133.393 166.233 133.558C166.332 133.721 166.458 133.83 166.61 133.886C166.766 133.939 166.93 133.966 167.103 133.966C167.232 133.966 167.338 133.959 167.421 133.946C167.504 133.929 167.57 133.916 167.62 133.906L167.858 134.96C167.779 134.99 167.668 135.02 167.525 135.05C167.383 135.083 167.202 135.099 166.983 135.099C166.652 135.099 166.327 135.028 166.009 134.886C165.694 134.743 165.432 134.526 165.223 134.234C165.018 133.943 164.915 133.575 164.915 133.131V125.534ZM172.504 135.159C171.815 135.159 171.21 134.995 170.69 134.667C170.173 134.339 169.768 133.88 169.477 133.29C169.188 132.7 169.044 132.01 169.044 131.222C169.044 130.426 169.188 129.732 169.477 129.138C169.768 128.545 170.173 128.085 170.69 127.756C171.21 127.428 171.815 127.264 172.504 127.264C173.194 127.264 173.797 127.428 174.314 127.756C174.834 128.085 175.239 128.545 175.527 129.138C175.819 129.732 175.964 130.426 175.964 131.222C175.964 132.01 175.819 132.7 175.527 133.29C175.239 133.88 174.834 134.339 174.314 134.667C173.797 134.995 173.194 135.159 172.504 135.159ZM172.504 134.105C173.028 134.105 173.459 133.971 173.797 133.702C174.135 133.434 174.385 133.081 174.548 132.643C174.71 132.206 174.791 131.732 174.791 131.222C174.791 130.711 174.71 130.236 174.548 129.795C174.385 129.354 174.135 128.998 173.797 128.726C173.459 128.454 173.028 128.318 172.504 128.318C171.981 128.318 171.55 128.454 171.212 128.726C170.874 128.998 170.623 129.354 170.461 129.795C170.299 130.236 170.217 130.711 170.217 131.222C170.217 131.732 170.299 132.206 170.461 132.643C170.623 133.081 170.874 133.434 171.212 133.702C171.55 133.971 171.981 134.105 172.504 134.105ZM183.94 135.179C183.456 135.179 183.017 135.088 182.623 134.906C182.228 134.72 181.915 134.453 181.683 134.105C181.451 133.754 181.335 133.33 181.335 132.832C181.335 132.395 181.421 132.04 181.594 131.768C181.766 131.493 181.996 131.278 182.285 131.122C182.573 130.966 182.891 130.85 183.239 130.774C183.59 130.695 183.943 130.632 184.298 130.585C184.762 130.526 185.138 130.481 185.427 130.451C185.718 130.418 185.93 130.363 186.063 130.287C186.199 130.211 186.267 130.078 186.267 129.889V129.849C186.267 129.359 186.133 128.978 185.864 128.706C185.599 128.434 185.196 128.298 184.656 128.298C184.096 128.298 183.657 128.421 183.339 128.666C183.02 128.911 182.797 129.173 182.667 129.452L181.554 129.054C181.753 128.59 182.018 128.229 182.349 127.97C182.684 127.708 183.049 127.526 183.443 127.423C183.841 127.317 184.232 127.264 184.616 127.264C184.862 127.264 185.143 127.294 185.461 127.354C185.783 127.41 186.093 127.528 186.391 127.707C186.693 127.886 186.943 128.156 187.142 128.517C187.341 128.878 187.44 129.362 187.44 129.969V135H186.267V133.966H186.207C186.128 134.132 185.995 134.309 185.809 134.498C185.624 134.687 185.377 134.848 185.069 134.98C184.76 135.113 184.384 135.179 183.94 135.179ZM184.119 134.125C184.583 134.125 184.974 134.034 185.292 133.852C185.614 133.669 185.856 133.434 186.018 133.146C186.184 132.857 186.267 132.554 186.267 132.236V131.162C186.217 131.222 186.108 131.276 185.939 131.326C185.773 131.372 185.581 131.414 185.362 131.45C185.147 131.483 184.936 131.513 184.731 131.54C184.528 131.563 184.364 131.583 184.238 131.599C183.934 131.639 183.648 131.704 183.383 131.793C183.122 131.879 182.909 132.01 182.747 132.186C182.588 132.358 182.508 132.594 182.508 132.892C182.508 133.3 182.659 133.608 182.961 133.817C183.266 134.022 183.652 134.125 184.119 134.125ZM192.903 127.364V128.358H188.945V127.364H192.903ZM190.099 125.534H191.272V132.812C191.272 133.144 191.32 133.393 191.416 133.558C191.516 133.721 191.642 133.83 191.794 133.886C191.95 133.939 192.114 133.966 192.286 133.966C192.415 133.966 192.522 133.959 192.604 133.946C192.687 133.929 192.754 133.916 192.803 133.906L193.042 134.96C192.962 134.99 192.851 135.02 192.709 135.05C192.566 135.083 192.386 135.099 192.167 135.099C191.835 135.099 191.511 135.028 191.192 134.886C190.878 134.743 190.616 134.526 190.407 134.234C190.201 133.943 190.099 133.575 190.099 133.131V125.534ZM29.0739 159V151.364H30.2074V152.517H30.2869C30.4261 152.139 30.678 151.833 31.0426 151.597C31.4072 151.362 31.8182 151.244 32.2756 151.244C32.3617 151.244 32.4695 151.246 32.5987 151.249C32.728 151.253 32.8258 151.258 32.892 151.264V152.457C32.8523 152.447 32.7611 152.433 32.6186 152.413C32.4794 152.389 32.3319 152.378 32.1761 152.378C31.8049 152.378 31.4735 152.456 31.1818 152.612C30.8935 152.764 30.6648 152.976 30.4957 153.248C30.33 153.516 30.2472 153.823 30.2472 154.168V159H29.0739ZM34.2828 159V151.364H35.4561V159H34.2828ZM34.8794 150.091C34.6507 150.091 34.4535 150.013 34.2878 149.857C34.1254 149.701 34.0442 149.514 34.0442 149.295C34.0442 149.077 34.1254 148.889 34.2878 148.734C34.4535 148.578 34.6507 148.5 34.8794 148.5C35.1081 148.5 35.3037 148.578 35.4661 148.734C35.6318 148.889 35.7147 149.077 35.7147 149.295C35.7147 149.514 35.6318 149.701 35.4661 149.857C35.3037 150.013 35.1081 150.091 34.8794 150.091ZM43.0142 153.074L41.9602 153.372C41.8939 153.196 41.7962 153.026 41.6669 152.86C41.541 152.691 41.3686 152.552 41.1499 152.442C40.9311 152.333 40.651 152.278 40.3097 152.278C39.8423 152.278 39.4529 152.386 39.1413 152.602C38.8331 152.814 38.679 153.084 38.679 153.412C38.679 153.704 38.785 153.934 38.9972 154.103C39.2093 154.272 39.5407 154.413 39.9915 154.526L41.125 154.804C41.8078 154.97 42.3165 155.223 42.6513 155.565C42.986 155.903 43.1534 156.339 43.1534 156.872C43.1534 157.31 43.0275 157.701 42.7756 158.045C42.527 158.39 42.179 158.662 41.7315 158.861C41.2841 159.06 40.7637 159.159 40.1705 159.159C39.3916 159.159 38.7469 158.99 38.2365 158.652C37.7261 158.314 37.4029 157.82 37.267 157.17L38.3807 156.892C38.4867 157.303 38.6873 157.611 38.9822 157.817C39.2805 158.022 39.67 158.125 40.1506 158.125C40.6974 158.125 41.1316 158.009 41.4531 157.777C41.7779 157.542 41.9403 157.26 41.9403 156.932C41.9403 156.667 41.8475 156.445 41.6619 156.266C41.4763 156.083 41.1913 155.947 40.8068 155.858L39.5341 155.56C38.8348 155.394 38.321 155.137 37.9929 154.789C37.6681 154.438 37.5057 153.999 37.5057 153.472C37.5057 153.041 37.6267 152.66 37.8686 152.328C38.1139 151.997 38.447 151.737 38.8679 151.548C39.2921 151.359 39.7727 151.264 40.3097 151.264C41.0653 151.264 41.6586 151.43 42.0895 151.761C42.5237 152.093 42.8319 152.53 43.0142 153.074ZM49.7321 155.878V151.364H50.9054V159H49.7321V157.707H49.6525C49.4735 158.095 49.1951 158.425 48.8173 158.697C48.4395 158.965 47.9622 159.099 47.3855 159.099C46.9082 159.099 46.484 158.995 46.1127 158.786C45.7415 158.574 45.4499 158.256 45.2377 157.832C45.0256 157.404 44.9196 156.866 44.9196 156.216V151.364H46.0929V156.136C46.0929 156.693 46.2486 157.137 46.5602 157.469C46.8751 157.8 47.2761 157.966 47.7633 157.966C48.055 157.966 48.3516 157.891 48.6532 157.742C48.9582 157.593 49.2134 157.364 49.4189 157.056C49.6277 156.748 49.7321 156.355 49.7321 155.878ZM58.4634 153.074L57.4094 153.372C57.3432 153.196 57.2454 153.026 57.1161 152.86C56.9902 152.691 56.8178 152.552 56.5991 152.442C56.3803 152.333 56.1003 152.278 55.7589 152.278C55.2915 152.278 54.9021 152.386 54.5906 152.602C54.2823 152.814 54.1282 153.084 54.1282 153.412C54.1282 153.704 54.2343 153.934 54.4464 154.103C54.6585 154.272 54.9899 154.413 55.4407 154.526L56.5742 154.804C57.257 154.97 57.7657 155.223 58.1005 155.565C58.4353 155.903 58.6026 156.339 58.6026 156.872C58.6026 157.31 58.4767 157.701 58.2248 158.045C57.9762 158.39 57.6282 158.662 57.1808 158.861C56.7333 159.06 56.2129 159.159 55.6197 159.159C54.8408 159.159 54.1961 158.99 53.6857 158.652C53.1753 158.314 52.8522 157.82 52.7163 157.17L53.8299 156.892C53.936 157.303 54.1365 157.611 54.4315 157.817C54.7298 158.022 55.1192 158.125 55.5998 158.125C56.1467 158.125 56.5808 158.009 56.9023 157.777C57.2272 157.542 57.3896 157.26 57.3896 156.932C57.3896 156.667 57.2968 156.445 57.1112 156.266C56.9255 156.083 56.6405 155.947 56.256 155.858L54.9833 155.56C54.284 155.394 53.7702 155.137 53.4421 154.789C53.1173 154.438 52.9549 153.999 52.9549 153.472C52.9549 153.041 53.0759 152.66 53.3178 152.328C53.5631 151.997 53.8962 151.737 54.3171 151.548C54.7414 151.359 55.2219 151.264 55.7589 151.264C56.5146 151.264 57.1078 151.43 57.5387 151.761C57.9729 152.093 58.2811 152.53 58.4634 153.074ZM67.508 159.159C66.7722 159.159 66.1375 158.997 65.6039 158.672C65.0736 158.344 64.6642 157.886 64.3759 157.3C64.0908 156.71 63.9483 156.024 63.9483 155.241C63.9483 154.459 64.0908 153.77 64.3759 153.173C64.6642 152.573 65.0653 152.106 65.579 151.771C66.0961 151.433 66.6993 151.264 67.3887 151.264C67.7864 151.264 68.1792 151.33 68.5669 151.463C68.9547 151.596 69.3077 151.811 69.6259 152.109C69.9441 152.404 70.1976 152.795 70.3865 153.283C70.5755 153.77 70.6699 154.37 70.6699 155.082V155.58H64.7836V154.565H69.4767C69.4767 154.134 69.3906 153.75 69.2182 153.412C69.0492 153.074 68.8072 152.807 68.4924 152.612C68.1808 152.416 67.8129 152.318 67.3887 152.318C66.9213 152.318 66.517 152.434 66.1756 152.666C65.8375 152.895 65.5774 153.193 65.3951 153.561C65.2128 153.929 65.1216 154.323 65.1216 154.744V155.42C65.1216 155.997 65.2211 156.486 65.4199 156.887C65.6221 157.285 65.9022 157.588 66.2601 157.797C66.6181 158.002 67.034 158.105 67.508 158.105C67.8162 158.105 68.0946 158.062 68.3432 157.976C68.5951 157.886 68.8122 157.754 68.9945 157.578C69.1768 157.399 69.3176 157.177 69.4171 156.912L70.5506 157.23C70.4313 157.615 70.2308 157.953 69.949 158.244C69.6673 158.533 69.3193 158.758 68.905 158.92C68.4907 159.08 68.025 159.159 67.508 159.159ZM73.628 148.818V159H72.4547V148.818H73.628ZM75.777 159V151.364H76.9503V159H75.777ZM76.3736 150.091C76.1449 150.091 75.9477 150.013 75.782 149.857C75.6196 149.701 75.5384 149.514 75.5384 149.295C75.5384 149.077 75.6196 148.889 75.782 148.734C75.9477 148.578 76.1449 148.5 76.3736 148.5C76.6023 148.5 76.7978 148.578 76.9602 148.734C77.1259 148.889 77.2088 149.077 77.2088 149.295C77.2088 149.514 77.1259 149.701 76.9602 149.857C76.7978 150.013 76.6023 150.091 76.3736 150.091ZM82.4203 151.364V152.358H78.4629V151.364H82.4203ZM79.6163 149.534H80.7896V156.812C80.7896 157.144 80.8377 157.393 80.9338 157.558C81.0332 157.721 81.1592 157.83 81.3116 157.886C81.4674 157.939 81.6315 157.966 81.8038 157.966C81.9331 157.966 82.0391 157.959 82.122 157.946C82.2048 157.929 82.2711 157.916 82.3208 157.906L82.5595 158.96C82.4799 158.99 82.3689 159.02 82.2264 159.05C82.0839 159.083 81.9032 159.099 81.6845 159.099C81.353 159.099 81.0282 159.028 80.71 158.886C80.3952 158.743 80.1333 158.526 79.9245 158.234C79.719 157.943 79.6163 157.575 79.6163 157.131V149.534ZM89.296 154.406V159H88.1227V151.364H89.2562V152.557H89.3556C89.5346 152.169 89.8064 151.857 90.171 151.622C90.5356 151.384 91.0062 151.264 91.5829 151.264C92.1 151.264 92.5524 151.37 92.9402 151.582C93.3279 151.791 93.6296 152.109 93.845 152.537C94.0604 152.961 94.1681 153.498 94.1681 154.148V159H92.9949V154.227C92.9949 153.627 92.8391 153.16 92.5275 152.825C92.216 152.487 91.7884 152.318 91.2449 152.318C90.8703 152.318 90.5356 152.399 90.2406 152.562C89.9489 152.724 89.7186 152.961 89.5495 153.273C89.3805 153.584 89.296 153.962 89.296 154.406ZM96.3121 159V151.364H97.4854V159H96.3121ZM96.9087 150.091C96.68 150.091 96.4828 150.013 96.3171 149.857C96.1547 149.701 96.0735 149.514 96.0735 149.295C96.0735 149.077 96.1547 148.889 96.3171 148.734C96.4828 148.578 96.68 148.5 96.9087 148.5C97.1374 148.5 97.333 148.578 97.4954 148.734C97.6611 148.889 97.744 149.077 97.744 149.295C97.744 149.514 97.6611 149.701 97.4954 149.857C97.333 150.013 97.1374 150.091 96.9087 150.091ZM99.7935 159V148.818H100.967V152.577H101.066C101.152 152.444 101.272 152.275 101.424 152.07C101.58 151.861 101.802 151.675 102.09 151.513C102.382 151.347 102.776 151.264 103.274 151.264C103.917 151.264 104.483 151.425 104.974 151.746C105.464 152.068 105.847 152.524 106.122 153.114C106.397 153.704 106.535 154.4 106.535 155.202C106.535 156.01 106.397 156.711 106.122 157.305C105.847 157.895 105.466 158.352 104.979 158.677C104.492 158.998 103.93 159.159 103.294 159.159C102.803 159.159 102.41 159.078 102.115 158.915C101.82 158.75 101.593 158.562 101.434 158.354C101.275 158.142 101.152 157.966 101.066 157.827H100.927V159H99.7935ZM100.947 155.182C100.947 155.759 101.031 156.267 101.2 156.708C101.369 157.146 101.616 157.489 101.941 157.737C102.266 157.982 102.664 158.105 103.134 158.105C103.625 158.105 104.034 157.976 104.362 157.717C104.694 157.455 104.942 157.104 105.108 156.663C105.277 156.219 105.362 155.725 105.362 155.182C105.362 154.645 105.279 154.161 105.113 153.73C104.951 153.296 104.704 152.953 104.372 152.701C104.044 152.446 103.632 152.318 103.134 152.318C102.657 152.318 102.256 152.439 101.931 152.681C101.606 152.92 101.361 153.254 101.195 153.685C101.03 154.113 100.947 154.612 100.947 155.182ZM109.503 154.406V159H108.33V148.818H109.503V152.557H109.602C109.781 152.162 110.05 151.849 110.408 151.617C110.769 151.382 111.25 151.264 111.85 151.264C112.37 151.264 112.826 151.369 113.217 151.577C113.608 151.783 113.911 152.099 114.127 152.527C114.345 152.951 114.455 153.491 114.455 154.148V159H113.281V154.227C113.281 153.621 113.124 153.152 112.809 152.82C112.498 152.486 112.065 152.318 111.512 152.318C111.127 152.318 110.782 152.399 110.477 152.562C110.176 152.724 109.937 152.961 109.762 153.273C109.589 153.584 109.503 153.962 109.503 154.406ZM122.786 159.179C122.302 159.179 121.863 159.088 121.468 158.906C121.074 158.72 120.761 158.453 120.529 158.105C120.297 157.754 120.181 157.33 120.181 156.832C120.181 156.395 120.267 156.04 120.439 155.768C120.612 155.493 120.842 155.278 121.13 155.122C121.419 154.966 121.737 154.85 122.085 154.774C122.436 154.695 122.789 154.632 123.144 154.585C123.608 154.526 123.984 154.481 124.272 154.451C124.564 154.418 124.776 154.363 124.909 154.287C125.045 154.211 125.113 154.078 125.113 153.889V153.849C125.113 153.359 124.978 152.978 124.71 152.706C124.445 152.434 124.042 152.298 123.502 152.298C122.942 152.298 122.502 152.421 122.184 152.666C121.866 152.911 121.642 153.173 121.513 153.452L120.4 153.054C120.598 152.59 120.864 152.229 121.195 151.97C121.53 151.708 121.894 151.526 122.289 151.423C122.686 151.317 123.078 151.264 123.462 151.264C123.707 151.264 123.989 151.294 124.307 151.354C124.629 151.41 124.939 151.528 125.237 151.707C125.538 151.886 125.789 152.156 125.988 152.517C126.186 152.878 126.286 153.362 126.286 153.969V159H125.113V157.966H125.053C124.973 158.132 124.841 158.309 124.655 158.498C124.47 158.687 124.223 158.848 123.914 158.98C123.606 159.113 123.23 159.179 122.786 159.179ZM122.965 158.125C123.429 158.125 123.82 158.034 124.138 157.852C124.46 157.669 124.702 157.434 124.864 157.146C125.03 156.857 125.113 156.554 125.113 156.236V155.162C125.063 155.222 124.953 155.276 124.784 155.326C124.619 155.372 124.426 155.414 124.208 155.45C123.992 155.483 123.782 155.513 123.576 155.54C123.374 155.563 123.21 155.583 123.084 155.599C122.779 155.639 122.494 155.704 122.229 155.793C121.967 155.879 121.755 156.01 121.593 156.186C121.434 156.358 121.354 156.594 121.354 156.892C121.354 157.3 121.505 157.608 121.806 157.817C122.111 158.022 122.498 158.125 122.965 158.125ZM131.53 159.159C130.814 159.159 130.197 158.99 129.68 158.652C129.163 158.314 128.765 157.848 128.487 157.255C128.209 156.662 128.069 155.984 128.069 155.222C128.069 154.446 128.212 153.762 128.497 153.168C128.785 152.572 129.186 152.106 129.7 151.771C130.217 151.433 130.82 151.264 131.51 151.264C132.047 151.264 132.531 151.364 132.961 151.562C133.392 151.761 133.745 152.04 134.02 152.398C134.296 152.756 134.466 153.173 134.532 153.651H133.359C133.27 153.303 133.071 152.994 132.763 152.726C132.458 152.454 132.047 152.318 131.53 152.318C131.072 152.318 130.671 152.437 130.327 152.676C129.985 152.911 129.718 153.245 129.526 153.675C129.337 154.103 129.243 154.605 129.243 155.182C129.243 155.772 129.336 156.286 129.521 156.723C129.71 157.161 129.975 157.5 130.317 157.742C130.661 157.984 131.066 158.105 131.53 158.105C131.835 158.105 132.111 158.052 132.36 157.946C132.608 157.84 132.819 157.688 132.991 157.489C133.164 157.29 133.286 157.051 133.359 156.773H134.532C134.466 157.223 134.302 157.629 134.04 157.991C133.782 158.349 133.439 158.634 133.011 158.846C132.587 159.055 132.093 159.159 131.53 159.159ZM139.35 159.159C138.634 159.159 138.018 158.99 137.501 158.652C136.983 158.314 136.586 157.848 136.307 157.255C136.029 156.662 135.89 155.984 135.89 155.222C135.89 154.446 136.032 153.762 136.317 153.168C136.606 152.572 137.007 152.106 137.52 151.771C138.037 151.433 138.641 151.264 139.33 151.264C139.867 151.264 140.351 151.364 140.782 151.562C141.213 151.761 141.566 152.04 141.841 152.398C142.116 152.756 142.287 153.173 142.353 153.651H141.18C141.09 153.303 140.891 152.994 140.583 152.726C140.278 152.454 139.867 152.318 139.35 152.318C138.893 152.318 138.492 152.437 138.147 152.676C137.805 152.911 137.539 153.245 137.346 153.675C137.157 154.103 137.063 154.605 137.063 155.182C137.063 155.772 137.156 156.286 137.341 156.723C137.53 157.161 137.796 157.5 138.137 157.742C138.482 157.984 138.886 158.105 139.35 158.105C139.655 158.105 139.932 158.052 140.18 157.946C140.429 157.84 140.639 157.688 140.812 157.489C140.984 157.29 141.107 157.051 141.18 156.773H142.353C142.287 157.223 142.122 157.629 141.861 157.991C141.602 158.349 141.259 158.634 140.831 158.846C140.407 159.055 139.913 159.159 139.35 159.159ZM148.881 155.878V151.364H150.054V159H148.881V157.707H148.801C148.622 158.095 148.344 158.425 147.966 158.697C147.588 158.965 147.111 159.099 146.534 159.099C146.057 159.099 145.632 158.995 145.261 158.786C144.89 158.574 144.598 158.256 144.386 157.832C144.174 157.404 144.068 156.866 144.068 156.216V151.364H145.241V156.136C145.241 156.693 145.397 157.137 145.709 157.469C146.023 157.8 146.425 157.966 146.912 157.966C147.203 157.966 147.5 157.891 147.802 157.742C148.107 157.593 148.362 157.364 148.567 157.056C148.776 156.748 148.881 156.355 148.881 155.878ZM152.203 159V151.364H153.336V152.557H153.436C153.595 152.149 153.852 151.833 154.206 151.607C154.561 151.379 154.987 151.264 155.484 151.264C155.988 151.264 156.407 151.379 156.742 151.607C157.08 151.833 157.343 152.149 157.532 152.557H157.612C157.807 152.162 158.101 151.849 158.492 151.617C158.883 151.382 159.352 151.264 159.899 151.264C160.582 151.264 161.14 151.478 161.574 151.906C162.008 152.33 162.225 152.991 162.225 153.889V159H161.052V153.889C161.052 153.326 160.898 152.923 160.59 152.681C160.282 152.439 159.919 152.318 159.501 152.318C158.964 152.318 158.548 152.481 158.253 152.805C157.958 153.127 157.811 153.535 157.811 154.028V159H156.618V153.77C156.618 153.336 156.477 152.986 156.195 152.721C155.913 152.452 155.55 152.318 155.106 152.318C154.801 152.318 154.516 152.399 154.251 152.562C153.989 152.724 153.777 152.95 153.615 153.238C153.456 153.523 153.376 153.853 153.376 154.227V159H152.203ZM169.78 153.074L168.726 153.372C168.66 153.196 168.562 153.026 168.433 152.86C168.307 152.691 168.134 152.552 167.915 152.442C167.697 152.333 167.417 152.278 167.075 152.278C166.608 152.278 166.219 152.386 165.907 152.602C165.599 152.814 165.445 153.084 165.445 153.412C165.445 153.704 165.551 153.934 165.763 154.103C165.975 154.272 166.306 154.413 166.757 154.526L167.891 154.804C168.573 154.97 169.082 155.223 169.417 155.565C169.752 155.903 169.919 156.339 169.919 156.872C169.919 157.31 169.793 157.701 169.541 158.045C169.293 158.39 168.945 158.662 168.497 158.861C168.05 159.06 167.529 159.159 166.936 159.159C166.157 159.159 165.513 158.99 165.002 158.652C164.492 158.314 164.169 157.82 164.033 157.17L165.146 156.892C165.252 157.303 165.453 157.611 165.748 157.817C166.046 158.022 166.436 158.125 166.916 158.125C167.463 158.125 167.897 158.009 168.219 157.777C168.544 157.542 168.706 157.26 168.706 156.932C168.706 156.667 168.613 156.445 168.428 156.266C168.242 156.083 167.957 155.947 167.572 155.858L166.3 155.56C165.6 155.394 165.087 155.137 164.759 154.789C164.434 154.438 164.271 153.999 164.271 153.472C164.271 153.041 164.392 152.66 164.634 152.328C164.879 151.997 165.213 151.737 165.634 151.548C166.058 151.359 166.538 151.264 167.075 151.264C167.831 151.264 168.424 151.43 168.855 151.761C169.289 152.093 169.598 152.53 169.78 153.074ZM173.932 159.179C173.448 159.179 173.009 159.088 172.615 158.906C172.22 158.72 171.907 158.453 171.675 158.105C171.443 157.754 171.327 157.33 171.327 156.832C171.327 156.395 171.413 156.04 171.586 155.768C171.758 155.493 171.988 155.278 172.277 155.122C172.565 154.966 172.883 154.85 173.231 154.774C173.583 154.695 173.936 154.632 174.29 154.585C174.754 154.526 175.131 154.481 175.419 154.451C175.711 154.418 175.923 154.363 176.055 154.287C176.191 154.211 176.259 154.078 176.259 153.889V153.849C176.259 153.359 176.125 152.978 175.856 152.706C175.591 152.434 175.189 152.298 174.648 152.298C174.088 152.298 173.649 152.421 173.331 152.666C173.013 152.911 172.789 153.173 172.66 153.452L171.546 153.054C171.745 152.59 172.01 152.229 172.341 151.97C172.676 151.708 173.041 151.526 173.435 151.423C173.833 151.317 174.224 151.264 174.608 151.264C174.854 151.264 175.135 151.294 175.454 151.354C175.775 151.41 176.085 151.528 176.383 151.707C176.685 151.886 176.935 152.156 177.134 152.517C177.333 152.878 177.432 153.362 177.432 153.969V159H176.259V157.966H176.199C176.12 158.132 175.987 158.309 175.802 158.498C175.616 158.687 175.369 158.848 175.061 158.98C174.753 159.113 174.376 159.179 173.932 159.179ZM174.111 158.125C174.575 158.125 174.966 158.034 175.285 157.852C175.606 157.669 175.848 157.434 176.01 157.146C176.176 156.857 176.259 156.554 176.259 156.236V155.162C176.209 155.222 176.1 155.276 175.931 155.326C175.765 155.372 175.573 155.414 175.354 155.45C175.139 155.483 174.928 155.513 174.723 155.54C174.521 155.563 174.357 155.583 174.231 155.599C173.926 155.639 173.641 155.704 173.376 155.793C173.114 155.879 172.902 156.01 172.739 156.186C172.58 156.358 172.501 156.594 172.501 156.892C172.501 157.3 172.651 157.608 172.953 157.817C173.258 158.022 173.644 158.125 174.111 158.125ZM180.747 154.406V159H179.574V151.364H180.707V152.557H180.807C180.986 152.169 181.258 151.857 181.622 151.622C181.987 151.384 182.457 151.264 183.034 151.264C183.551 151.264 184.004 151.37 184.391 151.582C184.779 151.791 185.081 152.109 185.296 152.537C185.512 152.961 185.619 153.498 185.619 154.148V159H184.446V154.227C184.446 153.627 184.29 153.16 183.979 152.825C183.667 152.487 183.24 152.318 182.696 152.318C182.321 152.318 181.987 152.399 181.692 152.562C181.4 152.724 181.17 152.961 181.001 153.273C180.832 153.584 180.747 153.962 180.747 154.406ZM189.513 157.608L189.434 158.145C189.377 158.523 189.291 158.927 189.175 159.358C189.063 159.789 188.945 160.195 188.822 160.576C188.7 160.957 188.599 161.26 188.519 161.486H187.624C187.667 161.274 187.724 160.994 187.793 160.646C187.863 160.298 187.932 159.908 188.002 159.477C188.075 159.05 188.135 158.612 188.181 158.165L188.241 157.608H189.513Z" fill="#4A5568"/>
</g>
<defs>
<filter id="filter0_d_5551_27812" x="0.217206" y="0.212515" width="237.36" height="227.632" filterUnits="userSpaceOnUse" color-interpolation-filters="sRGB">
<feFlood flood-opacity="0" result="BackgroundImageFix"/>
<feColorMatrix in="SourceAlpha" type="matrix" values="0 0 0 0 0 0 0 0 0 0 0 0 0 0 0 0 0 0 127 0" result="hardAlpha"/>
<feOffset dx="9.39704" dy="10.1199"/>
<feGaussianBlur stdDeviation="7.58992"/>
<feComposite in2="hardAlpha" operator="out"/>
<feColorMatrix type="matrix" values="0 0 0 0 0.0375 0 0 0 0 0.18975 0 0 0 0 0.3 0 0 0 0.06 0"/>
<feBlend mode="normal" in2="BackgroundImageFix" result="effect1_dropShadow_5551_27812"/>
<feBlend mode="normal" in="SourceGraphic" in2="effect1_dropShadow_5551_27812" result="shape"/>
</filter>
</defs>
</svg>
